<svg width="137" height="132" viewBox="0 0 137 132" fill="none" xmlns="http://www.w3.org/2000/svg">
<g clip-path="url(#clip0_46_640)">
<path d="M121.228 36.0005C131.557 82.4055 80.35 118.851 80.35 118.851C80.35 118.851 59.7622 115.093 40.3615 102.998C40.3615 102.998 25.9057 93.6928 19.0088 84.1439C18.8777 83.9619 60.5295 29.8067 60.5295 29.8067C67.8986 13.8945 73.9831 9.03412 84.8867 6.60717C101.751 2.85342 116.826 16.2191 121.229 36.0003L121.228 36.0005Z" fill="url(#paint0_linear_46_640)"/>
<path d="M121.228 36.0005C131.557 82.4055 80.35 118.851 80.35 118.851C80.35 118.851 59.7622 115.093 40.3615 102.998C40.3615 102.998 25.9057 93.6928 19.0088 84.1439C18.8777 83.9619 60.5295 29.8067 60.5295 29.8067C67.8986 13.8945 73.9831 9.03412 84.8867 6.60717C101.751 2.85342 116.826 16.2191 121.229 36.0003L121.228 36.0005Z" fill="url(#paint1_linear_46_640)"/>
<path d="M60.5312 29.8055C52.569 51.2874 47.749 67.3184 44.8318 78.8133C41.8236 90.6656 26.4474 93.8488 19.0106 84.1428C14.0435 77.6605 10.1707 70.0554 8.19074 61.1598C3.78763 41.3778 13.8779 22.3219 30.7425 18.5682C41.7299 16.1226 52.8783 20.7939 60.5312 29.8055Z" fill="url(#paint2_linear_46_640)"/>
<path d="M60.5312 29.8055C52.569 51.2874 47.749 67.3184 44.8318 78.8133C41.8236 90.6656 26.4474 93.8488 19.0106 84.1428C14.0435 77.6605 10.1707 70.0554 8.19074 61.1598C3.78763 41.3778 13.8779 22.3219 30.7425 18.5682C41.7299 16.1226 52.8783 20.7939 60.5312 29.8055Z" fill="url(#paint3_linear_46_640)"/>
</g>
<defs>
<linearGradient id="paint0_linear_46_640" x1="21.987" y1="55.7004" x2="121.081" y2="66.0736" gradientUnits="userSpaceOnUse">
<stop stop-color="#F20746"/>
<stop offset="1" stop-color="#9E0338"/>
</linearGradient>
<linearGradient id="paint1_linear_46_640" x1="36.5539" y1="51.9309" x2="130.011" y2="100.606" gradientUnits="userSpaceOnUse">
<stop stop-color="#07EAF2"/>
<stop offset="1" stop-color="#03999E"/>
</linearGradient>
<linearGradient id="paint2_linear_46_640" x1="7.01503" y1="51.0844" x2="57.7476" y2="56.3947" gradientUnits="userSpaceOnUse">
<stop stop-color="#B80542"/>
<stop offset="1" stop-color="#9E0338"/>
</linearGradient>
<linearGradient id="paint3_linear_46_640" x1="-1.6001" y1="32.6084" x2="126.086" y2="100.33" gradientUnits="userSpaceOnUse">
<stop stop-color="#0FBCC2"/>
<stop offset="1" stop-color="#03999E"/>
</linearGradient>
<clipPath id="clip0_46_640">
<rect width="115.804" height="108.665" fill="white" transform="translate(0.222656 25.3613) rotate(-12.5484)"/>
</clipPath>
</defs>
</svg>
