<svg width="64" height="64" viewBox="0 0 64 64" fill="none" xmlns="http://www.w3.org/2000/svg">
<path d="M21.9996 61V21.612C21.9996 21.188 22.2696 20.808 22.6696 20.668L29.7656 18.19C32.2976 17.304 33.9996 14.906 33.9996 12.224V5C33.9996 4.448 33.5496 4 32.9996 4C32.4496 4 31.9996 4.448 31.9996 5V12.12C31.9996 14.034 30.7696 15.696 28.9396 16.256L23.3616 17.958C23.2676 17.986 23.1696 18 23.0696 18H12.7096C11.2756 18 9.90555 18.618 8.95755 19.694L6.19555 22.828C3.65555 25.73 3.95355 30.162 6.85555 32.704L10.3396 35.752C10.5736 35.958 10.8276 36 10.9976 36C11.2916 36 11.5716 36.13 11.7616 36.354C11.9516 36.578 12.0336 36.874 11.9836 37.166L7.95755 61.116C7.86555 61.66 7.34955 62.028 6.80555 61.936C6.26155 61.844 5.89355 61.328 5.98555 60.784L9.85555 37.774C9.55555 37.65 9.27355 37.478 9.02555 37.26L5.53955 34.208C1.80555 30.94 1.42555 25.242 4.69355 21.508L7.45755 18.372C8.78755 16.864 10.7016 16 12.7096 16H22.9196L28.3536 14.342C29.3376 14.042 29.9996 13.148 29.9996 12.12V5C29.9996 3.346 31.3456 2 32.9996 2C34.6536 2 35.9996 3.346 35.9996 5V12.224C35.9996 15.756 33.7596 18.912 30.4256 20.078L23.9996 22.322V61C23.9996 61.552 23.5516 62 22.9996 62C22.4476 62 21.9996 61.552 21.9996 61Z" fill="#00D2D7"/>
<path d="M10.9995 33.3418C10.7655 33.3418 10.5315 33.2598 10.3415 33.0938L8.17347 31.1958C7.16747 30.3158 6.56547 29.0978 6.47547 27.7658C6.38547 26.4318 6.82147 25.1438 7.70147 24.1398L9.89547 21.6338C10.2335 21.2518 10.7575 21.1278 11.2255 21.3018C11.6955 21.4838 11.9995 21.9238 11.9995 22.4258V26.9998C11.9995 27.5518 11.5515 27.9998 10.9995 27.9998C10.4475 27.9998 9.99947 27.5518 9.99947 26.9998V24.5538L9.20747 25.4598C8.67947 26.0638 8.41747 26.8358 8.47347 27.6338C8.52547 28.4338 8.88747 29.1638 9.49147 29.6918L11.6595 31.5898C12.0755 31.9538 12.1175 32.5858 11.7535 33.0018C11.5535 33.2278 11.2775 33.3418 10.9995 33.3418Z" fill="#00D2D7"/>
<path d="M10.998 37.9999C10.274 37.9999 9.57196 37.7359 9.02596 37.2579L5.53996 34.2079C5.12396 33.8439 5.08196 33.2119 5.44596 32.7959C5.80996 32.3799 6.44196 32.3379 6.85596 32.7019L10.34 35.7499C10.974 36.3039 11.454 36.0019 11.752 35.6579C11.928 35.4559 12.016 35.1979 11.998 34.9319C11.98 34.6659 11.86 34.4219 11.658 34.2459L8.17396 31.1999C7.75796 30.8359 7.71596 30.2039 8.07996 29.7879C8.44396 29.3699 9.07596 29.3319 9.48996 29.6939L12.974 32.7419C13.578 33.2699 13.94 33.9999 13.992 34.7999C14.046 35.5999 13.784 36.3719 13.256 36.9759C12.688 37.6259 11.864 37.9999 10.998 37.9999Z" fill="#00D2D7"/>
<path d="M10.9997 62.0001C10.9177 62.0001 10.8317 61.9901 10.7477 61.9681C10.2117 61.8281 9.89169 61.2821 10.0337 60.7481L16.0337 37.7481C16.1577 37.2781 16.6017 36.9541 17.0837 37.0041C17.5677 37.0461 17.9537 37.4281 17.9957 37.9141L19.9957 60.9141C20.0437 61.4641 19.6357 61.9501 19.0857 61.9981C18.5297 62.0401 18.0497 61.6381 18.0037 61.0881L16.5057 43.8581L11.9657 61.2521C11.8497 61.7021 11.4457 62.0001 10.9997 62.0001Z" fill="#00D2D7"/>
<path d="M18 14C14.692 14 12 11.308 12 8C12 4.692 14.692 2 18 2C21.308 2 24 4.692 24 8C24 11.308 21.308 14 18 14ZM18 4C15.792 4 14 5.792 14 8C14 10.208 15.792 12 18 12C20.208 12 22 10.208 22 8C22 5.792 20.208 4 18 4Z" fill="#00D2D7"/>
<path d="M50.4811 32.5502H47.5131C47.0431 32.5502 46.6371 32.2222 46.5371 31.7622L46.0731 29.6322C45.4471 29.4422 44.8391 29.1902 44.2611 28.8802L42.4211 30.0562C42.0251 30.3082 41.5071 30.2542 41.1751 29.9202L39.0771 27.8222C38.7451 27.4902 38.6891 26.9702 38.9431 26.5742L40.1231 24.7382C39.8111 24.1562 39.5591 23.5502 39.3691 22.9242L37.2411 22.4582C36.7831 22.3582 36.4531 21.9522 36.4531 21.4822V18.5162C36.4531 18.0462 36.7811 17.6402 37.2411 17.5402L39.3691 17.0742C39.5591 16.4482 39.8111 15.8402 40.1231 15.2602L38.9431 13.4222C38.6891 13.0262 38.7451 12.5062 39.0771 12.1742L41.1751 10.0762C41.5071 9.74224 42.0251 9.69024 42.4211 9.94024L44.2611 11.1162C44.8391 10.8042 45.4471 10.5522 46.0731 10.3622L46.5371 8.23624C46.6371 7.77624 47.0431 7.44824 47.5131 7.44824H50.4811C50.9491 7.44824 51.3571 7.77624 51.4571 8.23424L51.9231 10.3622C52.5491 10.5522 53.1551 10.8042 53.7371 11.1162L55.5731 9.94024C55.9711 9.68624 56.4851 9.74224 56.8191 10.0742L58.9171 12.1722C59.2491 12.5042 59.3051 13.0222 59.0511 13.4182L57.8751 15.2562C58.1851 15.8382 58.4391 16.4442 58.6291 17.0702L60.7571 17.5362C61.2151 17.6362 61.5451 18.0422 61.5451 18.5122V21.4802C61.5451 21.9502 61.2171 22.3562 60.7571 22.4562L58.6271 22.9222C58.4391 23.5482 58.1871 24.1542 57.8751 24.7362L59.0511 26.5742C59.3051 26.9702 59.2491 27.4882 58.9171 27.8202L56.8191 29.9202C56.4851 30.2542 55.9611 30.3082 55.5731 30.0542L53.7391 28.8802C53.1571 29.1902 52.5511 29.4422 51.9251 29.6322L51.4591 31.7642C51.3591 32.2242 50.9531 32.5502 50.4811 32.5502ZM48.3191 30.5502H49.6771L50.1031 28.6102C50.1851 28.2342 50.4791 27.9382 50.8531 27.8502C51.6931 27.6542 52.4951 27.3222 53.2411 26.8602C53.5651 26.6562 53.9811 26.6602 54.3051 26.8682L55.9751 27.9402L56.9351 26.9802L55.8651 25.3082C55.6571 24.9842 55.6551 24.5682 55.8571 24.2422C56.3191 23.4962 56.6511 22.6942 56.8451 21.8582C56.9331 21.4822 57.2271 21.1882 57.6071 21.1062L59.5471 20.6822V19.3202L57.6111 18.8962C57.2351 18.8142 56.9391 18.5222 56.8511 18.1482C56.6511 17.3082 56.3171 16.5042 55.8571 15.7602C55.6531 15.4322 55.6551 15.0182 55.8651 14.6942L56.9351 13.0202L55.9751 12.0602L54.3051 13.1302C53.9811 13.3382 53.5651 13.3402 53.2411 13.1382C52.4931 12.6762 51.6891 12.3402 50.8511 12.1442C50.4751 12.0562 50.1851 11.7622 50.1031 11.3862L49.6771 9.45024H48.3171L47.8951 11.3842C47.8131 11.7602 47.5211 12.0562 47.1471 12.1442C46.3031 12.3422 45.5011 12.6762 44.7591 13.1382C44.4351 13.3422 44.0171 13.3382 43.6931 13.1322L42.0191 12.0582L41.0591 13.0182L42.1331 14.6922C42.3411 15.0182 42.3431 15.4322 42.1411 15.7602C41.6811 16.5042 41.3471 17.3082 41.1471 18.1482C41.0591 18.5242 40.7651 18.8142 40.3871 18.8962L38.4511 19.3202V20.6802L40.3871 21.1042C40.7631 21.1862 41.0591 21.4782 41.1471 21.8522C41.3471 22.6922 41.6811 23.4962 42.1411 24.2402C42.3451 24.5682 42.3431 24.9842 42.1331 25.3082L41.0591 26.9802L42.0171 27.9402L43.6911 26.8682C44.0171 26.6622 44.4351 26.6582 44.7571 26.8622C45.4951 27.3222 46.2991 27.6542 47.1431 27.8522C47.5191 27.9382 47.8111 28.2362 47.8931 28.6122L48.3191 30.5502ZM48.9971 25.9522C45.7151 25.9522 43.0471 23.2842 43.0471 20.0022C43.0471 16.7202 45.7151 14.0522 48.9971 14.0522C52.2791 14.0522 54.9471 16.7202 54.9471 20.0022C54.9471 23.2842 52.2791 25.9522 48.9971 25.9522ZM48.9971 16.0522C46.8191 16.0522 45.0471 17.8242 45.0471 20.0022C45.0471 22.1802 46.8191 23.9522 48.9971 23.9522C51.1751 23.9522 52.9471 22.1802 52.9471 20.0022C52.9471 17.8242 51.1751 16.0522 48.9971 16.0522Z" fill="#00D2D7"/>
<path d="M42.798 62H39.2C38.73 62 38.324 61.672 38.224 61.214L37.632 58.508C36.802 58.266 36.004 57.934 35.244 57.516L32.912 59.01C32.516 59.264 31.998 59.208 31.666 58.876L29.124 56.334C28.792 56.002 28.736 55.484 28.99 55.088L30.484 52.756C30.066 51.998 29.734 51.198 29.492 50.368L26.788 49.776C26.33 49.676 26.002 49.27 26.002 48.8V45.2C26.002 44.73 26.328 44.324 26.788 44.224L29.49 43.632C29.734 42.8 30.068 42.002 30.484 41.244L28.99 38.912C28.736 38.516 28.792 37.998 29.124 37.666L31.666 35.124C31.998 34.792 32.516 34.734 32.912 34.99L35.244 36.484C36.006 36.066 36.804 35.734 37.632 35.492L38.224 32.788C38.324 32.328 38.73 32 39.202 32H42.8C43.27 32 43.676 32.328 43.776 32.786L44.368 35.49C45.196 35.732 45.994 36.064 46.756 36.482L49.088 34.988C49.484 34.732 50.002 34.79 50.334 35.122L52.876 37.664C53.208 37.996 53.264 38.514 53.01 38.91L51.516 41.244C51.934 42.006 52.266 42.806 52.506 43.63L55.212 44.222C55.67 44.322 55.998 44.728 55.998 45.198V48.796C55.998 49.266 55.672 49.672 55.212 49.772L52.506 50.364C52.266 51.19 51.934 51.988 51.516 52.75L53.01 55.084C53.264 55.48 53.208 55.998 52.876 56.33L50.334 58.874C50 59.208 49.482 59.262 49.088 59.008L46.756 57.512C45.998 57.928 45.198 58.26 44.368 58.502L43.776 61.208C43.676 61.672 43.27 62 42.798 62ZM40.006 60H41.994L42.544 57.484C42.626 57.108 42.918 56.812 43.292 56.724C44.34 56.478 45.334 56.066 46.25 55.496C46.574 55.292 46.99 55.294 47.316 55.504L49.486 56.896L50.892 55.49L49.502 53.32C49.294 52.996 49.292 52.582 49.492 52.256C50.066 51.33 50.478 50.334 50.72 49.296C50.808 48.92 51.104 48.63 51.482 48.546L53.996 47.996V46.008L51.482 45.458C51.106 45.376 50.808 45.084 50.72 44.708C50.478 43.67 50.066 42.674 49.492 41.748C49.29 41.42 49.294 41.006 49.502 40.684L50.892 38.514L49.486 37.11L47.316 38.5C46.992 38.71 46.578 38.712 46.25 38.508C45.33 37.938 44.336 37.524 43.292 37.28C42.916 37.192 42.626 36.896 42.544 36.52L41.994 34H40.006L39.456 36.514C39.374 36.89 39.082 37.186 38.706 37.274C37.664 37.518 36.67 37.93 35.748 38.502C35.42 38.706 35.006 38.704 34.682 38.494L32.512 37.104L31.106 38.508L32.496 40.678C32.704 41.002 32.706 41.418 32.504 41.746C31.936 42.66 31.522 43.656 31.272 44.706C31.184 45.08 30.89 45.37 30.514 45.452L28.002 46.002V47.99L30.516 48.54C30.892 48.622 31.19 48.914 31.278 49.29C31.522 50.336 31.934 51.332 32.504 52.248C32.708 52.576 32.706 52.992 32.496 53.316L31.106 55.486L32.512 56.89L34.682 55.5C35.008 55.292 35.426 55.29 35.748 55.492C36.666 56.062 37.66 56.476 38.706 56.72C39.082 56.808 39.374 57.102 39.456 57.48L40.006 60ZM40.998 54C37.138 54 33.998 50.86 33.998 47C33.998 43.14 37.138 40 40.998 40C44.858 40 47.998 43.14 47.998 47C47.998 47.552 47.55 48 46.998 48C46.446 48 45.998 47.552 45.998 47C45.998 44.244 43.756 42 40.998 42C38.24 42 35.998 44.244 35.998 47C35.998 49.756 38.24 52 40.998 52C41.332 52 41.658 51.968 41.972 51.906C42.502 51.798 43.038 52.152 43.146 52.694C43.254 53.236 42.9 53.762 42.358 53.868C41.92 53.956 41.464 54 40.998 54Z" fill="#00D2D7"/>
<path d="M46.002 52.1465C46.5542 52.1465 47.002 51.6988 47.002 51.1465C47.002 50.5942 46.5542 50.1465 46.002 50.1465C45.4497 50.1465 45.002 50.5942 45.002 51.1465C45.002 51.6988 45.4497 52.1465 46.002 52.1465Z" fill="#00D2D7"/>
<path d="M39.096 7.182C38.786 7.182 38.478 7.038 38.284 6.766C37.962 6.318 38.066 5.692 38.512 5.37C41.584 3.166 45.208 2 49 2C51.936 2 54.85 2.722 57.424 4.09C57.912 4.348 58.098 4.954 57.838 5.442C57.578 5.932 56.968 6.116 56.486 5.856C54.2 4.642 51.612 4 49 4C45.63 4 42.408 5.036 39.68 6.994C39.502 7.122 39.298 7.182 39.096 7.182Z" fill="#00D2D7"/>
<path d="M35.3196 31.0937C35.0136 31.0937 34.7116 30.9537 34.5156 30.6877C32.8796 28.4737 31.7596 25.8737 31.2796 23.1697C31.1816 22.6277 31.5456 22.1077 32.0876 22.0097C32.6356 21.9097 33.1496 22.2737 33.2476 22.8197C33.6756 25.2197 34.6696 27.5297 36.1236 29.4997C36.4516 29.9437 36.3576 30.5697 35.9136 30.8977C35.7356 31.0317 35.5276 31.0937 35.3196 31.0937Z" fill="#00D2D7"/>
<path d="M53.8997 61.9503C53.6297 61.9503 53.3617 61.8423 53.1657 61.6283C52.7897 61.2223 52.8157 60.5903 53.2197 60.2143C56.8937 56.8183 58.9997 52.0003 58.9997 47.0003C58.9997 43.6403 58.0677 40.3643 56.3057 37.5243C56.0137 37.0543 56.1597 36.4383 56.6277 36.1483C57.0937 35.8603 57.7137 36.0003 58.0037 36.4703C59.9617 39.6283 60.9977 43.2703 60.9977 47.0023C60.9977 52.5583 58.6577 57.9123 54.5777 61.6863C54.3857 61.8623 54.1417 61.9503 53.8997 61.9503Z" fill="#00D2D7"/>
<path d="M61 9C61.5523 9 62 8.55228 62 8C62 7.44772 61.5523 7 61 7C60.4477 7 60 7.44772 60 8C60 8.55228 60.4477 9 61 9Z" fill="#00D2D7"/>
<path d="M55 35C55.5523 35 56 34.5523 56 34C56 33.4477 55.5523 33 55 33C54.4477 33 54 33.4477 54 34C54 34.5523 54.4477 35 55 35Z" fill="#00D2D7"/>
</svg>
