<svg width="64" height="64" viewBox="0 0 64 64" fill="none" xmlns="http://www.w3.org/2000/svg">
<path d="M28.9999 62.0001C28.4479 62.0001 27.9999 61.5521 27.9999 61.0001V18.0001H24.9999C24.6259 18.0001 24.2859 17.7921 24.1139 17.4601C23.9419 17.1281 23.9679 16.7301 24.1819 16.4241L33.1819 3.62413C33.5579 3.09013 34.4439 3.09013 34.8179 3.62413L43.8179 16.4241C44.0319 16.7301 44.0579 17.1301 43.8859 17.4601C43.7139 17.7901 43.3739 18.0001 42.9999 18.0001H39.9999V57.0001C39.9999 57.5521 39.5519 58.0001 38.9999 58.0001C38.4479 58.0001 37.9999 57.5521 37.9999 57.0001V17.0001C37.9999 16.4481 38.4479 16.0001 38.9999 16.0001H41.0739L33.9999 5.93813L26.9259 16.0001H28.9999C29.5519 16.0001 29.9999 16.4481 29.9999 17.0001V61.0001C29.9999 61.5521 29.5519 62.0001 28.9999 62.0001Z" fill="#00D2D7"/>
<path d="M39 62C39.5523 62 40 61.5523 40 61C40 60.4477 39.5523 60 39 60C38.4477 60 38 60.4477 38 61C38 61.5523 38.4477 62 39 62Z" fill="#00D2D7"/>
<path d="M46.9999 62.0001C46.4479 62.0001 45.9999 61.5521 45.9999 61.0001V38.0001H42.9999C42.6259 38.0001 42.2859 37.7921 42.1139 37.4601C41.9419 37.1281 41.9679 36.7301 42.1819 36.4241L51.1819 23.6241C51.5579 23.0901 52.4439 23.0901 52.8179 23.6241L61.8179 36.4241C62.0319 36.7301 62.0579 37.1301 61.8859 37.4601C61.7139 37.7901 61.3739 38.0001 60.9999 38.0001H57.9999V57.0001C57.9999 57.5521 57.5519 58.0001 56.9999 58.0001C56.4479 58.0001 55.9999 57.5521 55.9999 57.0001V37.0001C55.9999 36.4481 56.4479 36.0001 56.9999 36.0001H59.0739L51.9999 25.9381L44.9259 36.0001H46.9999C47.5519 36.0001 47.9999 36.4481 47.9999 37.0001V61.0001C47.9999 61.5521 47.5519 62.0001 46.9999 62.0001Z" fill="#00D2D7"/>
<path d="M57 62C57.5523 62 58 61.5523 58 61C58 60.4477 57.5523 60 57 60C56.4477 60 56 60.4477 56 61C56 61.5523 56.4477 62 57 62Z" fill="#00D2D7"/>
<path d="M3.00208 62C2.94208 62 2.88008 61.996 2.82008 61.984C2.27808 61.886 1.91808 61.364 2.01608 60.822L6.01608 38.822L6.00208 29.9C3.72008 29.436 2.00008 27.416 2.00008 25V22C2.00008 18.692 4.69208 16 8.00008 16H17.0001C20.8601 16 24.0001 19.14 24.0001 23V25C24.0001 25.88 23.7681 26.748 23.3281 27.504C22.6061 28.75 21.3801 29.612 20.0001 29.898V61C20.0001 61.552 19.5521 62 19.0001 62C18.4481 62 18.0001 61.552 18.0001 61V29C18.0001 28.448 18.4481 28 19.0001 28C20.0661 28 21.0601 27.426 21.5981 26.502C21.8621 26.048 22.0001 25.528 22.0001 25V23C22.0001 20.244 19.7581 18 17.0001 18H8.00008C5.79408 18 4.00008 19.794 4.00008 22V25C4.00008 26.654 5.34608 28 7.00008 28C7.55208 28 8.00008 28.448 8.00008 29V39L3.98408 61.178C3.89608 61.662 3.47408 62 3.00208 62Z" fill="#00D2D7"/>
<path d="M13 14C9.692 14 7 11.308 7 8C7 4.692 9.692 2 13 2C16.308 2 19 4.692 19 8C19 11.308 16.308 14 13 14ZM13 4C10.792 4 9 5.794 9 8C9 10.208 10.792 12 13 12C15.208 12 17 10.208 17 8C17 5.794 15.208 4 13 4Z" fill="#00D2D7"/>
<path d="M19 26.9997C18.448 26.9997 18 26.5517 18 25.9997V25.3617C18 25.0617 17.874 24.7897 17.644 24.5977C17.418 24.4057 17.128 24.3277 16.838 24.3757L9.492 25.5977C8.62 25.7397 7.734 25.4977 7.06 24.9277C6.386 24.3557 6 23.5217 6 22.6377C6 22.0857 6.448 21.6377 7 21.6377C7.552 21.6377 8 22.0857 8 22.6377C8 22.9357 8.126 23.2077 8.354 23.3997C8.58 23.5937 8.872 23.6717 9.164 23.6237L16.508 22.4017C17.374 22.2537 18.26 22.4957 18.938 23.0677C19.614 23.6397 20 24.4757 20 25.3617V25.9997C20 26.5517 19.552 26.9997 19 26.9997Z" fill="#00D2D7"/>
<path d="M6.99969 62.0001C6.91769 62.0001 6.83169 61.9901 6.74769 61.9681C6.21169 61.8281 5.89169 61.2821 6.03369 60.7481L12.0337 37.7481C12.1577 37.2781 12.6097 36.9541 13.0837 37.0041C13.5677 37.0461 13.9537 37.4281 13.9957 37.9141L15.9957 60.9141C16.0437 61.4641 15.6357 61.9501 15.0857 61.9981C14.5437 62.0401 14.0497 61.6381 14.0037 61.0881L12.5057 43.8581L7.96569 61.2521C7.84969 61.7021 7.44569 62.0001 6.99969 62.0001Z" fill="#00D2D7"/>
<path d="M19 30H11C10.448 30 10 29.552 10 29C10 28.448 10.448 28 11 28H19C19.552 28 20 28.448 20 29C20 29.552 19.552 30 19 30Z" fill="#00D2D7"/>
</svg>
