<svg width="64" height="64" viewBox="0 0 64 64" fill="none" xmlns="http://www.w3.org/2000/svg">
<path d="M51 16C47.692 16 45 13.308 45 10C45 6.692 47.692 4 51 4C54.308 4 57 6.692 57 10C57 13.308 54.308 16 51 16ZM51 6C48.794 6 47 7.794 47 10C47 12.206 48.794 14 51 14C53.206 14 55 12.206 55 10C55 7.794 53.206 6 51 6Z" fill="#00D2D7"/>
<path d="M61 37C60.448 37 60 36.552 60 36V25C60 22.75 58.154 20 56 20H47C46.448 20 46 19.552 46 19C46 18.448 46.448 18 47 18H56C59.378 18 62 21.762 62 25V36C62 36.552 61.552 37 61 37Z" fill="#00D2D7"/>
<path d="M57 44C56.448 44 56 43.552 56 43V34C56 33.448 56.448 33 57 33C57.552 33 58 33.448 58 34V43C58 43.552 57.552 44 57 44Z" fill="#00D2D7"/>
<path d="M59 40C57.346 40 56 38.654 56 37V27C56 26.448 56.448 26 57 26C57.552 26 58 26.448 58 27V37C58 37.55 58.45 38 59 38C59.55 38 60 37.55 60 37V27C60 26.448 60.448 26 61 26C61.552 26 62 26.448 62 27V37C62 38.654 60.654 40 59 40Z" fill="#00D2D7"/>
<path d="M15 16C11.692 16 9 13.308 9 10C9 6.692 11.692 4 15 4C18.308 4 21 6.692 21 10C21 13.308 18.308 16 15 16ZM15 6C12.794 6 11 7.794 11 10C11 12.206 12.794 14 15 14C17.206 14 19 12.206 19 10C19 7.794 17.206 6 15 6Z" fill="#00D2D7"/>
<path d="M5 37C4.448 37 4 36.552 4 36V25C4 21.762 6.622 18 10 18H19C19.552 18 20 18.448 20 19C20 19.552 19.552 20 19 20H10C7.846 20 6 22.75 6 25V36C6 36.552 5.552 37 5 37Z" fill="#00D2D7"/>
<path d="M9 44C8.448 44 8 43.552 8 43V33C8 32.448 8.448 30 9 30C9.552 30 10 32.448 10 33V43C10 43.552 9.552 44 9 44Z" fill="#00D2D7"/>
<path d="M7 40C5.346 40 4 38.654 4 37V27C4 26.448 4.448 26 5 26C5.552 26 6 26.448 6 27V37C6 37.55 6.448 38 7 38C7.552 38 8 37.55 8 37V27C8 26.448 8.448 26 9 26C9.552 26 10 26.448 10 27V37C10 38.654 8.654 40 7 40Z" fill="#00D2D7"/>
<path d="M25 38C23.346 38 22 36.654 22 35V25C22 24.448 22.448 24 23 24C23.552 24 24 24.448 24 25V35C24 35.55 24.448 36 25 36C25.552 36 26 35.55 26 35V25C26 24.448 26.448 24 27 24C27.552 24 28 24.448 28 25V35C28 36.654 26.654 38 25 38Z" fill="#00D2D7"/>
<path d="M41 38C39.346 38 38 36.654 38 35V25C38 24.448 38.448 24 39 24C39.552 24 40 24.448 40 25V35C40 35.55 40.45 36 41 36C41.55 36 42 35.55 42 35V25C42 24.448 42.448 24 43 24C43.552 24 44 24.448 44 25V35C44 36.654 42.654 38 41 38Z" fill="#00D2D7"/>
<path d="M33 14C29.692 14 27 11.308 27 8C27 4.692 29.692 2 33 2C36.308 2 39 4.692 39 8C39 11.308 36.308 14 33 14ZM33 4C30.794 4 29 5.794 29 8C29 10.206 30.794 12 33 12C35.206 12 37 10.206 37 8C37 5.794 35.206 4 33 4Z" fill="#00D2D7"/>
<path d="M23 35C22.448 35 22 34.552 22 34V23C22 19.762 24.622 16 28 16H36C36.552 16 37 16.448 37 17C37 17.552 36.552 18 36 18H28C25.846 18 24 20.75 24 23V34C24 34.552 23.552 35 23 35Z" fill="#00D2D7"/>
<path d="M27 42C26.448 42 26 41.552 26 41V29C26 28.448 26.448 28 27 28C27.552 28 28 28.448 28 29V41C28 41.552 27.552 42 27 42Z" fill="#00D2D7"/>
<path d="M43 35C42.448 35 42 34.552 42 34V23C42 20.75 40.154 18 38 18H30C29.448 18 29 17.552 29 17C29 16.448 29.448 16 30 16H38C41.378 16 44 19.762 44 23V34C44 34.552 43.552 35 43 35Z" fill="#00D2D7"/>
<path d="M39 42C38.448 42 38 41.552 38 41V29C38 28.448 38.448 28 39 28C39.552 28 40 28.448 40 29V41C40 41.552 39.552 42 39 42Z" fill="#00D2D7"/>
<path d="M61 62H3C2.448 62 2 61.552 2 61C2 60.448 2.448 60 3 60H61C61.552 60 62 60.448 62 61C62 61.552 61.552 62 61 62Z" fill="#00D2D7"/>
<path d="M59 58C58.448 58 58 57.552 58 57V48H56V57C56 57.552 55.552 58 55 58C54.448 58 54 57.552 54 57V47C54 46.448 54.448 46 55 46H59C59.552 46 60 46.448 60 47V57C60 57.552 59.552 58 59 58Z" fill="#00D2D7"/>
<path d="M51 58C50.448 58 50 57.552 50 57V42H48V57C48 57.552 47.552 58 47 58C46.448 58 46 57.552 46 57V41C46 40.448 46.448 40 47 40H51C51.552 40 52 40.448 52 41V57C52 57.552 51.552 58 51 58Z" fill="#00D2D7"/>
<path d="M43 58C42.448 58 42 57.552 42 57V46H40V57C40 57.552 39.552 58 39 58C38.448 58 38 57.552 38 57V45C38 44.448 38.448 44 39 44H43C43.552 44 44 44.448 44 45V57C44 57.552 43.552 58 43 58Z" fill="#00D2D7"/>
<path d="M35 58C34.448 58 34 57.552 34 57V50H32V57C32 57.552 31.552 58 31 58C30.448 58 30 57.552 30 57V49C30 48.448 30.448 48 31 48H35C35.552 48 36 48.448 36 49V57C36 57.552 35.552 58 35 58Z" fill="#00D2D7"/>
<path d="M27 58C26.448 58 26 57.552 26 57V46H24V57C24 57.552 23.552 58 23 58C22.448 58 22 57.552 22 57V45C22 44.448 22.448 44 23 44H27C27.552 44 28 44.448 28 45V57C28 57.552 27.552 58 27 58Z" fill="#00D2D7"/>
<path d="M19 58C18.448 58 18 57.552 18 57V40H16V57C16 57.552 15.552 58 15 58C14.448 58 14 57.552 14 57V39C14 38.448 14.448 38 15 38H19C19.552 38 20 38.448 20 39V57C20 57.552 19.552 58 19 58Z" fill="#00D2D7"/>
<path d="M11 58C10.448 58 10 57.552 10 57V48H8V57C8 57.552 7.552 58 7 58C6.448 58 6 57.552 6 57V47C6 46.448 6.448 46 7 46H11C11.552 46 12 46.448 12 47V57C12 57.552 11.552 58 11 58Z" fill="#00D2D7"/>
</svg>
