<svg width="64" height="64" viewBox="0 0 64 64" fill="none" xmlns="http://www.w3.org/2000/svg">
<path d="M8 38C4.692 38 2 35.308 2 32C2 28.692 4.692 26 8 26C11.308 26 14 28.692 14 32C14 35.308 11.308 38 8 38ZM8 28C5.792 28 4 29.792 4 32C4 34.208 5.792 36 8 36C10.208 36 12 34.208 12 32C12 29.792 10.208 28 8 28Z" fill="#00D2D7"/>
<path d="M49.3767 47.1038C49.5607 47.2498 49.7807 47.3218 50.0007 47.3218C50.2927 47.3218 50.5847 47.1938 50.7827 46.9458C53.1507 43.9758 54.7227 40.5778 55.4787 36.9478C54.7867 36.8738 54.1427 36.6658 53.5647 36.3398C52.8887 39.7418 51.4327 42.9238 49.2207 45.6998C48.8727 46.1298 48.9447 46.7598 49.3767 47.1038Z" fill="#00D2D7"/>
<path d="M50.7801 17.0542C50.4361 16.6202 49.8081 16.5542 49.3761 16.8942C48.9441 17.2382 48.8721 17.8682 49.2181 18.3002C51.4281 21.0762 52.8861 24.2582 53.5621 27.6602C54.1401 27.3342 54.7841 27.1242 55.4761 27.0522C54.7181 23.4222 53.1461 20.0242 50.7801 17.0542Z" fill="#00D2D7"/>
<path d="M50.1922 53.2859C45.1302 57.6159 38.6702 59.9999 32.0002 59.9999C25.2602 59.9999 18.7462 57.5699 13.6622 53.1599C13.2462 52.7959 12.6122 52.8419 12.2502 53.2599C11.8882 53.6779 11.9342 54.3079 12.3502 54.6699C17.7982 59.3959 24.7782 61.9999 32.0002 61.9999C39.1462 61.9999 46.0702 59.4439 51.4922 54.8039C51.9122 54.4439 51.9602 53.8139 51.6022 53.3939C51.2442 52.9759 50.6142 52.9279 50.1922 53.2859Z" fill="#00D2D7"/>
<path d="M14.7844 45.6998C12.5744 42.9238 11.1164 39.7418 10.4404 36.3398C9.86237 36.6658 9.21837 36.8758 8.52637 36.9478C9.28237 40.5778 10.8544 43.9758 13.2224 46.9458C13.4204 47.1938 13.7104 47.3218 14.0044 47.3218C14.2224 47.3218 14.4444 47.2498 14.6284 47.1038C15.0564 46.7598 15.1284 46.1298 14.7844 45.6998Z" fill="#00D2D7"/>
<path d="M14.7824 18.3041C15.1264 17.8721 15.0544 17.2421 14.6224 16.8981C14.1944 16.5581 13.5644 16.6241 13.2164 17.0581C10.8524 20.0261 9.28037 23.4241 8.52637 27.0521C9.21837 27.1261 9.86237 27.3341 10.4404 27.6601C11.1164 24.2601 12.5704 21.0781 14.7824 18.3041Z" fill="#00D2D7"/>
<path d="M13.7706 10.746C18.8386 6.396 25.3126 4 32.0006 4C38.7446 4 45.2626 6.432 50.3486 10.848C50.5386 11.014 50.7726 11.094 51.0046 11.094C51.2846 11.094 51.5606 10.978 51.7606 10.75C52.1226 10.334 52.0766 9.702 51.6606 9.34C46.2086 4.606 39.2266 2 32.0006 2C24.8366 2 17.8986 4.568 12.4686 9.228C12.0486 9.588 12.0006 10.22 12.3606 10.638C12.7226 11.058 13.3566 11.106 13.7706 10.746Z" fill="#00D2D7"/>
<path d="M56 38C52.692 38 50 35.308 50 32C50 28.692 52.692 26 56 26C59.308 26 62 28.692 62 32C62 35.308 59.308 38 56 38ZM56 28C53.792 28 52 29.792 52 32C52 34.208 53.792 36 56 36C58.208 36 60 34.208 60 32C60 29.792 58.208 28 56 28Z" fill="#00D2D7"/>
<path d="M19.632 50.198C18.518 49.44 17.146 49.038 15.658 49.038C15.652 49.038 15.644 49.038 15.638 49.038L12.422 49.044C12.418 49.044 12.416 49.044 12.412 49.044C10.694 49.044 9.086 48.178 8.216 46.782C5.458 42.354 4 37.242 4 32C4 31.448 3.552 31 3 31C2.448 31 2 31.448 2 32C2 37.616 3.562 43.094 6.518 47.838C7.75 49.816 10.008 51.044 12.412 51.044H12.426L15.642 51.038C16.676 51.01 17.722 51.316 18.508 51.85C21.112 53.624 24.008 54.84 27.052 55.478C27.124 54.784 27.334 54.138 27.662 53.558C24.798 52.986 22.074 51.862 19.632 50.198Z" fill="#00D2D7"/>
<path d="M60.9999 31C60.4479 31 59.9999 31.448 59.9999 32C59.9999 37.242 58.5419 42.354 55.7839 46.782C54.9119 48.182 53.2539 49.114 51.5779 49.044L48.3619 49.038C48.3559 49.038 48.3479 49.038 48.3419 49.038C46.8519 49.038 45.4779 49.438 44.3679 50.198C41.9259 51.862 39.2019 52.986 36.3379 53.558C36.6659 54.138 36.8759 54.784 36.9479 55.478C39.9919 54.84 42.8899 53.624 45.4939 51.85C46.2719 51.318 47.2559 51.038 48.3419 51.038H48.3579L51.5739 51.044H51.5879C53.9919 51.044 56.2499 49.816 57.4819 47.838C60.4379 43.094 61.9999 37.616 61.9999 32C61.9999 31.448 61.5519 31 60.9999 31Z" fill="#00D2D7"/>
<path d="M32 62C28.692 62 26 59.308 26 56C26 52.692 28.692 50 32 50C35.308 50 38 52.692 38 56C38 59.308 35.308 62 32 62ZM32 52C29.792 52 28 53.792 28 56C28 58.208 29.792 60 32 60C34.208 60 36 58.208 36 56C36 53.792 34.208 52 32 52Z" fill="#00D2D7"/>
<path d="M18.508 12.1495C17.722 12.6835 16.656 13.0295 15.642 12.9595L12.426 12.9555C12.422 12.9555 12.416 12.9555 12.412 12.9555C10.008 12.9555 7.75 14.1835 6.518 16.1615C3.562 20.9055 2 26.3835 2 31.9995C2 32.5515 2.448 32.9995 3 32.9995C3.552 32.9995 4 32.5515 4 31.9995C4 26.7575 5.458 21.6455 8.216 17.2175C9.086 15.8215 10.692 14.9555 12.412 14.9555H12.422L15.638 14.9595H15.658C17.144 14.9595 18.52 14.5595 19.632 13.7995C22.074 12.1355 24.798 11.0115 27.662 10.4395C27.334 9.85953 27.124 9.21353 27.052 8.51953C24.008 9.15953 21.112 10.3755 18.508 12.1495Z" fill="#00D2D7"/>
<path d="M57.4819 16.1595C56.2499 14.1815 53.9919 12.9535 51.5879 12.9535C51.5839 12.9535 51.5779 12.9535 51.5739 12.9535L48.3579 12.9595C47.2039 12.9575 46.2779 12.6815 45.4919 12.1475C42.8879 10.3735 39.9919 9.15753 36.9479 8.51953C36.8759 9.21353 36.6659 9.85953 36.3379 10.4395C39.1999 11.0115 41.9239 12.1375 44.3659 13.7995C45.4799 14.5575 46.8519 14.9595 48.3419 14.9595H48.3619L51.5779 14.9535H51.5879C53.3059 14.9535 54.9139 15.8195 55.7839 17.2155C58.5419 21.6455 59.9999 26.7575 59.9999 31.9995C59.9999 32.5515 60.4479 32.9995 60.9999 32.9995C61.5519 32.9995 61.9999 32.5515 61.9999 31.9995C61.9999 26.3835 60.4379 20.9055 57.4819 16.1595Z" fill="#00D2D7"/>
<path d="M32 14C28.692 14 26 11.308 26 8C26 4.692 28.692 2 32 2C35.308 2 38 4.692 38 8C38 11.308 35.308 14 32 14ZM32 4C29.792 4 28 5.792 28 8C28 10.208 29.792 12 32 12C34.208 12 36 10.208 36 8C36 5.792 34.208 4 32 4Z" fill="#00D2D7"/>
<path d="M31.9697 44C25.3517 44 19.9697 38.618 19.9697 32C19.9697 25.382 25.3517 20 31.9697 20C34.3057 20 36.5717 20.672 38.5197 21.944C38.9817 22.246 39.1117 22.866 38.8117 23.328C38.5117 23.792 37.8937 23.922 37.4277 23.618C35.8037 22.56 33.9177 22 31.9697 22C26.4557 22 21.9697 26.486 21.9697 32C21.9697 37.514 26.4557 42 31.9697 42C37.4837 42 41.9697 37.514 41.9697 32C41.9697 31.474 41.9277 30.95 41.8477 30.442C41.7617 29.898 42.1357 29.384 42.6797 29.298C43.2097 29.22 43.7377 29.584 43.8237 30.132C43.9197 30.744 43.9677 31.372 43.9677 32.002C43.9697 38.618 38.5877 44 31.9697 44Z" fill="#00D2D7"/>
<path d="M31.9995 36.0005C31.7435 36.0005 31.4875 35.9025 31.2915 35.7085L26.2915 30.7085C25.9015 30.3185 25.9015 29.6845 26.2915 29.2945C26.6815 28.9045 27.3155 28.9045 27.7055 29.2945L31.9995 33.5865L43.2915 22.2945C43.6815 21.9045 44.3155 21.9045 44.7055 22.2945C45.0955 22.6845 45.0955 23.3185 44.7055 23.7085L32.7055 35.7085C32.5115 35.9025 32.2555 36.0005 31.9995 36.0005Z" fill="#00D2D7"/>
</svg>
