<svg width="64" height="64" viewBox="0 0 64 64" fill="none" xmlns="http://www.w3.org/2000/svg">
<path d="M21.0497 55.5374C20.8777 55.5374 20.7057 55.4934 20.5477 55.4014C18.7057 54.3334 16.0597 53.9034 12.6737 54.1334C2.85571 54.8014 2.09571 46.5174 2.08971 46.4334C2.06971 46.1674 2.15771 45.9034 2.33371 45.7034C2.50971 45.5034 2.75771 45.3794 3.02571 45.3634C10.6097 44.8854 17.3877 38.8434 19.1397 30.9994C20.3517 25.5834 24.0637 21.0714 29.0877 18.8614C29.5957 18.6414 30.1817 18.8674 30.4057 19.3734C30.6277 19.8774 30.3977 20.4694 29.8917 20.6914C25.4477 22.6474 22.1657 26.6374 21.1077 31.3674C19.2357 39.7394 12.2657 46.2254 4.27371 47.2514C4.76971 49.0194 6.53371 52.5594 12.5397 52.1374C16.3177 51.8814 19.3577 52.3974 21.5517 53.6734C22.0297 53.9514 22.1917 54.5614 21.9157 55.0394C21.7297 55.3594 21.3937 55.5374 21.0497 55.5374Z" fill="#00D2D7"/>
<path d="M21.9778 19.3195C21.9018 19.3195 21.8218 19.3115 21.7438 19.2915C21.2058 19.1635 20.8758 18.6235 21.0058 18.0855L24.6998 2.76553C24.8298 2.22953 25.3698 1.89353 25.9078 2.02753C26.4458 2.15553 26.7758 2.69553 26.6458 3.23353L22.9518 18.5535C22.8398 19.0115 22.4318 19.3195 21.9778 19.3195Z" fill="#00D2D7"/>
<path d="M14.2993 35.9851C14.2453 35.9851 14.1893 35.9811 14.1353 35.9731C13.5913 35.8831 13.2213 35.3691 13.3113 34.8231L17.6433 8.39714C17.7333 7.85114 18.2573 7.48914 18.7913 7.57114C19.3353 7.66114 19.7053 8.17514 19.6153 8.72114L15.2853 35.1471C15.2053 35.6371 14.7813 35.9851 14.2993 35.9851Z" fill="#00D2D7"/>
<path d="M19 6C19.5523 6 20 5.55228 20 5C20 4.44772 19.5523 4 19 4C18.4477 4 18 4.44772 18 5C18 5.55228 18.4477 6 19 6Z" fill="#00D2D7"/>
<path d="M49.794 55.6315C49.56 55.6315 49.326 55.5495 49.136 55.3835C48.72 55.0195 48.678 54.3875 49.04 53.9715L55.552 46.5155C55.922 46.0995 56.55 46.0575 56.964 46.4215C57.38 46.7855 57.422 47.4175 57.06 47.8335L50.548 55.2895C50.35 55.5155 50.072 55.6315 49.794 55.6315Z" fill="#00D2D7"/>
<path d="M59.0977 44.9814C59.6499 44.9814 60.0977 44.5337 60.0977 43.9814C60.0977 43.4292 59.6499 42.9814 59.0977 42.9814C58.5454 42.9814 58.0977 43.4292 58.0977 43.9814C58.0977 44.5337 58.5454 44.9814 59.0977 44.9814Z" fill="#00D2D7"/>
<path d="M28.1758 47.212L26.6198 46.71L22.0498 60.69C21.8778 61.214 22.1658 61.78 22.6898 61.95C22.7918 61.984 22.8958 62 22.9998 62C23.4218 62 23.8118 61.732 23.9518 61.31L28.5478 47.254C28.4238 47.262 28.2978 47.252 28.1758 47.212Z" fill="#00D2D7"/>
<path d="M61.5923 7.3756C61.2263 6.6616 60.6063 6.1336 59.8443 5.8876C58.2623 5.3816 56.5763 6.2476 56.0663 7.8216L53.6103 15.4356C53.0363 17.2156 51.8043 18.6636 50.1403 19.5176C48.4763 20.3716 46.5803 20.5236 44.8003 19.9496L40.0403 18.4136C35.8463 17.0636 31.3263 19.3736 29.9723 23.5736L25.9823 35.9456C25.7463 36.6776 25.8043 37.4536 26.1363 38.1496L30.6303 39.5996C30.7643 39.6416 30.8823 39.7156 30.9823 39.8036L31.4763 38.2956C31.5623 38.1376 31.6343 37.9676 31.6903 37.7916L35.3743 26.3716C35.5443 25.8476 35.2563 25.2836 34.7323 25.1136C34.2123 24.9456 33.6443 25.2316 33.4723 25.7536L29.6463 37.4576C29.3983 37.7976 28.9483 37.9596 28.5283 37.8216C28.2763 37.7396 28.0703 37.5656 27.9483 37.3256C27.8243 37.0856 27.8043 36.8156 27.8843 36.5636L31.8743 24.1916C32.8923 21.0436 36.2883 19.3076 39.4263 20.3236L44.1863 21.8596C46.4783 22.5976 48.9143 22.3996 51.0523 21.3036C53.1903 20.2076 54.7763 18.3436 55.5123 16.0556L57.9683 8.4416C58.1383 7.9176 58.7063 7.6256 59.2283 7.7976C59.4823 7.8796 59.6883 8.0556 59.8123 8.2936C59.9343 8.53159 59.9543 8.8016 59.8723 9.0556L57.4163 16.6696C56.0163 21.0116 52.0003 24.0656 47.2423 24.2776C46.8243 24.2956 46.4603 24.5716 46.3343 24.9696L43.0003 35.3076C42.8343 35.8196 43.1063 36.3716 43.6123 36.5556L50.0483 38.8736C50.6423 39.0656 51.1183 39.5316 51.3243 40.1216C51.5303 40.7096 51.4443 41.3716 51.1403 41.8296L41.5843 53.9416C40.8303 52.7256 40.8063 51.1316 41.6183 49.8896L46.2603 42.7636C46.4303 42.5036 46.4683 42.1776 46.3663 41.8836C46.2603 41.5896 46.0263 41.3616 45.7303 41.2656L40.6163 39.6156C38.1563 38.8256 35.5023 40.0196 34.4923 42.3856L26.0943 60.5836C25.8643 61.0836 26.0823 61.6796 26.5823 61.9116C27.0863 62.1416 27.6763 61.9256 27.9103 61.4216L36.3203 43.1976C36.9343 41.7636 38.5123 41.0396 40.0023 41.5216L43.8703 42.7696L39.9423 48.7996C38.3963 51.1756 38.8303 54.3856 40.9563 56.2656C41.1623 56.4476 41.4183 56.5376 41.7083 56.5136C41.9823 56.4896 42.2343 56.3516 42.4043 56.1376L52.7603 43.0096C53.4563 41.9696 53.6263 40.6476 53.2163 39.4696C52.8063 38.2916 51.8523 37.3596 50.6983 36.9876L45.2043 35.0076L48.0343 26.2336C53.2263 25.7956 57.7243 22.2536 59.3263 17.2816L61.7823 9.6676C62.0223 8.9016 61.9583 8.0876 61.5923 7.3756Z" fill="#00D2D7"/>
<path d="M28.4799 48.2591C28.2719 48.2591 28.0659 48.2271 27.8679 48.1631L20.2519 45.7071C19.2039 45.3691 18.6259 44.2391 18.9599 43.1911L20.8039 37.4811C21.1319 36.4551 22.2899 35.8611 23.3199 36.1891L30.9359 38.6451C31.9839 38.9831 32.5619 40.1131 32.2279 41.1611L30.3839 46.8711C30.1199 47.7011 29.3539 48.2591 28.4799 48.2591ZM22.7079 38.0931L20.8659 43.8031L28.4799 46.2591L28.4819 46.2571L30.3239 40.5491L22.7079 38.0931Z" fill="#00D2D7"/>
<path d="M46 18C42.692 18 40 15.308 40 12C40 8.692 42.692 6 46 6C49.308 6 52 8.692 52 12C52 15.308 49.308 18 46 18ZM46 8C43.794 8 42 9.794 42 12C42 14.206 43.794 16 46 16C48.206 16 50 14.206 50 12C50 9.794 48.206 8 46 8Z" fill="#00D2D7"/>
</svg>
