<svg width="64" height="64" viewBox="0 0 64 64" fill="none" xmlns="http://www.w3.org/2000/svg">
<path d="M54 22C50.692 22 48 19.308 48 16C48 12.692 50.692 10 54 10C57.308 10 60 12.692 60 16C60 19.308 57.308 22 54 22ZM54 12C51.794 12 50 13.794 50 16C50 18.206 51.794 20 54 20C56.206 20 58 18.206 58 16C58 13.794 56.206 12 54 12Z" fill="#00D2D7"/>
<path d="M35.492 62C35.418 62 35.342 61.992 35.268 61.974C34.728 61.85 34.392 61.314 34.516 60.776L38.116 45.048C38.566 43.246 40.162 42 42 42H50V39C50 38.448 50.448 38 51 38C51.552 38 52 38.448 52 39V43C52 43.552 51.552 44 51 44H42C41.082 44 40.284 44.624 40.06 45.514L36.466 61.222C36.36 61.686 35.948 62 35.492 62Z" fill="#00D2D7"/>
<path d="M39.3 62C39.17 62 39.04 61.974 38.912 61.922C38.404 61.708 38.164 61.122 38.378 60.612L43.42 48.612C43.578 48.242 43.942 48 44.344 48H55C57.756 48 60 45.756 60 43V29C60 27.346 58.654 26 57 26C54.948 26 53.034 26.954 51.746 28.618L45.906 33.752C45.724 33.912 45.49 34 45.248 34H39C38.448 34 38 34.448 38 35C38 35.552 38.448 36 39 36H46C46.244 36 46.476 35.912 46.658 35.754C47.072 35.392 47.704 35.43 48.07 35.846C48.434 36.262 48.392 36.892 47.978 37.258C47.43 37.736 46.728 38 46 38H39C37.346 38 36 36.654 36 35C36 33.346 37.346 32 39 32H44.872L50.296 27.252C51.832 25.238 54.324 24 57 24C59.756 24 62 26.244 62 29V43C62 46.86 58.86 50 55 50H45.008L40.222 61.388C40.062 61.77 39.69 62 39.3 62Z" fill="#00D2D7"/>
<path d="M46 38.0002H39C37.346 38.0002 36 36.6542 36 35.0002C36 33.3462 37.346 32.0002 39 32.0002H45.248C45.8 32.0002 46.248 32.4482 46.248 33.0002C46.248 33.5522 45.8 34.0002 45.248 34.0002H39C38.448 34.0002 38 34.4482 38 35.0002C38 35.5522 38.448 36.0002 39 36.0002H46C46.244 36.0002 46.476 35.9122 46.658 35.7542L54.418 30.1882C54.866 29.8662 55.49 29.9702 55.812 30.4182C56.134 30.8662 56.03 31.4922 55.582 31.8122L47.898 37.3182C47.43 37.7362 46.728 38.0002 46 38.0002Z" fill="#00D2D7"/>
<path d="M10 22C6.692 22 4 19.308 4 16C4 12.692 6.692 10 10 10C13.308 10 16 12.692 16 16C16 19.308 13.308 22 10 22ZM10 12C7.794 12 6 13.794 6 16C6 18.206 7.794 20 10 20C12.206 20 14 18.206 14 16C14 13.794 12.206 12 10 12Z" fill="#00D2D7"/>
<path d="M28.508 62C28.052 62 27.64 61.686 27.534 61.222L23.934 45.494C23.716 44.624 22.918 44 22 44H13C12.448 44 12 43.552 12 43V39C12 38.448 12.448 38 13 38C13.552 38 14 38.448 14 39V42H22C23.838 42 25.434 43.246 25.88 45.028L29.484 60.778C29.608 61.316 29.272 61.852 28.732 61.976C28.658 61.992 28.584 62 28.508 62Z" fill="#00D2D7"/>
<path d="M24.7 62C24.31 62 23.94 61.77 23.778 61.388L18.992 50H9C5.14 50 2 46.86 2 43V29C2 26.244 4.244 24 7 24C9.676 24 12.168 25.238 13.836 27.394L19.126 32H25C26.654 32 28 33.346 28 35C28 36.654 26.654 38 25 38H18C17.274 38 16.572 37.738 16.024 37.26C15.608 36.896 15.564 36.264 15.928 35.848C16.292 35.432 16.926 35.39 17.34 35.752C17.522 35.912 17.756 36 18 36H25C25.552 36 26 35.552 26 35C26 34.448 25.552 34 25 34H18.752C18.51 34 18.276 33.912 18.094 33.752L12.386 28.758C10.966 26.954 9.052 26 7 26C5.346 26 4 27.346 4 29V43C4 45.756 6.244 48 9 48H19.656C20.058 48 20.422 48.242 20.578 48.612L25.62 60.612C25.834 61.122 25.594 61.708 25.086 61.922C24.96 61.974 24.83 62 24.7 62Z" fill="#00D2D7"/>
<path d="M25.0003 38.0003H18.0003C17.2743 38.0003 16.5723 37.7383 16.0243 37.2603L8.41625 31.8123C7.96825 31.4903 7.86425 30.8663 8.18625 30.4163C8.50825 29.9683 9.13225 29.8643 9.58225 30.1863L17.2643 35.6923C17.5223 35.9123 17.7563 36.0003 18.0003 36.0003H25.0003C25.5523 36.0003 26.0003 35.5523 26.0003 35.0003C26.0003 34.4483 25.5523 34.0003 25.0003 34.0003H18.7523C18.2003 34.0003 17.7523 33.5523 17.7523 33.0003C17.7523 32.4483 18.2003 32.0003 18.7523 32.0003H25.0003C26.6543 32.0003 28.0003 33.3463 28.0003 35.0003C28.0003 36.6543 26.6543 38.0003 25.0003 38.0003Z" fill="#00D2D7"/>
<path d="M21 36H43V38H21V36Z" fill="#00D2D7"/>
<path d="M31.9697 26C25.3517 26 19.9697 20.618 19.9697 14C19.9697 7.382 25.3517 2 31.9697 2C34.3057 2 36.5717 2.672 38.5217 3.944C38.9837 4.246 39.1137 4.866 38.8117 5.328C38.5117 5.792 37.8917 5.922 37.4277 5.618C35.8057 4.56 33.9177 4 31.9697 4C26.4557 4 21.9697 8.486 21.9697 14C21.9697 19.514 26.4557 24 31.9697 24C37.4837 24 41.9697 19.514 41.9697 14C41.9697 13.474 41.9277 12.95 41.8477 12.442C41.7637 11.898 42.1357 11.384 42.6817 11.298C43.2257 11.212 43.7377 11.584 43.8257 12.132C43.9217 12.744 43.9697 13.372 43.9697 14.002C43.9697 20.618 38.5877 26 31.9697 26Z" fill="#00D2D7"/>
<path d="M31.9995 18.0005C31.7435 18.0005 31.4875 17.9025 31.2915 17.7085L26.2915 12.7085C25.9015 12.3185 25.9015 11.6845 26.2915 11.2945C26.6815 10.9045 27.3155 10.9045 27.7055 11.2945L31.9995 15.5865L43.2915 4.29445C43.6815 3.90445 44.3155 3.90445 44.7055 4.29445C45.0955 4.68445 45.0955 5.31845 44.7055 5.70845L32.7055 17.7085C32.5115 17.9025 32.2555 18.0005 31.9995 18.0005Z" fill="#00D2D7"/>
</svg>
