<svg width="64" height="64" viewBox="0 0 64 64" fill="none" xmlns="http://www.w3.org/2000/svg">
<g clip-path="url(#clip0_94_12389)">
<path d="M34.0312 36.6917C30.9619 38.0142 27.4789 38.7611 23.7871 38.7611C11.4297 38.7611 1.41211 30.3941 1.41211 20.073C1.41211 11.2295 8.83886 4.47099 16.8779 2.29274C24.9172 0.114493 33.9036 1.80899 40.1342 7.42737C43.778 10.7131 46.1622 15.0739 46.1622 20.073C46.1622 25.6936 43.1915 30.7347 38.4897 34.1606L38.487 34.1556L41.2307 40.5435C41.7042 41.6457 40.8592 42.8906 39.7445 42.7172C32.6427 41.6126 28.6201 38.3219 28.6201 38.3219" stroke="#33CCCC" stroke-width="2" stroke-miterlimit="10" stroke-linecap="round" stroke-linejoin="round"/>
<path d="M53.3164 37.1496C53.8041 36.1872 53.5525 35.0153 52.7122 34.3386L49.3554 31.6349C48.7407 31.1399 48.6437 30.2403 49.1387 29.6257L54.7711 22.6323C55.2661 22.0177 56.1657 21.9207 56.7804 22.4157L60.5635 25.4626C62.2095 26.7882 62.9371 28.9479 62.4276 30.9989C61.6187 34.2543 57.9026 41.5354 52.3201 48.4669C46.7375 55.3984 40.4157 60.5809 37.4075 62.0649C35.5121 62.9999 33.2469 62.7492 31.601 61.4236L27.8179 58.3767C27.2032 57.8817 27.1062 56.9821 27.6012 56.3674L33.2336 49.3741C33.7286 48.7594 34.6282 48.6624 35.2429 49.1574L38.5997 51.8611C39.44 52.5378 40.6386 52.5341 41.4749 51.8523L53.3164 37.1496Z" stroke="#33CCCC" stroke-width="2" stroke-miterlimit="10" stroke-linecap="round" stroke-linejoin="round"/>
<path d="M18.499 21.9619C19.1264 23.9648 20.9963 25.4182 23.206 25.4182C25.4158 25.4182 27.2856 23.9648 27.913 21.9619" stroke="#33CCCC" stroke-width="2" stroke-miterlimit="10" stroke-linecap="round" stroke-linejoin="round"/>
<circle cx="13.9326" cy="18.7812" r="1.375" fill="#33CCCC"/>
<circle cx="32.4355" cy="18.7812" r="1.375" fill="#33CCCC"/>
</g>
<defs>
<clipPath id="clip0_94_12389">
<rect width="64" height="64" fill="white"/>
</clipPath>
</defs>
</svg>
