<svg width="64" height="64" viewBox="0 0 64 64" fill="none" xmlns="http://www.w3.org/2000/svg">
<path d="M10.5244 33.3338C11.0685 31.7833 12.8545 30.1878 14.4527 29.4199" stroke="#33CCCC" stroke-width="2" stroke-miterlimit="10" stroke-linecap="round" stroke-linejoin="round"/>
<path d="M52.3589 38.2413C53.8947 35.0451 52.4033 31.1783 49.207 29.6426" stroke="#33CCCC" stroke-width="2" stroke-miterlimit="10" stroke-linecap="round" stroke-linejoin="round"/>
<path d="M49.2088 16.77V62.6251H32.4336V16.0598C32.4336 11.43 36.1867 7.67676 40.8166 7.67676H40.8258C41.7912 7.67676 42.6092 7.84013 43.4722 8.14038" stroke="#33CCCC" stroke-width="2" stroke-miterlimit="10" stroke-linecap="round" stroke-linejoin="round"/>
<path d="M32.4335 62.625H14.457V10.3584C14.457 5.397 18.479 1.375 23.4404 1.375H23.4503C28.4117 1.375 32.4337 5.397 32.4337 10.3584L32.4335 62.625Z" stroke="#33CCCC" stroke-width="2" stroke-miterlimit="10" stroke-linecap="round" stroke-linejoin="round"/>
<path d="M20.6738 12.5967V14.1461" stroke="#33CCCC" stroke-width="2" stroke-miterlimit="10" stroke-linecap="round" stroke-linejoin="round"/>
<path d="M26.3975 12.5967V14.1461" stroke="#33CCCC" stroke-width="2" stroke-miterlimit="10" stroke-linecap="round" stroke-linejoin="round"/>
<path d="M25.256 18.0811C24.3062 19.0312 22.7663 19.0312 21.8164 18.0811" stroke="#33CCCC" stroke-width="2" stroke-miterlimit="10" stroke-linecap="round" stroke-linejoin="round"/>
<path d="M37.959 19.2314V20.7808" stroke="#33CCCC" stroke-width="2" stroke-miterlimit="10" stroke-linecap="round" stroke-linejoin="round"/>
<path d="M43.6826 19.2314V20.7808" stroke="#33CCCC" stroke-width="2" stroke-miterlimit="10" stroke-linecap="round" stroke-linejoin="round"/>
<path d="M42.5412 24.7158C41.5913 25.6659 40.0514 25.6659 39.1016 24.7158" stroke="#33CCCC" stroke-width="2" stroke-miterlimit="10" stroke-linecap="round" stroke-linejoin="round"/>
<path d="M19.3639 41.2471C16.1676 42.7829 12.3317 41.4367 10.796 38.2406C10.0281 36.6425 9.98074 34.8845 10.5247 33.334" stroke="#33CCCC" stroke-width="2" stroke-miterlimit="10" stroke-linecap="round" stroke-linejoin="round"/>
<path d="M43.791 41.2477C46.9871 42.7835 50.8231 41.4373 52.3589 38.2412" stroke="#33CCCC" stroke-width="2" stroke-miterlimit="10" stroke-linecap="round" stroke-linejoin="round"/>
<path d="M47.7443 11.6343L44.3996 9.91163C43.4941 9.35063 43.4367 8.05438 44.2889 7.41538L46.6968 5.61C47.5491 4.971 48.7772 5.3895 49.0619 6.416L49.7779 10.1096L47.7443 11.6343Z" stroke="#33CCCC" stroke-width="2" stroke-miterlimit="10" stroke-linecap="round" stroke-linejoin="round"/>
<path d="M49.7776 10.1094L53.1225 11.8321C54.028 12.3931 54.0854 13.6894 53.2331 14.3284L50.8253 16.1337C49.973 16.7727 48.7449 16.3543 48.4601 15.3278L47.7441 11.6341" stroke="#33CCCC" stroke-width="2" stroke-miterlimit="10" stroke-linecap="round" stroke-linejoin="round"/>
</svg>
