<svg width="290" height="247" viewBox="0 0 290 247" fill="none" xmlns="http://www.w3.org/2000/svg">
<g clip-path="url(#clip0_243_531)">
<path d="M236.1 196.8C219.7 195.3 205.8 196.3 194.8 198.6C193.3 188.2 184.8 177.9 169.1 170C134.6 152.4 78.6004 152.4 44.0004 170C9.40041 187.6 9.5004 216.2 44.0004 233.8C78.5004 251.4 134.5 251.4 169.1 233.8C173 231.8 176.4 229.7 179.5 227.5C190.6 230 202.9 231.3 214 231C214.4 231.1 214.8 231.3 215.2 231.4C225 234.5 235.5 236.1 244.3 236.1C251.9 236.1 258.3 234.9 261.9 232.4C262.3 232.1 262.7 231.8 263 231.6C267.7 231.7 272.9 231.9 278.3 230.9C286.1 229.3 290 225.9 289.8 221.8C289.1 211.4 259 198.9 236.1 196.8ZM214.4 227.7C207.7 225.2 204.1 221.9 204.5 218.3C205 213.6 211.9 209.4 220.2 208.7C221.3 208.6 222.5 208.6 223.7 208.6C230.1 208.6 236.6 210 240.7 211.9C238.8 211.9 237 212.2 235.3 212.8C232.8 213.6 231.7 215.6 232.3 218C232.8 219.8 234.3 221.7 236.6 223.5C230.8 226.1 223 227.4 214.4 227.7ZM241.3 215.2C242.5 215.2 243.7 215.3 244.9 215.5C244.9 215.6 245 215.7 245 215.8C245.5 217.5 243.7 219.7 239.9 221.9C237.3 220.2 235.8 218.5 235.4 217.2C235.3 216.8 235.2 216.4 236.3 216C237.8 215.4 239.5 215.2 241.3 215.2ZM223.4 230.3C229.5 229.5 234.9 228.1 239.2 226C239.4 225.9 239.5 225.8 239.7 225.7C244 228.2 249.9 230.3 257.1 231.2C249.9 233.8 236.6 233.4 223.4 230.3ZM261.5 228.3C253.8 227.9 247.6 225.9 243.1 223.7C246.7 221.3 248.4 218.8 248.3 216.2C252 217.2 255.5 218.9 258 220.9C260.6 222.9 262.1 225.1 262 226.8C262 227.4 261.8 227.8 261.5 228.3ZM277.5 227.7C273.1 228.6 268.9 228.4 265 228.4C265.1 227.9 265.2 227.5 265.2 227.1C265.4 224.2 263.5 221.1 260 218.4C256.6 215.8 251.8 213.6 246.9 212.6C242.5 207.1 229.1 204.8 219.9 205.5C210 206.3 202 211.7 201.3 217.9C201 220.3 201.7 224.1 207 227.6C199 227.3 190.6 226.3 182.9 224.7C191 217.7 195.1 209.7 195.1 201.8C205.9 199.5 219.6 198.5 235.9 200C259.8 202.2 286 214.7 286.4 221.8C286.5 224.1 283.3 226.5 277.5 227.7Z" fill="#CCE2E4"/>
<path d="M243.1 231.2C234.3 231.2 223.9 229.6 214 226.5C213.6 226.4 213.2 226.2 212.8 226.1C196.4 226.6 177.4 223.4 163.6 218.3L164.7 215.2C176.1 219.4 191.4 222.3 205.7 222.7C200.4 219.2 199.7 215.3 200 213C200.7 206.7 208.7 201.4 218.6 200.6C227.8 199.8 241.2 202.2 245.6 207.7C250.5 208.7 255.4 210.9 258.7 213.5C262.3 216.3 264.1 219.3 263.9 222.2C263.9 222.6 263.8 223.1 263.7 223.5C267.6 223.5 271.7 223.7 276.2 222.8C281.9 221.6 285.2 219.2 285 217.1C284.6 210 258.4 197.5 234.5 195.3C202.6 192.4 180.5 199.2 171.2 205.9L169.3 203.3C179 196.2 202 189 234.8 192.1C257.7 194.2 287.7 206.7 288.3 217C288.5 221.1 284.7 224.5 276.8 226.1C271.4 227.2 266.3 227 261.5 226.8C261.2 227.1 260.8 227.4 260.4 227.6C257.1 230 250.8 231.2 243.1 231.2ZM222.3 225.4C235.5 228.5 248.8 228.9 256 226.3C248.9 225.4 242.9 223.3 238.6 220.8C238.4 220.9 238.3 221 238.1 221.1C233.8 223.2 228.4 224.6 222.3 225.4ZM242 218.8C246.5 221 252.7 223 260.4 223.4C260.7 222.9 260.9 222.5 260.9 221.9C261 220.2 259.6 218 256.9 216C254.4 214.1 250.9 212.4 247.2 211.3C247.3 213.9 245.6 216.4 242 218.8ZM222.5 203.7C221.3 203.7 220.2 203.7 219 203.8C210.7 204.5 203.9 208.7 203.3 213.4C202.9 216.9 206.5 220.3 213.2 222.8C221.8 222.5 229.6 221.2 235.4 218.7C233.1 216.9 231.6 214.9 231.1 213.2C230.5 210.9 231.6 208.9 234.1 208C235.8 207.4 237.6 207.1 239.5 207.1C235.4 205 228.9 203.7 222.5 203.7ZM240.2 210.3C238.4 210.3 236.8 210.5 235.3 211C234.2 211.4 234.3 211.8 234.4 212.2C234.7 213.5 236.3 215.2 238.9 216.9C242.6 214.7 244.5 212.5 244 210.8C244 210.7 243.9 210.6 243.9 210.5C242.6 210.4 241.4 210.3 240.2 210.3Z" fill="#456F7B"/>
<path d="M252.5 227.2C254.6 227.7 257.5 228.2 259.3 228.4C259.8 228.1 260.3 227.9 260.7 227.6C261.1 227.3 261.5 227 261.8 226.8C261.8 226.8 258.6 226.6 256 226.3C255 226.6 253.8 226.9 252.5 227.2Z" fill="#2B454E"/>
<path d="M236.2 221.9C236.9 221.6 237.5 221.3 238.1 221C238.3 220.9 238.4 220.8 238.6 220.7C238.6 220.7 237.3 220 235.5 218.6C234.7 218.9 233.9 219.3 233.1 219.6C234.1 220.6 235.3 221.4 236.2 221.9Z" fill="#2B454E"/>
<path d="M243.899 210.9C244.099 211.5 243.999 212.1 243.699 212.7C244.999 212.9 246.199 213.2 246.899 213.5C247.199 212.8 247.299 212.1 247.299 211.4C247.299 211.4 245.699 210.8 243.799 210.6C243.799 210.7 243.899 210.8 243.899 210.9Z" fill="#2B454E"/>
<path d="M201.898 222.6C203.398 224.1 205.398 225.3 206.898 226.1C208.898 226.1 210.898 226.1 212.898 226.1C212.898 226.1 208.298 224.3 205.898 222.8C204.498 222.7 203.198 222.6 201.898 222.6Z" fill="#2B454E"/>
<path d="M169.5 203.2L171.4 205.8C175.1 203.1 180.7 200.5 188.2 198.4C188.6 197.2 188.9 196 189 194.8C180.3 197.1 173.7 200.1 169.5 203.2Z" fill="#2B454E"/>
<path d="M174.699 218.3C171.199 217.4 167.899 216.4 164.799 215.2L163.699 218.3C166.199 219.2 168.799 220.1 171.499 220.8C172.599 220 173.699 219.2 174.699 218.3Z" fill="#2B454E"/>
<path d="M111.398 79.8C98.8984 79.3 87.1984 70.1 75.7984 61.2C65.9984 53.6 56.8984 46.4 48.9984 46.4C48.0984 46.4 47.3984 45.7 47.3984 44.8C47.3984 43.9 48.0984 43.2 48.9984 43.2C57.9984 43.2 67.5984 50.7 77.7984 58.7C88.7984 67.3 100.098 76.2 111.498 76.6C112.398 76.6 113.098 77.4 113.098 78.3C112.998 79.1 112.298 79.8 111.398 79.8Z" fill="#456F7B"/>
<path d="M30.6994 151.5C21.8994 148.2 14.2994 136.1 17.5994 122.7C21.5994 106.5 39.3994 95 49.0994 85.6C67.2994 68.1 78.3994 54.1 72.5994 29C67.4994 6.9 47.1994 -0.4 34.9994 2.61702e-07C19.9994 0.6 10.5994 6.8 11.3994 11.7C11.7994 13.9 15.8994 14.8 19.0994 16C29.0994 19.7 32.1994 21.9 35.3994 26.2C40.2994 32.8 41.0994 41.3 39.9994 41.9C38.8994 42.5 37.5994 37.6 30.8994 34.7C24.1994 31.9 20.9994 33.9 21.0994 35.4C21.1994 37 27.2994 38.3 29.0994 47.1C30.5994 54.4 30.2994 63.9 19.2994 78.9C12.4994 88.2 -2.90063 105.6 0.49937 127.7C3.89937 149.9 20.6994 158 27.6994 158.4L30.6994 151.5Z" fill="#00BDC2"/>
<path opacity="0.05" d="M30.6994 151.5C21.8994 148.2 14.2994 136.1 17.5994 122.7C21.5994 106.5 39.3994 95 49.0994 85.6C67.2994 68.1 78.3994 54.1 72.5994 29C67.4994 6.9 47.1994 -0.4 34.9994 2.61702e-07C19.9994 0.6 10.5994 6.8 11.3994 11.7C11.7994 13.9 15.8994 14.8 19.0994 16C29.0994 19.7 32.1994 21.9 35.3994 26.2C40.2994 32.8 41.0994 41.3 39.9994 41.9C38.8994 42.5 37.5994 37.6 30.8994 34.7C24.1994 31.9 20.9994 33.9 21.0994 35.4C21.1994 37 27.2994 38.3 29.0994 47.1C30.5994 54.4 30.2994 63.9 19.2994 78.9C12.4994 88.2 -2.90063 105.6 0.49937 127.7C3.89937 149.9 20.6994 158 27.6994 158.4L30.6994 151.5Z" fill="black"/>
<path opacity="0.15" d="M27.5988 158.4L30.6988 151.5C28.2988 150.6 25.9988 149 23.8988 147C22.5988 150 21.4988 153.1 20.7988 156.6C23.4988 157.8 25.8988 158.3 27.5988 158.4Z" fill="black"/>
<path d="M56.3989 25.9C57.7989 25 57.2989 22.9 56.5989 21.5C54.7989 17.6 52.5989 14.4 49.4989 11.4C51.6989 11.8 53.7989 12.6 55.9989 13.2C59.0989 14.1 61.0989 15.5 61.4989 14.4C61.6989 13.9 61.5989 12.6 61.3989 11.8C60.8989 9.7 60.2989 8.9 59.5989 8.3C51.5989 2.1 41.9989 -0.2 34.9989 4.787e-07C19.9989 0.600001 10.5989 6.8 11.3989 11.7C11.7989 13.9 15.8989 14.8 19.0989 16C29.0989 19.7 32.1989 21.9 35.3989 26.2C35.3989 26.3 38.9989 28 40.5989 29C41.2989 29.5 42.1989 30 42.9989 30C43.3989 30 43.7989 30 44.0989 29.7C45.1989 29 44.9989 27.3 44.5989 26C43.7989 23.5 42.7989 21.1 41.5989 18.8C45.4989 19.7 49.0989 21.6 51.9989 24.2C53.2989 25.4 54.9989 26.8 56.3989 25.9Z" fill="#456F7B"/>
<path d="M105.1 145.7C106.4 163.1 112.1 173.9 123.9 183.9C135.8 193.9 152.6 199.9 160 203.2C167.4 206.5 173 210.4 178.4 205.8C183.8 201.2 183.3 191.4 192.9 183.5C202.5 175.7 205.8 173.5 206 167.8C206.3 160.3 199.1 160.5 196.9 161.6C196.9 161.6 195 158.4 189.7 159.6C185.2 160.6 183.1 164.4 183.1 164.4C183.1 164.4 179.8 164.2 176.3 167.5C173.2 170.4 167.1 178.2 167.1 178.2C167.1 178.2 173.6 168 170.7 157.2C168.1 147.4 161.9 144.7 161.9 144.7C161.9 144.7 164.6 143.3 171.8 144.6C171.8 144.6 168.7 136.2 155.6 133C142.5 129.8 133.7 139.2 133.7 139.2L105.1 145.7Z" fill="#00BDC2"/>
<path opacity="0.15" d="M185.5 161.7C183.9 163 183.1 164.4 183.1 164.4C185.1 164.3 189.3 164.6 190.8 169.7C190.8 169.7 192.4 164 185.5 161.7Z" fill="black"/>
<path opacity="0.15" d="M198.2 167.6C198.2 167.6 200.9 166.1 199.3 161.1C198.3 161.2 197.5 161.4 196.9 161.7C198.5 163.3 198.7 166.2 198.2 167.6Z" fill="black"/>
<path d="M189.701 177.3C183.201 178.9 177.801 183.1 174.801 190.3C171.801 197.4 172.901 202.2 175.801 202.9C178.701 203.6 180.101 203.2 182.601 199.4C184.701 194.6 186.701 188.7 192.901 183.6C194.701 182.1 196.301 180.8 197.701 179.6C197.501 177.5 194.701 176.1 189.701 177.3Z" fill="white"/>
<path d="M188.2 170.5C186.3 169.7 184.2 174.3 186.5 175.2C188.3 176 190.8 171.6 188.2 170.5Z" fill="white"/>
<path d="M195.801 169C193.901 168.2 191.801 172.8 194.101 173.7C196.001 174.4 198.401 170 195.801 169Z" fill="white"/>
<path d="M202.1 168.8C200.2 168 198.1 172.6 200.4 173.5C202.2 174.2 204.7 169.9 202.1 168.8Z" fill="white"/>
<path d="M84.499 101C83.499 106.5 62.599 111.8 48.299 122.6C33.999 133.4 21.299 148.2 23.599 173.7C26.099 201.7 51.299 212 64.599 212C77.899 212 123.299 208.5 146.499 175.4C169.599 142.5 138.399 99 84.499 101Z" fill="#00BDC2"/>
<path opacity="0.15" d="M51.7988 165.8C51.7988 165.8 58.9988 153.1 78.8988 156.6C98.7988 160.1 96.9988 190.9 96.9988 190.9C96.9988 190.9 97.1988 208.1 84.4988 206.3C71.7988 204.4 51.7988 165.8 51.7988 165.8Z" fill="black"/>
<path opacity="0.15" d="M84.4989 101C84.3989 101.6 84.0989 102.1 83.5989 102.7C82.7989 112.9 85.8989 126.1 97.5989 129.8C110.299 133.8 124.699 131.5 134.299 128.1C137.099 127.1 140.299 125.7 143.499 124C131.699 109.9 110.799 100 84.4989 101Z" fill="black"/>
<path d="M92.4988 173.7C92.3988 173.7 92.2988 173.7 92.1988 173.7C48.1988 164.3 31.9988 136.5 26.1988 120.8C18.6988 100.2 17.9988 77.8 24.5988 65C24.9988 64.2 25.9988 63.9 26.7988 64.3C27.5988 64.7 27.8988 65.7 27.4988 66.5C21.3988 78.6 22.0988 100 29.2988 119.6C34.7988 134.7 50.4988 161.3 92.8988 170.5C93.7988 170.7 94.2988 171.6 94.1988 172.4C93.8988 173.1 93.2988 173.7 92.4988 173.7Z" fill="#456F7B"/>
<path d="M189.899 162.7C194.999 192 175.899 219.8 147.299 224.7C118.699 229.6 91.3994 209.9 86.3994 180.6C82.0994 155.9 95.4994 135.4 116.899 126.6C120.899 124.9 125.199 123.7 129.699 122.9C131.999 122.5 134.299 122.2 136.599 122.1C162.499 120.5 185.299 135.8 189.899 162.7Z" fill="#456F7B"/>
<mask id="mask0_243_531" style="mask-type:luminance" maskUnits="userSpaceOnUse" x="85" y="121" width="106" height="105">
<path d="M189.899 162.7C194.999 192 175.899 219.8 147.299 224.7C118.699 229.6 91.3994 209.9 86.3994 180.6C82.0994 155.9 95.4994 135.4 116.899 126.6C120.899 124.9 125.199 123.7 129.699 122.9C131.999 122.5 134.299 122.2 136.599 122.1C162.499 120.5 185.299 135.8 189.899 162.7Z" fill="white"/>
</mask>
<g mask="url(#mask0_243_531)">
<path opacity="0.15" d="M223.8 171.1C211.1 175.3 198.2 177.5 185.5 177.2C188 176.3 190.4 175 193.1 173.6C198.7 170.6 205.7 167.2 207.3 160.6C207.6 159.4 206.1 159.6 205.5 160.1C201.1 163.7 195.8 168.3 190.1 171.8C183.7 175.7 176 176.8 168.7 175.2C167.2 174.9 165.7 174.5 164.2 174.1C169.7 173.1 175.4 170.7 179 168.6C189.6 162.5 195.1 154 197 142.1C197.2 140.8 195.8 140.3 195 141.2C193.4 142.8 193.1 144.6 192.3 146.8C189.9 153.8 186.5 157.9 180.6 162.2C176.5 165.2 171.6 167.5 166.6 168.8C164 169.4 161.4 169.6 158.8 170C156.3 170.4 153.3 170.3 150.9 169.2C149 168.3 147.1 167.2 145.2 166.1C156.4 165.4 168.9 155.5 176.1 148.8C183.7 141.7 189.2 132.8 188 122.2C187.8 120.3 185.6 121.4 185.4 122.7C184.4 127.6 184 130.9 181.7 135.6C179.4 140.4 176.2 143.9 172.2 147.4C163.9 154.6 152.5 162.3 141.3 163.3C139.7 162.1 138.2 160.9 136.7 159.6C145.1 156.5 152.3 150.2 158.2 143.4C161.7 139.3 164.5 135 166.3 129.9C167.4 126.7 170 121.5 168.6 118.1C168 116.5 166 118 165.9 119.1C165.1 127.2 160.5 135.1 155.3 141.3C152.8 134.5 151.1 128.5 151.6 120.9C151.8 117.3 152.4 113.9 153.1 110.3C153.3 109.2 153.7 108.1 153.1 107C152.3 105.5 150.4 107.8 150.7 108.9C150.6 108.6 149.7 110.1 149.6 110.2C148.8 111.7 148.8 113.9 148.6 115.6C148.1 118.4 147.8 121.2 147.8 124C147.6 131.4 149.7 137.8 152.6 144.5C149.9 147.2 146.9 149.4 143.9 151.5C142 150.1 140.7 146.5 139.6 144.6C138 141.7 136.3 139 135.1 135.9C132.3 128.7 133 120.2 130 113.3C129.7 112.5 128.2 113.4 128.2 114.1C127.9 123.5 129.5 133.2 133.6 141.7C135.2 145 137.5 150.8 140.5 154.1C139.7 154.7 138.9 155.1 138 155.5C137.1 155.9 136.1 156.3 135.1 156.3C132.7 156.5 131.4 154.3 130 152.7C128.3 150.8 126.8 148.9 125.3 146.9C121.9 142.1 118.8 136.5 117.1 130.8C115.6 126 116 120.5 113.7 116C112.6 113.8 109.9 116.1 110.5 118C112.1 123 111.2 128.5 112.8 133.6C114.9 140.4 118.5 146.7 122.6 152.4C128.9 161.1 138.7 169.4 148.4 174.1C162.4 181 180.3 184.9 197 183.3C179.1 186.9 159.7 184.7 143 178C123.5 170.1 104 152.5 98.9001 131.4C98.7001 130.6 97.3001 131 97.2001 131.7C96.3001 142.1 104.2 153.1 111 160.2C118.8 168.3 127.1 176 137.6 180.5C149 185.5 160.4 188.8 173 189.1C177.9 189.2 183.1 189.2 188.2 188.8C181.8 190.8 175 192.3 168.8 192.4C160.2 192.5 151.7 191 143.4 189.1C129.9 186 118.6 180.4 108.3 171C104.1 167.1 100.7 162.6 97.4001 157.9C94.3001 153.5 89.7001 148.4 88.6001 143C88.3001 141.8 86.3001 143.1 86.4001 144C86.7001 148.4 88.8001 152.6 91.1001 156.3C92.4001 158.4 93.8001 160.4 95.3001 162.3C96.6001 164.2 97.8001 166.1 97.9001 168.5C98.0001 170.4 97.3001 172 97.0001 173.9C96.7001 175.6 96.4001 177.3 96.1001 179C95.5001 182.5 95.3001 186 95.3001 189.6C95.2001 201 100.6 210.9 106.8 220.1C107.4 221.1 109.1 219.5 108.8 218.7C105.4 208.1 98.9001 199.7 99.5001 188C99.8001 182.2 101.5 176.8 102.8 171.3C102.9 171.4 103 171.6 103.1 171.7C105 173.7 107.1 175.7 109.2 177.5C110.9 179 112.8 180.6 112.6 183.1C112.4 184.8 111.6 186.4 111.2 188C110.7 189.8 110.4 191.7 110.2 193.5C109.8 196.7 109.7 200 109.4 203.2C108.6 213.7 111.4 227.1 119 234.9C119.3 235.3 119.9 235.2 120.4 234.9C121.5 237.3 122.9 239.5 124.7 241.4C125.4 242.1 126.6 241.3 126.2 240.4C123.2 232.5 122 224.3 122.5 216.3C129.8 219.6 140.1 219 147 216.9C152.4 215.2 157.4 213.1 162 209.9C167.3 206.2 171.5 202.4 174.9 197.2C183.7 196.5 191.1 193.7 198.8 189.1C199.4 188.7 199.7 187.8 199.7 187C201.6 186.4 203.5 185.7 205.3 184.9C206.2 184.5 206.6 182.8 206.1 182C212.7 180.4 219 177.8 224.5 173.9C225.3 173.1 225.7 170.5 223.8 171.1ZM126.4 199C126.8 198.1 127.2 197.2 127.7 196.3C128.6 194.5 129.7 192.7 130.8 191C130.9 190.9 130.9 190.8 131 190.7C132.9 191.4 134.8 192 136.7 192.6C140.7 193.7 144.8 194.7 149.1 195.4C148.8 195.4 147.5 196.6 147.2 196.8C146.5 197.3 145.9 197.7 145.2 198.2C143.9 199 142.5 199.8 141 200.4C138.2 201.6 135.2 202.4 132.2 202.4C130.7 202.4 129.2 202 127.8 201.6C126.8 201.1 125.9 200.3 126.4 199ZM117.7 213.5C117.3 217.6 117.2 221.9 117.7 226.1C115 218.7 113.1 211.2 113.6 203.2C114 196.6 115.2 190 117 183.6C117 183.9 121.1 186 121.5 186.3C122.6 186.9 125.4 187.7 125.9 189C126 189.3 126 189.5 125.9 189.8C125.7 190.4 125.4 190.9 125.1 191.4C120.6 198.1 118.5 205.5 117.7 213.5ZM161.2 204.9C157.2 207.9 152.9 210 148.1 211.6C140.9 214 130.2 215.1 122.7 211.6C123 209.4 123.5 207.3 124.1 205.1C127.8 206.9 133.3 206.7 136.6 206.1C142.6 205 150.7 201.6 154 196.2C159.2 196.9 165 197.3 170.2 197.1C167.7 199.9 164.4 202.6 161.2 204.9Z" fill="black"/>
</g>
<g opacity="0.15">
<path d="M96.6997 183.3C92.2997 170.8 85.8997 171.7 85.8997 171.7C85.8997 171.7 88.4998 170.2 95.7998 171.1C95.7998 171.1 93.7997 165.6 86.4997 162.4C85.3997 168.1 85.2997 174.3 86.3997 180.7C87.6997 188.4 90.5997 195.5 94.6997 201.6C96.6997 197.5 99.1997 190.3 96.6997 183.3Z" fill="black"/>
<path d="M112.2 218.2C113.6 215.1 115.6 211.9 118.9 208.8C128 200.5 131.3 198.1 131.2 192.4C131.1 184.9 123.9 185.5 121.8 186.7C121.8 186.7 119.8 183.6 114.5 185.1C110.1 186.3 108.2 190.2 108.2 190.2C108.2 190.2 104.6 189.8 100.9 193.8C99.2 195.7 96.7 199.2 95 201.7C99.4 208.5 105.3 214.1 112.2 218.2Z" fill="black"/>
</g>
<path d="M187.998 140.6C187.798 136.2 185.098 130.2 181.698 125.3C175.898 117.1 167.498 112 159.098 109.3L137.398 122.8C160.498 122 168.498 134.2 170.698 141C172.198 145.7 173.398 149.3 176.198 149.3C178.898 149.3 179.198 147 179.198 147C181.098 148.8 183.898 147.7 183.998 145.4C184.998 145.9 186.098 145.7 186.898 144.9C187.998 143.7 188.098 142.1 187.998 140.6Z" fill="#00BDC2"/>
<path opacity="0.15" d="M159.098 109.2L137.398 122.7C140.398 122.6 143.098 122.7 145.598 123C151.398 119.9 157.398 115.6 162.198 110.3C161.198 109.9 160.198 109.5 159.098 109.2Z" fill="black"/>
<path opacity="0.15" d="M186.899 144.8C185.999 145.1 185.199 144.7 184.699 143.5C183.999 141.7 183.699 140.9 183.299 140.5C183.299 140.5 184.099 143.3 183.899 145.3C184.999 145.8 186.099 145.7 186.899 144.8Z" fill="black"/>
<path opacity="0.15" d="M182.298 147.6C181.198 147.6 180.298 146.8 179.898 145.4C179.298 143.5 178.998 143 178.598 142.6C178.598 142.6 179.298 144.9 179.098 146.9C180.098 147.8 181.398 148 182.298 147.6Z" fill="black"/>
<path d="M23.5 173.8C25.7 191.1 31.9 201.6 44.3 211C56.7 220.4 73.8 225.5 81.4 228.3C89 231.1 94.7 234.8 99.9 230C105 225.2 104 215.3 113.2 207C122.4 198.7 125.6 196.3 125.5 190.6C125.4 183.1 118.2 183.7 116.1 184.9C116.1 184.9 114.1 181.8 108.8 183.3C104.4 184.5 102.5 188.4 102.5 188.4C102.5 188.4 98.9 188 95.2 192C92.3 195.1 87.2 203 87.2 203C87.2 203 94.8 192 91.1 181.5C86.7 169 80.3 169.9 80.3 169.9C80.3 169.9 82.9 168.4 90.2 169.3C90.2 169.3 86.8 160.3 73.4 158.5C60.1 156.7 51.9 165.8 51.9 165.8L23.5 173.8Z" fill="#00BDC2"/>
<path opacity="0.15" d="M104.6 185.6C103.1 187 102.4 188.4 102.4 188.4C105.3 188.4 108.7 188.6 110.5 193.8C110.5 193.8 112.8 187.9 104.6 185.6Z" fill="black"/>
<path opacity="0.15" d="M117.6 190.8C117.6 190.8 120.2 189.1 118.4 184.2C117.4 184.3 116.6 184.6 116 184.9C117.7 186.5 118 189.3 117.6 190.8Z" fill="black"/>
<path d="M109.701 200.9C103.301 202.8 98.1006 207.3 95.5006 214.6C92.9006 221.9 94.2006 226.6 97.1006 227.2C100.001 227.8 101.401 227.3 103.701 223.3C105.501 218.4 107.201 212.4 113.101 206.9C114.901 205.3 116.401 203.9 117.701 202.7C117.401 200.7 114.601 199.4 109.701 200.9Z" fill="white"/>
<path d="M107.3 194.7C105.3 194 103.5 198.7 105.8 199.5C107.7 200.1 109.9 195.6 107.3 194.7Z" fill="white"/>
<path d="M115.3 192.2C113.3 191.5 111.5 196.2 113.8 197C115.8 197.7 118 193.2 115.3 192.2Z" fill="white"/>
<path d="M121.601 191.8C119.601 191.1 117.801 195.8 120.101 196.6C122.001 197.2 124.301 192.7 121.601 191.8Z" fill="white"/>
<path opacity="0.05" d="M94.1001 230C82.2001 227.4 83.8001 221.1 78.5001 217.2C73.2001 213.4 61.4001 214.8 42.4001 199.3C23.4001 183.8 22.6001 150.1 34.7001 135.4C27.0001 144.9 22.0001 157 23.5001 173.8C23.7001 176.6 24.2001 179.2 24.9001 181.7C27.9001 194.5 33.9001 203.1 44.3001 211C56.7001 220.4 73.8001 225.5 81.4001 228.3C89.0001 231.1 94.7001 234.8 99.9001 230C100.3 229.6 100.7 229.2 101 228.7C99.0001 230.1 96.7001 230.5 94.1001 230Z" fill="black"/>
<path opacity="0.15" d="M138.8 146.9C132.6 138.4 127.7 134.4 120.2 130.2V125.3C119.1 125.7 117.9 126.1 116.9 126.6C106.2 131 97.5 138.4 92 147.8C114.9 146.1 125.1 157.7 127.7 164.4C129.5 169.1 131 172.7 133.8 172.6C136.5 172.4 136.7 170 136.7 170C138.7 171.7 141.6 170.5 141.6 168.1C142.7 168.5 143.8 168.3 144.5 167.4C145.5 166.2 145.6 164.6 145.4 163C144.9 158.4 142.5 151.8 138.8 146.9Z" fill="black"/>
<path d="M146.3 159.6C145.9 155.1 143.4 148.5 139.8 143.5C133.6 135 128.7 131 121.2 126.8V120.9C121.2 120.9 94.0996 126.4 93.5996 144.4C117.2 142.2 126.1 154.2 128.6 161C130.4 165.7 131.9 169.3 134.7 169.2C137.4 169 137.6 166.6 137.6 166.6C139.6 168.3 142.5 167.1 142.5 164.7C143.6 165.1 144.7 164.9 145.4 164C146.4 162.8 146.5 161.2 146.3 159.6Z" fill="#00BDC2"/>
<path opacity="0.15" d="M145.4 164C144.5 164.3 143.7 164 143.1 162.8C142.2 161 142 160.2 141.5 159.8C141.5 159.8 142.5 162.6 142.4 164.6C143.6 165.1 144.6 164.9 145.4 164Z" fill="black"/>
<path opacity="0.15" d="M140.9 167.2C139.8 167.2 138.8 166.5 138.4 165.1C137.7 163.2 137.3 162.7 136.9 162.3C136.9 162.3 137.7 164.6 137.6 166.7C138.7 167.5 139.9 167.6 140.9 167.2Z" fill="black"/>
<path opacity="0.15" d="M100.6 130.6C109.5 132.6 118.8 132 126.7 130.2C125 129 123.2 127.9 121.2 126.8V120.9C121.2 120.9 108.8 123.5 100.6 130.6Z" fill="black"/>
<path d="M126.998 61.7C129.698 53.1 141.698 42.1 151.698 45.3C157.398 47.1 155.098 68 155.098 68C155.098 68 136.798 69.4 126.998 61.7Z" fill="#00BDC2"/>
<path opacity="0.15" d="M126.998 61.7C129.698 53.1 141.698 42.1 151.698 45.3C157.398 47.1 155.098 68 155.098 68C155.098 68 136.798 69.4 126.998 61.7Z" fill="black"/>
<path d="M135.598 65.8999C144.898 68.6999 155.198 67.8999 155.198 67.8999C155.198 67.8999 157.498 46.9999 151.798 45.1999C148.098 44.7999 139.198 50.2999 135.598 65.8999Z" fill="white"/>
<path d="M147.498 58.1999C146.598 55.8999 148.298 52.8999 148.298 52.8999C144.898 52.8999 140.498 56.3999 140.098 61.9999C140.098 61.9999 146.998 70.2999 154.098 65.8999C154.398 64.4999 154.998 63.3999 155.598 62.5999C155.698 61.1999 155.698 59.4999 155.698 57.8999C151.898 57.0999 147.498 58.1999 147.498 58.1999Z" fill="white"/>
<path d="M103.599 69.9C96.099 64.9 79.899 63.8 74.099 72.5C70.799 77.4 85.599 92.3 85.599 92.3C85.599 92.3 100.799 82 103.599 69.9Z" fill="#00BDC2"/>
<path opacity="0.15" d="M103.599 69.9C96.099 64.9 79.899 63.8 74.099 72.5C70.799 77.4 85.599 92.3 85.599 92.3C85.599 92.3 100.799 82 103.599 69.9Z" fill="black"/>
<path d="M99.5986 78.6C94.0986 86.6 85.5986 92.4 85.5986 92.4C85.5986 92.4 70.6986 77.5 73.9986 72.6C76.5986 69.9 86.9986 68.7 99.5986 78.6Z" fill="white"/>
<path d="M81.8984 76.1C81.8984 76.1 85.0984 77.4 85.7984 79.8C85.7984 79.8 81.1984 81.8 78.8984 85C79.7984 86.1 80.5984 87.1 81.3984 88.1C82.5984 88.3 83.9984 88.8 85.3984 89.9C93.6984 88.9 93.3984 78.7 93.3984 78.7C90.5984 74.4 84.5984 74 81.8984 76.1Z" fill="white"/>
<path d="M135.298 123.5C125.698 126.9 111.298 129.2 98.5981 125.2C83.4981 120.5 82.5981 99.7 86.2981 90.1C89.9981 80.5 97.5981 70.8 114.898 64.7C132.198 58.6 144.298 61.5 153.098 66.6C161.898 71.7 174.398 88.5 165.498 101.7C158.098 112.7 144.898 120.1 135.298 123.5Z" fill="#00BDC2"/>
<path d="M135.199 121.4C154.399 114.6 153.399 103.4 148.499 98.9001C143.599 94.4001 135.599 93.4001 126.399 96.6001C117.199 99.8001 111.599 105.7 110.599 112.2C109.699 118.7 115.999 128.1 135.199 121.4Z" fill="white"/>
<path d="M129.998 113.3C129.998 113.3 130.798 116.5 133.198 115.7C135.698 114.9 134.198 111.8 134.198 111.8L131.198 109.6L129.998 113.3Z" fill="white"/>
<path d="M129.899 106.2L125.399 105.7C125.099 105.7 124.799 105.4 124.899 105C124.899 104.7 125.199 104.4 125.599 104.5L129.499 104.9L132.399 102.1C132.599 101.9 132.999 101.9 133.299 102.1C133.499 102.3 133.499 102.7 133.299 103L129.899 106.2Z" fill="#456F7B"/>
<path d="M126.599 115.5C125.799 115.5 125.099 115.3 124.399 115C123.199 114.4 122.199 113.4 121.799 112.1C121.699 111.8 121.899 111.4 122.199 111.3C122.499 111.2 122.899 111.4 122.999 111.7C123.299 112.7 123.999 113.5 124.999 113.9C125.899 114.3 126.999 114.4 127.999 114.1C128.999 113.8 129.799 113.1 130.199 112.1C130.599 111.2 130.699 110.1 130.399 109.1L129.199 105.7C129.099 105.4 129.299 105 129.599 104.9C129.899 104.8 130.299 105 130.399 105.3L131.599 108.7C132.099 110 131.999 111.4 131.399 112.6C130.799 113.8 129.799 114.8 128.499 115.2C127.699 115.4 127.199 115.5 126.599 115.5Z" fill="#456F7B"/>
<path d="M135.1 112.5C134.3 112.5 133.6 112.3 132.9 112C131.7 111.4 130.7 110.4 130.3 109.1L129.1 105.7C129 105.4 129.2 105 129.5 104.9C129.8 104.8 130.2 105 130.3 105.3L131.5 108.7C131.8 109.7 132.5 110.5 133.5 110.9C134.4 111.3 135.5 111.4 136.5 111.1C138.5 110.4 139.6 108.2 138.9 106.2C138.8 105.9 139 105.5 139.3 105.4C139.6 105.3 140 105.5 140.1 105.8C141 108.5 139.6 111.4 137 112.3C136.2 112.4 135.6 112.5 135.1 112.5Z" fill="#456F7B"/>
<path d="M145.79 92.2264C148.134 91.4005 149.365 88.8308 148.539 86.4867C147.713 84.1425 145.143 82.9117 142.799 83.7376C140.455 84.5635 139.224 87.1332 140.05 89.4774C140.876 91.8215 143.446 93.0523 145.79 92.2264Z" fill="#456F7B"/>
<path d="M108.786 105.244C111.13 104.419 112.361 101.849 111.535 99.5047C110.709 97.1605 108.139 95.9298 105.795 96.7556C103.451 97.5815 102.22 100.151 103.046 102.495C103.872 104.839 106.442 106.07 108.786 105.244Z" fill="#456F7B"/>
<path d="M89.9986 103.3C89.7986 103.3 89.4986 103.2 89.2986 103C85.8986 99.5 80.0986 95.9 72.0986 98.7C71.5986 98.9 71.0986 98.6 70.8986 98.1C70.6986 97.6 70.9986 97.1 71.4986 96.9C80.4986 93.8 86.8986 97.7 90.6986 101.6C91.0986 102 91.0986 102.6 90.6986 102.9C90.4986 103.2 90.2986 103.3 89.9986 103.3Z" fill="#456F7B"/>
<path d="M87.9981 105.6C87.7981 105.6 87.6981 105.6 87.4981 105.5C84.3981 103.6 78.7981 103.6 75.7981 104.9C75.2981 105.1 74.7981 104.9 74.5981 104.4C74.3981 103.9 74.5981 103.4 75.0981 103.2C78.4981 101.7 84.7981 101.7 88.4981 104C88.8981 104.3 89.0981 104.8 88.7981 105.3C88.5981 105.5 88.2981 105.6 87.9981 105.6Z" fill="#456F7B"/>
<path d="M73.4978 113.5C73.1978 113.5 72.9978 113.4 72.7978 113.2C72.4978 112.8 72.4978 112.2 72.8978 111.9C78.3978 107.2 85.5978 106.4 89.8978 107.5C90.3978 107.6 90.6978 108.1 90.5978 108.6C90.4978 109.1 89.8978 109.4 89.4978 109.3C85.5978 108.3 79.1978 109.1 74.1978 113.3C73.9978 113.4 73.7978 113.5 73.4978 113.5Z" fill="#456F7B"/>
<path d="M157.898 79.4C157.798 79.4 157.798 79.4 157.898 79.4C157.298 79.3 156.898 78.9 156.998 78.4C157.498 73 159.998 65.9 168.998 62.7C169.498 62.5 169.998 62.8 170.198 63.3C170.398 63.8 170.098 64.3 169.598 64.5C161.598 67.4 159.298 73.8 158.798 78.6C158.798 79 158.398 79.4 157.898 79.4Z" fill="#456F7B"/>
<path d="M160.898 79.9C160.798 79.9 160.698 79.9 160.598 79.8C160.098 79.6 159.898 79.1 159.998 78.6C161.398 74.5 166.398 70.6 169.898 69.6C170.398 69.5 170.898 69.8 170.998 70.2C171.098 70.7 170.798 71.2 170.398 71.3C167.298 72.2 162.898 75.7 161.698 79.1C161.698 79.7 161.298 79.9 160.898 79.9Z" fill="#456F7B"/>
<path d="M161.898 83.8C161.698 83.8 161.498 83.7 161.398 83.6C160.998 83.3 160.898 82.7 161.198 82.3C163.798 78.7 169.898 74.9 177.198 75C177.698 75 178.098 75.4 178.098 76C178.098 76.5 177.698 76.9 177.198 76.9C170.598 76.8 165.098 80.2 162.798 83.4C162.498 83.7 162.198 83.8 161.898 83.8Z" fill="#456F7B"/>
<path d="M141.699 62.1C142.499 58.4 145.999 54.9 149.299 54.9C149.299 54.9 147.599 57.9 148.499 60.2C148.499 60.2 157.099 57.9 160.299 61.9C160.299 61.9 156.399 62.6 155.099 67.9C148.099 72.4 141.699 62.1 141.699 62.1Z" fill="#00BDC2"/>
<path d="M92.3982 79.5C89.4982 77.1 84.5982 76.5 81.8982 78.7C81.8982 78.7 85.0982 80 85.7982 82.4C85.7982 82.4 77.5982 86 77.6982 91.1C77.6982 91.1 81.1982 89.2 85.4982 92.5C93.8982 91.4 92.3982 79.5 92.3982 79.5Z" fill="#00BDC2"/>
<path d="M122.8 62.4C121.6 62.7 121.5 60.5 122.1 57.8C122.6 55.3 124.6 50.4 121.1 50.5C117.7 50.6 113.9 53.7 112.4 59.6C112.4 59.6 110.8 57.6 110.3 55.4C109.8 53.2 107 53 105.7 57.4C104.8 60.8 106.4 64.2 107.3 65.6C107.8 66.4 107.6 67.7 105.9 68.6C105.9 68.6 113.1 71.1 118 68.6C122.8 66.2 122.8 62.4 122.8 62.4Z" fill="#00BDC2"/>
<path d="M114.198 81.4C115.398 81.3 116.298 80.2 116.198 79C115.798 74.6 113.898 70.4 110.698 66.3C109.298 66.9 107.898 67.5 106.598 68.2C109.698 71.9 111.498 75.6 111.898 79.4C111.998 80.5 112.998 81.4 114.098 81.4C114.098 81.4 114.098 81.4 114.198 81.4Z" fill="#456F7B"/>
<path d="M127.398 74C127.598 75 128.498 75.8 129.498 75.8C129.598 75.8 129.798 75.8 129.898 75.8C131.098 75.6 131.898 74.4 131.598 73.2C130.798 69.2 128.798 65.4 125.598 61.9C123.998 62.2 122.298 62.5 120.498 63C124.298 66.4 126.598 70.1 127.398 74Z" fill="#456F7B"/>
<path d="M113.498 65.2C115.798 67.7 119.398 72.6 120.298 78.5C120.498 79.6 121.398 80.4 122.498 80.4C122.598 80.4 122.698 80.4 122.798 80.4C123.998 80.2 124.798 79.1 124.598 77.9C123.698 71.9 120.498 66.9 117.898 63.7C116.898 64 115.898 64.3 114.798 64.7C114.398 64.9 113.998 65 113.498 65.2Z" fill="#456F7B"/>
<path d="M34.6998 206.1C34.5998 206.1 34.5998 206.1 34.4998 206.1C33.5998 206 32.8998 205.2 32.9998 204.3C33.6998 197.4 40.3998 185.5 56.3998 180.7C71.8998 176.1 88.0998 181.3 94.7998 189C95.3998 189.7 95.2998 190.7 94.5998 191.3C93.8998 191.9 92.8998 191.8 92.2998 191.1C87.2998 185.4 72.7998 179.1 57.2998 183.8C42.8998 188.1 36.7998 198.6 36.1998 204.6C36.2998 205.4 35.5998 206.1 34.6998 206.1Z" fill="#456F7B"/>
<path d="M50.6996 218.6C49.7996 218.6 49.0996 217.9 49.0996 217C49.0996 213.7 51.5996 202.2 59.8996 195.1C72.7996 184 87.6996 188.3 92.3996 190.8C93.1996 191.2 93.4996 192.2 92.9996 193C92.5996 193.8 91.5996 194.1 90.7996 193.6C86.6996 191.3 73.4996 187.6 61.9996 197.5C54.5996 203.8 52.2996 214.1 52.2996 216.9C52.3996 217.8 51.6996 218.6 50.6996 218.6Z" fill="#456F7B"/>
<path d="M29.7993 53.4C24.9993 64.8 29.3993 89 39.2993 103.9C49.9993 120 71.6993 140.2 95.9993 149.2C96.7993 149.5 97.2993 150.5 96.9993 151.3C96.7993 152 96.0993 152.4 95.4993 152.4C95.2993 152.4 95.0993 152.4 94.8993 152.3C69.8993 143 47.5993 122.2 36.5993 105.7C25.4993 89 21.0993 62.1 27.6993 50.3C28.2993 49.3 28.7993 48.5 29.2993 47.9C29.5993 49.7 29.7993 51.6 29.7993 53.4Z" fill="#456F7B"/>
</g>
<defs>
<clipPath id="clip0_243_531">
<rect width="289.6" height="247" fill="white"/>
</clipPath>
</defs>
</svg>
