<svg width="394" height="120" viewBox="0 0 394 120" fill="none" xmlns="http://www.w3.org/2000/svg">
<path d="M112 5C112 2.23858 114.239 0 117 0H277C279.761 0 282 2.23858 282 5V115C282 117.761 279.761 120 277 120H117C114.239 120 112 117.761 112 115V5Z" fill="#00BDC2"/>
<path d="M122 10H272V110H122V10Z" fill="white"/>
<circle cx="233" cy="10" r="10" fill="#00BDC2"/>
<circle cx="233" cy="110" r="10" fill="#00BDC2"/>
<path d="M233 20.5V100" stroke="#C4E1E2" stroke-dasharray="5 5"/>
<rect x="245" y="30" width="18" height="1" fill="black"/>
<rect x="245" y="90" width="18" height="1" fill="black"/>
<rect x="245" y="47" width="18" height="1" fill="black"/>
<rect x="245" y="49" width="18" height="1" fill="black"/>
<rect x="245" y="84" width="18" height="1" fill="black"/>
<rect x="245" y="86" width="18" height="1" fill="black"/>
<rect x="245" y="58" width="18" height="1" fill="black"/>
<rect x="245" y="62" width="18" height="1" fill="black"/>
<rect x="245" y="39" width="18" height="2" fill="black"/>
<rect x="245" y="42" width="18" height="2" fill="black"/>
<rect x="245" y="72" width="18" height="2" fill="black"/>
<rect x="245" y="75" width="18" height="2" fill="black"/>
<rect x="245" y="80" width="18" height="2" fill="black"/>
<rect x="245" y="33" width="18" height="4" fill="black"/>
<rect x="245" y="66" width="18" height="4" fill="black"/>
<rect x="245" y="52" width="18" height="4" fill="black"/>
<path fill-rule="evenodd" clip-rule="evenodd" d="M160.888 37.9333C156.962 38.0525 155.106 38.4627 153.403 39.581C151.331 40.94 150.325 43.1308 150.004 46.9877C149.849 48.8829 149.849 66.9504 150.004 68.8456C150.277 72.1158 150.985 74.034 152.45 75.4708C153.802 76.7954 155.546 77.4898 158.144 77.7396C159.233 77.8427 159.29 77.8587 159.24 78.0352C158.846 79.4148 159.15 80.6523 160.092 81.4819C160.642 81.9654 161.284 82.1831 162.634 82.3412C163.264 82.4146 163.814 82.4971 163.858 82.5223C163.899 82.5498 163.963 82.9119 163.997 83.329C164.174 85.4144 164.744 86.3654 166.158 86.9223C166.697 87.1354 167.712 87.1446 168.324 86.9406C169.007 86.7137 169.451 86.3471 172.059 83.8583C173.352 82.6231 174.45 81.6125 174.5 81.6125C174.55 81.6125 175.648 82.6231 176.941 83.8583C178.233 85.0912 179.498 86.2554 179.75 86.4433C181.224 87.5433 183.385 87.2202 184.354 85.7535C184.707 85.2219 184.906 84.4771 185.003 83.329C185.037 82.9119 185.101 82.5498 185.142 82.5223C185.186 82.4971 185.736 82.4146 186.366 82.3412C186.922 82.2839 187.472 82.1765 188.009 82.0204C188.988 81.656 189.696 80.7737 189.893 79.6829C189.987 79.1604 189.948 78.6975 189.758 78.0283C189.705 77.8473 189.746 77.8335 190.512 77.774C195.324 77.4073 197.836 75.3723 198.693 71.1442C199.062 69.3246 199.106 67.8877 199.106 57.9167C199.106 47.9456 199.062 46.5087 198.693 44.6892C197.827 40.4129 195.375 38.4765 190.244 38.0181C188.894 37.8967 164.355 37.8256 160.888 37.9333ZM190.853 41.4946C192.464 41.7535 193.672 42.2508 194.254 42.8948C194.651 43.3348 195.059 44.1644 195.26 44.9458C195.615 46.3208 195.629 46.8273 195.629 57.9625C195.629 67.8648 195.615 68.8662 195.466 69.8012C194.887 73.4587 193.606 74.2883 188.227 74.4923L186.598 74.5542L184.847 72.8583L183.096 71.1625L182.968 70.3581C182.772 69.0544 182.276 67.8143 181.517 66.7362C180.758 65.6581 179.759 64.7718 178.598 64.1477C177.349 63.4437 175.933 63.0891 174.5 63.121C172.937 63.121 171.757 63.4167 170.393 64.1523C169.234 64.777 168.237 65.6631 167.48 66.7402C166.723 67.8174 166.227 69.0561 166.032 70.3581L165.904 71.1625L164.176 72.8354L162.448 74.5083H161.486C160.154 74.5083 158.19 74.3525 157.313 74.1783C156.405 73.9973 155.401 73.5435 154.897 73.0898C154.212 72.471 153.721 71.2244 153.485 69.5125C153.32 68.3277 153.32 47.5056 153.485 46.3208C153.793 44.0796 154.416 42.8833 155.591 42.2669C156.559 41.7604 157.494 41.5381 159.162 41.4235C160.846 41.3044 190.088 41.3708 190.853 41.4946ZM167.201 47.0954C166.092 47.359 165.558 48.7592 166.211 49.685C166.383 49.9149 166.598 50.1081 166.846 50.2533C167.208 50.4435 167.316 50.4458 174.22 50.471C179.129 50.4894 181.375 50.4665 181.721 50.3954C183.442 50.0379 183.509 47.5423 181.808 47.1137C181.327 46.9946 167.701 46.9762 167.201 47.0954ZM162.4 55.1781C161.8 55.4165 161.366 56.0833 161.366 56.7708C161.365 57.1126 161.465 57.4472 161.654 57.7317C161.844 58.0162 162.114 58.2378 162.43 58.3681C162.79 58.5056 186.21 58.5056 186.57 58.3681C186.886 58.2378 187.156 58.0162 187.346 57.7317C187.535 57.4472 187.635 57.1126 187.634 56.7708C187.635 56.429 187.535 56.0945 187.346 55.81C187.156 55.5255 186.886 55.3039 186.57 55.1735C186.224 55.0406 162.73 55.0475 162.4 55.1781ZM175.825 66.6731C176.675 66.8954 177.42 67.34 178.123 68.0435C179.177 69.0977 179.633 70.1908 179.633 71.6667C179.633 73.1425 179.177 74.2356 178.123 75.2898C177.069 76.344 175.976 76.8 174.5 76.8C173.024 76.8 171.931 76.344 170.877 75.2898C169.823 74.2356 169.367 73.1425 169.367 71.6667C169.367 70.1908 169.823 69.0977 170.877 68.0435C171.564 67.3537 172.323 66.8977 173.134 66.6777C173.794 66.5012 175.153 66.499 175.825 66.6731ZM167.029 75.8535C167.889 77.4187 169.087 78.5485 170.765 79.3758C171.106 79.5454 171.374 79.7058 171.36 79.7356C171.305 79.864 167.485 83.4733 167.467 83.416C167.407 83.081 167.355 82.7448 167.309 82.4077C167.004 80.3337 165.97 79.3277 163.869 79.055C163.544 79.0224 163.222 78.9688 162.904 78.8946C162.872 78.8602 166.608 75.2417 166.674 75.2417C166.683 75.2417 166.844 75.5167 167.029 75.8535ZM184.654 77.4394C185.468 78.2185 186.114 78.874 186.094 78.8946C186.071 78.9175 185.638 78.9885 185.131 79.055C183.03 79.3277 181.996 80.3337 181.691 82.4077C181.616 82.9279 181.545 83.3817 181.533 83.416C181.515 83.4733 177.695 79.864 177.64 79.7356C177.626 79.7058 177.894 79.5454 178.235 79.3758C179.913 78.5485 181.111 77.4187 181.973 75.8535L182.31 75.2394L182.743 75.6312C182.981 75.8444 183.841 76.6579 184.654 77.4394Z" fill="black"/>
<path d="M66.5 7L69.4911 27.5089L90 30.5L69.4911 33.4911L66.5 54L63.5089 33.4911L43 30.5L63.5089 27.5089L66.5 7Z" fill="#DAEAEB"/>
<path d="M59.5 80L61.6001 94.3999L76 96.5L61.6001 98.6001L59.5 113L57.3999 98.6001L43 96.5L57.3999 94.3999L59.5 80Z" fill="#DAEAEB"/>
<path d="M23.5 50L24.5819 57.4181L32 58.5L24.5819 59.5819L23.5 67L22.4181 59.5819L15 58.5L22.4181 57.4181L23.5 50Z" fill="#DAEAEB"/>
<circle cx="90" cy="76" r="2" fill="#DAEAEB"/>
<circle cx="2" cy="88" r="2" fill="#DAEAEB"/>
<path d="M327.5 7L324.509 27.5089L304 30.5L324.509 33.4911L327.5 54L330.491 33.4911L351 30.5L330.491 27.5089L327.5 7Z" fill="#DAEAEB"/>
<path d="M334.5 80L332.4 94.3999L318 96.5L332.4 98.6001L334.5 113L336.6 98.6001L351 96.5L336.6 94.3999L334.5 80Z" fill="#DAEAEB"/>
<path d="M370.5 50L369.418 57.4181L362 58.5L369.418 59.5819L370.5 67L371.582 59.5819L379 58.5L371.582 57.4181L370.5 50Z" fill="#DAEAEB"/>
<circle cx="2" cy="2" r="2" transform="matrix(-1 0 0 1 306 74)" fill="#DAEAEB"/>
<circle cx="2" cy="2" r="2" transform="matrix(-1 0 0 1 394 86)" fill="#DAEAEB"/>
</svg>
