<svg width="141" height="119" viewBox="0 0 141 119" fill="none" xmlns="http://www.w3.org/2000/svg">
<path d="M81.7013 75.6818C81.6531 76.4322 81.605 77.1947 81.5087 77.9572V77.9088C81.5087 78.0056 81.5087 78.1508 81.4846 78.2598C81.4004 79.1554 81.3041 80.039 81.1957 80.9225C80.9791 82.7138 80.7384 84.5051 80.4616 86.2843C79.92 89.8185 79.2821 93.3284 78.6201 96.8263C78.247 98.8112 77.8739 100.784 77.5008 102.769C77.3804 103.423 77.6572 104.197 78.1266 104.355C78.596 104.512 79.1015 104.149 79.2219 103.447C80.5338 96.3664 81.966 89.3222 82.8567 82.0965C82.9891 81.0435 83.1094 79.9784 83.2057 78.9133C83.314 77.8482 83.3983 76.7832 83.4825 75.706C83.5307 75.0282 83.0372 74.3504 82.5919 74.3746C82.0623 74.3867 81.7494 74.9313 81.7013 75.6818Z" fill="#262524"/>
<path d="M78.3164 103.653C78.521 103.774 78.7256 103.883 78.9423 103.979C79.1589 104.076 79.3876 104.161 79.6163 104.246C80.4467 104.427 81.542 104.681 82.553 104.645C82.8057 104.633 83.0465 104.609 83.2751 104.56C83.4436 104.524 83.6362 104.476 83.8167 104.415C83.9973 104.355 84.1899 104.27 84.3463 104.173C84.8759 103.895 84.8759 103.277 84.6592 102.793C84.3584 102.261 83.9973 101.825 83.4797 101.571C83.3474 101.498 83.2029 101.438 83.0585 101.389C81.7466 100.954 80.2181 101.389 79.207 102.454C79.1228 102.539 79.0265 102.636 78.9423 102.733C78.846 102.975 78.5812 103.108 78.4729 103.362C78.4247 103.447 78.3645 103.556 78.3164 103.653Z" fill="#262524"/>
<path d="M77.9322 104.318C78.4978 104.645 79.1117 104.911 79.7495 105.057C80.3874 105.19 81.0374 105.311 81.6873 105.383C82.3613 105.444 83.0474 105.42 83.7093 105.25C84.3231 105.093 85.0453 104.802 85.3703 104.197C85.9961 103.023 85.0453 101.607 84.0463 100.99C83.0233 100.36 81.6873 100.288 80.568 100.687C79.918 100.917 79.3163 101.28 78.8108 101.764C78.7024 101.861 78.6062 101.97 78.5099 102.079C78.4377 102.164 78.3534 102.249 78.2932 102.345C78.2812 102.382 78.2571 102.418 78.233 102.454C78.2932 102.382 78.2932 102.37 78.2451 102.442C77.9923 102.684 77.8118 102.975 77.6674 103.277C77.4868 103.628 77.547 104.112 77.9322 104.318C78.2692 104.5 78.7987 104.427 78.9793 104.04C79.0274 103.931 79.0876 103.834 79.1357 103.737C79.1598 103.701 79.2681 103.556 79.1478 103.689C79.1718 103.653 79.2079 103.628 79.232 103.604C79.3283 103.495 79.4246 103.386 79.5088 103.265C79.5088 103.265 79.6051 103.096 79.557 103.181C79.5209 103.217 79.5329 103.205 79.5811 103.144C79.6172 103.108 79.6533 103.072 79.6894 103.035C79.7736 102.951 79.8579 102.866 79.9421 102.793C79.9782 102.757 80.0143 102.733 80.0384 102.696C80.0384 102.696 80.2069 102.563 80.1227 102.624C80.0384 102.696 80.2189 102.563 80.2069 102.563C80.255 102.527 80.3032 102.503 80.3513 102.466C80.4597 102.406 80.5559 102.333 80.6643 102.285C80.7245 102.249 80.7846 102.224 80.8448 102.2C80.7124 102.249 80.8207 102.212 80.8448 102.2C80.9531 102.164 81.0494 102.128 81.1577 102.091C81.2661 102.055 81.3623 102.031 81.4707 102.007C81.5188 101.994 81.5549 101.994 81.6031 101.982C81.6873 101.97 81.6873 101.97 81.591 101.982C81.6392 101.982 81.6753 101.97 81.7234 101.97C81.916 101.958 82.1086 101.958 82.3011 101.97C82.3372 101.97 82.5419 102.007 82.3493 101.97C82.3854 101.982 82.4335 101.982 82.4817 101.994C82.602 102.019 82.7344 102.055 82.8548 102.091C82.8307 102.079 83.0714 102.176 82.9751 102.14C82.8788 102.103 83.1075 102.212 83.0955 102.2C83.1918 102.249 83.2881 102.309 83.3844 102.37C83.4084 102.382 83.5047 102.454 83.3844 102.37C83.4325 102.418 83.4806 102.454 83.5288 102.503C83.5649 102.539 83.589 102.563 83.6251 102.6C83.6371 102.612 83.7815 102.793 83.7334 102.721C83.6612 102.636 83.7936 102.805 83.7936 102.805C83.8176 102.842 83.8417 102.878 83.8658 102.914C83.9019 102.975 83.938 103.035 83.9741 103.096C84.0584 103.217 83.9861 103.12 83.9741 103.084C83.9861 103.132 84.0704 103.302 84.0463 103.362C84.0463 103.326 84.0343 103.302 84.0343 103.265C84.0343 103.302 84.0343 103.338 84.0343 103.374C84.0343 103.398 84.0343 103.41 84.0343 103.435C84.0222 103.519 84.0343 103.507 84.0463 103.386C84.0343 103.386 84.0343 103.483 84.0222 103.495C84.0343 103.471 84.0463 103.435 84.0584 103.41C84.0463 103.447 84.0222 103.471 84.0102 103.507C84.0824 103.374 84.0463 103.435 84.0222 103.483C84.0463 103.471 84.0704 103.447 84.0824 103.435C84.0463 103.459 84.0102 103.483 83.9741 103.495C83.938 103.519 83.8899 103.544 83.8537 103.568C83.8417 103.568 83.6251 103.665 83.7695 103.616C83.6491 103.665 83.5167 103.701 83.3964 103.737C83.276 103.774 83.1436 103.798 83.0112 103.822C83.0112 103.822 82.7585 103.858 82.8909 103.846C82.8307 103.858 82.7826 103.858 82.7224 103.858C82.4335 103.883 82.1447 103.87 81.8558 103.846C81.7114 103.834 81.567 103.822 81.4225 103.798C81.2781 103.774 81.6031 103.822 81.3503 103.786C81.2781 103.774 81.1938 103.761 81.1216 103.749C80.8207 103.701 80.5319 103.64 80.231 103.58C79.9662 103.519 79.7134 103.459 79.4487 103.35C79.2079 103.253 79.5088 103.374 79.3764 103.314C79.2922 103.277 79.2079 103.241 79.1237 103.193C78.9793 103.12 78.8469 103.047 78.7024 102.975C78.3534 102.769 77.8479 102.878 77.6553 103.253C77.4628 103.628 77.559 104.112 77.9322 104.318Z" fill="#262524"/>
<path d="M55.7377 75.706C55.7738 76.1538 55.8099 76.6016 55.846 77.0494C55.858 77.2552 55.8821 77.473 55.9062 77.6788C55.9182 77.7756 55.9182 77.8604 55.9303 77.9572C55.9182 77.7877 55.9543 78.1992 55.9543 78.2477C56.0386 79.1312 56.1349 80.0269 56.2432 80.9104C56.4598 82.7017 56.7005 84.493 56.9774 86.2722C57.519 89.8063 58.1569 93.3163 58.8188 96.8142C59.1919 98.7991 59.5651 100.772 59.9382 102.757C60.0585 103.41 59.7817 104.185 59.3123 104.342C58.8429 104.5 58.3374 104.137 58.217 103.435C56.9051 96.3543 55.4729 89.3101 54.5822 82.0844C54.4499 81.0314 54.3295 79.9663 54.2332 78.9012C54.1249 77.8362 54.0406 76.7711 53.9564 75.706C53.9082 75.0282 54.4017 74.3867 54.847 74.4109C55.3646 74.4472 55.6895 74.9798 55.7377 75.706Z" fill="#262524"/>
<path d="M59.1195 103.653C58.9149 103.774 58.7103 103.883 58.4937 103.979C58.277 104.076 58.0483 104.161 57.8197 104.246C56.9892 104.427 55.8939 104.681 54.8829 104.645C54.6302 104.633 54.3895 104.609 54.1608 104.56C53.9923 104.524 53.7997 104.476 53.6192 104.415C53.4386 104.355 53.2461 104.27 53.0896 104.173C52.56 103.895 52.56 103.277 52.7767 102.793C53.0776 102.261 53.4386 101.825 53.9562 101.571C54.0886 101.498 54.233 101.438 54.3774 101.389C55.6893 100.954 57.2179 101.389 58.2289 102.454C58.3131 102.539 58.4094 102.636 58.4937 102.733C58.59 102.975 58.8547 103.108 58.9631 103.362C59.0232 103.447 59.0714 103.556 59.1195 103.653Z" fill="#262524"/>
<path d="M59.5057 104.318C58.94 104.645 58.3262 104.911 57.6883 105.057C57.0504 105.19 56.4005 105.311 55.7506 105.383C55.0766 105.444 54.3905 105.42 53.7286 105.25C53.1147 105.093 52.3926 104.802 52.0676 104.197C51.4418 103.023 52.3926 101.607 53.3916 100.99C54.4146 100.36 55.7506 100.288 56.8699 100.687C57.5198 100.917 58.1216 101.28 58.6271 101.764C58.7354 101.861 58.8317 101.97 58.928 102.079C59.0002 102.164 59.0845 102.249 59.1447 102.345C59.1567 102.382 59.1808 102.418 59.2048 102.454C59.1447 102.382 59.1446 102.37 59.1928 102.442C59.4455 102.684 59.6261 102.975 59.7705 103.277C59.951 103.628 59.8909 104.112 59.5057 104.318C59.1687 104.5 58.6391 104.427 58.4586 104.04C58.4105 103.931 58.3503 103.834 58.3021 103.737C58.2781 103.701 58.1698 103.556 58.2901 103.689C58.266 103.653 58.2299 103.628 58.2059 103.604C58.1096 103.495 58.0133 103.386 57.929 103.265C57.929 103.265 57.8328 103.096 57.8809 103.181C57.917 103.217 57.905 103.205 57.8568 103.144C57.8207 103.108 57.7846 103.072 57.7485 103.035C57.6643 102.951 57.58 102.866 57.4957 102.793C57.4596 102.757 57.4235 102.733 57.3995 102.696C57.3995 102.696 57.231 102.563 57.3152 102.624C57.3995 102.696 57.2189 102.563 57.231 102.563C57.1828 102.527 57.1347 102.503 57.0865 102.466C56.9782 102.406 56.8819 102.333 56.7736 102.285C56.7134 102.249 56.6532 102.224 56.5931 102.2C56.6171 102.212 56.7255 102.249 56.5931 102.2C56.4847 102.164 56.3885 102.128 56.2801 102.091C56.1718 102.055 56.0755 102.031 55.9672 102.007C55.9191 101.994 55.883 101.994 55.8348 101.982C55.7506 101.97 55.7506 101.97 55.8469 101.982C55.7987 101.982 55.7626 101.97 55.7145 101.97C55.5219 101.958 55.3293 101.958 55.1367 101.97C55.1006 101.97 54.896 102.007 55.0886 101.97C55.0525 101.982 55.0043 101.982 54.9562 101.994C54.8358 102.019 54.7035 102.055 54.5831 102.091C54.6072 102.079 54.3665 102.176 54.4627 102.14C54.559 102.103 54.3303 102.212 54.3424 102.2C54.2461 102.249 54.1498 102.309 54.0535 102.37C53.9332 102.454 54.0294 102.382 54.0535 102.37C54.0054 102.418 53.9572 102.454 53.9091 102.503C53.873 102.539 53.8489 102.563 53.8128 102.6C53.8008 102.612 53.6563 102.793 53.7045 102.721C53.7767 102.636 53.6443 102.805 53.6443 102.805C53.6202 102.842 53.5962 102.878 53.5721 102.914C53.536 102.975 53.4999 103.035 53.4638 103.096C53.3795 103.217 53.4517 103.12 53.4638 103.084C53.4517 103.132 53.3675 103.302 53.3916 103.362C53.3916 103.326 53.4036 103.302 53.4036 103.265C53.4036 103.302 53.4036 103.338 53.4036 103.374C53.4036 103.398 53.4036 103.41 53.4036 103.435C53.4156 103.519 53.4036 103.507 53.3916 103.386C53.4036 103.386 53.4036 103.483 53.4156 103.495C53.4036 103.471 53.3916 103.435 53.3795 103.41C53.3916 103.447 53.4156 103.471 53.4277 103.507C53.3554 103.374 53.3916 103.435 53.4156 103.483C53.3916 103.471 53.3675 103.447 53.3554 103.435C53.3916 103.459 53.4277 103.483 53.4638 103.495C53.4999 103.519 53.548 103.544 53.5841 103.568C53.5962 103.568 53.8128 103.665 53.6684 103.616C53.7887 103.665 53.9211 103.701 54.0415 103.737C54.1618 103.774 54.2942 103.798 54.4266 103.822C54.4266 103.822 54.6794 103.858 54.547 103.846C54.6072 103.858 54.6553 103.858 54.7155 103.858C55.0043 103.883 55.2932 103.87 55.5821 103.846C55.7265 103.834 55.8709 103.822 56.0154 103.798C56.1598 103.774 55.8348 103.822 56.0876 103.786C56.1598 103.774 56.244 103.761 56.3162 103.749C56.6171 103.701 56.906 103.64 57.2069 103.58C57.4717 103.519 57.7244 103.459 57.9892 103.35C58.2299 103.253 57.929 103.374 58.0614 103.314C58.1457 103.277 58.2299 103.241 58.3142 103.193C58.4586 103.12 58.591 103.047 58.7354 102.975C59.0845 102.769 59.59 102.878 59.7825 103.253C59.9751 103.628 59.8788 104.112 59.5057 104.318Z" fill="#262524"/>
<path d="M140.325 54.9971C139.157 50.6641 136.401 46.9363 132.718 44.4188C129.324 42.0829 125.268 40.8604 121.188 40.9573C121.031 40.9573 120.947 40.7757 121.055 40.6668C122.716 38.8997 123.679 36.4427 123.956 34.0705C124.341 30.8026 123.463 27.4136 121.946 24.5209C118.745 18.433 112.33 14.2815 105.421 14.3541C103.206 14.3783 101.064 14.8141 99.2828 15.8912C99.1624 15.9639 98.9939 15.8549 99.018 15.7097C99.2948 14.0394 99.1023 12.2724 98.5967 10.6263C97.5376 7.17685 95.3832 4.28415 92.3261 2.38393C86.4166 -1.28338 78.0637 -0.835561 73.3096 4.57463C72.0579 5.99072 71.1071 7.69729 70.6136 9.537C70.5655 9.69434 70.3608 9.71855 70.2886 9.5612C68.1102 4.93773 62.4654 2.06924 57.5307 1.69404C52.3915 1.30673 46.9513 3.43692 44.3034 8.07249C43.9303 8.71397 43.6174 9.39176 43.3526 10.0938C43.148 10.6263 42.9795 11.1709 42.8351 11.7156C42.4499 13.2285 42.3296 14.8141 42.4138 16.3512C42.4258 16.4722 42.2934 16.569 42.1731 16.5206C38.093 14.8746 33.4351 14.9472 29.3069 16.4359C28.4764 16.7385 27.682 17.0895 26.8997 17.501C17.897 22.5481 13.3354 35.2566 18.7034 44.4309C17.3794 44.2615 16.1036 44.2615 14.8038 44.4067C13.5159 44.5762 12.2401 44.9272 11.0245 45.4839C10.2302 45.847 9.45989 46.2827 8.74978 46.8274C8.18409 47.2268 7.63045 47.6625 7.10088 48.1224C5.00665 49.9742 3.29757 52.2981 2.25046 54.864C-0.710334 62.0897 1.90143 71.1551 8.13595 75.7665C9.03863 76.4321 10.0256 76.9889 11.0606 77.4246C11.4097 77.5699 11.7587 77.703 12.1078 77.824C13.2993 78.3203 14.5029 78.5865 15.7305 78.6834C16.0314 78.7076 16.3443 78.7197 16.6573 78.7318C19.4616 78.9496 21.9891 78.6955 24.7694 78.1871C25.9128 78.054 26.2859 79.7121 26.3461 80.8256C26.4183 81.1887 26.4785 81.5397 26.5386 81.8786C26.5386 82.387 26.9238 82.7743 27.1404 83.2221C27.333 83.5368 27.5376 83.8515 27.7542 84.142C28.4042 85.0376 29.1504 85.8364 30.1133 86.4537C30.4864 86.6474 30.8835 86.8289 31.2807 86.9983C34.0851 88.1724 37.1662 88.6323 39.8743 88.2087C41.7398 87.9182 43.485 87.2041 45.0376 86.139C45.1339 86.0785 45.2663 86.1148 45.3024 86.2237C46.6023 90.121 50.5741 92.2633 54.4496 93.0863C58.289 93.8851 62.8385 93.9215 66.4613 92.2996C67.9537 91.6339 69.1934 90.593 70.0238 89.2496C70.0961 89.1406 70.2646 89.1406 70.3247 89.2496C70.9867 90.4599 72.094 91.4282 73.3939 91.9365C75.7769 92.8685 78.5452 93.2074 81.0847 93.0863C85.0565 92.8806 89.2811 91.2708 91.9049 88.1603C92.7353 87.1678 93.3612 86.0543 93.7463 84.844C93.7945 84.6987 93.975 84.6745 94.0593 84.7955C95.4795 86.9741 98.019 88.3297 100.679 88.4023C102.761 88.4507 104.735 87.5914 106.564 86.6716C106.877 86.5142 107.178 86.3569 107.491 86.1874C110.524 84.4203 113.172 81.5034 113.798 78.0056C113.846 77.6909 113.894 77.3762 113.93 77.0494C116.085 77.4367 117.854 78.8286 119.96 78.9738C120.333 79.0465 120.706 79.0949 121.092 79.1312C123.366 79.3732 125.689 79.1433 127.916 78.4655C132.802 76.9526 136.883 73.4668 139.085 68.8191C141.083 64.5345 141.552 59.5601 140.325 54.9971Z" fill="#00BDC2"/>
<path d="M101.522 14.9472C100.643 15.1772 99.7766 15.4677 99.1387 16.1091C99.1868 15.8066 99.2109 15.504 99.235 15.2014C99.3674 13.1559 99.0304 11.1226 98.2119 9.27075C98.0434 8.88345 97.8629 8.49614 97.6583 8.13304C96.226 5.55503 93.8791 3.54587 91.3516 2.06927C92.3385 2.9165 93.181 3.90897 93.8791 4.98617C94.1078 5.34927 94.3244 5.71237 94.529 6.08757C94.7336 6.43857 94.9141 6.80167 95.0706 7.16477C96.7677 11.062 96.5871 15.4677 95.6724 19.5223C95.5761 19.8612 95.4798 20.2001 95.4076 20.5269C95.2632 21.1683 95.2391 21.7372 95.6122 22.0277C96.539 22.6691 97.6944 20.5753 98.8258 19.8733C99.0183 19.7038 99.1989 19.5465 99.3915 19.377C100.017 18.8203 100.703 18.3119 101.365 17.8036C101.534 17.6705 101.702 17.5494 101.859 17.4042C102.822 16.6296 103.809 15.6976 104.097 14.4268C103.46 14.5478 102.774 14.6567 102.124 14.8141C101.919 14.8625 101.714 14.8988 101.522 14.9472Z" fill="#00A1A5"/>
<path d="M140.327 54.9972C139.159 50.6642 136.403 46.9363 132.72 44.4188C130.963 43.2085 129.025 42.3008 127.003 41.7198C126.329 41.5261 125.643 41.3688 124.957 41.2478C123.549 41.0783 122.225 40.7878 120.841 41.0783C124.018 37.7741 124.704 32.8359 123.549 28.4303C122.394 23.9279 119.397 20.3211 115.678 17.8762C114.931 17.3921 114.161 16.9443 113.367 16.5449C109.022 14.3905 103.425 13.4585 99.0924 16.1818C106.073 15.8913 112.946 20.5874 114.847 27.3894C115.064 28.1641 115.196 28.9508 115.256 29.7617C115.605 35.6197 111.393 40.0374 107.529 44.0315C106.783 44.7819 106.723 46.0649 107.409 46.9363C107.963 47.6383 108.661 48.0498 109.443 48.2919C110.225 48.534 111.068 48.5945 111.91 48.5582C112.079 48.5582 112.32 48.7881 112.488 48.7881C113.993 48.7881 115.569 48.8729 117.122 49.1028C117.507 49.1633 117.892 49.2239 118.277 49.2965C118.663 49.3691 119.036 49.4538 119.421 49.5507C123.212 50.8215 127.641 52.4676 129.579 56.2438C129.784 56.6674 129.94 57.1031 130.06 57.5631C130.169 57.9988 130.253 58.4345 130.301 58.8702C130.349 59.3059 130.361 59.7417 130.349 60.1774C130.301 65.0792 126.125 70.5499 120.781 70.1384C120.348 70.09 119.914 70.0174 119.493 69.9206C118.626 69.7269 117.772 69.4606 116.929 69.2186C116.568 69.1096 116.207 69.0128 115.846 68.916C113.969 67.9598 110.936 65.5876 109.094 66.6648C108.721 66.8826 108.408 67.2336 108.155 67.7662C107.012 70.3079 107.397 73.2369 105.495 75.6455C103.594 78.0661 100.188 78.0661 97.7083 76.9526C97.3592 76.8195 97.0222 76.6621 96.6732 76.4927C95.6502 76.0085 94.6512 75.4276 93.6281 74.9072C92.9662 74.5925 92.232 74.4956 91.5339 74.6288C90.6914 74.7377 89.9933 75.2581 89.4156 75.8996C87.2853 78.3324 85.9493 81.3582 83.0728 82.9801C81.5683 83.791 80.1481 83.912 78.776 83.5973C78.3186 83.5005 77.8733 83.3432 77.428 83.1616C75.057 82.2176 73.1553 80.5352 70.9046 79.3128C70.6759 79.1917 70.3871 79.0223 70.1584 79.1917C67.9679 80.5836 66.3551 82.4959 63.7915 83.1132C63.0453 83.3432 62.287 83.5126 61.5047 83.6094C57.6412 84.0936 53.6574 82.859 51.2863 79.1917C50.3235 77.6788 49.2643 75.7665 47.7598 75.1734C47.0136 74.8829 46.1591 74.9192 45.1481 75.5002C44.2935 75.8875 43.4029 76.2143 42.4882 76.4685C42.0308 76.6016 41.5735 76.7105 41.1161 76.7953C38.2396 77.4488 35.0742 76.9405 32.7994 74.9314C32.4744 74.6409 32.1735 74.3262 31.8847 73.9752C30.1154 71.8087 31.6319 68.8918 30.7533 66.4711C30.2478 65.0671 28.2258 65.5755 26.9982 66.0596C26.613 66.1927 26.2279 66.338 25.8187 66.5074C23.4235 67.4999 20.7636 68.9644 18.6333 68.7829C18.1759 68.8313 17.7306 68.8434 17.2853 68.8313C16.852 68.8313 16.4187 68.795 15.9734 68.7465C15.2392 68.6497 14.505 68.4924 13.7949 68.2382C13.0848 67.984 12.3747 67.633 11.6766 67.1852C6.08 63.4695 5.9115 55.4692 9.61851 50.4947C10.0398 49.8774 10.4971 49.3086 10.9906 48.7639C13.482 46.077 16.9724 44.3462 20.6192 44.092C12.2423 42.567 3.5886 48.8971 1.4703 57.0063C1.27773 57.7567 1.14534 58.5192 1.06109 59.3059C0.988872 60.1774 0.976837 61.073 1.02498 61.9566C1.27773 67.2457 3.7571 72.5833 8.07794 75.7423C8.78805 76.2627 9.55834 76.7347 10.3647 77.1221C10.7619 77.3157 11.1591 77.4852 11.5563 77.6304C11.9655 77.7877 12.3747 77.9209 12.796 78.0419C13.7949 78.3324 14.8059 78.4897 15.8049 78.5502C16.1419 78.5745 16.4789 78.5866 16.8159 78.5866C19.8369 78.8286 22.8699 78.0661 25.6502 78.3203C26.288 78.3203 26.0353 80.3536 26.3121 81.6487C26.3843 81.9271 26.4686 82.2055 26.5769 82.4838C26.6973 82.7501 26.8417 83.0164 27.0222 83.2705C27.2148 83.5852 27.4194 83.8999 27.6361 84.1904C28.286 85.0739 29.0442 85.8607 30.0071 86.4174C30.3802 86.6232 30.7774 86.8047 31.1866 86.9742C34.003 88.1724 37.1323 88.6444 39.8644 88.2208C41.8021 87.9182 43.6195 87.1557 45.2083 86.018C46.4359 90.0605 50.4679 92.2633 54.4277 93.0985C58.2671 93.8973 62.8166 93.9336 66.4394 92.3117C68.0281 91.5976 69.34 90.472 70.1584 88.9954C70.7963 90.3389 71.9758 91.4161 73.3599 91.9607C75.743 92.8927 78.5112 93.2316 81.0508 93.1106C85.0226 92.9048 89.2471 91.2951 91.8709 88.1845C92.7856 87.0952 93.4476 85.8486 93.8207 84.5051C94.5068 85.6912 95.5178 86.6595 96.6973 87.3373C97.287 87.6762 97.9249 87.9424 98.5869 88.1361C100.392 88.6202 102.174 88.475 103.919 87.9666C104.352 87.8335 104.785 87.6883 105.207 87.5188C107.277 86.6958 109.311 85.2676 110.863 83.4521C111.176 83.089 111.465 82.7138 111.73 82.3265C112.885 80.7894 113.391 79.0102 113.523 77.0978C117.315 79.5185 122.37 79.6395 126.811 78.8165C127.172 78.7318 127.521 78.635 127.882 78.526C132.768 77.0131 136.849 73.5274 139.051 68.8797C141.085 64.5346 141.555 59.5601 140.327 54.9972Z" fill="#00A1A5"/>
<path d="M84.5403 14.6204C83.433 13.4222 81.8202 12.9381 80.1833 13.1438C78.1493 13.398 76.6448 14.7899 75.8023 16.5207C75.032 18.0699 74.4543 19.8128 74.8034 21.6283C74.8274 21.7614 74.8635 21.9187 74.8996 22.064C74.9237 22.1366 74.9358 22.2213 74.9598 22.2939C75.008 22.4029 75.0441 22.5239 75.1043 22.6691C75.2366 23.117 75.4653 23.5285 75.9227 23.6979C76.4402 23.819 76.7893 23.2864 76.9578 22.8386C77.0059 22.7297 77.042 22.6086 77.0781 22.4876C77.2225 22.0035 77.2948 21.4709 77.4633 20.9747C77.4994 20.8415 77.5234 20.6963 77.5595 20.5632C77.8725 19.1108 78.1974 17.6584 79.3168 16.5812C80.7972 15.2377 82.8673 15.5282 84.6125 14.8262C84.5884 14.7657 84.5764 14.693 84.5403 14.6204Z" fill="#00A1A5"/>
<path d="M103.184 56.147C103.088 57.6962 103.81 59.1365 105.014 60.1411C106.518 61.3877 108.456 61.5209 110.201 60.9762C111.766 60.4921 113.343 59.7659 114.366 58.3377C114.859 57.6478 115.521 56.4617 114.727 55.9049C114.438 55.6628 113.932 56.0501 113.499 56.2075C111.706 57.0184 110.093 58.6161 107.963 58.495C106.061 58.3498 104.917 56.7158 103.293 55.9533C103.257 56.0138 103.22 56.0744 103.184 56.147Z" fill="#00A1A5"/>
<path d="M45.6179 32.2066C45.5217 33.7558 46.2438 35.1961 47.4474 36.2007C48.9518 37.4473 50.8896 37.5805 52.6348 37.0358C54.1994 36.5517 55.7761 35.8255 56.7992 34.3973C57.2926 33.7074 57.9546 32.5213 57.1602 31.9645C56.8714 31.7224 56.3659 32.1097 55.9326 32.2671C54.1393 33.078 52.5265 34.6757 50.3961 34.5546C48.4945 34.4094 47.3511 32.7754 45.7263 32.0129C45.6902 32.0734 45.654 32.1461 45.6179 32.2066Z" fill="#00A1A5"/>
<path d="M91.9929 29.4833C91.8967 31.0326 92.6188 32.4728 93.8224 33.4774C95.3268 34.7241 97.2646 34.8572 99.0098 34.3126C100.574 33.8284 102.151 33.1022 103.174 31.674C103.668 30.9841 104.33 29.798 103.535 29.2413C103.246 28.9992 102.741 29.3865 102.308 29.5438C100.514 30.3548 98.9015 31.9524 96.7711 31.8314C94.8695 31.6861 93.7261 30.0522 92.1013 29.2897C92.0652 29.3502 92.029 29.4107 91.9929 29.4833Z" fill="#00A1A5"/>
<path d="M111.03 20.3332C110.513 18.784 109.466 17.3921 108.238 16.2423C108.009 16.0486 107.769 15.8792 107.528 15.7218C107.263 15.5403 106.998 15.3829 106.721 15.2377C106.372 15.044 106.011 14.8867 105.65 14.7778C103.833 14.1968 101.895 14.5478 100.246 15.4435C98.4529 16.3875 96.7197 17.6463 95.817 19.6191C95.3717 20.5632 94.8542 22.1729 95.9494 22.657C96.3587 22.887 96.8762 22.2939 97.3697 21.9914C98.6936 21.0473 99.837 19.7159 101.221 18.8082C101.57 18.5782 101.931 18.3846 102.316 18.2272C103.002 17.9731 103.713 17.852 104.423 17.8399C104.772 17.8278 105.133 17.852 105.494 17.8883C105.843 17.9004 106.192 17.9488 106.517 18.0336C106.854 18.1183 107.167 18.2272 107.492 18.3604C108.78 18.8929 109.935 19.7643 111.042 20.5874C111.042 20.5269 111.042 20.43 111.03 20.3332Z" fill="#00A1A5"/>
<path d="M76.657 23.4801C76.8495 22.9959 76.5607 22.5239 76.5968 22.0882C76.5607 21.9672 76.5246 21.8582 76.4764 21.7372C76.0913 20.6963 75.4173 19.7643 74.5146 19.0139C72.637 17.4405 70.1938 17.259 67.9912 17.9367C66.0173 18.5298 64.0314 19.4497 62.7436 21.241C62.1178 22.1003 61.2753 23.6011 62.2863 24.3031C62.6473 24.6057 63.2852 24.1215 63.8389 23.9279C66.1016 22.9112 68.1356 20.9142 70.8196 21.0715C72.3241 21.1925 73.4434 22.064 74.5868 22.9233C74.6951 22.9959 74.7914 23.0807 74.8997 23.1533C75.3571 23.5285 75.9348 23.6979 76.5246 23.6374C76.5607 23.589 76.6088 23.5406 76.657 23.4801Z" fill="#00A1A5"/>
<path d="M20.6188 52.8307C20.2698 53.4358 20.2578 54.0289 20.4624 54.5857C20.8596 55.7113 22.0752 56.7037 22.9538 57.3452C23.0982 57.442 23.2306 57.5268 23.375 57.6115C23.5195 57.6962 23.6518 57.7688 23.7963 57.8536C27.058 59.1607 30.8613 57.8778 33.3527 55.5055C34.2192 54.6946 35.0256 53.7021 35.0256 52.4918C34.9655 52.0318 34.6164 51.4509 34.0989 51.6203C32.6546 52.1408 31.439 53.0122 30.1151 53.9442C27.407 55.796 24.3981 54.9851 22.2076 52.8428C21.8585 52.4918 21.2808 52.4918 20.7873 52.6975C20.7392 52.7338 20.679 52.7823 20.6188 52.8307Z" fill="#00A1A5"/>
<path d="M75.477 62.0897C74.815 64.3893 73.0217 66.2169 70.5544 66.3864C67.8102 66.5679 65.8604 64.6072 64.9818 62.1623C64.4763 60.7704 66.6548 60.1048 67.1603 61.4845C67.7019 62.9611 68.7971 64.2683 70.4942 64.0989C71.9144 63.9657 72.8893 62.8885 73.2744 61.5572C73.6716 60.1532 75.8982 60.6736 75.477 62.0897Z" fill="#262524"/>
<path d="M79.7024 55.6628C79.6783 55.0577 79.7144 54.4525 79.8347 53.8473C80.4726 50.64 83.3251 48.183 86.5026 47.7594C91.7863 47.0453 96.3839 52.6733 94.3378 57.7325C92.4362 62.4286 85.6962 63.6995 81.9651 60.48C80.5569 59.2696 79.7986 57.4904 79.7024 55.6628Z" fill="white"/>
<path d="M92.3175 54.513C92.4017 55.3603 92.2693 56.2317 91.9203 57.0184C91.0658 58.9065 89.14 59.9232 87.1421 59.9837C86.9375 59.9958 86.7208 59.9595 86.5644 59.8143C86.1913 59.4633 86.6607 58.9671 86.9014 58.7008C87.5513 57.9867 87.6235 57.1273 87.1541 56.2922C86.7449 55.5539 85.9385 54.9366 85.0599 55.0214C84.747 55.0577 84.4461 55.1787 84.1933 55.3603C83.8804 55.5781 83.7239 55.8444 83.5795 56.1833C83.4591 56.4617 83.3268 56.8853 82.9416 56.7885C82.6407 56.7158 82.4241 56.2559 82.3519 55.9896C82.1593 55.2392 82.3398 54.4162 82.5324 53.69C82.8213 52.6249 83.4471 51.6203 84.3137 50.9425C86.0709 49.587 88.7429 49.6112 90.476 51.0031C91.5472 51.8382 92.1971 53.1454 92.3175 54.513Z" fill="#262524"/>
<path d="M45.6164 55.6628C45.5923 55.0577 45.6284 54.4525 45.7488 53.8473C46.3867 50.64 49.2392 48.183 52.4166 47.7594C57.7003 47.0453 62.298 52.6733 60.2519 57.7325C58.3503 62.4286 51.6102 63.6995 47.8791 60.48C46.4589 59.2696 45.7007 57.4904 45.6164 55.6628Z" fill="white"/>
<path d="M58.2315 54.513C58.3158 55.3603 58.1834 56.2317 57.8344 57.0184C56.9798 58.9065 55.0541 59.9232 53.0562 59.9837C52.8515 59.9958 52.6349 59.9595 52.4784 59.8143C52.1053 59.4633 52.5747 58.9671 52.8154 58.7008C53.4654 57.9867 53.5376 57.1273 53.0682 56.2922C52.659 55.5539 51.8526 54.9366 50.974 55.0214C50.661 55.0577 50.3601 55.1787 50.1074 55.3603C49.7945 55.5781 49.638 55.8444 49.4936 56.1833C49.3732 56.4617 49.2408 56.8853 48.8557 56.7885C48.5548 56.7158 48.3381 56.2559 48.2659 55.9896C48.0734 55.2392 48.2539 54.4162 48.4465 53.69C48.7353 52.6249 49.3612 51.6203 50.2278 50.9425C51.985 49.587 54.6569 49.6112 56.3901 51.0031C57.4612 51.8382 58.0991 53.1454 58.2315 54.513Z" fill="#262524"/>
<path d="M93.9534 66.1806C94.3627 69.146 91.462 70.6952 88.9466 70.9736C85.721 71.3367 81.0391 69.4848 81.0391 65.636C81.0391 63.3121 83.0851 61.9566 85.1312 61.4966C88.2966 60.7947 92.4369 61.6903 93.6886 65.0913C93.821 65.4786 93.9053 65.8417 93.9534 66.1806Z" fill="#00A1A5"/>
<path d="M46.4842 66.1806C46.075 69.146 48.9756 70.6952 51.4911 70.9736C54.7166 71.3367 59.3986 69.4848 59.3986 65.636C59.3986 63.3121 57.3525 61.9566 55.3064 61.4966C52.141 60.7947 48.0007 61.6903 46.749 65.0913C46.6166 65.4786 46.5323 65.8417 46.4842 66.1806Z" fill="#00A1A5"/>
<path d="M32.6784 20.0911C29.8981 20.3453 27.4669 22.4997 26.492 25.0414C25.8541 26.7843 25.9745 29.568 27.8761 30.0885C30.9453 31.0083 34.3514 28.8539 36.0243 25.9491C36.2049 25.6224 36.3734 25.2956 36.5178 24.9567C37.1677 23.468 37.2881 21.3136 35.567 20.5874C35.3383 20.4663 35.1096 20.3695 34.8689 20.2969C34.6282 20.2243 34.3875 20.1638 34.1588 20.1274C33.6533 20.0669 33.1478 20.0548 32.6784 20.0911Z" fill="white"/>
<path d="M23.6027 31.8556C21.8214 32.6423 21.1595 34.9782 21.689 36.7695C22.0983 38.0283 23.2898 38.9481 24.6378 38.8392C26.395 38.6455 27.6949 37.0116 27.6708 35.2687C27.6227 33.8042 26.8283 32.2792 25.384 31.8314C24.7341 31.6014 24.1323 31.6377 23.6027 31.8556Z" fill="white"/>
<path d="M37.8789 68.6376C37.8789 68.6376 38.9381 66.3138 41.0563 66.3743C41.0563 66.3743 63.84 68.4198 66.7527 72.2807L61.0959 75.6939L45.8466 72.6922L37.8789 68.6376Z" fill="white"/>
<path d="M67.4158 72.777C69.8831 71.1672 72.6393 70.3079 75.5038 69.8358C76.226 69.7148 76.9481 69.6301 77.6703 69.5454C84.1816 68.9281 90.705 69.6543 97.2284 69.388C97.8302 69.3638 98.456 69.3396 99.0097 69.5575C99.8763 69.9085 100.069 70.8162 100.105 71.6756C100.105 71.6756 98.9736 71.9297 97.2645 72.317C96.6988 72.4502 96.0609 72.5954 95.3869 72.7406C91.7762 73.5758 87.9849 74.3383 84.3501 75.2581C83.7724 75.4276 83.1947 75.5728 82.617 75.6818C78.5368 76.4685 74.2642 75.8996 70.2683 75.2702C69.2332 75.0403 68.3666 74.7256 67.8371 74.3141C67.3195 73.9268 67.1269 73.4184 67.4158 72.777Z" fill="white"/>
<path d="M66.0197 118.709C61.3257 118.298 56.6558 117.729 52.01 116.966C49.651 116.579 47.304 116.143 44.9571 115.659C42.9471 115.248 40.8649 114.812 39.2281 113.493C36.6404 111.411 37.0496 107.949 36.8329 104.96C36.4237 99.3075 36.4478 93.6189 36.2432 87.9545C36.2311 87.5914 36.2191 87.2404 36.2071 86.8895C36.195 86.5385 36.183 86.1753 36.171 85.8244C36.0626 82.5928 35.7858 79.3854 35.6294 76.1901C35.6053 75.7302 35.5933 75.2823 35.5692 74.8224C35.509 72.6922 35.1359 69.1339 37.9162 69.0128C41.5871 68.8797 45.3783 69.9085 48.977 70.1868C49.4705 70.2474 49.964 70.3079 50.4574 70.3805C51.0953 70.4652 51.7452 70.5499 52.3952 70.6347C58.2566 71.3851 64.4309 72.1839 64.4309 72.1839C64.4309 72.1839 65.6827 93.0016 65.9956 106.872C66.0076 107.38 66.0197 107.889 66.0317 108.385C66.2844 110.709 66.128 112.936 66.0076 115.175C65.9836 115.55 65.9715 115.913 65.9595 116.288C65.9474 116.652 65.9595 117.015 65.9836 117.366C66.0798 118.164 66.1521 118.612 66.0197 118.709Z" fill="#F8CA35"/>
<path d="M69.1986 74.4956C69.4874 73.3458 68.7773 72.5954 69.9568 72.547C73.3148 72.426 78.3819 72.2686 81.7398 72.1597C82.2453 72.1476 82.7388 72.1234 83.2443 72.1113C88.3715 71.8087 93.6914 71.6876 98.8306 71.3003C99.4806 71.2398 100.058 71.2398 100.492 71.494C100.913 71.7482 101.178 72.2565 101.178 73.1764C101.178 73.1764 101.202 73.9631 101.25 75.3065C101.274 75.9843 101.298 76.7953 101.334 77.7151C101.43 79.9905 101.527 82.2781 101.635 84.5535C101.683 85.6912 101.731 86.841 101.779 87.9787C101.912 96.7052 102.586 105.444 101.611 114.074C101.503 115.078 100.829 115.937 99.8777 116.276C91.3925 119.338 76.2275 118.975 70.5586 118.842C69.0782 118.806 70.029 117.801 69.9568 116.325C69.7522 112.331 68.681 108.385 68.7171 104.379C68.669 102.709 68.5968 101.062 68.2718 99.4285C68.1996 98.9928 68.1154 98.545 68.0431 98.1213L66.2017 87.6277C66.1415 87.2646 66.1535 86.8894 66.2378 86.5263C66.7072 84.5777 68.3681 77.8482 69.1986 74.4956Z" fill="#F8CA35"/>
<path d="M63.9961 72.1234L65.1395 118.903L70.9768 118.987L69.9658 72.547C69.9538 72.547 67.8836 71.6634 63.9961 72.1234Z" fill="#262524"/>
<path d="M27.8419 67.742C25.3746 69.5696 24.3395 72.5591 24.4358 75.5728C24.5321 78.8407 25.7718 81.9634 27.9743 84.3719C29.3584 85.8849 31.0675 87.1073 32.921 87.9787C33.3302 88.1724 33.8237 88.0998 34.0765 87.6883C34.2931 87.3252 34.1968 86.72 33.7876 86.5263C30.899 85.1708 28.3715 82.9559 27.0837 79.9663C26.0967 77.703 25.7838 74.9798 26.4699 72.5833C26.843 71.264 27.5771 70.0295 28.6844 69.2065C29.0455 68.9402 29.2501 68.4803 28.9974 68.0566C28.7928 67.7057 28.215 67.4757 27.8419 67.742Z" fill="#262524"/>
<path d="M39.3116 87.7972C39.0107 86.7563 38.084 86.0664 37.1091 85.7154C37.1211 85.5581 37.1211 85.4128 37.097 85.2676C37.0248 84.9287 36.8924 84.614 36.6156 84.3841C36.3147 84.142 35.9536 84.1057 35.5805 84.1299C34.9547 84.1783 34.389 84.493 33.9196 84.8924C32.0661 86.4779 32.1503 89.3343 34.1362 90.7625C35.2556 91.5613 36.7962 91.7429 37.9997 91.0409C39.1431 90.3994 39.6727 89.0559 39.3116 87.7972Z" fill="#262524"/>
<path d="M110.706 67.742C113.174 69.5696 114.209 72.5591 114.113 75.5728C114.016 78.8407 112.777 81.9634 110.574 84.372C109.19 85.8849 107.481 87.1073 105.627 87.9788C105.218 88.1724 104.725 88.0998 104.472 87.6883C104.255 87.3252 104.352 86.72 104.761 86.5264C107.649 85.1708 110.177 82.9559 111.465 79.9663C112.452 77.703 112.765 74.9798 112.078 72.5833C111.705 71.264 110.971 70.0295 109.864 69.2065C109.503 68.9402 109.298 68.4803 109.551 68.0567C109.768 67.7057 110.333 67.4757 110.706 67.742Z" fill="#262524"/>
<path d="M99.236 87.7972C99.5369 86.7563 100.464 86.0664 101.439 85.7154C101.426 85.5581 101.426 85.4128 101.451 85.2676C101.523 84.9287 101.655 84.614 101.932 84.3841C102.233 84.142 102.594 84.1057 102.967 84.1299C103.593 84.1783 104.159 84.493 104.628 84.8924C106.481 86.4779 106.397 89.3343 104.411 90.7625C103.292 91.5613 101.751 91.7429 100.548 91.0409C99.4165 90.3994 98.8749 89.0559 99.236 87.7972Z" fill="#262524"/>
</svg>
