<svg width="172" height="113" viewBox="0 0 172 113" fill="none" xmlns="http://www.w3.org/2000/svg">
<path d="M11.2481 51.3118C11.4399 51.5637 11.6556 51.7796 11.9194 51.9475C12.5786 52.3912 13.4058 52.5111 14.065 52.9548C14.1849 53.2906 14.3168 53.6264 14.4606 53.9502C15.4436 56.2528 16.7741 58.3875 18.4403 60.2584C20.2983 62.3451 22.5399 64.1081 25.0332 65.3793C26.4597 66.1109 27.9701 66.6865 29.5284 67.0703C29.936 67.1782 30.4394 66.9743 30.5473 66.5306C30.6552 66.1229 30.4514 65.6192 30.0079 65.5112C29.3486 65.3433 28.7013 65.1514 28.066 64.9236C27.7543 64.8156 27.4426 64.6957 27.143 64.5638C26.9991 64.5038 26.8433 64.4439 26.6994 64.3719C26.6275 64.3359 26.5676 64.312 26.4957 64.276C26.4477 64.252 26.4118 64.24 26.3638 64.216C25.1531 63.6404 24.0023 62.9448 22.9235 62.1533C22.6598 61.9614 22.3961 61.7575 22.1324 61.5416C22.1084 61.5176 22.0365 61.4577 22.0125 61.4457C21.9645 61.4097 21.9166 61.3617 21.8686 61.3258C21.7368 61.2178 21.6049 61.0979 21.4851 60.99C20.9816 60.5342 20.4901 60.0665 20.0346 59.5748C19.5671 59.0831 19.1356 58.5674 18.716 58.0278C18.6201 57.8958 18.5242 57.7759 18.4283 57.644C18.3924 57.584 18.3444 57.5361 18.3085 57.4761C18.3085 57.4641 18.2965 57.4641 18.2965 57.4521C18.2725 57.4161 18.2366 57.3682 18.2126 57.3322C18.0208 57.0564 17.829 56.7805 17.6492 56.5047C17.2416 55.8691 16.858 55.1975 16.5224 54.5259C16.3546 54.2021 16.1988 53.8663 16.0549 53.5185C15.971 53.3386 15.8991 53.1587 15.8272 52.9788C15.7912 52.8949 15.7552 52.8109 15.7193 52.727C15.6953 52.679 15.6833 52.631 15.6593 52.5711C15.6354 52.5231 15.6114 52.4631 15.5874 52.4152C15.7912 52.2593 15.995 52.0794 16.1868 51.8995C17.1457 51.2039 17.5533 49.8967 17.3136 48.8054C17.0139 47.4982 16.0789 46.047 14.5445 45.9151C14.3048 45.8911 14.065 45.8791 13.8373 45.9031C12.8903 45.9751 12.0033 46.4188 11.284 47.1144C10.433 47.9419 10.409 49.465 10.8285 50.5083C10.9244 50.8081 11.0683 51.072 11.2481 51.3118Z" fill="#262524"/>
<path d="M15.1251 47.2691C14.9213 45.3503 14.5138 43.4914 14.7775 41.5606C14.8494 41.1049 15.4847 40.7091 15.9522 40.9969C16.192 41.2008 16.3478 41.6325 16.3838 41.9683C16.3358 43.7672 16.4077 45.6621 16.192 47.509C16.0122 47.6889 15.7005 47.6769 15.1251 47.2691Z" fill="#262524"/>
<path d="M15.3982 47.2689C15.2663 46.1416 15.0865 45.0263 15.0026 43.887C14.9666 43.3233 14.9546 42.7596 14.9906 42.196C15.0146 41.8842 14.9906 41.4644 15.2903 41.2725C15.6379 41.0567 15.9256 41.3325 16.0335 41.6563C16.1893 42.124 16.0934 42.7237 16.0814 43.2154C16.0814 43.779 16.0694 44.3547 16.0575 44.9183C16.0455 45.494 16.0215 46.0696 15.9855 46.6333C15.9735 46.7532 16.0095 47.2569 15.9016 47.3289C15.7818 47.4128 15.3502 47.077 15.2543 47.0171C14.9546 46.8132 14.6789 47.2929 14.9786 47.4968C15.3262 47.7246 15.8537 48.0604 16.2612 47.7846C16.453 47.6527 16.453 47.5088 16.477 47.2809C16.525 46.8492 16.5489 46.4294 16.5729 45.9977C16.6208 45.0742 16.6208 44.1388 16.6328 43.2154C16.6448 42.5198 16.7647 41.7762 16.4051 41.1406C16.1534 40.6849 15.6859 40.505 15.1944 40.6969C14.655 40.9008 14.5111 41.3445 14.4512 41.8722C14.2714 43.6831 14.631 45.47 14.8348 47.2569C14.8827 47.6167 15.4341 47.6167 15.3982 47.2689Z" fill="#262524"/>
<path d="M16.2685 30.2517C14.1228 30.6595 11.9531 30.4316 11.2219 29.0285C10.0352 26.7858 11.4257 23.4878 9.22008 22.5164C5.46812 20.8614 1.2127 18.6068 1.00892 14.3134C0.649307 6.80596 7.91349 1.39724 15.0218 0.653687C15.813 0.581731 16.6041 0.569738 17.4073 0.629702C21.8785 1.03745 25.8342 3.6039 28.6272 7.32164C32.4151 12.6704 28.0638 18.1031 23.1131 20.4777C20.1283 21.9168 22.2021 24.9509 21.375 27.2535C20.6917 29.1124 17.9946 29.9279 16.2685 30.2517Z" fill="#F8CA35"/>
<path d="M15.4991 27.4444C15.4392 25.0819 15.3793 22.6953 15.1155 20.3447C14.8878 18.3659 14.648 16.4831 13.2695 14.936C12.4424 14.0006 10.6204 12.9212 9.4936 14.0485C8.187 15.3677 9.56552 17.5744 10.4646 18.6538C12.9699 21.6399 17.6928 21.556 20.4858 19.0135C21.5286 18.0661 22.1879 16.675 21.7444 15.2598C21.3488 13.9886 19.9224 12.8133 18.6517 13.7367C17.8007 14.3484 17.3811 15.4637 17.1054 16.4351C16.7818 17.5864 16.7338 18.7377 16.6978 19.925C16.6619 21.1602 16.6259 22.3475 16.7338 23.5828C16.8537 24.9499 17.0575 26.3051 17.1294 27.6723C17.1534 28.128 17.8726 28.188 17.8486 27.7203C17.6688 24.4103 17.0694 21.1722 17.5369 17.8502C17.6808 16.7829 18.5798 13.1011 20.27 14.3843C21.3129 15.1759 21.3488 16.639 20.6776 17.6943C19.8025 19.0615 18.0284 19.853 16.4941 20.1528C15.0796 20.4287 13.4254 20.0689 12.2267 19.2774C10.992 18.4739 9.51757 16.7709 9.72135 15.1998C9.84122 14.3004 10.6444 14.1805 11.3876 14.4563C12.1427 14.7321 12.7061 15.3797 13.1616 16.0154C14.1806 17.4425 14.2764 19.4093 14.4323 21.1123C14.6121 23.199 14.684 25.3097 14.7439 27.4084C14.7919 27.8522 15.5111 27.9121 15.4991 27.4444Z" fill="#262524"/>
<path d="M13.2728 31.5718C12.4097 31.7397 11.0672 31.0322 11.1871 30.0488C11.3069 29.1373 12.0262 28.6936 12.8533 28.5377C14.3277 28.2619 15.7901 28.094 17.3005 28.094C18.0916 28.094 18.8828 28.094 19.6739 28.1419C20.6089 28.1899 21.1483 28.6816 21.0644 29.665C20.9206 31.4519 18.679 31.308 17.3964 31.368C17.3844 31.6078 17.3604 31.8477 17.3484 32.0875C18.5951 32.0276 22.1193 31.5838 21.2083 33.9104C20.6089 35.4575 18.8228 35.8892 17.3604 36.1171C15.922 36.333 14.3756 36.321 13.0091 35.7693C12.2899 35.4815 11.3549 35.0018 11.223 34.1623C11.1031 33.4187 11.5227 32.6512 12.158 32.2674C12.5536 32.0276 12.2419 31.38 11.8344 31.6198C10.2401 32.5553 10.0243 34.7139 11.5587 35.7933C13.2728 37.0046 15.5024 37.1245 17.5162 36.8247C19.4462 36.5368 21.6518 35.7453 22.0594 33.5746C22.2152 32.7591 21.6878 31.9796 20.9805 31.6078C19.9017 31.0322 18.5591 31.308 17.3964 31.368C16.9409 31.392 16.8809 32.1115 17.3484 32.0875C18.3673 32.0396 19.3263 32.1235 20.2853 31.7038C21.1363 31.332 21.7237 30.6484 21.7837 29.713C21.8436 28.8735 21.5439 28.07 20.8007 27.6382C20.2973 27.3504 19.7339 27.4104 19.1585 27.3984C18.4632 27.3744 17.756 27.3624 17.0607 27.3744C15.8381 27.3864 14.6873 27.5423 13.4766 27.7102C12.5895 27.8421 11.5946 27.962 10.9833 28.7056C10.4199 29.3892 10.1921 30.5405 10.7915 31.284C11.3789 32.0036 12.4937 32.4713 13.4047 32.2914C13.8722 32.1955 13.7283 31.4879 13.2728 31.5718Z" fill="#262524"/>
<path d="M6.62988 14.6137C7.69674 14.11 8.52385 13.0666 9.07525 12.0473C9.66262 10.9799 10.1901 9.73267 10.1781 8.48543C10.1661 7.09427 9.29102 5.5592 7.72071 5.76308C4.83182 6.13485 3.40535 9.26495 3.15363 11.8434C3.02177 13.1506 3.65708 14.8536 5.20342 14.9135C5.73085 14.9375 6.19835 14.8176 6.62988 14.6137Z" fill="white"/>
<path d="M156.881 85.119C157.457 85.4548 158.008 85.8266 158.548 86.2223C158.811 86.4142 159.063 86.6181 159.315 86.822C159.435 86.9179 159.554 87.0258 159.674 87.1218C159.734 87.1697 159.794 87.2297 159.854 87.2777C159.926 87.3376 159.83 87.2537 159.83 87.2537C159.866 87.2897 159.914 87.3256 159.95 87.3616C160.921 88.2491 161.82 89.2325 162.611 90.2759C162.803 90.5397 162.995 90.8035 163.187 91.0674C163.21 91.1154 163.33 91.2713 163.246 91.1513C163.294 91.2113 163.33 91.2832 163.378 91.3552C163.474 91.4991 163.558 91.643 163.654 91.7869C164.002 92.3506 164.325 92.9382 164.625 93.5379C164.925 94.1375 165.188 94.7491 165.428 95.3728C165.488 95.5167 165.536 95.6726 165.596 95.8165C165.62 95.8765 165.644 95.9484 165.668 96.0084C165.68 96.0324 165.716 96.1523 165.668 96.0084C165.692 96.0563 165.704 96.1163 165.728 96.1643C165.836 96.4761 165.932 96.7879 166.015 97.1117C166.219 97.8313 166.387 98.5628 166.519 99.2944C166.579 99.6542 166.639 100.014 166.675 100.374C166.699 100.566 166.723 100.757 166.735 100.949C166.747 101.045 166.747 101.129 166.759 101.225C166.771 101.321 166.759 101.201 166.759 101.189C166.759 101.261 166.771 101.321 166.771 101.393C166.795 101.813 167.058 102.233 167.526 102.245C167.921 102.245 168.401 101.933 168.377 101.489C168.197 98.6708 167.514 95.9244 166.315 93.358C165.164 90.8635 163.546 88.5609 161.556 86.666C160.417 85.5747 159.159 84.6033 157.804 83.7998C157.445 83.5839 156.929 83.6319 156.69 84.0157C156.45 84.3634 156.498 84.8911 156.881 85.119Z" fill="#262524"/>
<path d="M167.196 102.231C167.411 102.231 167.615 102.255 167.819 102.291C168.023 102.339 168.202 102.411 168.394 102.495C169.377 103.047 170.216 103.994 170.24 105.23C170.24 105.422 170.228 105.613 170.204 105.793C170.096 106.981 169.018 107.904 167.891 107.82C166.117 107.652 165.565 105.469 166.141 103.91C166.225 103.647 166.332 103.395 166.464 103.167C166.596 102.951 166.74 102.747 166.92 102.555C166.992 102.459 167.088 102.351 167.196 102.231Z" fill="#262524"/>
<path d="M167.156 102.95C167.312 102.95 167.468 102.95 167.623 102.986C167.492 102.962 167.731 103.022 167.731 103.022C167.803 103.046 167.875 103.07 167.947 103.094C167.971 103.106 168.175 103.214 168.031 103.13C168.079 103.154 168.127 103.19 168.175 103.214C168.271 103.274 168.367 103.346 168.463 103.406C168.51 103.442 168.558 103.478 168.594 103.514C168.618 103.526 168.762 103.658 168.63 103.538C168.714 103.622 168.798 103.694 168.882 103.778C168.942 103.85 169.014 103.922 169.074 104.006C169.11 104.054 169.146 104.102 169.182 104.15C169.086 104.006 169.218 104.21 169.23 104.246C169.29 104.341 169.338 104.449 169.386 104.557C169.398 104.593 169.41 104.629 169.433 104.665C169.374 104.509 169.433 104.689 169.445 104.713C169.481 104.833 169.505 104.953 169.517 105.073C169.517 105.097 169.529 105.301 169.529 105.133C169.529 105.229 169.529 105.313 169.529 105.409C169.517 105.529 169.505 105.637 169.493 105.757C169.481 105.817 169.481 105.877 169.469 105.937C169.505 105.757 169.457 105.949 169.457 105.972C169.422 106.08 169.386 106.188 169.338 106.296C169.41 106.128 169.338 106.296 169.314 106.32C169.29 106.368 169.254 106.416 169.218 106.464C169.182 106.512 169.146 106.56 169.11 106.596C169.002 106.74 169.218 106.5 169.086 106.62C169.002 106.692 168.918 106.764 168.834 106.836C168.69 106.956 168.966 106.776 168.798 106.86C168.762 106.884 168.714 106.908 168.678 106.932C168.642 106.956 168.594 106.968 168.558 106.992C168.522 107.004 168.487 107.016 168.451 107.04C168.534 107.016 168.546 107.004 168.463 107.028C168.355 107.052 168.247 107.076 168.139 107.1C167.959 107.124 168.283 107.112 168.103 107.1C168.055 107.1 168.007 107.1 167.959 107.1C167.911 107.1 167.863 107.088 167.815 107.088C167.635 107.076 167.959 107.136 167.791 107.088C167.719 107.064 167.492 107.04 167.456 106.968C167.48 106.98 167.516 106.992 167.54 107.004C167.516 106.992 167.48 106.968 167.456 106.956C167.408 106.932 167.372 106.908 167.336 106.872C167.312 106.848 167.288 106.836 167.252 106.812C167.12 106.716 167.36 106.932 167.24 106.8C167.168 106.728 167.108 106.656 167.048 106.584C167.024 106.548 166.904 106.452 167.036 106.572C166.988 106.524 166.964 106.452 166.928 106.392C166.892 106.32 166.856 106.236 166.82 106.164C166.796 106.116 166.784 106.068 166.76 106.02C166.82 106.2 166.76 106.032 166.76 105.996C166.7 105.793 166.664 105.577 166.641 105.361C166.664 105.541 166.641 105.361 166.641 105.325C166.641 105.253 166.641 105.181 166.641 105.109C166.641 104.977 166.652 104.857 166.664 104.725C166.664 104.689 166.676 104.653 166.676 104.617C166.676 104.581 166.688 104.545 166.7 104.509C166.676 104.605 166.676 104.617 166.7 104.545C166.736 104.425 166.76 104.306 166.808 104.186C166.856 104.03 166.916 103.874 166.988 103.718C167 103.706 167.048 103.598 167 103.694C167.048 103.61 167.096 103.526 167.156 103.442C167.372 103.106 167.54 102.962 167.815 102.639C168.067 102.351 167.923 101.823 167.623 101.643C167.252 101.415 166.892 101.535 166.629 101.835C166.605 101.859 166.581 101.895 166.557 101.919C166.473 102.015 166.617 101.859 166.545 101.943C166.485 102.015 166.425 102.075 166.365 102.147C166.221 102.303 166.089 102.471 165.981 102.639C165.777 102.962 165.61 103.322 165.49 103.694C165.31 104.21 165.214 104.749 165.238 105.289C165.286 106.392 165.706 107.604 166.724 108.179C167.827 108.803 169.218 108.611 170.105 107.687C171.052 106.704 171.232 105.205 170.74 103.958C170.201 102.615 168.75 101.523 167.3 101.523C166.928 101.523 166.545 101.799 166.545 102.207C166.473 102.555 166.748 102.95 167.156 102.95Z" fill="#262524"/>
<path d="M165.36 103.887C165.3 103.995 165.252 104.103 165.192 104.199C165.18 104.223 165.156 104.259 165.132 104.283C165.144 104.271 165.156 104.247 165.168 104.235C165.204 104.223 165.408 104.139 165.432 104.175C165.408 104.175 165.384 104.175 165.36 104.175C165.324 104.175 165.324 104.175 165.384 104.187C165.444 104.199 165.444 104.199 165.408 104.187C165.384 104.187 165.36 104.175 165.336 104.163C165.216 104.127 165.384 104.175 165.372 104.187C165.36 104.175 165.348 104.175 165.336 104.163C165.288 104.127 165.288 104.127 165.336 104.163C165.372 104.199 165.384 104.211 165.36 104.175C165.348 104.163 165.324 104.139 165.312 104.127C165.348 104.115 165.396 104.283 165.396 104.307C165.36 104.187 165.42 104.427 165.408 104.343C165.384 104.415 165.396 104.295 165.408 104.343C165.432 104.295 165.444 104.235 165.456 104.187C165.48 104.127 165.48 104.115 165.456 104.175C165.503 104.079 165.563 103.983 165.635 103.899C165.671 103.851 165.683 103.827 165.635 103.887C165.671 103.839 165.707 103.803 165.755 103.767C165.827 103.695 165.899 103.635 165.983 103.575C166.019 103.551 166.055 103.527 166.091 103.491C165.995 103.563 166.115 103.479 166.139 103.467C166.223 103.419 166.319 103.371 166.403 103.323C166.798 103.108 167.206 102.916 167.637 102.76C167.421 102.328 167.206 101.896 167.002 101.465C166.438 101.668 165.959 102.148 165.707 102.7C165.599 102.952 165.48 103.203 165.384 103.467C165.348 103.575 165.312 103.683 165.276 103.791C165.216 104.007 165.228 104.211 165.252 104.427C165.3 104.799 165.743 105.074 166.103 104.99C166.51 104.894 166.714 104.535 166.666 104.139C166.642 103.959 166.654 104.259 166.642 104.259C166.642 104.259 166.678 104.139 166.678 104.127C166.714 104.031 166.75 103.923 166.786 103.827C166.858 103.623 166.954 103.419 167.038 103.227C167.002 103.299 167.026 103.239 167.05 103.203C167.074 103.167 167.098 103.132 167.134 103.084C167.17 103.036 167.194 103.012 167.134 103.072C167.158 103.036 167.194 103.012 167.218 102.976C167.254 102.952 167.278 102.916 167.314 102.892C167.445 102.772 167.254 102.904 167.349 102.868C167.445 102.832 167.529 102.784 167.625 102.748C167.985 102.616 168.129 102.1 167.949 101.776C167.745 101.405 167.361 101.321 166.978 101.453C166.415 101.644 165.863 101.908 165.36 102.232C164.784 102.604 164.281 103.108 164.053 103.767C163.933 104.115 163.897 104.475 164.053 104.81C164.197 105.122 164.473 105.326 164.772 105.47C165.072 105.602 165.48 105.65 165.779 105.506C166.151 105.338 166.343 105.026 166.522 104.679C166.702 104.343 166.69 103.899 166.331 103.683C166.055 103.503 165.551 103.527 165.36 103.887Z" fill="#262524"/>
<path d="M108.805 82.6714C108.757 83.415 108.709 84.1705 108.613 84.9261V84.8781C108.613 84.974 108.613 85.1179 108.589 85.2259C108.506 86.1133 108.41 86.9888 108.302 87.8643C108.086 89.6392 107.846 91.4141 107.571 93.177C107.031 96.6789 106.396 100.157 105.737 103.623C105.365 105.59 104.993 107.544 104.622 109.511C104.502 110.159 104.778 110.926 105.245 111.082C105.713 111.238 106.216 110.878 106.336 110.183C107.642 103.167 109.069 96.1872 109.956 89.0276C110.088 87.9842 110.208 86.9288 110.304 85.8735C110.412 84.8181 110.495 83.7628 110.579 82.6954C110.627 82.0238 110.136 81.3522 109.692 81.3762C109.177 81.4002 108.865 81.9399 108.805 82.6714Z" fill="#262524"/>
<path d="M105.453 110.399C105.657 110.519 105.861 110.627 106.076 110.723C106.292 110.819 106.52 110.903 106.748 110.987C107.575 111.166 108.666 111.418 109.673 111.382C109.924 111.37 110.164 111.346 110.392 111.298C110.56 111.262 110.751 111.214 110.931 111.154C111.111 111.094 111.303 111.011 111.459 110.915C111.986 110.639 111.986 110.027 111.77 109.547C111.471 109.02 111.111 108.588 110.596 108.336C110.464 108.264 110.32 108.204 110.176 108.156C108.869 107.725 107.347 108.156 106.34 109.212C106.256 109.296 106.16 109.392 106.076 109.487C105.981 109.727 105.717 109.859 105.609 110.111C105.549 110.195 105.501 110.291 105.453 110.399Z" fill="#262524"/>
<path d="M105.067 111.058C105.631 111.382 106.242 111.646 106.877 111.79C107.513 111.922 108.16 112.042 108.807 112.114C109.479 112.174 110.162 112.15 110.821 111.982C111.433 111.826 112.152 111.538 112.475 110.938C113.099 109.775 112.152 108.372 111.157 107.76C110.138 107.137 108.807 107.065 107.693 107.461C107.045 107.688 106.446 108.048 105.942 108.528C105.835 108.624 105.739 108.732 105.643 108.84C105.571 108.924 105.487 109.008 105.427 109.104C105.415 109.14 105.391 109.175 105.367 109.211C105.427 109.14 105.427 109.128 105.379 109.199C105.127 109.439 104.947 109.727 104.804 110.027C104.624 110.375 104.684 110.854 105.067 111.058C105.403 111.238 105.93 111.166 106.11 110.783C106.158 110.675 106.218 110.579 106.266 110.483C106.29 110.447 106.398 110.303 106.278 110.435C106.302 110.399 106.338 110.375 106.362 110.351C106.458 110.243 106.554 110.135 106.638 110.015C106.638 110.015 106.734 109.847 106.686 109.931C106.65 109.967 106.662 109.955 106.71 109.895C106.746 109.859 106.782 109.823 106.817 109.787C106.901 109.703 106.985 109.619 107.069 109.547C107.105 109.511 107.141 109.487 107.165 109.451C107.165 109.451 107.333 109.319 107.249 109.379C107.165 109.451 107.345 109.319 107.333 109.319C107.381 109.283 107.429 109.259 107.477 109.223C107.585 109.163 107.681 109.092 107.788 109.044C107.848 109.008 107.908 108.984 107.968 108.96C107.836 109.008 107.944 108.972 107.968 108.96C108.076 108.924 108.172 108.888 108.28 108.852C108.388 108.816 108.484 108.792 108.592 108.768C108.64 108.756 108.675 108.756 108.723 108.744C108.807 108.732 108.807 108.732 108.711 108.744C108.759 108.744 108.795 108.732 108.843 108.732C109.035 108.72 109.227 108.72 109.419 108.732C109.455 108.732 109.658 108.768 109.467 108.732C109.503 108.744 109.551 108.744 109.598 108.756C109.718 108.78 109.85 108.816 109.97 108.852C109.946 108.84 110.186 108.936 110.09 108.9C109.994 108.864 110.222 108.972 110.21 108.96C110.306 109.008 110.402 109.068 110.498 109.128C110.521 109.14 110.617 109.211 110.498 109.128C110.545 109.175 110.593 109.211 110.641 109.259C110.677 109.295 110.701 109.319 110.737 109.355C110.749 109.367 110.893 109.547 110.845 109.475C110.773 109.391 110.905 109.559 110.905 109.559C110.929 109.595 110.953 109.631 110.977 109.667C111.013 109.727 111.049 109.787 111.085 109.847C111.169 109.967 111.097 109.871 111.085 109.835C111.097 109.883 111.181 110.051 111.157 110.111C111.157 110.075 111.145 110.051 111.145 110.015C111.145 110.051 111.145 110.087 111.145 110.123C111.145 110.147 111.145 110.159 111.145 110.183C111.133 110.267 111.145 110.255 111.157 110.135C111.145 110.135 111.145 110.231 111.133 110.243C111.145 110.219 111.157 110.183 111.169 110.159C111.157 110.195 111.133 110.219 111.121 110.255C111.193 110.123 111.157 110.183 111.133 110.231C111.157 110.219 111.181 110.195 111.193 110.183C111.157 110.207 111.121 110.231 111.085 110.243C111.049 110.267 111.001 110.291 110.965 110.315C110.953 110.315 110.737 110.411 110.881 110.363C110.761 110.411 110.629 110.447 110.509 110.483C110.39 110.519 110.258 110.543 110.126 110.567C110.126 110.567 109.874 110.603 110.006 110.591C109.946 110.603 109.898 110.603 109.838 110.603C109.551 110.627 109.263 110.615 108.975 110.591C108.831 110.579 108.687 110.567 108.544 110.543C108.4 110.519 108.723 110.567 108.472 110.531C108.4 110.519 108.316 110.507 108.244 110.495C107.944 110.447 107.657 110.387 107.357 110.327C107.093 110.267 106.841 110.207 106.578 110.099C106.338 110.003 106.638 110.123 106.506 110.063C106.422 110.027 106.338 109.991 106.254 109.943C106.11 109.871 105.978 109.799 105.835 109.727C105.487 109.523 104.983 109.631 104.792 110.003C104.6 110.375 104.696 110.842 105.067 111.058Z" fill="#262524"/>
<path d="M82.9727 82.7065C83.0086 83.1502 83.0446 83.5939 83.0805 84.0376C83.0925 84.2415 83.1165 84.4574 83.1405 84.6613C83.1525 84.7572 83.1525 84.8412 83.1644 84.9371C83.1525 84.7692 83.1884 85.177 83.1884 85.2249C83.2723 86.1004 83.3682 86.9879 83.4761 87.8633C83.6919 89.6383 83.9316 91.4132 84.2073 93.1761C84.7467 96.678 85.3821 100.156 86.0414 103.622C86.413 105.589 86.7846 107.543 87.1562 109.51C87.276 110.158 87.0003 110.925 86.5328 111.081C86.0653 111.237 85.5619 110.877 85.442 110.182C84.1354 103.166 82.7089 96.1863 81.8219 89.0266C81.69 87.9833 81.5702 86.9279 81.4743 85.8725C81.3664 84.8172 81.2825 83.7618 81.1986 82.7065C81.1506 82.0349 81.6421 81.3992 82.0856 81.4232C82.6011 81.4592 82.9127 81.9869 82.9727 82.7065Z" fill="#262524"/>
<path d="M86.3316 110.399C86.1278 110.519 85.9241 110.627 85.7083 110.723C85.4925 110.819 85.2648 110.903 85.037 110.987C84.2099 111.167 83.1191 111.418 82.1122 111.382C81.8604 111.37 81.6207 111.346 81.3929 111.298C81.2251 111.263 81.0333 111.215 80.8535 111.155C80.6737 111.095 80.4819 111.011 80.3261 110.915C79.7986 110.639 79.7986 110.027 80.0144 109.548C80.3141 109.02 80.6737 108.588 81.1892 108.336C81.321 108.264 81.4649 108.204 81.6087 108.156C82.9153 107.725 84.4377 108.156 85.4446 109.212C85.5285 109.296 85.6244 109.392 85.7083 109.488C85.8042 109.727 86.0679 109.859 86.1758 110.111C86.2357 110.195 86.2837 110.291 86.3316 110.399Z" fill="#262524"/>
<path d="M86.717 111.058C86.1536 111.381 85.5423 111.645 84.907 111.789C84.2717 111.921 83.6243 112.041 82.977 112.113C82.3058 112.173 81.6225 112.149 80.9632 111.981C80.3519 111.825 79.6326 111.537 79.309 110.938C78.6857 109.774 79.6326 108.371 80.6276 107.76C81.6465 107.136 82.977 107.064 84.0918 107.46C84.7391 107.688 85.3385 108.047 85.842 108.527C85.9498 108.623 86.0457 108.731 86.1416 108.839C86.2136 108.923 86.2975 109.007 86.3574 109.103C86.3694 109.139 86.3934 109.175 86.4173 109.211C86.3574 109.139 86.3574 109.127 86.4054 109.199C86.6571 109.439 86.8369 109.726 86.9807 110.026C87.1725 110.374 87.1126 110.854 86.717 111.058C86.3814 111.238 85.8539 111.166 85.6741 110.782C85.6262 110.674 85.5663 110.578 85.5183 110.482C85.4943 110.446 85.3865 110.302 85.5063 110.434C85.4824 110.398 85.4464 110.374 85.4224 110.35C85.3265 110.242 85.2306 110.134 85.1467 110.014C85.1467 110.014 85.0508 109.846 85.0988 109.93C85.1347 109.966 85.1227 109.954 85.0748 109.894C85.0388 109.858 85.0029 109.822 84.9669 109.786C84.883 109.702 84.7991 109.618 84.7152 109.547C84.6792 109.511 84.6433 109.487 84.6193 109.451C84.6193 109.451 84.4515 109.319 84.5354 109.379C84.6193 109.451 84.4395 109.319 84.4515 109.319C84.4035 109.283 84.3556 109.259 84.3076 109.223C84.1997 109.163 84.1038 109.091 83.9959 109.043C83.936 109.007 83.8761 108.983 83.8161 108.959C83.8401 108.971 83.948 109.007 83.8161 108.959C83.7083 108.923 83.6124 108.887 83.5045 108.851C83.3966 108.815 83.3007 108.791 83.1928 108.767C83.1449 108.755 83.1089 108.755 83.061 108.743C82.977 108.731 82.977 108.731 83.0729 108.743C83.025 108.743 82.989 108.731 82.9411 108.731C82.7493 108.719 82.5575 108.719 82.3657 108.731C82.3297 108.731 82.126 108.767 82.3178 108.731C82.2818 108.743 82.2338 108.743 82.1859 108.755C82.066 108.779 81.9342 108.815 81.8143 108.851C81.8383 108.839 81.5985 108.935 81.6944 108.899C81.7903 108.863 81.5626 108.971 81.5746 108.959C81.4787 109.007 81.3828 109.067 81.2869 109.127C81.167 109.211 81.2629 109.139 81.2869 109.127C81.2389 109.175 81.191 109.211 81.143 109.259C81.1071 109.295 81.0831 109.319 81.0471 109.355C81.0351 109.367 80.8913 109.547 80.9392 109.475C81.0112 109.391 80.8793 109.559 80.8793 109.559C80.8553 109.595 80.8314 109.63 80.8074 109.666C80.7714 109.726 80.7355 109.786 80.6995 109.846C80.6156 109.966 80.6875 109.87 80.6995 109.834C80.6875 109.882 80.6036 110.05 80.6276 110.11C80.6276 110.074 80.6396 110.05 80.6396 110.014C80.6396 110.05 80.6396 110.086 80.6396 110.122C80.6396 110.146 80.6396 110.158 80.6396 110.182C80.6515 110.266 80.6396 110.254 80.6276 110.134C80.6396 110.134 80.6396 110.23 80.6516 110.242C80.6396 110.218 80.6276 110.182 80.6156 110.158C80.6276 110.194 80.6515 110.218 80.6635 110.254C80.5916 110.122 80.6276 110.182 80.6516 110.23C80.6276 110.218 80.6036 110.194 80.5916 110.182C80.6276 110.206 80.6635 110.23 80.6995 110.242C80.7355 110.266 80.7834 110.29 80.8194 110.314C80.8314 110.314 81.0471 110.41 80.9033 110.362C81.0231 110.41 81.155 110.446 81.2749 110.482C81.3947 110.518 81.5266 110.542 81.6585 110.566C81.6585 110.566 81.9102 110.602 81.7783 110.59C81.8383 110.602 81.8862 110.602 81.9462 110.602C82.2338 110.626 82.5215 110.614 82.8092 110.59C82.9531 110.578 83.0969 110.566 83.2408 110.542C83.3846 110.518 83.061 110.566 83.3127 110.53C83.3846 110.518 83.4685 110.506 83.5404 110.494C83.8401 110.446 84.1278 110.386 84.4275 110.326C84.6912 110.266 84.9429 110.206 85.2066 110.098C85.4464 110.002 85.1467 110.122 85.2786 110.062C85.3625 110.026 85.4464 109.99 85.5303 109.942C85.6741 109.87 85.806 109.798 85.9498 109.726C86.2975 109.523 86.8009 109.63 86.9927 110.002C87.1845 110.374 87.0886 110.842 86.717 111.058Z" fill="#262524"/>
<path d="M167.773 68.9769C166.982 64.5996 164.561 60.6899 161.133 57.8836C157.968 55.2932 154.036 53.7342 149.985 53.4823C149.829 53.4703 149.769 53.2784 149.877 53.1825C151.675 51.5755 152.837 49.2369 153.317 46.9223C153.976 43.7322 153.389 40.3023 152.142 37.3281C149.493 31.0439 143.476 26.3907 136.619 25.8751C134.425 25.7072 132.256 25.959 130.398 26.8705C130.266 26.9304 130.122 26.8105 130.158 26.6786C130.577 25.0476 130.541 23.2966 130.182 21.6296C129.427 18.1398 127.533 15.0936 124.656 12.9589C119.094 8.82141 110.775 8.54558 105.584 13.4866C104.206 14.7458 103.127 16.3408 102.468 18.1158C102.408 18.2717 102.204 18.2717 102.144 18.1158C100.382 13.3667 95.0117 10.0447 90.1569 9.26514C85.0864 8.43764 79.5124 10.0806 76.4916 14.422C76.0721 15.0216 75.7005 15.6693 75.3768 16.3289C75.1251 16.8325 74.9093 17.3602 74.7175 17.8879C74.2021 19.351 73.9504 20.8981 73.9024 22.4332C73.9024 22.5531 73.7706 22.637 73.6507 22.5771C69.7429 20.5983 65.1159 20.2745 60.8964 21.3898C60.0573 21.6176 59.2302 21.8935 58.4271 22.2293C49.0652 26.4387 43.4552 38.5993 47.9983 48.1096C46.6917 47.8218 45.4331 47.7138 44.1265 47.7498C42.8319 47.8098 41.5373 48.0376 40.2786 48.4813C39.4515 48.7692 38.6604 49.1409 37.9052 49.6087C37.3058 49.9565 36.7184 50.3282 36.167 50.748C33.9254 52.391 32.0435 54.5377 30.7728 56.9962C27.2247 63.868 29.0467 73.0544 34.8485 78.1394C38.7083 81.5213 44.3902 82.6486 49.221 80.9696C49.3289 80.9337 49.4487 81.0056 49.4487 81.1255C49.8084 88.4531 58.535 93.586 65.2957 93.1303C67.1657 93.0103 68.9637 92.4467 70.594 91.5232C70.6899 91.4633 70.8217 91.5232 70.8457 91.6312C71.8047 95.6008 75.5566 98.0473 79.3446 99.1866C83.0845 100.314 87.5917 100.722 91.3317 99.4384C92.866 98.9108 94.1966 97.9873 95.1316 96.7281C95.2155 96.6201 95.3713 96.6441 95.4312 96.7641C95.9826 98.0233 97.0015 99.0667 98.2482 99.6783C100.526 100.806 103.259 101.381 105.776 101.465C109.732 101.609 114.071 100.374 116.936 97.5196C117.847 96.6082 118.566 95.5648 119.046 94.4015C119.106 94.2696 119.286 94.2576 119.357 94.3895C120.58 96.6681 122.978 98.2152 125.615 98.515C127.677 98.7429 129.714 98.0593 131.608 97.3157C133.802 96.4522 136.02 95.241 137.662 93.526C138.98 92.1469 139.903 90.4199 140.167 88.549C140.191 88.4171 140.335 88.3572 140.443 88.4291C144.159 91.1515 148.966 92.0269 153.485 91.0555C158.459 89.9762 162.811 86.882 165.388 82.4807C167.725 78.4512 168.6 73.5821 167.773 68.9769Z" fill="#00BDC2"/>
<path d="M132.694 26.1144C131.795 26.2703 130.92 26.4862 130.236 27.0619C130.308 26.762 130.356 26.4622 130.404 26.1624C130.716 24.1596 130.548 22.1209 129.889 20.226C129.757 19.8302 129.601 19.4345 129.433 19.0507C128.235 16.3763 126.077 14.2057 123.691 12.5267C124.602 13.4501 125.358 14.4935 125.957 15.6208C126.161 15.9926 126.341 16.3763 126.508 16.7721C126.676 17.1319 126.832 17.5037 126.964 17.8874C128.318 21.881 127.767 26.2224 126.508 30.144C126.389 30.4678 126.257 30.8036 126.161 31.1154C125.969 31.739 125.885 32.3027 126.233 32.6145C127.096 33.3221 128.414 31.3552 129.601 30.7676C129.805 30.6237 129.997 30.4678 130.2 30.3239C130.86 29.8202 131.591 29.3884 132.298 28.9327C132.478 28.8248 132.646 28.7049 132.826 28.5849C133.844 27.9013 134.899 27.0738 135.295 25.8386C134.66 25.8986 133.952 25.9585 133.305 26.0545C133.089 26.0545 132.897 26.0785 132.694 26.1144Z" fill="#00A1A5"/>
<path d="M167.774 68.9769C166.983 64.5995 164.561 60.6899 161.133 57.8836C159.491 56.5404 157.657 55.4731 155.691 54.7295C155.031 54.4777 154.372 54.2618 153.701 54.0819C152.322 53.7941 151.028 53.3864 149.637 53.5542C153.066 50.5561 154.18 45.747 153.401 41.2977C152.634 36.7644 149.973 32.9388 146.485 30.2044C145.789 29.6527 145.058 29.1491 144.303 28.6933C140.167 26.1869 134.701 24.7957 130.17 27.1223C137.123 27.4341 143.536 32.6629 144.842 39.5348C144.986 40.3143 145.058 41.1058 145.046 41.9093C144.89 47.7258 140.335 51.7194 136.152 55.3412C135.349 56.0247 135.181 57.272 135.792 58.1954C136.272 58.927 136.943 59.4067 137.698 59.7065C138.453 60.0063 139.292 60.1383 140.119 60.1862C140.287 60.1982 140.503 60.4501 140.671 60.4621C144.363 60.7859 148.175 61.8292 151.363 63.88C153.101 64.9953 154.816 66.3145 156.026 68.0055C156.925 69.2527 158.016 71.2675 157.74 72.8505C157.249 75.6688 155.475 77.8395 153.641 79.9382C152.934 80.7418 151.951 81.4134 150.872 81.8931C147.983 83.2602 145.022 81.5573 142.265 80.6338C142.265 80.5739 142.337 80.5259 142.337 80.4659C141.33 80.1421 140.395 79.6024 139.46 79.0628C138.633 78.643 137.626 78.2113 136.691 78.5471C136.619 78.5231 136.499 78.5111 136.439 78.5711C136.439 78.631 136.487 78.751 136.475 78.8109C135.768 78.9189 135.265 79.4585 134.989 80.0102C133.335 83.1043 132.088 87.5536 127.965 87.9494C124.704 88.2492 122.283 86.2464 119.717 84.6394C119.082 84.2676 118.363 84.1237 117.656 84.1837C116.805 84.2196 116.073 84.6754 115.45 85.251C113.124 87.4697 111.554 90.3359 108.545 91.6911C106.987 92.3627 105.561 92.3507 104.23 91.943C103.787 91.7991 103.355 91.6192 102.923 91.4033C100.658 90.264 98.9078 88.4411 96.7741 87.0499C96.5583 86.918 96.2826 86.7141 96.0429 86.87C93.7533 88.0573 91.9793 89.8083 89.39 90.192C88.6349 90.3479 87.8557 90.4559 87.0885 90.4799C83.2167 90.6358 79.3688 89.0647 77.319 85.251C76.0844 82.8885 74.6939 79.6024 71.5532 81.0775C70.9659 81.2095 70.3545 81.3414 69.7552 81.4733C66.1351 82.2648 62.3711 82.8285 59.1706 80.382C56.5694 78.4272 56.3176 75.2851 54.7713 72.5627C54.3757 71.7832 53.4048 71.7472 52.5897 71.7352C52.0622 71.7472 51.5348 71.7832 51.0074 71.8192C48.3702 72.023 45.769 72.4668 43.2038 71.9031C42.4845 71.7472 41.7773 71.5193 41.082 71.2075C40.3988 70.8957 39.7275 70.488 39.0802 69.9843C33.8418 65.8348 34.3573 57.9196 38.4689 53.3264C38.9364 52.7507 39.4398 52.2231 39.9792 51.7314C42.6883 49.2848 46.2844 47.8817 49.9285 47.9417C41.7533 45.735 32.6311 51.2397 29.8381 59.0589C29.5864 59.7785 29.3826 60.534 29.2388 61.3016C29.0949 62.165 28.9991 63.0285 28.9751 63.916C28.7713 69.1568 30.7731 74.6375 34.8008 78.1273C35.4601 78.703 36.1793 79.2307 36.9585 79.6864C37.7017 80.1301 38.4808 80.5019 39.296 80.8017C41.9931 81.8091 44.9898 82.049 47.7948 81.4014C48.3582 81.2694 48.9096 81.1135 49.449 80.9097C49.473 81.8451 49.6288 82.7325 49.9045 83.596C51.8105 89.5804 59.3264 93.55 65.308 93.1542C67.2619 93.0223 69.1319 92.4227 70.7981 91.4393C71.6611 95.5408 75.485 98.0593 79.3449 99.2225C83.0848 100.35 87.592 100.758 91.332 99.4744C92.9742 98.9107 94.3647 97.9034 95.3117 96.5122C95.8271 97.8914 96.906 99.0546 98.2365 99.7142C100.514 100.842 103.247 101.417 105.764 101.501C109.72 101.645 114.059 100.41 116.924 97.5556C117.931 96.5602 118.698 95.3849 119.166 94.0897C119.753 95.3129 120.664 96.3563 121.779 97.1238C122.343 97.5076 122.942 97.8314 123.589 98.0712C127.329 99.4264 131.273 97.9273 134.773 96.0924C137.794 94.5094 139.94 91.7511 140.275 88.4291C140.875 88.8249 141.474 89.2206 142.157 89.5684C142.829 89.9282 143.536 90.24 144.267 90.5038C147.18 91.5592 150.38 91.7511 153.461 91.0795C158.436 90.0001 162.787 86.906 165.364 82.5047C167.726 78.4511 168.601 73.5821 167.774 68.9769Z" fill="#00A1A5"/>
<path d="M115.87 24.3285C114.875 23.0572 113.317 22.4336 111.675 22.5056C109.637 22.5775 108.031 23.8248 107.036 25.4678C106.137 26.9309 105.418 28.5979 105.609 30.4208C105.621 30.5527 105.645 30.7086 105.669 30.8645C105.681 30.9364 105.693 31.0204 105.717 31.1043C105.753 31.2123 105.789 31.3442 105.825 31.4881C105.921 31.9438 106.113 32.3636 106.556 32.5675C107.06 32.7234 107.455 32.2437 107.659 31.8119C107.707 31.704 107.767 31.596 107.803 31.4761C107.983 31.0084 108.115 30.4807 108.306 30.013C108.354 29.8811 108.39 29.7492 108.426 29.6172C108.858 28.2141 109.313 26.799 110.512 25.8395C112.094 24.6403 114.12 25.108 115.918 24.5683C115.906 24.4844 115.882 24.4124 115.87 24.3285Z" fill="#00A1A5"/>
<path d="M130.818 66.9269C130.59 68.4499 131.178 69.9251 132.304 71.0164C133.683 72.3716 135.601 72.6714 137.375 72.2876C138.969 71.9518 140.6 71.3642 141.726 70.045C142.278 69.4094 143.033 68.294 142.29 67.6704C142.026 67.4066 141.487 67.7424 141.043 67.8623C139.197 68.5099 137.459 69.949 135.361 69.6492C133.491 69.3374 132.496 67.6344 130.95 66.747C130.902 66.8069 130.866 66.8669 130.818 66.9269Z" fill="#00A1A5"/>
<path d="M75.7438 38.3604C75.5161 39.8835 76.1034 41.3586 77.2302 42.45C78.6087 43.8051 80.5267 44.1049 82.3008 43.7212C83.895 43.3854 85.5253 42.7977 86.6521 41.4785C87.2035 40.8429 87.9587 39.7276 87.2155 39.104C86.9518 38.8401 86.4123 39.1759 85.9688 39.2959C84.1228 39.9435 82.3847 41.3826 80.2869 41.0828C78.4169 40.771 77.422 39.068 75.8757 38.1805C75.8277 38.2405 75.7918 38.3005 75.7438 38.3604Z" fill="#00A1A5"/>
<path d="M121.982 39.6425C121.754 41.1656 122.342 42.6407 123.469 43.732C124.847 45.0872 126.765 45.387 128.539 45.0032C130.133 44.6674 131.764 44.0798 132.89 42.7606C133.442 42.125 134.197 41.0096 133.454 40.386C133.19 40.1222 132.651 40.458 132.207 40.5779C130.361 41.2255 128.623 42.6646 126.525 42.3648C124.655 42.053 123.66 40.35 122.114 39.4626C122.066 39.5225 122.03 39.5825 121.982 39.6425Z" fill="#00A1A5"/>
<path d="M141.671 32.2437C141.288 30.6726 140.377 29.1975 139.25 27.9623C139.046 27.7584 138.819 27.5665 138.591 27.3866C138.339 27.1827 138.087 27.0028 137.824 26.835C137.488 26.6191 137.152 26.4272 136.793 26.2833C135.031 25.5517 133.089 25.7436 131.375 26.4752C129.517 27.2547 127.683 28.358 126.616 30.2289C126.1 31.1283 125.441 32.6634 126.496 33.2391C126.879 33.5029 127.443 32.9632 127.97 32.7114C129.361 31.8959 130.607 30.6726 132.07 29.9051C132.429 29.7132 132.813 29.5453 133.209 29.4254C133.916 29.2335 134.623 29.1735 135.33 29.2215C135.678 29.2455 136.038 29.2935 136.385 29.3654C136.733 29.4134 137.068 29.4853 137.392 29.5933C137.716 29.7012 138.027 29.8451 138.327 30.001C139.55 30.6366 140.629 31.5961 141.66 32.5075C141.66 32.4356 141.671 32.3396 141.671 32.2437Z" fill="#00A1A5"/>
<path d="M107.295 32.4121C107.523 31.9444 107.283 31.4646 107.355 31.0329C107.331 30.913 107.307 30.7931 107.271 30.6731C106.983 29.6178 106.384 28.6344 105.557 27.8189C103.819 26.1039 101.421 25.7081 99.1798 26.1878C97.1659 26.6076 95.1281 27.3391 93.6897 28.9941C92.9944 29.7857 92.0355 31.2008 92.9704 31.9803C93.3061 32.3161 93.9774 31.8964 94.5408 31.7405C96.8662 30.937 99.0599 29.1381 101.697 29.5218C103.183 29.7737 104.214 30.7211 105.269 31.6685C105.365 31.7525 105.461 31.8364 105.557 31.9324C105.976 32.3401 106.54 32.556 107.139 32.544C107.187 32.496 107.235 32.46 107.295 32.4121Z" fill="#00A1A5"/>
<path d="M49.1799 56.578C48.7844 57.1416 48.7244 57.7293 48.8803 58.3049C49.1799 59.4443 50.3067 60.5356 51.1218 61.2432C51.2537 61.3511 51.3856 61.447 51.5174 61.543C51.6493 61.6389 51.7811 61.7229 51.913 61.8188C55.0416 63.3899 58.9254 62.4544 61.5866 60.3197C62.5096 59.5882 63.3966 58.6887 63.5045 57.4894C63.4925 57.0217 63.1929 56.4221 62.6654 56.554C61.191 56.9498 59.9084 57.7053 58.5179 58.5088C55.665 60.1038 52.7641 59.0485 50.7622 56.7459C50.4506 56.3741 49.8752 56.3261 49.3717 56.482C49.3118 56.494 49.2519 56.53 49.1799 56.578Z" fill="#00A1A5"/>
<path d="M102.833 70.4191C101.969 72.6378 100.04 74.2808 97.5822 74.2328C94.8372 74.1729 93.075 72.0741 92.4038 69.5796C92.0202 68.1645 94.2378 67.6968 94.6214 69.0999C95.0289 70.599 95.9999 71.9902 97.7021 71.9662C99.1285 71.9542 100.183 70.9708 100.687 69.6876C101.214 68.3444 103.36 69.052 102.833 70.4191Z" fill="#262524"/>
<path d="M120.814 76.0404C120.97 79.0026 117.961 80.2859 115.432 80.3458C112.208 80.4298 107.712 78.1991 108.036 74.3974C108.24 72.0948 110.374 70.9315 112.447 70.6677C115.648 70.2479 119.688 71.4832 120.635 74.9491C120.742 75.3329 120.802 75.6926 120.814 76.0404Z" fill="#00A1A5"/>
<path d="M73.697 71.9741C73.0377 74.8644 75.7828 76.6393 78.2641 77.143C81.4287 77.7786 86.2355 76.3515 86.5712 72.5498C86.775 70.2472 84.857 68.7361 82.8672 68.1125C79.7865 67.1531 75.591 67.6807 74.0686 70.9188C73.9008 71.2786 73.7809 71.6383 73.697 71.9741Z" fill="#00A1A5"/>
<path d="M63.9524 25.2888C61.1714 25.3008 58.5822 27.2196 57.3954 29.6541C56.6163 31.3211 56.4964 34.0795 58.3424 34.751C61.3152 35.9143 64.8634 34.0795 66.7813 31.3691C66.9971 31.0693 67.1889 30.7575 67.3567 30.4337C68.1359 29.0185 68.4236 26.9078 66.7813 26.0323C66.5656 25.9004 66.3378 25.7805 66.1101 25.6845C65.8823 25.5886 65.6426 25.5167 65.4148 25.4567C64.9233 25.3488 64.4199 25.2888 63.9524 25.2888Z" fill="white"/>
<path d="M53.9421 36.1311C52.1081 36.7547 51.245 38.9973 51.6286 40.8202C51.9283 42.1034 53.0311 43.1108 54.3737 43.1108C56.1358 43.0749 57.5622 41.5758 57.6941 39.8368C57.778 38.3857 57.1187 36.8146 55.7162 36.251C55.0809 35.9632 54.4815 35.9512 53.9421 36.1311Z" fill="white"/>
<path d="M111.316 67.994C111.555 67.7062 111.196 68.102 111.352 67.9461C111.424 67.8741 111.483 67.8141 111.555 67.7422C111.699 67.6103 111.843 67.4903 111.999 67.3824C112.059 67.3344 112.119 67.2985 112.191 67.2505C111.951 67.4064 112.191 67.2625 112.239 67.2265C112.407 67.1425 112.574 67.0466 112.754 66.9746C112.85 66.9387 113.282 66.7828 113.006 66.8667C113.186 66.8067 113.377 66.7588 113.557 66.7228C113.749 66.6868 113.941 66.6508 114.121 66.6389C114.157 66.6389 114.48 66.6029 114.276 66.6149C114.085 66.6269 114.432 66.6149 114.432 66.6149C114.804 66.6149 115.152 66.6988 115.523 66.7228C115.715 66.7348 115.223 66.6389 115.559 66.7228C115.655 66.7468 115.739 66.7708 115.835 66.8067C116.003 66.8547 116.158 66.9147 116.314 66.9866C116.398 67.0226 116.494 67.0826 116.578 67.1066C116.722 67.1545 116.398 66.9986 116.614 67.1306C116.782 67.2265 116.938 67.3344 117.093 67.4424C117.153 67.4903 117.213 67.5383 117.273 67.5863C117.273 67.5863 117.537 67.8141 117.405 67.6942C117.273 67.5743 117.501 67.8021 117.525 67.8261C117.609 67.9101 117.681 68.006 117.765 68.102C118.232 68.6776 119.131 68.7496 119.695 68.2819C120.27 67.8022 120.342 66.9147 119.874 66.351C118.592 64.792 116.578 63.8805 114.552 63.9045C112.407 63.9405 110.441 64.768 109.038 66.411C108.559 66.9746 108.798 67.9221 109.362 68.3298C110.045 68.7855 110.836 68.5697 111.316 67.994Z" fill="#262524"/>
<path d="M77.3821 64.937C77.6218 64.6492 77.2622 65.045 77.418 64.8891C77.49 64.8171 77.5499 64.7571 77.6218 64.6852C77.7657 64.5533 77.9095 64.4333 78.0654 64.3254C78.1253 64.2774 78.1852 64.2414 78.2571 64.1935C78.0174 64.3494 78.2571 64.2055 78.3051 64.1695C78.4729 64.0855 78.6407 63.9896 78.8205 63.9176C78.9164 63.8817 79.348 63.7258 79.0723 63.8097C79.2521 63.7497 79.4439 63.7018 79.6237 63.6658C79.8155 63.6298 80.0073 63.5938 80.1871 63.5819C80.223 63.5819 80.5467 63.5459 80.3429 63.5579C80.1511 63.5699 80.4987 63.5579 80.4987 63.5579C80.8703 63.5579 81.218 63.6418 81.5896 63.6658C81.7813 63.6778 81.2899 63.5819 81.6255 63.6658C81.7214 63.6898 81.8053 63.7138 81.9012 63.7497C82.069 63.7977 82.2249 63.8577 82.3807 63.9296C82.4646 63.9656 82.5605 64.0256 82.6444 64.0496C82.7883 64.0975 82.4646 63.9416 82.6804 64.0736C82.8482 64.1695 83.004 64.2774 83.1599 64.3854C83.2198 64.4333 83.2797 64.4813 83.3397 64.5293C83.3397 64.5293 83.6034 64.7571 83.4715 64.6372C83.3397 64.5173 83.5674 64.7451 83.5914 64.7691C83.6753 64.8531 83.7472 64.949 83.8311 65.045C84.2986 65.6206 85.1977 65.6926 85.7611 65.2249C86.3364 64.7451 86.4084 63.8577 85.9409 63.294C84.6582 61.735 82.6444 60.8235 80.6186 60.8475C78.4729 60.8835 76.507 61.711 75.1045 63.354C74.6251 63.9176 74.8648 64.8651 75.4282 65.2728C76.1115 65.7166 76.8906 65.5007 77.3821 64.937Z" fill="#262524"/>
</svg>
