<svg width="179" height="107" viewBox="0 0 179 107" fill="none" xmlns="http://www.w3.org/2000/svg">
<path d="M167.589 67.1312C166.849 66.8655 166.158 66.4308 165.624 65.839C165.091 65.2472 164.703 64.5105 164.581 63.7134C164.472 62.9405 164.594 62.0951 164.97 61.4188C165.285 60.8391 165.976 60.0903 166.522 60.8874C166.68 61.1048 166.716 61.3946 166.692 61.6603C166.631 62.3608 166.34 62.9284 166.534 63.653C166.704 64.269 167.128 64.7883 167.723 65.054C168.062 65.211 168.402 65.3076 168.705 65.3438C169.008 65.38 169.299 65.3559 169.554 65.2714C170.415 64.9574 170.779 63.7013 170.743 62.8922C170.682 61.7207 169.942 61.1289 168.911 60.7424C168.329 60.525 168.002 60.0782 168.196 59.4623C168.22 59.3777 168.256 59.3053 168.305 59.2328C168.535 58.8946 168.996 58.7739 169.542 58.9067C169.869 58.9792 170.16 59.0879 170.439 59.2086C171.773 59.8125 172.622 61.1772 172.938 62.5782C173.387 61.5999 173.799 60.6217 174.163 59.6072C174.357 59.0758 174.818 58.1821 175.545 58.4116C176.152 58.6048 176.164 59.4019 176.091 59.9212C175.897 61.1772 175.242 62.2883 174.66 63.3994C174.599 63.5081 174.551 63.6168 174.49 63.7255C174.43 63.8342 174.381 63.9429 174.32 64.0516C174.417 64.0033 174.502 63.967 174.587 63.9187C174.672 63.8704 174.757 63.8221 174.842 63.7617C175.497 63.3632 176.043 62.9405 176.625 62.4453C177.049 62.083 177.534 61.5999 178.104 61.4912C178.638 61.3946 179.099 61.9381 178.978 62.4574C178.844 63.0733 178.153 63.6651 177.692 64.0516C176.734 64.8607 175.691 65.5854 174.563 66.1651C173.144 66.8897 171.543 67.4452 169.942 67.5056C169.154 67.5298 168.341 67.409 167.589 67.1312Z" fill="#262524"/>
<path d="M157.876 67.6258C158.773 68.29 159.634 69.0026 160.58 69.5944C161.963 70.4518 163.358 70.3069 164.619 69.3045C165.528 68.5678 166.39 67.7707 167.348 66.9374C168.233 67.1669 169.143 67.2273 170.077 67.1669C169.81 67.2756 169.543 67.3963 169.288 67.5413C168.597 67.9277 168.075 68.5316 167.505 69.063C166.85 69.6668 166.183 70.2345 165.468 70.7779C163.479 72.2755 161.393 72.1306 159.355 70.8866C158.627 70.4398 157.96 69.8842 157.281 69.3528V67.0461C157.439 67.2514 157.633 67.4446 157.876 67.6258Z" fill="#262524"/>
<path d="M11.408 67.1312C12.1478 66.8655 12.8391 66.4308 13.3728 65.839C13.9064 65.2472 14.2945 64.5105 14.4158 63.7134C14.525 62.9405 14.4037 62.0951 14.0277 61.4188C13.7124 60.8391 13.021 60.0903 12.4753 60.8874C12.3176 61.1048 12.2812 61.3946 12.3055 61.6603C12.3661 62.3608 12.6572 62.9284 12.4632 63.653C12.2934 64.269 11.8689 64.7883 11.2746 65.054C10.935 65.211 10.5954 65.3076 10.2922 65.3438C9.98899 65.38 9.69791 65.3559 9.44322 65.2714C8.58211 64.9574 8.21826 63.7013 8.25465 62.8922C8.31529 61.7207 9.05511 61.1289 10.086 60.7424C10.6682 60.525 10.9956 60.0782 10.8016 59.4623C10.7773 59.3777 10.7409 59.3053 10.6924 59.2328C10.462 58.8946 10.0011 58.7739 9.45534 58.9067C9.12788 58.9792 8.8368 59.0879 8.55785 59.2086C7.22375 59.8125 6.37477 61.1772 6.05944 62.5782C5.61069 61.5878 5.21046 60.6217 4.83448 59.6072C4.64043 59.0758 4.17956 58.1821 3.45186 58.4116C2.84545 58.6048 2.83332 59.4019 2.90609 59.9212C3.10014 61.1772 3.75507 62.2883 4.33722 63.3994C4.39787 63.5081 4.44638 63.6168 4.50702 63.7255C4.56766 63.8342 4.61617 63.9429 4.67682 64.0516C4.57979 64.0033 4.49489 63.967 4.40999 63.9187C4.3251 63.8704 4.2402 63.8221 4.1553 63.7617C3.50038 63.3632 2.9546 62.9405 2.37245 62.4453C1.94796 62.083 1.46283 61.5999 0.892803 61.4912C0.35916 61.3946 -0.101713 61.9381 0.0195695 62.4574C0.15298 63.0733 0.84429 63.6651 1.30516 64.0516C2.26329 64.8607 3.30632 65.5854 4.43425 66.1651C5.85326 66.8897 7.45418 67.4452 9.05511 67.5056C9.83132 67.5298 10.6439 67.409 11.408 67.1312Z" fill="#262524"/>
<path d="M21.1229 67.6258C20.2254 68.29 19.3643 69.0026 18.4183 69.5944C17.0357 70.4518 15.6409 70.3069 14.3796 69.3045C13.47 68.5678 12.6089 67.7707 11.6507 66.9374C10.7654 67.1669 9.85575 67.2273 8.92188 67.1669C9.1887 67.2756 9.45552 67.3963 9.71021 67.5413C10.4015 67.9277 10.923 68.5316 11.4931 69.063C12.148 69.6668 12.815 70.2345 13.5306 70.7779C15.5196 72.2755 17.6057 72.1306 19.6432 70.8866C20.3709 70.4398 21.038 69.8842 21.7172 69.3528V67.0461C21.5595 67.2514 21.3655 67.4446 21.1229 67.6258Z" fill="#262524"/>
<path d="M86.7963 101.384C86.5538 100.84 86.1414 100.562 85.5107 100.599C82.8061 100.744 80.2228 100.079 77.6638 99.2943C76.7056 98.9924 75.893 98.4489 75.3351 97.5793C74.0738 95.6108 74.4862 93.3886 75.5049 91.6132H73.4067C73.2248 92.1446 73.0429 92.6881 72.8852 93.2436C71.9514 96.3112 73.7827 99.9827 76.8269 100.973C78.3793 101.48 79.9924 101.806 81.5812 102.169C82.4059 102.35 83.267 102.422 84.1524 102.543C84.0553 102.748 83.9826 102.893 83.9219 103.038C83.5945 103.787 83.4611 104.548 83.74 105.357C84.0432 106.239 84.9528 107.024 85.729 106.999C86.5416 106.975 87.2693 106.251 87.4998 105.26C87.8515 103.859 87.3421 102.615 86.7963 101.384Z" fill="#262524"/>
<path d="M90.3468 101.384C90.5894 100.84 91.0018 100.562 91.6324 100.599C94.337 100.744 96.9204 100.079 99.4794 99.2943C100.438 98.9924 101.25 98.4489 101.808 97.5793C103.069 95.6108 102.657 93.3886 101.638 91.6132H103.736C103.918 92.1446 104.1 92.6881 104.258 93.2436C105.192 96.3112 103.36 99.9827 100.316 100.973C98.7638 101.48 97.1508 101.806 95.562 102.169C94.7373 102.35 93.8762 102.422 92.9908 102.543C93.0878 102.748 93.1606 102.893 93.2212 103.038C93.5487 103.787 93.6821 104.548 93.4032 105.357C93.1 106.239 92.1903 107.024 91.4141 106.999C90.6015 106.975 89.8738 106.251 89.6434 105.26C89.2917 103.859 89.8011 102.615 90.3468 101.384Z" fill="#262524"/>
<path d="M159.221 54.875C158.044 50.5514 155.267 46.8316 151.555 44.3196C148.135 41.9887 144.048 40.7689 139.936 40.8655C139.778 40.8655 139.693 40.6844 139.803 40.5757C141.476 38.8124 142.447 36.3608 142.726 33.9937C143.114 30.7328 142.228 27.3513 140.7 24.4648C137.474 18.39 131.009 14.2476 124.047 14.32C121.816 14.3442 119.657 14.779 117.862 15.8538C117.74 15.9263 117.571 15.8176 117.595 15.6727C117.874 14.006 117.68 12.2428 117.17 10.6003C116.103 7.15832 113.932 4.27189 110.851 2.37578C104.908 -1.28358 96.491 -0.836731 91.6881 4.56174C90.4267 5.97476 89.4685 7.67763 88.9713 9.51336C88.9227 9.67036 88.7166 9.69451 88.6438 9.53751C86.4485 4.92405 80.7601 2.06178 75.7874 1.68739C70.6084 1.30092 65.1263 3.42649 62.458 8.05202C62.082 8.69211 61.7667 9.36843 61.4998 10.0689C61.2936 10.6003 61.1238 11.1438 60.9783 11.6872C60.5902 13.1969 60.4689 14.779 60.5538 16.3128C60.5659 16.4335 60.4325 16.5302 60.3112 16.4818C56.1996 14.8394 51.5058 14.9118 47.3457 16.3973C46.5088 16.6992 45.7083 17.0495 44.9199 17.4601C35.8477 22.4963 31.2509 35.1772 36.6603 44.3317C35.3262 44.1626 34.0405 44.1626 32.7306 44.3075C31.4329 44.4766 30.1472 44.8268 28.9222 45.3824C28.1217 45.7447 27.3455 46.1795 26.6299 46.7229C26.0599 47.1215 25.5019 47.5563 24.9683 48.0152C22.8579 49.863 21.1356 52.1818 20.0804 54.7421C17.1089 61.9522 19.7408 70.9979 26.0235 75.5993C30.2079 78.6548 36.0296 79.2949 40.7477 77.1935C40.8568 77.1452 40.9781 77.2177 40.9902 77.3263C41.9969 84.6451 51.2268 89.0412 58.0189 88.0025C59.8988 87.7127 61.6575 87.0001 63.2221 85.9373C63.3191 85.8769 63.4525 85.9132 63.4889 86.0219C64.7988 89.9107 68.8013 92.0483 72.7067 92.8696C76.5758 93.6667 81.1604 93.7029 84.8111 92.0846C86.3151 91.4203 87.5643 90.3817 88.4012 89.0411C88.474 88.9324 88.6438 88.9324 88.7044 89.0411C89.3715 90.2489 90.4873 91.215 91.7972 91.7223C94.1987 92.6522 96.9883 92.9904 99.5475 92.8696C103.55 92.6643 107.807 91.058 110.451 87.9542C111.288 86.9639 111.919 85.8528 112.307 84.6451C112.355 84.5002 112.537 84.476 112.622 84.5968C114.053 86.7707 116.612 88.1233 119.293 88.1957C121.391 88.2441 123.38 87.3866 125.224 86.4687C127.358 85.418 129.493 84.005 130.997 82.133C132.21 80.6355 132.986 78.8239 133.083 76.9157C133.095 76.7829 133.229 76.7104 133.35 76.7708C137.34 79.1741 142.253 79.6451 146.728 78.2684C151.652 76.7587 155.764 73.2805 157.983 68.6429C159.997 64.3918 160.458 59.4281 159.221 54.875Z" fill="#00BDC2"/>
<path d="M120.132 14.9114C119.246 15.1408 118.373 15.4307 117.73 16.0708C117.779 15.7688 117.803 15.4669 117.827 15.165C117.961 13.124 117.621 11.095 116.796 9.2472C116.627 8.86074 116.445 8.47427 116.238 8.11195C114.783 5.52745 112.418 3.53473 109.871 2.06132C110.866 2.90672 111.715 3.89704 112.418 4.97191C112.648 5.33422 112.867 5.69653 113.073 6.07092C113.279 6.42116 113.461 6.78347 113.619 7.14579C115.329 11.0346 115.147 15.4307 114.225 19.4765C114.128 19.8147 114.031 20.1528 113.958 20.4789C113.813 21.119 113.789 21.6866 114.164 21.9765C115.098 22.6166 116.263 20.5272 117.403 19.8268C117.597 19.6577 117.779 19.5007 117.973 19.3316C118.603 18.776 119.295 18.2688 119.962 17.7616C120.132 17.6287 120.301 17.5079 120.459 17.363C121.429 16.5901 122.424 15.6601 122.715 14.3921C122.072 14.5128 121.381 14.6215 120.726 14.7785C120.532 14.8268 120.326 14.8631 120.132 14.9114Z" fill="#00A1A5"/>
<path d="M159.222 54.8749C158.046 50.5513 155.268 46.8315 151.557 44.3195C149.786 43.1118 147.834 42.206 145.796 41.6263C145.117 41.4331 144.425 41.276 143.734 41.1553C142.315 40.9862 140.981 40.6963 139.586 40.9862C142.788 37.6891 143.479 32.7617 142.315 28.3656C141.151 23.8729 138.131 20.2739 134.383 17.8344C133.631 17.3513 132.855 16.9044 132.054 16.5059C127.676 14.3562 122.036 13.4262 117.67 16.1436C124.704 15.8537 131.63 20.5396 133.546 27.327C133.764 28.0999 133.898 28.8849 133.958 29.6941C134.31 35.5394 130.065 39.9476 126.172 43.933C125.42 44.6818 125.359 45.962 126.05 46.8315C126.608 47.532 127.312 47.9426 128.1 48.1842C128.889 48.4257 129.738 48.4861 130.587 48.4499C130.756 48.4499 130.999 48.6793 131.169 48.6793C133.898 48.6793 136.869 48.9692 139.489 49.8387C141.83 50.6117 144.231 52.073 146.075 53.6792C147.579 54.9836 148.804 56.7106 149.143 58.6671C149.459 60.4907 148.986 62.3868 148.1 64.0173C146.9 66.2515 145.032 68.6186 142.509 69.3795C141.66 69.6331 134.528 69.7539 134.528 68.7636C134.528 68.7032 134.589 68.6428 134.589 68.5945C133.546 68.365 132.551 67.894 131.569 67.4351C130.696 67.0848 129.653 66.7346 128.731 67.1573C128.658 67.1452 128.537 67.1452 128.476 67.1935C128.476 67.2539 128.537 67.3626 128.537 67.423C127.833 67.5921 127.372 68.1718 127.142 68.7515C125.747 71.9881 124.874 76.5654 120.75 77.3262C117.5 77.9059 114.88 76.1064 112.139 74.7176C111.472 74.4036 110.732 74.307 110.028 74.4398C109.179 74.5485 108.476 75.0678 107.894 75.7079C105.747 78.1475 104.413 81.1547 101.502 82.773C99.9859 83.5822 98.5547 83.7029 97.1721 83.3889C96.7112 83.2923 96.2624 83.1353 95.8136 82.9542C93.4243 82.0122 91.508 80.3334 89.2399 79.1136C89.0095 78.9929 88.7184 78.8238 88.4879 78.9929C86.2805 80.3817 84.6553 82.2899 82.0719 82.9059C81.3199 83.1353 80.5558 83.3044 79.7674 83.401C75.8741 83.8841 71.8595 82.6522 69.4702 78.9929C68.0147 76.7344 66.3288 73.5461 63.2967 75.3094C62.7145 75.4905 62.1202 75.6837 61.5138 75.8649C57.9237 76.976 54.188 77.8576 50.7435 75.6958C47.9539 73.9567 47.4324 70.8287 45.6252 68.2322C45.1643 67.4834 44.1698 67.5317 43.3571 67.5921C42.8235 67.6525 42.2898 67.7249 41.7683 67.8095C39.1364 68.2442 36.553 68.9085 33.9089 68.5703C33.1691 68.4737 32.4292 68.3167 31.7136 68.0631C30.998 67.8095 30.2824 67.4592 29.579 67.0124C23.9391 63.3047 23.7693 55.3217 27.505 50.358C27.9295 49.7421 28.3904 49.1745 28.8876 48.631C31.3983 45.9499 34.9156 44.2229 38.5906 43.9692C30.1612 42.4596 21.4406 48.7759 19.306 56.8555C19.1119 57.6043 18.9785 58.3652 18.8936 59.1502C18.8208 60.0197 18.8087 60.9134 18.8572 61.7951C19.1119 67.0728 21.6104 72.3988 25.9646 75.5509C26.6802 76.0702 27.4565 76.5412 28.2691 76.9277C29.0574 77.3021 29.8822 77.6161 30.7191 77.8455C33.5329 78.6306 36.5651 78.6064 39.3304 77.7127C39.8883 77.5315 40.422 77.3262 40.9557 77.0726C41.0648 78.0025 41.2953 78.8963 41.647 79.7296C44.097 85.5749 52.0049 88.9082 58.0086 87.9782C59.9613 87.6763 61.7927 86.9155 63.3937 85.7802C64.6308 89.814 68.6939 92.012 72.6843 92.8453C76.5533 93.6424 81.138 93.6786 84.7887 92.0603C86.3897 91.3478 87.7117 90.2246 88.5364 88.7512C89.1793 90.0917 90.3679 91.1666 91.7627 91.7101C94.1641 92.64 96.9537 92.9782 99.5129 92.8574C103.515 92.6521 107.773 91.0458 110.417 87.942C111.338 86.8551 112.005 85.6111 112.381 84.2706C113.073 85.4541 114.092 86.4203 115.28 87.0966C115.874 87.4348 116.517 87.7005 117.184 87.8937C121.078 88.9323 124.91 87.0845 128.282 84.9348C131.193 83.087 133.109 80.1281 133.17 76.7707C133.813 77.1209 134.443 77.4712 135.159 77.7489C135.875 78.0509 136.614 78.3045 137.366 78.5098C140.386 79.3069 143.637 79.2223 146.693 78.2924C151.618 76.7828 155.729 73.3046 157.949 68.6669C159.999 64.3916 160.459 59.428 159.222 54.8749Z" fill="#00A1A5"/>
<path d="M103.022 14.5849C101.906 13.3893 100.281 12.9062 98.6317 13.1115C96.5821 13.3651 95.066 14.754 94.2171 16.481C93.4409 18.0269 92.8587 19.766 93.2104 21.5776C93.2347 21.7104 93.2711 21.8674 93.3074 22.0124C93.3317 22.0848 93.3438 22.1694 93.3681 22.2418C93.4166 22.3505 93.453 22.4713 93.5136 22.6162C93.647 23.0631 93.8775 23.4737 94.3383 23.6428C94.8599 23.7635 95.2116 23.2321 95.3814 22.7853C95.4299 22.6766 95.4663 22.5558 95.5027 22.4351C95.6482 21.952 95.721 21.4206 95.8908 20.9254C95.9271 20.7926 95.9514 20.6476 95.9878 20.5148C96.3031 19.0655 96.6306 17.6163 97.7585 16.5414C99.2503 15.2009 101.336 15.4907 103.095 14.7902C103.071 14.7299 103.046 14.6574 103.022 14.5849Z" fill="#00A1A5"/>
<path d="M121.79 56.0213C121.693 57.5671 122.421 59.0043 123.633 60.0067C125.149 61.2506 127.102 61.3835 128.861 60.84C130.437 60.3569 132.026 59.6323 133.057 58.2072C133.554 57.5188 134.221 56.3353 133.421 55.7797C133.13 55.5382 132.62 55.9246 132.184 56.0816C130.377 56.8908 128.751 58.485 126.605 58.3642C124.689 58.2193 123.536 56.5889 121.899 55.828C121.863 55.8884 121.826 55.9488 121.79 56.0213Z" fill="#00A1A5"/>
<path d="M63.7821 32.1346C63.685 33.6804 64.4127 35.1176 65.6256 36.12C67.1416 37.364 69.0942 37.4968 70.8528 36.9533C72.4295 36.4703 74.0183 35.7456 75.0492 34.3205C75.5465 33.6321 76.2135 32.4486 75.4131 31.893C75.122 31.6515 74.6126 32.038 74.176 32.195C72.3689 33.0041 70.7437 34.5983 68.597 34.4775C66.6807 34.3326 65.5285 32.7022 63.8912 31.9413C63.8548 32.0017 63.8185 32.0742 63.7821 32.1346Z" fill="#00A1A5"/>
<path d="M110.513 29.416C110.416 30.9619 111.143 32.3991 112.356 33.4015C113.872 34.6454 115.825 34.7783 117.583 34.2348C119.16 33.7517 120.749 33.0271 121.78 31.602C122.277 30.9136 122.944 29.73 122.144 29.1745C121.852 28.9329 121.343 29.3194 120.906 29.4764C119.099 30.2856 117.474 31.8798 115.327 31.759C113.411 31.6141 112.259 29.9837 110.622 29.2228C110.585 29.2832 110.549 29.3436 110.513 29.416Z" fill="#00A1A5"/>
<path d="M129.706 20.2881C129.184 18.7422 128.129 17.3534 126.892 16.2061C126.662 16.0128 126.419 15.8437 126.177 15.6867C125.91 15.5056 125.643 15.3486 125.364 15.2037C125.012 15.0104 124.648 14.8534 124.285 14.7447C122.453 14.165 120.5 14.5153 118.839 15.409C117.032 16.351 115.285 17.607 114.376 19.5756C113.927 20.5176 113.405 22.1238 114.509 22.6069C114.922 22.8364 115.443 22.2446 115.94 21.9427C117.274 21.0007 118.427 19.6722 119.821 18.7664C120.173 18.5369 120.537 18.3437 120.925 18.1867C121.616 17.9331 122.332 17.8123 123.047 17.8002C123.399 17.7882 123.763 17.8123 124.127 17.8485C124.479 17.8606 124.83 17.9089 125.158 17.9935C125.497 18.078 125.813 18.1867 126.14 18.3195C127.438 18.8509 128.602 19.7205 129.718 20.5417C129.718 20.4813 129.706 20.3847 129.706 20.2881Z" fill="#00A1A5"/>
<path d="M95.0679 23.4253C95.2619 22.9423 94.9709 22.4713 95.0072 22.0365C94.9709 21.9157 94.9345 21.807 94.886 21.6862C94.4979 20.6476 93.8187 19.7177 92.9091 18.9689C91.017 17.3989 88.555 17.2177 86.3355 17.894C84.3465 18.4858 82.3454 19.4037 81.0476 21.1911C80.417 22.0486 79.568 23.5461 80.5867 24.2466C80.9506 24.5485 81.5934 24.0654 82.1513 23.8722C84.4314 22.8577 86.4811 20.865 89.1857 21.022C90.7017 21.1428 91.8296 22.0123 92.9818 22.8698C93.091 22.9423 93.188 23.0268 93.2972 23.0993C93.758 23.4737 94.3402 23.6427 94.9345 23.5823C94.9709 23.534 95.0072 23.4857 95.0679 23.4253Z" fill="#00A1A5"/>
<path d="M38.5937 52.7145C38.242 53.3183 38.2299 53.9101 38.4361 54.4656C38.8363 55.5888 40.0612 56.5791 40.9466 57.2192C41.0921 57.3158 41.2256 57.4004 41.3711 57.4849C41.5166 57.5695 41.65 57.6419 41.7956 57.7265C45.0823 59.0308 48.9149 57.7506 51.4254 55.3835C52.2986 54.5743 53.1112 53.584 53.1112 52.3763C53.0506 51.9174 52.6989 51.3377 52.1774 51.5067C50.722 52.0261 49.497 52.8956 48.1629 53.8256C45.4341 55.6733 42.402 54.8642 40.1947 52.7265C39.8429 52.3763 39.2608 52.3763 38.7635 52.5816C38.7271 52.6178 38.6665 52.6661 38.5937 52.7145Z" fill="#00A1A5"/>
<path d="M50.7677 20.0436C47.966 20.2972 45.5161 22.4469 44.5338 24.9831C43.891 26.7222 44.0122 29.4999 45.9285 30.0192C49.0212 30.9371 52.4535 28.7874 54.1393 25.8889C54.3212 25.5628 54.491 25.2367 54.6366 24.8986C55.2915 23.4131 55.4128 21.2633 53.6785 20.5387C53.448 20.4179 53.2176 20.3213 52.975 20.2489C52.7324 20.1764 52.4899 20.116 52.2594 20.0798C51.7501 20.0194 51.2407 20.0073 50.7677 20.0436Z" fill="white"/>
<path d="M41.6266 31.7832C39.8316 32.5682 39.1646 34.8991 39.6982 36.6865C40.1106 37.9425 41.3113 38.8604 42.6696 38.7517C44.4404 38.5585 45.7502 36.9281 45.726 35.189C45.6774 33.7276 44.877 32.2059 43.4216 31.7591C42.7545 31.5296 42.1481 31.5658 41.6266 31.7832Z" fill="white"/>
<path d="M93.9386 62.2241C93.2595 64.555 91.416 66.4149 88.8933 66.5719C86.0795 66.753 84.0905 64.7603 83.1809 62.2845C82.6715 60.8836 84.891 60.1952 85.4003 61.5961C85.9461 63.0937 87.074 64.4222 88.8084 64.2531C90.2638 64.1202 91.2704 63.0212 91.6585 61.6686C92.083 60.2556 94.351 60.7869 93.9386 62.2241Z" fill="#262524"/>
<path d="M111.909 65.1456C112.309 68.032 109.459 69.5417 106.985 69.8194C103.82 70.1697 99.2109 68.3702 99.2109 64.6263C99.2109 62.3558 101.224 61.0394 103.225 60.5925C106.33 59.9041 110.417 60.7737 111.642 64.0828C111.776 64.4572 111.861 64.8074 111.909 65.1456Z" fill="#00A1A5"/>
<path d="M65.2332 65.1456C64.8329 68.032 67.6831 69.5417 70.1572 69.8194C73.3227 70.1697 77.9314 68.3702 77.9314 64.6263C77.9314 62.3558 75.9181 61.0394 73.917 60.5925C70.8122 59.9041 66.7249 60.7737 65.5 64.0828C65.3666 64.4572 65.2817 64.8074 65.2332 65.1456Z" fill="#00A1A5"/>
<path d="M68.2177 56.1691C70.6555 58.9227 75.1186 58.9227 77.5564 56.1691C78.0294 55.6377 78.0779 54.8406 77.5564 54.3093C77.0834 53.8382 76.1617 53.7779 75.6887 54.3093C74.9003 55.203 73.9422 55.6377 72.8871 55.6377C71.8319 55.6377 70.8738 55.203 70.0854 54.3093C69.6124 53.7779 68.7028 53.8262 68.2177 54.3093C67.684 54.8406 67.7447 55.6257 68.2177 56.1691Z" fill="#262524"/>
<path d="M99.6005 56.1691C102.038 58.9227 106.501 58.9227 108.939 56.1691C109.412 55.6377 109.461 54.8406 108.939 54.3093C108.466 53.8382 107.544 53.7779 107.071 54.3093C106.283 55.203 105.325 55.6377 104.27 55.6377C103.215 55.6377 102.257 55.203 101.468 54.3093C100.995 53.7779 100.086 53.8262 99.6005 54.3093C99.0668 54.8406 99.1275 55.6257 99.6005 56.1691Z" fill="#262524"/>
</svg>
