<svg width="146" height="90" viewBox="0 0 146 90" fill="none" xmlns="http://www.w3.org/2000/svg">
<g clip-path="url(#clip0_3_4)">
<path d="M72 75C88.5685 75 102 61.5685 102 45C102 28.4315 88.5685 15 72 15C55.4315 15 42 28.4315 42 45C42 61.5685 55.4315 75 72 75Z" fill="#D44D4D" fill-opacity="0.7"/>
<path d="M72 89.5C96.5767 89.5 116.5 69.5767 116.5 45C116.5 20.4233 96.5767 0.5 72 0.5C47.4233 0.5 27.5 20.4233 27.5 45C27.5 69.5767 47.4233 89.5 72 89.5Z" stroke="#D44D4D" stroke-opacity="0.1"/>
<path d="M5 35C7.76142 35 10 32.7614 10 30C10 27.2386 7.76142 25 5 25C2.23858 25 0 27.2386 0 30C0 32.7614 2.23858 35 5 35Z" fill="#ECF7F8"/>
<path d="M141 75C143.761 75 146 72.7614 146 70C146 67.2386 143.761 65 141 65C138.239 65 136 67.2386 136 70C136 72.7614 138.239 75 141 75Z" fill="#ECF7F8"/>
<path d="M15.5 20C16.8807 20 18 18.8807 18 17.5C18 16.1193 16.8807 15 15.5 15C14.1193 15 13 16.1193 13 17.5C13 18.8807 14.1193 20 15.5 20Z" fill="#D44D4D" fill-opacity="0.7"/>
<path d="M131 62C132.657 62 134 60.6569 134 59C134 57.3431 132.657 56 131 56C129.343 56 128 57.3431 128 59C128 60.6569 129.343 62 131 62Z" fill="#ECF7F8"/>
<path d="M3 68C4.65685 68 6 66.6569 6 65C6 63.3431 4.65685 62 3 62C1.34315 62 0 63.3431 0 65C0 66.6569 1.34315 68 3 68Z" fill="#ECF7F8"/>
<path d="M126 12C128.761 12 131 9.76142 131 7C131 4.23858 128.761 2 126 2C123.239 2 121 4.23858 121 7C121 9.76142 123.239 12 126 12Z" fill="#D44D4D" fill-opacity="0.7"/>
<path d="M15 75C16.1046 75 17 74.1046 17 73C17 71.8954 16.1046 71 15 71C13.8954 71 13 71.8954 13 73C13 74.1046 13.8954 75 15 75Z" fill="#D44D4D" fill-opacity="0.7"/>
<path d="M81.1549 50.0772L76.0771 44.9944L81.1549 39.9228C81.4226 39.6549 81.6349 39.3369 81.7797 38.987C81.9245 38.637 81.999 38.262 81.9989 37.8832C81.9988 37.5045 81.9241 37.1295 81.7791 36.7796C81.6341 36.4298 81.4216 36.1119 81.1537 35.8442C80.8859 35.5764 80.5679 35.3641 80.218 35.2192C79.8681 35.0744 79.4931 34.9999 79.1144 35C78.7357 35.0001 78.3608 35.0748 78.0109 35.2198C77.6611 35.3649 77.3433 35.5774 77.0756 35.8453L72 40.9214L66.9244 35.8453C66.3834 35.3045 65.6497 35.0008 64.8848 35.0008C64.1199 35.0008 63.3862 35.3045 62.8451 35.8453C62.5772 36.1129 62.3647 36.4307 62.2197 36.7805C62.0746 37.1303 62 37.5053 62 37.884C62 38.2627 62.0746 38.6377 62.2197 38.9875C62.3647 39.3374 62.5772 39.6552 62.8451 39.9228L67.9229 44.9944L62.8451 50.0772C62.3045 50.6182 62.0009 51.3519 62.0011 52.1168C62.0013 52.8817 62.3053 53.6151 62.8463 54.1559C63.3872 54.6966 64.1208 55.0002 64.8856 55C65.6504 54.9998 66.3838 54.6957 66.9244 54.1547L72 49.0786L77.0756 54.1547C77.6166 54.6955 78.3503 54.9992 79.1152 54.9992C79.8801 54.9992 80.6138 54.6955 81.1549 54.1547C81.4228 53.8871 81.6353 53.5693 81.7803 53.2195C81.9254 52.8697 82 52.4947 82 52.116C82 51.7373 81.9254 51.3623 81.7803 51.0125C81.6353 50.6627 81.4228 50.3448 81.1549 50.0772Z" fill="white"/>
</g>
<defs>
<clipPath id="clip0_3_4">
<rect width="146" height="90" fill="white"/>
</clipPath>
</defs>
</svg>
