<svg width="243" height="244" viewBox="0 0 243 244" fill="none" xmlns="http://www.w3.org/2000/svg">
<path d="M188.744 83.0288C202.667 107.144 202.667 136.856 188.744 160.971C174.821 185.086 149.09 199.942 121.244 199.942C93.3975 199.942 67.6667 185.086 53.7436 160.971C39.8206 136.856 39.8206 107.144 53.7436 83.0288C67.6667 58.9133 93.3976 44.0576 121.244 44.0576C149.09 44.0576 174.821 58.9133 188.744 83.0288Z" fill="white"/>
<path fill-rule="evenodd" clip-rule="evenodd" d="M206.628 72.7035C189.016 42.1987 156.467 23.407 121.244 23.407C86.0198 23.407 53.4716 42.1987 35.8597 72.7034C18.2477 103.208 18.2477 140.792 35.8597 171.296C53.4716 201.801 86.0198 220.593 121.244 220.593C156.467 220.593 189.016 201.801 206.628 171.296C224.24 140.792 224.24 103.208 206.628 72.7035ZM207.494 171.796C225.284 140.982 225.284 103.018 207.494 72.2035C189.703 41.3893 156.825 22.407 121.244 22.407C85.6625 22.407 52.7842 41.3893 34.9936 72.2034C17.2031 103.018 17.2031 140.982 34.9936 171.796C52.7842 202.611 85.6625 221.593 121.244 221.593C156.825 221.593 189.703 202.611 207.494 171.796Z" fill="white" fill-opacity="0.5"/>
<path fill-rule="evenodd" clip-rule="evenodd" d="M225.378 61.8781C203.898 24.6746 164.203 1.75634 121.244 1.75634C78.2848 1.75634 38.5891 24.6746 17.1096 61.8781C-4.36979 99.0816 -4.36979 144.918 17.1096 182.122C38.5891 219.325 78.2847 242.243 121.244 242.243C164.203 242.243 203.898 219.325 225.378 182.122C246.857 144.918 246.857 99.0816 225.378 61.8781ZM226.244 182.622C247.902 145.109 247.902 98.891 226.244 61.3781C204.586 23.8652 164.56 0.756344 121.244 0.756342C77.9275 0.75634 37.9017 23.8652 16.2436 61.3781C-5.41446 98.891 -5.41447 145.109 16.2436 182.622C37.9017 220.135 77.9275 243.243 121.244 243.243C164.56 243.243 204.586 220.135 226.244 182.622Z" fill="white" fill-opacity="0.2"/>
<path d="M179.744 88.2249C191.81 109.125 191.81 134.875 179.744 155.775C167.677 176.675 145.377 189.55 121.244 189.55C97.1103 189.55 74.8102 176.675 62.7436 155.775C50.677 134.875 50.677 109.125 62.7436 88.2249C74.8102 67.3249 97.1103 54.4499 121.244 54.4499C145.377 54.4499 167.677 67.3249 179.744 88.2249Z" fill="#00D2D7"/>
<path d="M125.013 126.894C125.013 131.223 121.488 134.748 117.159 134.748C112.829 134.748 109.305 131.223 109.305 126.894C109.305 122.565 112.829 119.04 117.159 119.04C121.488 119.079 125.013 122.565 125.013 126.894ZM122.484 126.894C122.484 123.944 120.109 121.569 117.159 121.569C114.209 121.569 111.833 123.944 111.833 126.894C111.833 129.844 114.209 132.22 117.159 132.22C120.109 132.22 122.484 129.844 122.484 126.894Z" fill="white"/>
<path d="M151.487 114.519V133.33C151.487 134.978 148.996 134.978 148.996 133.33V132.488C144.016 137.123 135.817 133.599 135.817 126.741C135.817 119.921 143.978 116.358 148.996 120.994V114.519C148.996 113.83 149.571 113.255 150.261 113.255C150.95 113.255 151.487 113.83 151.487 114.519ZM148.996 126.741C148.996 123.791 146.621 121.415 143.671 121.415C140.721 121.415 138.346 123.791 138.346 126.741C138.346 129.691 140.721 132.066 143.671 132.066C146.621 132.066 148.996 129.691 148.996 126.741Z" fill="white"/>
<path d="M106.546 114.673C106.546 113.983 105.971 113.409 105.282 113.409C104.592 113.409 104.018 113.983 104.018 114.673V122.872H93.3668V114.673C93.3668 113.025 90.8765 113.025 90.8765 114.673C90.8765 120.65 90.8765 137.507 90.8765 142.947C90.8765 144.595 93.3668 144.595 93.3668 142.947V125.285H104.018V142.947C104.018 144.595 106.508 144.595 106.508 142.947V127.852C106.546 127.852 106.546 114.673 106.546 114.673Z" fill="white"/>
<path d="M106.546 142.985V155.206C106.546 162.409 97.4661 164.823 97.4661 161.796C97.4661 161.106 98.0408 160.532 98.7304 160.532C101.642 160.532 104.018 158.195 104.056 155.283C99.0369 159.919 90.8765 156.356 90.8765 149.536V142.946C90.8765 141.299 93.3668 141.299 93.3668 142.946V149.536C93.3668 152.486 95.7421 154.862 98.6921 154.862C101.642 154.862 104.018 152.486 104.018 149.536V142.946C104.056 141.337 106.546 141.337 106.546 142.985Z" fill="#262524"/>
<path d="M125.013 149.574C125.013 153.904 121.488 157.428 117.159 157.428C112.829 157.428 109.305 153.904 109.305 149.574C109.305 145.245 112.829 141.72 117.159 141.72C121.488 141.759 125.013 145.245 125.013 149.574ZM122.484 149.574C122.484 146.624 120.109 144.249 117.159 144.249C114.209 144.249 111.833 146.624 111.833 149.574C111.833 152.524 114.209 154.9 117.159 154.9C120.109 154.9 122.484 152.524 122.484 149.574Z" fill="#262524"/>
<path d="M140.605 143.905C140.605 140.188 138.46 139.116 134.973 137.545C131.64 136.012 127.464 134.135 127.464 128.005V114.749C127.464 113.064 130.031 113.064 130.031 114.749V128.005C130.031 132.488 132.828 133.752 136.046 135.208C139.379 136.702 143.325 138.694 143.095 143.905C143.057 145.667 140.605 145.552 140.605 143.905Z" fill="white"/>
<path d="M143.134 142.985V149.575C143.134 153.904 139.61 157.429 135.28 157.429C130.951 157.429 127.426 153.904 127.426 149.575V142.985C127.426 141.338 129.917 141.338 129.917 142.985V149.575C129.917 152.525 132.292 154.9 135.242 154.9C138.192 154.9 140.567 152.525 140.567 149.575V142.985C140.606 141.338 143.134 141.338 143.134 142.985Z" fill="#262524"/>
<g clip-path="url(#clip0_53_862)">
<path d="M133.458 78.8554C133.459 77.9923 133.114 77.1806 132.487 76.57C131.859 75.9594 131.025 75.623 130.137 75.623C129.715 75.623 129.31 75.7013 128.938 75.8424L128.941 74.0839C128.944 73.22 128.599 72.4074 127.971 71.7957C127.344 71.1842 126.509 70.8473 125.62 70.8473H125.571C124.905 70.8473 124.285 71.0399 123.764 71.37C123.656 71.2213 123.535 71.0799 123.4 70.9483C122.772 70.3368 121.937 70 121.049 70H120.988C119.47 70 118.188 70.9955 117.793 72.3499C117.386 72.1766 116.937 72.0798 116.465 72.0798H116.427C114.596 72.0798 113.106 73.5282 113.106 75.3087V81.8255C112.727 81.6802 112.315 81.5994 111.884 81.5994C110.041 81.5994 108.542 83.0568 108.542 84.8481V92.8954C108.542 99.5699 114.127 105 120.993 105C124.321 105 127.45 103.739 129.802 101.449C132.154 99.159 133.447 96.1157 133.443 92.8793L133.438 89.4409L133.458 78.8554ZM131.324 92.882C131.327 95.5674 130.254 98.0927 128.303 99.9929C126.351 101.893 123.755 102.939 120.992 102.939C115.296 102.939 110.661 98.4336 110.661 92.8953V84.8481C110.661 84.1929 111.21 83.6599 111.884 83.6599C112.557 83.6599 113.106 84.1929 113.106 84.8481V90.2612C113.106 90.8302 113.58 91.2915 114.165 91.2915C116.047 91.2915 117.578 92.7799 117.578 94.6095V96.2955C117.578 96.8645 118.053 97.3258 118.638 97.3258C119.223 97.3258 119.698 96.8645 119.698 96.2955V94.6095C119.698 91.996 117.77 89.8119 115.225 89.33V75.3087C115.225 74.6644 115.764 74.1403 116.427 74.1403H116.465C117.128 74.1403 117.667 74.6643 117.667 75.3085V84.8121C117.667 85.3811 118.142 85.8424 118.727 85.8424C119.312 85.8424 119.787 85.3811 119.787 84.8121C119.787 83.2861 119.787 74.5118 119.787 73.2288C119.787 72.5846 120.326 72.0605 120.988 72.0605H121.049C121.37 72.0605 121.672 72.1823 121.899 72.4036C122.126 72.6248 122.251 72.9189 122.25 73.2317C122.243 76.6781 122.233 81.396 122.227 84.8197C122.226 85.3887 122.699 85.8508 123.284 85.8519H123.287C123.871 85.8519 124.345 85.392 124.346 84.8237C124.351 82.5067 124.363 76.2912 124.369 74.0734C124.371 73.4306 124.91 72.9077 125.571 72.9077H125.62C125.942 72.9077 126.244 73.0295 126.471 73.2509C126.698 73.4722 126.823 73.7663 126.822 74.0793C126.815 77.4295 126.804 82.7273 126.799 86.0485C126.798 86.6175 127.271 87.0797 127.857 87.0807H127.859C128.443 87.0806 128.917 86.6207 128.918 86.0523C128.92 85.5413 128.93 79.0664 128.935 78.8457C128.939 78.2047 129.478 77.6833 130.137 77.6833C130.458 77.6833 130.76 77.8049 130.987 78.0259C131.214 78.2469 131.339 78.5406 131.339 78.8521L131.319 89.4402L131.324 92.882Z" fill="#262524"/>
</g>
<defs>
<clipPath id="clip0_53_862">
<rect width="36" height="35" fill="white" transform="translate(103 70)"/>
</clipPath>
</defs>
</svg>
