<svg width="146" height="90" viewBox="0 0 146 90" fill="none" xmlns="http://www.w3.org/2000/svg">
<circle cx="72" cy="45" r="30" fill="#00BDC2"/>
<circle cx="72" cy="45" r="44.5" stroke="#D4F1F3"/>
<path fill-rule="evenodd" clip-rule="evenodd" d="M81.6746 37.3347C82.1085 37.781 82.1085 38.5047 81.6746 38.951L68.3412 52.6653C67.9073 53.1116 67.2038 53.1116 66.7699 52.6653L62.3254 48.0938C61.8915 47.6475 61.8915 46.9239 62.3254 46.4776C62.7594 46.0313 63.4629 46.0313 63.8968 46.4776L67.5556 50.2409L80.1032 37.3347C80.5371 36.8884 81.2406 36.8884 81.6746 37.3347Z" fill="white"/>
<circle cx="5" cy="30" r="5" fill="#ECF7F8"/>
<circle cx="141" cy="70" r="5" fill="#ECF7F8"/>
<circle cx="15.5" cy="17.5" r="2.5" fill="#00BDC2"/>
<circle cx="131" cy="59" r="3" fill="#ECF7F8"/>
<circle cx="3" cy="65" r="3" fill="#ECF7F8"/>
<circle cx="126" cy="7" r="5" fill="#00BDC2"/>
<circle cx="15" cy="73" r="2" fill="#00BDC2"/>
</svg>
