<svg width="19" height="19" viewBox="0 0 19 19" fill="currentColor" xmlns="http://www.w3.org/2000/svg">
<path fill-rule="evenodd" clip-rule="evenodd" d="M9.49958 0.989586C6.11109 0.989586 3.36417 3.73651 3.36417 7.125V7.68242C3.36417 8.23415 3.20085 8.77353 2.89481 9.2326L1.9855 10.5966C0.930131 12.1796 1.73582 14.3314 3.57137 14.832C4.16956 14.9951 4.77281 15.1331 5.37954 15.246L5.38105 15.25C5.98983 16.8744 7.61696 18.0104 9.49953 18.0104C11.3821 18.0104 13.0092 16.8744 13.618 15.25L13.6195 15.246C14.2263 15.1331 14.8296 14.9951 15.4278 14.832C17.2634 14.3314 18.069 12.1796 17.0137 10.5966L16.1044 9.2326C15.7983 8.77353 15.635 8.23415 15.635 7.68242V7.125C15.635 3.73651 12.8881 0.989586 9.49958 0.989586ZM12.1726 15.4668C10.3969 15.6789 8.60215 15.6789 6.82648 15.4668C7.38932 16.2755 8.36827 16.8229 9.49953 16.8229C10.6308 16.8229 11.6097 16.2755 12.1726 15.4668ZM4.55167 7.125C4.55167 4.39234 6.76693 2.17709 9.49958 2.17709C12.2322 2.17709 14.4475 4.39234 14.4475 7.125V7.68242C14.4475 8.46859 14.6802 9.23717 15.1163 9.8913L16.0256 11.2553C16.6314 12.1639 16.1689 13.399 15.1153 13.6863C11.4386 14.6891 7.56052 14.6891 3.88382 13.6863C2.83025 13.399 2.3678 12.1639 2.97356 11.2553L3.88287 9.8913C4.31896 9.23717 4.55167 8.46859 4.55167 7.68242V7.125Z" />
</svg>
