<svg width="26" height="28" viewBox="0 0 26 28" fill="none" xmlns="http://www.w3.org/2000/svg">
<path d="M22.1859 3.55953H19.6026V1.88516C19.6026 1.7168 19.5694 1.5501 19.5049 1.39459C19.4404 1.23909 19.3458 1.09784 19.2266 0.978922C19.1074 0.860009 18.966 0.765772 18.8103 0.701606C18.6547 0.63744 18.4879 0.604606 18.3195 0.604984C17.98 0.604984 17.6544 0.739859 17.4143 0.979939C17.1742 1.22002 17.0394 1.54564 17.0394 1.88516V3.55953H8.96219V1.88516C8.96219 1.54564 8.82732 1.22002 8.58724 0.979939C8.34716 0.739859 8.02154 0.604984 7.68202 0.604984C7.51366 0.604606 7.34688 0.63744 7.19123 0.701606C7.03558 0.765772 6.89412 0.860009 6.77494 0.978922C6.65576 1.09784 6.56121 1.23909 6.49669 1.39459C6.43218 1.5501 6.39897 1.7168 6.39897 1.88516V3.55953H3.81565C3.31449 3.55953 2.81824 3.65826 2.35524 3.85007C1.89225 4.04189 1.47157 4.32303 1.11724 4.67745C0.762912 5.03187 0.481873 5.45261 0.290175 5.91566C0.0984766 6.37871 -0.000125547 6.87498 1.19969e-07 7.37614V23.5793C1.19969e-07 24.5913 0.402005 25.5618 1.11758 26.2774C1.83315 26.9929 2.80368 27.3949 3.81565 27.3949H22.1859C23.1979 27.3949 24.1684 26.9929 24.884 26.2774C25.5996 25.5618 26.0016 24.5913 26.0016 23.5793V7.37614C26.0017 6.87498 25.9031 6.37871 25.7114 5.91566C25.5197 5.45261 25.2386 5.03187 24.8843 4.67745C24.53 4.32303 24.1093 4.04189 23.6463 3.85007C23.1833 3.65826 22.6871 3.55953 22.1859 3.55953ZM3.81565 5.79458H6.39897V6.21939C6.39897 6.55892 6.53385 6.88453 6.77393 7.12461C7.01401 7.36469 7.33962 7.49957 7.67915 7.49957C8.01867 7.49957 8.34429 7.36469 8.58437 7.12461C8.82445 6.88453 8.95932 6.55892 8.95932 6.21939V5.79458H17.0365V6.21939C17.0365 6.55892 17.1714 6.88453 17.4114 7.12461C17.6515 7.36469 17.9771 7.49957 18.3167 7.49957C18.4853 7.50032 18.6524 7.46777 18.8083 7.40377C18.9643 7.33978 19.1061 7.2456 19.2256 7.12665C19.3451 7.0077 19.4399 6.86632 19.5046 6.71062C19.5693 6.55493 19.6026 6.38799 19.6026 6.21939V5.79458H22.1859C22.6052 5.79509 23.0072 5.96188 23.3037 6.25837C23.6002 6.55486 23.767 6.95684 23.7675 7.37614V8.6812H2.23409V7.37614C2.2346 6.95684 2.40139 6.55486 2.69788 6.25837C2.99437 5.96188 3.39635 5.79509 3.81565 5.79458ZM22.1859 25.1608H3.81565C3.39635 25.1603 2.99437 24.9935 2.69788 24.6971C2.40139 24.4006 2.2346 23.9986 2.23409 23.5793V11.0033H23.7675V23.5793C23.767 23.9986 23.6002 24.4006 23.3037 24.6971C23.0072 24.9935 22.6052 25.1603 22.1859 25.1608Z" fill="#FB5A5A"/>
<path d="M16.906 20.377L14.7408 18.2099L16.906 16.0476C17.0202 15.9334 17.1107 15.7978 17.1725 15.6486C17.2342 15.4994 17.266 15.3395 17.2659 15.178C17.2659 15.0165 17.234 14.8567 17.1722 14.7075C17.1104 14.5583 17.0197 14.4228 16.9055 14.3086C16.7913 14.1945 16.6557 14.104 16.5065 14.0422C16.3573 13.9804 16.1974 13.9487 16.036 13.9487C15.8745 13.9488 15.7146 13.9806 15.5654 14.0425C15.4163 14.1043 15.2807 14.1949 15.1666 14.3091L13.0023 16.4734L10.8381 14.3091C10.6074 14.0786 10.2945 13.9491 9.96837 13.9491C9.6422 13.9491 9.32938 14.0786 9.09865 14.3091C8.98441 14.4232 8.89378 14.5587 8.83194 14.7079C8.77011 14.857 8.73828 15.0169 8.73828 15.1784C8.73828 15.3398 8.77011 15.4997 8.83194 15.6488C8.89378 15.798 8.98441 15.9335 9.09865 16.0476L11.2639 18.2099L9.09865 20.377C8.86812 20.6077 8.73865 20.9205 8.73874 21.2466C8.73883 21.5727 8.86847 21.8855 9.09913 22.116C9.3298 22.3465 9.64259 22.476 9.96871 22.4759C10.2948 22.4758 10.6076 22.3462 10.8381 22.1155L13.0023 19.9513L15.1666 22.1155C15.3973 22.3461 15.7101 22.4756 16.0363 22.4756C16.3625 22.4756 16.6753 22.3461 16.906 22.1155C17.0203 22.0014 17.1109 21.8659 17.1727 21.7168C17.2346 21.5676 17.2664 21.4077 17.2664 21.2463C17.2664 21.0848 17.2346 20.9249 17.1727 20.7758C17.1109 20.6266 17.0203 20.4911 16.906 20.377Z" fill="#FB5A5A"/>
</svg>
