<svg width="19" height="19" viewBox="0 0 19 19" fill="none" xmlns="http://www.w3.org/2000/svg">
<path d="M13.457 11.0833C13.8943 11.0833 14.2487 10.7289 14.2487 10.2917C14.2487 9.85444 13.8943 9.5 13.457 9.5C13.0198 9.5 12.6654 9.85444 12.6654 10.2917C12.6654 10.7289 13.0198 11.0833 13.457 11.0833Z" fill="currentColor"/>
<path d="M13.457 14.25C13.8943 14.25 14.2487 13.8956 14.2487 13.4583C14.2487 13.0211 13.8943 12.6667 13.457 12.6667C13.0198 12.6667 12.6654 13.0211 12.6654 13.4583C12.6654 13.8956 13.0198 14.25 13.457 14.25Z" fill="currentColor"/>
<path d="M10.2904 10.2917C10.2904 10.7289 9.93592 11.0833 9.4987 11.0833C9.06147 11.0833 8.70703 10.7289 8.70703 10.2917C8.70703 9.85444 9.06147 9.5 9.4987 9.5C9.93592 9.5 10.2904 9.85444 10.2904 10.2917Z" fill="currentColor"/>
<path d="M10.2904 13.4583C10.2904 13.8956 9.93592 14.25 9.4987 14.25C9.06147 14.25 8.70703 13.8956 8.70703 13.4583C8.70703 13.0211 9.06147 12.6667 9.4987 12.6667C9.93592 12.6667 10.2904 13.0211 10.2904 13.4583Z" fill="currentColor"/>
<path d="M5.54037 11.0833C5.97759 11.0833 6.33203 10.7289 6.33203 10.2917C6.33203 9.85444 5.97759 9.5 5.54037 9.5C5.10314 9.5 4.7487 9.85444 4.7487 10.2917C4.7487 10.7289 5.10314 11.0833 5.54037 11.0833Z" fill="currentColor"/>
<path d="M5.54037 14.25C5.97759 14.25 6.33203 13.8956 6.33203 13.4583C6.33203 13.0211 5.97759 12.6667 5.54037 12.6667C5.10314 12.6667 4.7487 13.0211 4.7487 13.4583C4.7487 13.8956 5.10314 14.25 5.54037 14.25Z" fill="currentColor"/>
<path fill-rule="evenodd" clip-rule="evenodd" d="M5.54037 1.38541C5.86828 1.38541 6.13412 1.65124 6.13412 1.97916V2.58298C6.6582 2.5729 7.23558 2.57291 7.8706 2.57291H11.1267C11.7617 2.57291 12.3392 2.5729 12.8633 2.58298V1.97916C12.8633 1.65124 13.1291 1.38541 13.457 1.38541C13.785 1.38541 14.0508 1.65124 14.0508 1.97916V2.63394C14.2566 2.64963 14.4514 2.66935 14.6358 2.69415C15.564 2.81893 16.3153 3.08186 16.9077 3.67431C17.5002 4.26677 17.7631 5.01802 17.8879 5.94619C18.0091 6.84806 18.0091 8.00042 18.0091 9.4553V11.128C18.0091 12.5829 18.0091 13.7353 17.8879 14.6371C17.7631 15.5653 17.5002 16.3166 16.9077 16.909C16.3153 17.5015 15.564 17.7644 14.6358 17.8892C13.734 18.0104 12.5816 18.0104 11.1267 18.0104H7.87071C6.41583 18.0104 5.26343 18.0104 4.36156 17.8892C3.43339 17.7644 2.68214 17.5015 2.08968 16.909C1.49723 16.3166 1.2343 15.5653 1.10951 14.6371C0.988259 13.7353 0.988269 12.5829 0.988282 11.128V9.45533C0.988269 8.00044 0.988259 6.84806 1.10951 5.94619C1.2343 5.01802 1.49723 4.26677 2.08968 3.67431C2.68214 3.08186 3.43339 2.81893 4.36156 2.69415C4.54596 2.66935 4.74083 2.64963 4.94662 2.63394V1.97916C4.94662 1.65124 5.21245 1.38541 5.54037 1.38541ZM4.51979 3.87106C3.7233 3.97814 3.26441 4.17896 2.92937 4.514C2.59433 4.84905 2.39351 5.30793 2.28642 6.10442C2.26829 6.23931 2.25313 6.38131 2.24045 6.53125H16.7569C16.7443 6.38131 16.7291 6.23931 16.711 6.10442C16.6039 5.30793 16.4031 4.84905 16.068 4.514C15.733 4.17896 15.2741 3.97814 14.4776 3.87106C13.664 3.76168 12.5916 3.76041 11.082 3.76041H7.91537C6.4058 3.76041 5.33335 3.76168 4.51979 3.87106ZM2.17578 9.5C2.17578 8.8239 2.17603 8.23549 2.18614 7.71875H16.8113C16.8214 8.23549 16.8216 8.8239 16.8216 9.5V11.0833C16.8216 12.5929 16.8204 13.6653 16.711 14.4789C16.6039 15.2754 16.4031 15.7343 16.068 16.0693C15.733 16.4044 15.2741 16.6052 14.4776 16.7123C13.664 16.8217 12.5916 16.8229 11.082 16.8229H7.91537C6.4058 16.8229 5.33335 16.8217 4.51979 16.7123C3.7233 16.6052 3.26441 16.4044 2.92937 16.0693C2.59433 15.7343 2.39351 15.2754 2.28642 14.4789C2.17704 13.6653 2.17578 12.5929 2.17578 11.0833V9.5Z" fill="currentColor"/>
</svg>
