<svg width="19" height="16" viewBox="0 0 19 16" fill="currentColor" xmlns="http://www.w3.org/2000/svg">
<path fill-rule="evenodd" clip-rule="evenodd" d="M6.01412 2.05194C6.22536 1.01495 7.14815 0.28125 8.20538 0.28125H10.792C11.8493 0.28125 12.772 1.01495 12.9833 2.05194C13.032 2.29133 13.2489 2.46693 13.4745 2.46693H13.4874L13.5004 2.46749C14.6114 2.51608 15.4648 2.65242 16.1773 3.11983C16.6262 3.41433 17.0124 3.79322 17.3132 4.23534C17.6876 4.78541 17.8527 5.41675 17.9318 6.18031C18.0091 6.92633 18.0091 7.86146 18.0091 9.04583V9.11326C18.0091 10.2976 18.0091 11.2328 17.9318 11.9788C17.8527 12.7423 17.6876 13.3737 17.3132 13.9238C17.0124 14.3659 16.6262 14.7448 16.1773 15.0393C15.6204 15.4046 14.9819 15.5657 14.2076 15.643C13.4494 15.7188 12.4983 15.7188 11.2906 15.7188H7.70681C6.49906 15.7188 5.54802 15.7188 4.78983 15.643C4.01545 15.5657 3.37699 15.4046 2.82008 15.0393C2.37118 14.7448 1.98503 14.3659 1.68415 13.9238C1.30979 13.3737 1.14468 12.7423 1.06557 11.9788C0.988269 11.2328 0.988274 10.2976 0.988281 9.11325V9.04584C0.988274 7.86146 0.988269 6.92634 1.06557 6.18031C1.14468 5.41675 1.30979 4.78541 1.68415 4.23534C1.98503 3.79322 2.37118 3.41433 2.82008 3.11983C3.53256 2.65242 4.38596 2.51608 5.49701 2.46749L5.50997 2.46693H5.52294C5.74848 2.46693 5.96535 2.29133 6.01412 2.05194ZM8.20538 1.46875C7.69783 1.46875 7.27336 1.81945 7.17772 2.28897C7.02282 3.04939 6.34866 3.64731 5.53746 3.65436C4.46981 3.7018 3.89794 3.83295 3.47145 4.11274C3.15198 4.32233 2.8784 4.59116 2.66587 4.90345C2.44725 5.22469 2.31587 5.63549 2.24674 6.3027C2.17653 6.98039 2.17578 7.85402 2.17578 9.07955C2.17578 10.3051 2.17653 11.1787 2.24674 11.8564C2.31587 12.5236 2.44725 12.9344 2.66587 13.2556C2.8784 13.5679 3.15198 13.8368 3.47145 14.0464C3.802 14.2632 4.22496 14.3932 4.90785 14.4614C5.60013 14.5306 6.4919 14.5312 7.73944 14.5312H11.258C12.5055 14.5312 13.3973 14.5306 14.0895 14.4614C14.7724 14.3932 15.1954 14.2632 15.5259 14.0464C15.8454 13.8368 16.119 13.5679 16.3315 13.2556C16.5501 12.9344 16.6815 12.5236 16.7507 11.8564C16.8209 11.1787 16.8216 10.3051 16.8216 9.07955C16.8216 7.85402 16.8209 6.98039 16.7507 6.3027C16.6815 5.63549 16.5501 5.22469 16.3315 4.90345C16.119 4.59116 15.8454 4.32233 15.5259 4.11274C15.0995 3.83295 14.5276 3.7018 13.4599 3.65436C12.6487 3.64731 11.9746 3.04939 11.8197 2.28897C11.724 1.81945 11.2996 1.46875 10.792 1.46875H8.20538ZM9.4987 7.01042C8.51494 7.01042 7.71745 7.80791 7.71745 8.79167C7.71745 9.77542 8.51494 10.5729 9.4987 10.5729C10.4825 10.5729 11.2799 9.77542 11.2799 8.79167C11.2799 7.80791 10.4825 7.01042 9.4987 7.01042ZM6.52995 8.79167C6.52995 7.15207 7.8591 5.82292 9.4987 5.82292C11.1383 5.82292 12.4674 7.15207 12.4674 8.79167C12.4674 10.4313 11.1383 11.7604 9.4987 11.7604C7.8591 11.7604 6.52995 10.4313 6.52995 8.79167ZM13.6549 6.41667C13.6549 6.08875 13.9208 5.82292 14.2487 5.82292H15.0404C15.3683 5.82292 15.6341 6.08875 15.6341 6.41667C15.6341 6.74459 15.3683 7.01042 15.0404 7.01042H14.2487C13.9208 7.01042 13.6549 6.74459 13.6549 6.41667Z" />
</svg>
