<svg width="20" height="20" viewBox="0 0 20 20" fill="none" xmlns="http://www.w3.org/2000/svg">
<path fill-rule="evenodd" clip-rule="evenodd" d="M8.37461 3.07324H11.6306C13.0855 3.07323 14.2379 3.07322 15.1397 3.19447C16.0679 3.31926 16.8192 3.58219 17.4116 4.17464C18.0041 4.7671 18.267 5.51835 18.3918 6.44652C18.4634 6.9792 18.4927 7.59928 18.5047 8.31746C18.5102 8.34982 18.513 8.38308 18.513 8.41699C18.513 8.4449 18.5111 8.47236 18.5074 8.49924C18.513 8.94711 18.513 9.43178 18.513 9.95567V10.045C18.513 11.4999 18.513 12.6523 18.3918 13.5541C18.267 14.4823 18.0041 15.2336 17.4116 15.826C16.8192 16.4185 16.0679 16.6814 15.1397 16.8062C14.2379 16.9274 13.0855 16.9274 11.6306 16.9274H8.37461C6.91972 16.9274 5.76734 16.9274 4.86546 16.8062C3.93729 16.6814 3.18604 16.4185 2.59359 15.826C2.00113 15.2336 1.73821 14.4823 1.61342 13.5541C1.49217 12.6523 1.49218 11.4999 1.49219 10.045V9.95566C1.49218 9.43177 1.49218 8.9471 1.49784 8.49923C1.49411 8.47235 1.49219 8.4449 1.49219 8.41699C1.49219 8.38308 1.49503 8.34983 1.50049 8.31747C1.51249 7.59929 1.5418 6.97921 1.61342 6.44652C1.73821 5.51835 2.00113 4.7671 2.59359 4.17464C3.18604 3.58219 3.93729 3.31926 4.86546 3.19447C5.76734 3.07322 6.91971 3.07323 8.37461 3.07324ZM2.68126 9.01074C2.67976 9.31822 2.67969 9.64732 2.67969 10.0003C2.67969 11.5099 2.68095 12.5823 2.79033 13.3959C2.89742 14.1924 3.09824 14.6513 3.43328 14.9863C3.76832 15.3214 4.22721 15.5222 5.02369 15.6293C5.83726 15.7386 6.9097 15.7399 8.41927 15.7399H11.5859C13.0955 15.7399 14.1679 15.7386 14.9815 15.6293C15.778 15.5222 16.2369 15.3214 16.5719 14.9863C16.907 14.6513 17.1078 14.1924 17.2149 13.3959C17.3243 12.5823 17.3255 11.5099 17.3255 10.0003C17.3255 9.64732 17.3255 9.31822 17.3239 9.01074H2.68126ZM17.3049 7.82324H2.70033C2.71582 7.35875 2.74291 6.95743 2.79033 6.60475C2.89742 5.80826 3.09824 5.34937 3.43328 5.01433C3.76832 4.67929 4.22721 4.47847 5.02369 4.37138C5.83726 4.262 6.90971 4.26074 8.41927 4.26074H11.5859C13.0955 4.26074 14.1679 4.262 14.9815 4.37138C15.778 4.47847 16.2369 4.67929 16.5719 5.01433C16.907 5.34937 17.1078 5.80826 17.2149 6.60475C17.2623 6.95743 17.2894 7.35875 17.3049 7.82324ZM13.1338 10.1982H13.2047C13.5473 10.1982 13.8615 10.1982 14.1171 10.2325C14.3985 10.2704 14.6959 10.3594 14.9406 10.604C15.1852 10.8487 15.2742 11.1461 15.3121 11.4275C15.3464 11.6831 15.3464 11.9973 15.3464 12.3399V12.4107C15.3464 12.7534 15.3464 13.0676 15.3121 13.3231C15.2742 13.6045 15.1852 13.902 14.9406 14.1466C14.6959 14.3913 14.3985 14.4803 14.1171 14.5181C13.8615 14.5525 13.5473 14.5525 13.2047 14.5524H13.1338C12.7912 14.5525 12.477 14.5525 12.2215 14.5181C11.9401 14.4803 11.6426 14.3913 11.398 14.1466C11.1533 13.902 11.0643 13.6045 11.0265 13.3231C10.9921 13.0676 10.9921 12.7534 10.9922 12.4107V12.3399C10.9921 11.9973 10.9921 11.6831 11.0265 11.4275C11.0643 11.1461 11.1533 10.8487 11.398 10.604C11.6426 10.3594 11.9401 10.2704 12.2215 10.2325C12.477 10.1982 12.7912 10.1982 13.1338 10.1982ZM12.2396 11.4426L12.2377 11.4437L12.2366 11.4456C12.2358 11.4472 12.2345 11.4498 12.2329 11.4538C12.2258 11.471 12.2137 11.5093 12.2034 11.5858C12.1809 11.7526 12.1797 11.9853 12.1797 12.3753C12.1797 12.7653 12.1809 12.9981 12.2034 13.1649C12.2137 13.2413 12.2258 13.2796 12.2329 13.2969C12.2335 13.2985 12.2341 13.2999 12.2347 13.3011C12.2355 13.3028 12.2361 13.3041 12.2366 13.305L12.2377 13.3069L12.2396 13.308C12.2411 13.3088 12.2437 13.3101 12.2477 13.3117C12.265 13.3188 12.3033 13.3309 12.3797 13.3412C12.5465 13.3636 12.7793 13.3649 13.1693 13.3649C13.5593 13.3649 13.792 13.3636 13.9588 13.3412C14.0353 13.3309 14.0736 13.3188 14.0908 13.3117C14.0948 13.3101 14.0974 13.3088 14.0989 13.308L14.1009 13.3069L14.102 13.305C14.1028 13.3035 14.104 13.3008 14.1057 13.2969C14.1128 13.2796 14.1249 13.2413 14.1352 13.1649C14.1576 12.9981 14.1589 12.7653 14.1589 12.3753C14.1589 11.9853 14.1576 11.7526 14.1352 11.5858C14.1249 11.5093 14.1128 11.471 14.1057 11.4538C14.1047 11.4515 14.1039 11.4496 14.1032 11.4481C14.1027 11.4471 14.1023 11.4463 14.102 11.4456L14.1009 11.4437L14.0989 11.4426C14.0974 11.4418 14.0948 11.4406 14.0908 11.4389C14.0736 11.4318 14.0353 11.4197 13.9588 11.4094C13.792 11.387 13.5593 11.3857 13.1693 11.3857C12.7793 11.3857 12.5465 11.387 12.3797 11.4094C12.3033 11.4197 12.265 11.4318 12.2477 11.4389C12.2437 11.4406 12.2411 11.4418 12.2396 11.4426ZM4.65885 11.1878C4.65885 10.8599 4.92469 10.5941 5.2526 10.5941H6.83594C7.16386 10.5941 7.42969 10.8599 7.42969 11.1878C7.42969 11.5157 7.16386 11.7816 6.83594 11.7816H5.2526C4.92469 11.7816 4.65885 11.5157 4.65885 11.1878ZM12.2377 13.3069C12.2374 13.3066 12.2375 13.3067 12.2377 13.3069C12.2379 13.3072 12.238 13.3073 12.2377 13.3069ZM14.1009 13.3069C14.1007 13.3071 14.1008 13.307 14.1009 13.3069V13.3069ZM4.65885 13.5628C4.65885 13.2349 4.92469 12.9691 5.2526 12.9691H8.41927C8.74719 12.9691 9.01302 13.2349 9.01302 13.5628C9.01302 13.8907 8.74719 14.1566 8.41927 14.1566H5.2526C4.92469 14.1566 4.65885 13.8907 4.65885 13.5628Z" fill="currentColor"/>
</svg>
