<svg width="24" height="24" fill="none" xmlns="http://www.w3.org/2000/svg">
	<path d="M6.06 1.28c-1.713.052-2.523.231-3.266.719-.904.593-1.343 1.549-1.483 3.232-.068.827-.068 8.711 0 9.538.119 1.427.428 2.264 1.067 2.891.59.578 1.351.881 2.485.99.475.045.5.052.478.129-.172.602-.039 1.142.372 1.504.24.211.52.306 1.109.375.275.032.515.068.534.079.018.012.046.17.061.352.077.91.326 1.325.943 1.568.235.093.678.097.945.008.298-.099.492-.259 1.63-1.345.564-.539 1.043-.98 1.065-.98.022 0 .501.441 1.065.98.564.538 1.116 1.046 1.226 1.128.643.48 1.586.339 2.009-.301.154-.232.241-.557.283-1.058.015-.182.043-.34.061-.352.019-.011.259-.047.534-.079a4.06 4.06 0 0 0 .717-.14c.427-.159.736-.544.822-1.02.041-.228.024-.43-.059-.722-.023-.079-.005-.085.329-.111 2.1-.16 3.196-1.048 3.57-2.893.161-.794.18-1.421.18-5.772s-.019-4.978-.18-5.772c-.378-1.866-1.448-2.711-3.687-2.911-.589-.053-11.297-.084-12.81-.037m13.076 1.554c.703.113 1.23.33 1.484.611.173.192.351.554.439.895.155.6.161.821.161 5.68 0 4.321-.006 4.758-.071 5.166-.253 1.596-.812 1.958-3.159 2.047l-.711.027-.764-.74-.764-.74-.056-.351a3.699 3.699 0 0 0-1.907-2.71A3.483 3.483 0 0 0 12 12.271c-.682 0-1.197.129-1.792.45a3.699 3.699 0 0 0-1.903 2.708l-.056.351-.754.73-.754.73h-.42c-.581 0-1.438-.068-1.821-.144-.396-.079-.834-.277-1.054-.475-.299-.27-.513-.814-.616-1.561-.072-.517-.072-9.603 0-10.12.134-.978.406-1.5.919-1.769.422-.221.83-.318 1.558-.368.735-.052 13.495-.023 13.829.031M8.815 5.278c-.484.115-.717.726-.432 1.13a.939.939 0 0 0 .277.248c.158.083.205.084 3.218.095 2.142.008 3.122-.002 3.273-.033.751-.156.78-1.245.038-1.432-.21-.052-6.156-.06-6.374-.008M6.72 8.805c-.262.104-.451.395-.451.695a.75.75 0 0 0 .464.697c.157.06 10.377.06 10.534 0a.75.75 0 0 0 .464-.697.75.75 0 0 0-.464-.697c-.151-.058-10.403-.055-10.547.002m5.858 5.016c.371.097.696.291 1.003.598.46.46.659.937.659 1.581 0 .644-.199 1.121-.659 1.581-.46.46-.937.659-1.581.659-.644 0-1.121-.199-1.581-.659-.46-.46-.659-.937-.659-1.581 0-.644.199-1.121.659-1.581.3-.301.631-.5.985-.596.288-.077.881-.078 1.174-.002M8.74 17.827c.375.683.898 1.176 1.63 1.537.149.074.266.144.26.157-.024.056-1.691 1.631-1.699 1.606a11.107 11.107 0 0 1-.069-.44c-.133-.905-.584-1.344-1.501-1.463a3.303 3.303 0 0 1-.421-.07c-.014-.015 1.616-1.594 1.645-1.594.004 0 .074.12.155.267m7.691.692c.355.34.637.626.628.635-.01.01-.199.041-.42.07-.917.119-1.368.558-1.501 1.463-.033.227-.064.425-.069.44-.008.025-1.675-1.55-1.699-1.606-.006-.013.111-.083.26-.157.732-.361 1.255-.854 1.631-1.537l.147-.268.189.171c.104.093.479.448.834.789" fill-rule="evenodd" fill="#000" />
</svg>
