<svg width="19" height="19" viewBox="0 0 19 19" fill="none" xmlns="http://www.w3.org/2000/svg">
<g clip-path="url(#clip0_564_905)">
<path d="M12.6894 7.94035C12.9212 7.70848 12.9212 7.33254 12.6894 7.10066C12.4575 6.86879 12.0816 6.86879 11.8497 7.10066L8.3112 10.6392L7.14771 9.47566C6.91584 9.24379 6.53989 9.24379 6.30802 9.47566C6.07615 9.70754 6.07615 10.0835 6.30802 10.3154L7.89135 11.8987C8.12323 12.1306 8.49917 12.1306 8.73104 11.8987L12.6894 7.94035Z" fill="currentColor"/>
<path fill-rule="evenodd" clip-rule="evenodd" d="M9.54412 0.989258H9.45327C7.6258 0.989248 6.19364 0.98924 5.07622 1.13947C3.93247 1.29325 3.02995 1.61414 2.32156 2.32253C1.61317 3.03092 1.29227 3.93344 1.1385 5.07719C0.988264 6.19462 0.988272 7.62677 0.988281 9.45424V9.5451C0.988272 11.3726 0.988264 12.8047 1.1385 13.9222C1.29227 15.0659 1.61317 15.9684 2.32156 16.6768C3.02995 17.3852 3.93247 17.7061 5.07622 17.8599C6.19364 18.0101 7.6258 18.0101 9.45328 18.0101H9.54412C11.3716 18.0101 12.8038 18.0101 13.9212 17.8599C15.0649 17.7061 15.9675 17.3852 16.6758 16.6768C17.3842 15.9684 17.7051 15.0659 17.8589 13.9222C18.0091 12.8047 18.0091 11.3726 18.0091 9.54509V9.45426C18.0091 7.62677 18.0091 6.19462 17.8589 5.07719C17.7051 3.93344 17.3842 3.03092 16.6758 2.32253C15.9675 1.61414 15.0649 1.29325 13.9212 1.13947C12.8038 0.98924 11.3716 0.989248 9.54412 0.989258ZM3.16125 3.16222C3.61222 2.71124 4.22238 2.45245 5.23445 2.31639C6.2636 2.17802 7.61594 2.17676 9.4987 2.17676C11.3815 2.17676 12.7338 2.17802 13.7629 2.31639C14.775 2.45245 15.3852 2.71124 15.8362 3.16222C16.2871 3.6132 16.5459 4.22335 16.682 5.23542C16.8204 6.26457 16.8216 7.61691 16.8216 9.49967C16.8216 11.3824 16.8204 12.7348 16.682 13.7639C16.5459 14.776 16.2871 15.3861 15.8362 15.8371C15.3852 16.2881 14.775 16.5469 13.7629 16.683C12.7338 16.8213 11.3815 16.8226 9.4987 16.8226C7.61594 16.8226 6.2636 16.8213 5.23445 16.683C4.22238 16.5469 3.61222 16.2881 3.16125 15.8371C2.71027 15.3861 2.45148 14.776 2.31541 13.7639C2.17704 12.7348 2.17578 11.3824 2.17578 9.49967C2.17578 7.61691 2.17704 6.26457 2.31541 5.23542C2.45148 4.22335 2.71027 3.6132 3.16125 3.16222Z" fill="currentColor"/>
</g>
<defs>
<clipPath id="clip0_564_905">
<rect width="19" height="19" fill="white"/>
</clipPath>
</defs>
</svg>
