<svg width="19" height="19" viewBox="0 0 19 19" fill="none" xmlns="http://www.w3.org/2000/svg">
<path d="M12.6667 3.16666C14.3886 3.17625 15.3211 3.25261 15.9294 3.86091C16.625 4.55653 16.625 5.67612 16.625 7.91529V12.6653C16.625 14.9045 16.625 16.024 15.9294 16.7197C15.2338 17.4153 14.1142 17.4153 11.875 17.4153H7.125C4.88583 17.4153 3.76624 17.4153 3.07062 16.7197C2.375 16.024 2.375 14.9045 2.375 12.6653V7.91529C2.375 5.67612 2.375 4.55653 3.07062 3.86091C3.67893 3.25261 4.61144 3.17625 6.33333 3.16666" stroke="currentColor"/>
<path d="M7.125 10.6083L8.48214 11.875L11.875 8.70834" stroke="currentColor" stroke-linecap="round" stroke-linejoin="round"/>
<path d="M6.33203 2.77084C6.33203 2.115 6.86369 1.58334 7.51953 1.58334H11.4779C12.1337 1.58334 12.6654 2.115 12.6654 2.77084V3.5625C12.6654 4.21834 12.1337 4.75 11.4779 4.75H7.51953C6.86369 4.75 6.33203 4.21834 6.33203 3.5625V2.77084Z" stroke="currentColor"/>
</svg>
