<svg width="14" height="14" viewBox="0 0 14 14" fill="none" xmlns="http://www.w3.org/2000/svg">
<g clip-path="url(#clip0_564_3799)">
<path fill-rule="evenodd" clip-rule="evenodd" d="M7.0013 1.60413C4.02127 1.60413 1.60547 4.01992 1.60547 6.99996C1.60547 9.98 4.02127 12.3958 7.0013 12.3958C9.98134 12.3958 12.3971 9.98 12.3971 6.99996C12.3971 4.01992 9.98134 1.60413 7.0013 1.60413ZM0.730469 6.99996C0.730469 3.53667 3.53802 0.729126 7.0013 0.729126C10.4646 0.729126 13.2721 3.53667 13.2721 6.99996C13.2721 10.4632 10.4646 13.2708 7.0013 13.2708C3.53802 13.2708 0.730469 10.4632 0.730469 6.99996ZM7.0013 4.22913C7.24293 4.22913 7.4388 4.425 7.4388 4.66663V6.81874L8.769 8.14893C8.93985 8.31979 8.93985 8.5968 8.769 8.76765C8.59814 8.93851 8.32113 8.93851 8.15028 8.76765L6.69194 7.30932C6.6099 7.22727 6.5638 7.11599 6.5638 6.99996V4.66663C6.5638 4.425 6.75968 4.22913 7.0013 4.22913Z" fill="currentColor"/>
</g>
<defs>
<clipPath id="clip0_564_3799">
<rect width="14" height="14" fill="white"/>
</clipPath>
</defs>
</svg>
