<svg width="19" height="20" viewBox="0 0 19 20" fill="none" xmlns="http://www.w3.org/2000/svg">
<path d="M7.93935 7.60065C7.70748 7.36878 7.33154 7.36878 7.09966 7.60065C6.86779 7.83252 6.86779 8.20847 7.09966 8.44034L8.65899 9.99967L7.09968 11.559C6.86781 11.7909 6.86781 12.1668 7.09968 12.3987C7.33155 12.6305 7.7075 12.6305 7.93937 12.3987L9.49868 10.8394L11.058 12.3987C11.2899 12.6305 11.6658 12.6305 11.8977 12.3987C12.1295 12.1668 12.1295 11.7908 11.8977 11.559L10.3384 9.99967L11.8977 8.44036C12.1296 8.20848 12.1296 7.83254 11.8977 7.60067C11.6658 7.36879 11.2899 7.36879 11.058 7.60067L9.49868 9.15998L7.93935 7.60065Z" fill="currentColor"/>
<path fill-rule="evenodd" clip-rule="evenodd" d="M9.4987 1.48926C4.79852 1.48926 0.988281 5.2995 0.988281 9.99967C0.988281 14.6998 4.79852 18.5101 9.4987 18.5101C14.1989 18.5101 18.0091 14.6998 18.0091 9.99967C18.0091 5.2995 14.1989 1.48926 9.4987 1.48926ZM2.17578 9.99967C2.17578 5.95534 5.45436 2.67676 9.4987 2.67676C13.543 2.67676 16.8216 5.95534 16.8216 9.99967C16.8216 14.044 13.543 17.3226 9.4987 17.3226C5.45436 17.3226 2.17578 14.044 2.17578 9.99967Z" fill="currentColor"/>
</svg>
