<svg width="19" height="19" viewBox="0 0 19 19" fill="none" xmlns="http://www.w3.org/2000/svg">
<path fill-rule="evenodd" clip-rule="evenodd" d="M11.875 0.989563H8.66367C7.20878 0.989551 6.0564 0.989541 5.15452 1.1108C4.22636 1.23558 3.47511 1.49851 2.88265 2.09096C2.2902 2.68342 2.02727 3.43467 1.90248 4.36284C1.78123 5.26471 1.78124 6.41709 1.78125 7.87198V12.6666C1.78125 14.1488 2.86746 15.3773 4.28728 15.5995C4.39651 16.2044 4.60554 16.7206 5.02578 17.1409C5.5023 17.6174 6.10228 17.8223 6.81486 17.9181C7.50121 18.0104 8.37388 18.0104 9.45656 18.0104H11.9184C13.0011 18.0104 13.8738 18.0104 14.5601 17.9181C15.2727 17.8223 15.8727 17.6174 16.3492 17.1409C16.8257 16.6644 17.0307 16.0644 17.1265 15.3518C17.2188 14.6654 17.2188 13.7928 17.2188 12.7101V8.66488C17.2188 7.5822 17.2188 6.70953 17.1265 6.02318C17.0307 5.31059 16.8257 4.71061 16.3492 4.23409C15.929 3.81386 15.4127 3.60482 14.8079 3.4956C14.5857 2.07577 13.3572 0.989563 11.875 0.989563ZM13.5607 3.38132C13.321 2.68075 12.6568 2.17706 11.875 2.17706H8.70833C7.19877 2.17706 6.12632 2.17832 5.31276 2.28771C4.51627 2.39479 4.05738 2.59561 3.72234 2.93065C3.3873 3.26569 3.18648 3.72458 3.07939 4.52107C2.97001 5.33464 2.96875 6.40708 2.96875 7.91665V12.6666C2.96875 13.4485 3.47244 14.1126 4.17301 14.3524C4.15623 13.8695 4.15624 13.3235 4.15625 12.7101V8.66487C4.15623 7.58219 4.15622 6.70953 4.2485 6.02318C4.3443 5.31059 4.54926 4.71061 5.02578 4.23409C5.5023 3.75757 6.10228 3.55262 6.81486 3.45681C7.50121 3.36453 8.37388 3.36455 9.45656 3.36456H11.9184C12.5318 3.36455 13.0778 3.36455 13.5607 3.38132ZM5.86547 5.07378C6.08457 4.85468 6.39219 4.71182 6.9731 4.63372C7.57108 4.55332 8.36363 4.55206 9.5 4.55206H11.875C13.0114 4.55206 13.8039 4.55332 14.4019 4.63372C14.9828 4.71182 15.2904 4.85468 15.5095 5.07378C15.7286 5.29288 15.8715 5.6005 15.9496 6.18141C16.03 6.7794 16.0312 7.57194 16.0312 8.70831V12.6666C16.0312 13.803 16.03 14.5956 15.9496 15.1936C15.8715 15.7745 15.7286 16.0821 15.5095 16.3012C15.2904 16.5203 14.9828 16.6631 14.4019 16.7412C13.8039 16.8216 13.0114 16.8229 11.875 16.8229H9.5C8.36363 16.8229 7.57108 16.8216 6.9731 16.7412C6.39219 16.6631 6.08457 16.5203 5.86547 16.3012C5.64636 16.0821 5.50351 15.7745 5.42541 15.1936C5.34501 14.5956 5.34375 13.803 5.34375 12.6666V8.70831C5.34375 7.57194 5.34501 6.7794 5.42541 6.18141C5.50351 5.6005 5.64636 5.29288 5.86547 5.07378Z" fill="currentColor"/>
</svg>
