<svg width="19" height="19" viewBox="0 0 19 19" fill="none" xmlns="http://www.w3.org/2000/svg">
<path fill-rule="evenodd" clip-rule="evenodd" d="M8.66367 0.989258H10.3363C11.7912 0.989246 12.9436 0.989236 13.8455 1.11049C14.7736 1.23528 15.5249 1.4982 16.1173 2.09066C16.3492 2.32253 16.3492 2.69847 16.1173 2.93035C15.8855 3.16222 15.5095 3.16222 15.2777 2.93035C14.9426 2.59531 14.4837 2.39449 13.6872 2.2874C12.8737 2.17802 11.8012 2.17676 10.2917 2.17676H8.70833C7.19877 2.17676 6.12632 2.17802 5.31276 2.2874C4.51627 2.39449 4.05738 2.59531 3.72234 2.93035C3.3873 3.26539 3.18648 3.72428 3.07939 4.52076C2.97001 5.33433 2.96875 6.40677 2.96875 7.91634V11.083C2.96875 12.5926 2.97001 13.665 3.07939 14.4786C3.18648 15.2751 3.3873 15.734 3.72234 16.069C4.05738 16.404 4.51627 16.6049 5.31276 16.7119C6.12632 16.8213 7.19877 16.8226 8.70833 16.8226H10.2917C11.8012 16.8226 12.8737 16.8213 13.6872 16.7119C14.4837 16.6049 14.9426 16.404 15.2777 16.069C15.8286 15.518 15.9954 14.662 16.0244 12.6578C16.0292 12.3299 16.2988 12.0679 16.6267 12.0727C16.9546 12.0774 17.2165 12.347 17.2118 12.6749C17.184 14.5967 17.0596 15.9664 16.1173 16.9087C15.5249 17.5011 14.7736 17.7641 13.8455 17.8889C12.9436 18.0101 11.7912 18.0101 10.3363 18.0101H8.66368C7.20878 18.0101 6.0564 18.0101 5.15452 17.8889C4.22636 17.7641 3.47511 17.5011 2.88265 16.9087C2.2902 16.3162 2.02727 15.565 1.90248 14.6368C1.78123 13.7349 1.78124 12.5826 1.78125 11.1277V7.87168C1.78124 6.41678 1.78123 5.26441 1.90248 4.36253C2.02727 3.43436 2.2902 2.68311 2.88265 2.09066C3.47511 1.4982 4.22636 1.23528 5.15452 1.11049C6.0564 0.989236 7.20878 0.989246 8.66367 0.989258ZM14.3396 5.57741C15.1793 4.73765 16.5408 4.73765 17.3806 5.57741C18.2204 6.41717 18.2204 7.77868 17.3806 8.61844L13.616 12.3831C13.4112 12.5879 13.2726 12.7265 13.1174 12.8476C12.9348 12.99 12.7373 13.1121 12.5282 13.2117C12.3506 13.2964 12.1646 13.3583 11.8898 13.4499L10.2403 13.9997C9.87609 14.1211 9.47457 14.0263 9.20311 13.7549C8.93166 13.4834 8.83688 13.0819 8.95827 12.7177L9.49705 11.1014C9.50078 11.0902 9.50447 11.0791 9.5081 11.0682C9.59968 10.7934 9.66163 10.6074 9.74631 10.4298C9.84593 10.2207 9.96802 10.0232 10.1104 9.84061C10.2315 9.68542 10.3701 9.54686 10.5749 9.34207C10.5831 9.33391 10.5913 9.32566 10.5997 9.31729L14.3396 5.57741ZM16.5409 6.4171C16.1649 6.04109 15.5553 6.04109 15.1793 6.4171L15.0353 6.56101C15.0432 6.58752 15.0521 6.61571 15.0624 6.64534C15.1369 6.85998 15.2782 7.14389 15.5462 7.41186C15.8141 7.67983 16.098 7.82114 16.3127 7.89561C16.3423 7.90589 16.3705 7.91485 16.397 7.92266L16.5409 7.77875C16.9169 7.40274 16.9169 6.79311 16.5409 6.4171ZM15.4901 8.82957C15.2384 8.69738 14.9667 8.51179 14.7065 8.25155C14.4462 7.99131 14.2606 7.71958 14.1284 7.46792L11.4394 10.157C11.201 10.3953 11.1174 10.4804 11.0468 10.5709C10.9574 10.6855 10.8808 10.8095 10.8183 10.9406C10.7689 11.0443 10.7302 11.1571 10.6236 11.4769L10.3067 12.4276L10.5304 12.6513L11.4811 12.3344C11.8009 12.2278 11.9137 12.1891 12.0174 12.1397C12.1485 12.0772 12.2725 12.0006 12.3871 11.9112C12.4776 11.8406 12.5627 11.757 12.801 11.5186L15.4901 8.82957ZM5.73958 7.12467C5.73958 6.79676 6.00541 6.53092 6.33333 6.53092H11.4792C11.8071 6.53092 12.0729 6.79676 12.0729 7.12467C12.0729 7.45259 11.8071 7.71842 11.4792 7.71842H6.33333C6.00541 7.71842 5.73958 7.45259 5.73958 7.12467ZM5.73958 10.2913C5.73958 9.96342 6.00541 9.69759 6.33333 9.69759H8.3125C8.64042 9.69759 8.90625 9.96342 8.90625 10.2913C8.90625 10.6193 8.64042 10.8851 8.3125 10.8851H6.33333C6.00541 10.8851 5.73958 10.6193 5.73958 10.2913ZM5.73958 13.458C5.73958 13.1301 6.00541 12.8643 6.33333 12.8643H7.52083C7.84875 12.8643 8.11458 13.1301 8.11458 13.458C8.11458 13.7859 7.84875 14.0518 7.52083 14.0518H6.33333C6.00541 14.0518 5.73958 13.7859 5.73958 13.458Z" fill="currentColor"/>
</svg>
