<svg width="19" height="19" viewBox="0 0 19 19" fill="none" xmlns="http://www.w3.org/2000/svg">
<g clip-path="url(#clip0_564_1794)">
<path fill-rule="evenodd" clip-rule="evenodd" d="M8.66359 0.989582H10.3338C11.4165 0.989566 12.2892 0.989553 12.9755 1.08183C13.6881 1.17763 14.2881 1.38259 14.7646 1.85911C15.0009 2.0954 15.1704 2.36204 15.2929 2.65772C16.0308 2.75015 16.6503 2.95318 17.1396 3.44248C17.6161 3.919 17.8211 4.51899 17.9169 5.23157C18.0091 5.91792 18.0091 6.79059 18.0091 7.87327V11.1268C18.0091 12.2095 18.0091 13.0822 17.9169 13.7685C17.8211 14.4811 17.6161 15.0811 17.1396 15.5576C16.6503 16.0469 16.0308 16.2499 15.2929 16.3424C15.1704 16.638 15.0009 16.9046 14.7646 17.1409C14.2881 17.6174 13.6881 17.8224 12.9755 17.9182C12.2892 18.0104 11.4165 18.0104 10.3338 18.0104H8.66359C7.58092 18.0104 6.70825 18.0104 6.0219 17.9182C5.30931 17.8224 4.70933 17.6174 4.23281 17.1409C3.99654 16.9046 3.82704 16.638 3.70449 16.3424C2.96661 16.2499 2.34712 16.0469 1.85781 15.5576C1.38129 15.0811 1.17633 14.4811 1.08053 13.7685C0.988252 13.0822 0.988265 12.2095 0.988282 11.1268V7.87327C0.988265 6.79059 0.988252 5.91792 1.08053 5.23157C1.17633 4.51899 1.38129 3.919 1.85781 3.44248C2.34711 2.95318 2.96659 2.75015 3.70446 2.65772C3.82701 2.36204 3.99652 2.0954 4.23281 1.85911C4.70933 1.38259 5.30931 1.17763 6.0219 1.08183C6.70824 0.989553 7.58091 0.989566 8.66359 0.989582ZM3.42538 3.91121C3.07893 3.9947 2.86295 4.11672 2.6975 4.28217C2.47839 4.50128 2.33554 4.8089 2.25744 5.3898C2.17704 5.98779 2.17578 6.78034 2.17578 7.91671V11.0834C2.17578 12.2197 2.17704 13.0123 2.25744 13.6103C2.33554 14.1912 2.47839 14.4988 2.6975 14.7179C2.86295 14.8834 3.07894 15.0054 3.42538 15.0889C3.36326 14.4466 3.36327 13.659 3.36328 12.7101V6.28989C3.36327 5.341 3.36326 4.55342 3.42538 3.91121ZM15.572 15.0889C15.9185 15.0054 16.1344 14.8834 16.2999 14.7179C16.519 14.4988 16.6619 14.1912 16.74 13.6103C16.8204 13.0123 16.8216 12.2197 16.8216 11.0834V7.91671C16.8216 6.78034 16.8204 5.98779 16.74 5.3898C16.6619 4.8089 16.519 4.50128 16.2999 4.28217C16.1344 4.11672 15.9185 3.9947 15.572 3.91121C15.6341 4.55342 15.6341 5.341 15.6341 6.2899V12.7101C15.6341 13.659 15.6341 14.4466 15.572 15.0889ZM6.18013 2.25874C5.59922 2.33684 5.2916 2.47969 5.0725 2.6988C4.85339 2.9179 4.71054 3.22552 4.63244 3.80643C4.55204 4.40441 4.55078 5.19696 4.55078 6.33333V12.6667C4.55078 13.803 4.55204 14.5956 4.63244 15.1936C4.71054 15.7745 4.85339 16.0821 5.0725 16.3012C5.2916 16.5203 5.59922 16.6632 6.18013 16.7413C6.77811 16.8217 7.57066 16.8229 8.70703 16.8229H10.2904C11.4267 16.8229 12.2193 16.8217 12.8173 16.7413C13.3982 16.6632 13.7058 16.5203 13.9249 16.3012C14.144 16.0821 14.2869 15.7745 14.365 15.1936C14.4454 14.5956 14.4466 13.803 14.4466 12.6667V6.33333C14.4466 5.19696 14.4454 4.40441 14.365 3.80643C14.2869 3.22552 14.144 2.9179 13.9249 2.6988C13.7058 2.47969 13.3982 2.33684 12.8173 2.25874C12.2193 2.17834 11.4267 2.17708 10.2904 2.17708H8.70703C7.57066 2.17708 6.77811 2.17834 6.18013 2.25874ZM6.52995 7.125C6.52995 6.79708 6.79578 6.53125 7.1237 6.53125H11.8737C12.2016 6.53125 12.4674 6.79708 12.4674 7.125C12.4674 7.45292 12.2016 7.71875 11.8737 7.71875H7.1237C6.79578 7.71875 6.52995 7.45292 6.52995 7.125ZM6.52995 10.2917C6.52995 9.96375 6.79578 9.69792 7.1237 9.69792H11.8737C12.2016 9.69792 12.4674 9.96375 12.4674 10.2917C12.4674 10.6196 12.2016 10.8854 11.8737 10.8854H7.1237C6.79578 10.8854 6.52995 10.6196 6.52995 10.2917ZM6.52995 13.4583C6.52995 13.1304 6.79578 12.8646 7.1237 12.8646H9.4987C9.82662 12.8646 10.0924 13.1304 10.0924 13.4583C10.0924 13.7863 9.82662 14.0521 9.4987 14.0521H7.1237C6.79578 14.0521 6.52995 13.7863 6.52995 13.4583Z" fill="currentColor"/>
</g>
<defs>
<clipPath id="clip0_564_1794">
<rect width="19" height="19" rx="5" fill="white"/>
</clipPath>
</defs>
</svg>
