<svg width="19" height="19" viewBox="0 0 19 19" fill="currentColor" xmlns="http://www.w3.org/2000/svg">
<path d="M10.0938 8.70833C10.0938 8.38041 9.82792 8.11458 9.5 8.11458C9.17208 8.11458 8.90625 8.38041 8.90625 8.70833V10.2917C8.90625 10.6196 9.17208 10.8854 9.5 10.8854C9.82792 10.8854 10.0938 10.6196 10.0938 10.2917V8.70833Z" />
<path fill-rule="evenodd" clip-rule="evenodd" d="M10.8654 1.60479L12.7922 1.92591C13.7071 2.07839 14.4484 2.20193 15.0283 2.37456C15.6321 2.55434 16.1311 2.80621 16.5152 3.25966C16.8994 3.71311 17.0658 4.24667 17.1438 4.8719C17.2188 5.47225 17.2188 6.22373 17.2188 7.15133V11.8487C17.2188 12.7763 17.2188 13.5277 17.1438 14.1281C17.0658 14.7533 16.8994 15.2869 16.5152 15.7403C16.1311 16.1938 15.6321 16.4456 15.0283 16.6254C14.4484 16.7981 13.7072 16.9216 12.7922 17.0741L10.8654 17.3952C10.0475 17.5315 9.37116 17.6443 8.83103 17.6573C8.26454 17.671 7.73932 17.58 7.30112 17.2088C6.93123 16.8954 6.74804 16.4881 6.65203 16.0312H6.29083C5.39402 16.0313 4.66113 16.0313 4.08254 15.9535C3.47774 15.8722 2.95339 15.6962 2.53484 15.2777C2.11629 14.8591 1.94032 14.3348 1.85901 13.73C1.78122 13.1514 1.78123 12.4185 1.78125 11.5217V7.47833C1.78123 6.58151 1.78122 5.84863 1.85901 5.27003C1.94032 4.66524 2.11629 4.14089 2.53484 3.72234C2.95339 3.30379 3.47774 3.12782 4.08254 3.0465C4.66113 2.96871 5.394 2.96873 6.29083 2.96875L6.65203 2.96875C6.74804 2.51192 6.93122 2.10458 7.30112 1.79123C7.73932 1.42002 8.26454 1.32896 8.83103 1.34265C9.37117 1.3557 10.0475 1.46844 10.8654 1.60479ZM6.53125 13.7236C6.53124 14.1321 6.53123 14.5058 6.5403 14.8437H6.33334C5.38356 14.8437 4.73096 14.8425 4.24077 14.7766C3.76765 14.713 3.53567 14.5991 3.37453 14.438C3.2134 14.2768 3.09953 14.0448 3.03592 13.5717C2.97001 13.0815 2.96875 12.4289 2.96875 11.4792V7.52083C2.96875 6.57106 2.97001 5.91846 3.03592 5.42827C3.09953 4.95515 3.2134 4.72316 3.37453 4.56203C3.53567 4.40089 3.76765 4.28702 4.24077 4.22342C4.73096 4.15751 5.38356 4.15625 6.33334 4.15625H6.5403C6.53123 4.49421 6.53124 4.86788 6.53125 5.27638V13.7236ZM8.80235 2.5298C8.37304 2.51943 8.1904 2.59421 8.06869 2.69732C7.94699 2.80042 7.8432 2.96828 7.78285 3.39345C7.72017 3.83506 7.71875 4.43568 7.71875 5.32145V13.6785C7.71875 14.5643 7.72017 15.1649 7.78285 15.6065C7.8432 16.0317 7.94699 16.1996 8.06869 16.3027C8.1904 16.4058 8.37304 16.4806 8.80235 16.4702C9.24825 16.4594 9.84094 16.3621 10.7147 16.2164L12.5583 15.9092C13.5211 15.7487 14.1889 15.6363 14.6894 15.4873C15.1741 15.343 15.4304 15.1837 15.6091 14.9728C15.7878 14.7618 15.9028 14.4827 15.9655 13.981C16.0302 13.4628 16.0313 12.7856 16.0313 11.8095V7.19051C16.0313 6.21438 16.0302 5.53723 15.9655 5.01902C15.9028 4.51726 15.7878 4.23817 15.6091 4.02723C15.4304 3.81629 15.1741 3.65697 14.6894 3.51269C14.1889 3.36368 13.5211 3.25129 12.5583 3.09081L10.7147 2.78354C9.84094 2.63792 9.24825 2.54058 8.80235 2.5298Z"/>
</svg>
