<svg width="20" height="14" viewBox="0 0 20 14" fill="none" xmlns="http://www.w3.org/2000/svg">
<path d="M10 9.5C10.663 9.5 11.2989 9.23661 11.7678 8.76777C12.2366 8.29893 12.5 7.66304 12.5 7C12.5 6.33696 12.2366 5.70107 11.7678 5.23223C11.2989 4.76339 10.663 4.5 10 4.5C9.33696 4.5 8.70107 4.76339 8.23223 5.23223C7.76339 5.70107 7.5 6.33696 7.5 7C7.5 7.66304 7.76339 8.29893 8.23223 8.76777C8.70107 9.23661 9.33696 9.5 10 9.5Z" fill="currentColor"/>
<path fill-rule="evenodd" clip-rule="evenodd" d="M0.664 7.59C0.517104 7.20831 0.517104 6.78569 0.664 6.404C1.39123 4.51849 2.67245 2.89744 4.33896 1.75431C6.00547 0.611173 7.97911 -0.000442065 10 2.39729e-07C14.257 2.39729e-07 17.893 2.66 19.336 6.41C19.483 6.791 19.482 7.214 19.336 7.596C18.6088 9.48151 17.3275 11.1026 15.661 12.2457C13.9945 13.3888 12.0209 14.0004 10 14C5.743 14 2.107 11.34 0.664 7.59ZM14 7C14 8.06087 13.5786 9.07828 12.8284 9.82843C12.0783 10.5786 11.0609 11 10 11C8.93913 11 7.92172 10.5786 7.17157 9.82843C6.42143 9.07828 6 8.06087 6 7C6 5.93913 6.42143 4.92172 7.17157 4.17157C7.92172 3.42143 8.93913 3 10 3C11.0609 3 12.0783 3.42143 12.8284 4.17157C13.5786 4.92172 14 5.93913 14 7Z" fill="currentColor"/>
</svg>
