<svg width="20" height="17" viewBox="0 0 20 17" fill="none" xmlns="http://www.w3.org/2000/svg">
<path fill-rule="evenodd" clip-rule="evenodd" d="M3.28 0.22003C3.13783 0.0875496 2.94978 0.0154264 2.75548 0.0188546C2.56118 0.0222829 2.37579 0.100995 2.23838 0.238408C2.10097 0.375821 2.02225 0.561206 2.01883 0.755507C2.0154 0.949808 2.08752 1.13785 2.22 1.28003L16.72 15.78C16.7887 15.8537 16.8715 15.9128 16.9635 15.9538C17.0555 15.9948 17.1548 16.0168 17.2555 16.0186C17.3562 16.0204 17.4562 16.0019 17.5496 15.9642C17.643 15.9264 17.7278 15.8703 17.799 15.7991C17.8703 15.7278 17.9264 15.643 17.9641 15.5496C18.0018 15.4562 18.0204 15.3562 18.0186 15.2555C18.0168 15.1548 17.9948 15.0555 17.9538 14.9635C17.9128 14.8715 17.8537 14.7887 17.78 14.72L16.035 12.975C17.5206 11.85 18.6633 10.3333 19.335 8.59503C19.4816 8.21364 19.4816 7.79142 19.335 7.41003C18.6087 5.5234 17.3279 3.90107 15.6613 2.75681C13.9947 1.61255 12.0206 1.00005 9.999 1.00003C8.34297 0.99729 6.71242 1.40768 5.255 2.19403L3.28 0.22003ZM7.752 4.69003L8.844 5.78203C9.31577 5.53545 9.85392 5.44589 10.3801 5.52639C10.9063 5.6069 11.3931 5.85326 11.7696 6.22961C12.146 6.60596 12.3925 7.09266 12.4732 7.61883C12.5538 8.14501 12.4644 8.68319 12.218 9.15503L13.309 10.247C13.8326 9.47716 14.0712 8.54876 13.9837 7.62183C13.8963 6.69491 13.4882 5.82754 12.8298 5.16919C12.1715 4.51085 11.3041 4.10278 10.3772 4.01531C9.45027 3.92784 8.52187 4.16646 7.752 4.69003Z" fill="currentColor"/>
<path d="M10.748 11.93L13.271 14.453C12.2191 14.8163 11.1139 15.0011 10.001 15C5.743 15 2.107 12.34 0.664 8.59002C0.517104 8.20833 0.517104 7.78571 0.664 7.40402C1.15247 6.14043 1.89242 4.98917 2.839 4.02002L6.07 7.25202C5.9479 7.89284 5.98438 8.55379 6.17626 9.17728C6.36814 9.80076 6.7096 10.3679 7.17088 10.8291C7.63216 11.2904 8.19925 11.6319 8.82274 11.8238C9.44623 12.0156 10.1072 12.0521 10.748 11.93Z" fill="currentColor"/>
</svg>
