<svg width="20" height="20" viewBox="0 0 20 20" fill="none" xmlns="http://www.w3.org/2000/svg">
<path d="M9.9987 14.5518C10.3266 14.5518 10.5924 14.2859 10.5924 13.958V9.20801C10.5924 8.88009 10.3266 8.61426 9.9987 8.61426C9.67078 8.61426 9.40495 8.88009 9.40495 9.20801V13.958C9.40495 14.2859 9.67078 14.5518 9.9987 14.5518Z" fill="currentColor"/>
<path d="M9.9987 6.04134C10.4359 6.04134 10.7904 6.39578 10.7904 6.83301C10.7904 7.27023 10.4359 7.62467 9.9987 7.62467C9.56147 7.62467 9.20703 7.27023 9.20703 6.83301C9.20703 6.39578 9.56147 6.04134 9.9987 6.04134Z" fill="currentColor"/>
<path fill-rule="evenodd" clip-rule="evenodd" d="M1.48828 9.99967C1.48828 5.2995 5.29852 1.48926 9.9987 1.48926C14.6989 1.48926 18.5091 5.2995 18.5091 9.99967C18.5091 14.6998 14.6989 18.5101 9.9987 18.5101C5.29852 18.5101 1.48828 14.6998 1.48828 9.99967ZM9.9987 2.67676C5.95436 2.67676 2.67578 5.95534 2.67578 9.99967C2.67578 14.044 5.95436 17.3226 9.9987 17.3226C14.043 17.3226 17.3216 14.044 17.3216 9.99967C17.3216 5.95534 14.043 2.67676 9.9987 2.67676Z" fill="currentColor"/>
</svg>
