<svg width="19" height="19" viewBox="0 0 19 19" fill="none" xmlns="http://www.w3.org/2000/svg">
<path d="M14.8964 6.54898C15.2145 6.46945 15.5369 6.66287 15.6164 6.98099C15.6959 7.29912 15.5025 7.62149 15.1844 7.70102L12.0177 8.49269C11.6996 8.57222 11.3772 8.3788 11.2977 8.06067C11.2181 7.74254 11.4116 7.42018 11.7297 7.34064L14.8964 6.54898Z" fill="currentColor"/>
<path d="M14.8964 9.71564C15.2145 9.63611 15.5369 9.82953 15.6164 10.1477C15.6959 10.4658 15.5025 10.7882 15.1844 10.8677L12.0177 11.6594C11.6996 11.7389 11.3772 11.5455 11.2977 11.2273C11.2181 10.9092 11.4116 10.5868 11.7297 10.5073L14.8964 9.71564Z" fill="currentColor"/>
<path d="M3.38101 6.98099C3.46054 6.66287 3.78291 6.46945 4.10104 6.54898L7.2677 7.34064C7.58583 7.42018 7.77925 7.74254 7.69972 8.06067C7.62019 8.3788 7.29782 8.57222 6.97969 8.49269L3.81303 7.70102C3.4949 7.62149 3.30148 7.29912 3.38101 6.98099Z" fill="currentColor"/>
<path d="M3.38101 10.1477C3.46054 9.82953 3.78291 9.63611 4.10104 9.71564L7.2677 10.5073C7.58583 10.5868 7.77925 10.9092 7.69972 11.2273C7.62019 11.5455 7.29782 11.7389 6.97969 11.6594L3.81303 10.8677C3.4949 10.7882 3.30148 10.4658 3.38101 10.1477Z" fill="currentColor"/>
<path fill-rule="evenodd" clip-rule="evenodd" d="M18.0091 3.90544C18.0091 2.74699 17.0866 1.7535 15.8763 1.79566C14.9751 1.82705 13.7971 1.9208 12.8909 2.19209C12.1032 2.42791 11.2171 2.88854 10.5264 3.28829C9.87876 3.66311 9.07251 3.68181 8.41636 3.33485C7.62828 2.91813 6.59143 2.42417 5.69186 2.18679C4.93122 1.98608 3.96904 1.88967 3.18786 1.84165C1.95425 1.76584 0.988281 2.76976 0.988281 3.95659V12.7803C0.988281 13.9965 1.97294 14.946 3.14006 15.019C3.89908 15.0665 4.75318 15.1578 5.38887 15.3255C6.17465 15.5329 7.14634 15.9939 7.9309 16.4121C8.90726 16.9326 10.0901 16.9326 11.0665 16.4121C11.8511 15.9939 12.8227 15.5329 13.6085 15.3255C14.2442 15.1578 15.0983 15.0665 15.8573 15.019C17.0245 14.946 18.0091 13.9965 18.0091 12.7803V3.90544ZM15.9176 2.98244C16.4043 2.96549 16.8216 3.36585 16.8216 3.90544V12.7803C16.8216 13.3232 16.3717 13.797 15.7832 13.8338C15.0073 13.8823 14.058 13.9788 13.3055 14.1773C12.379 14.4218 11.3059 14.9388 10.5079 15.3642C10.3747 15.4352 10.2354 15.4911 10.0924 15.532V4.70411C10.4505 4.63243 10.7987 4.50275 11.1212 4.31607C11.7945 3.92642 12.5821 3.5241 13.2315 3.3297C13.9829 3.10475 15.0319 3.01329 15.9176 2.98244ZM8.90495 4.73019C8.54473 4.67418 8.19165 4.55932 7.86127 4.38462C7.08796 3.97572 6.15055 3.53598 5.38887 3.33499C4.74587 3.16532 3.87975 3.07392 3.11501 3.02692C2.61312 2.99607 2.17578 3.40466 2.17578 3.95659V12.7803C2.17578 13.3232 2.62569 13.797 3.21419 13.8338C3.99009 13.8823 4.93943 13.9788 5.69186 14.1773C6.61838 14.4218 7.69153 14.9388 8.48949 15.3642C8.62268 15.4352 8.76204 15.4911 8.90495 15.532V4.73019Z" fill="currentColor"/>
</svg>
