<svg width="40" height="32" viewBox="0 0 40 32" fill="none" xmlns="http://www.w3.org/2000/svg">
<path d="M40 4.49996V27.5C40 29.98 37.98 32 35.5 32H4.49999C4.30002 32 4.10014 31.9798 3.91996 31.9597C1.82006 31.7 0.180281 29.98 0.0201566 27.86C3.71597e-07 27.7399 0 27.6198 0 27.5V4.49996C0 2.02002 2.02003 0 4.49999 0H35.5C37.98 0 40 2.02002 40 4.49996Z" fill="#ECF7F8"/>
<path d="M14 10C14 12.209 12.2093 14 10.0002 14C7.79084 14 6 12.209 6 10C6 7.79104 7.79084 6 10.0002 6C12.2093 6 14 7.79113 14 10Z" fill="#00BDC2"/>
<path d="M40 21.7209V27.4294C40 29.9482 37.9845 32 35.51 32H4.57874C4.37922 32 4.17979 31.9794 4 31.9591L24.5543 11.0361C25.9114 9.65463 28.1462 9.65463 29.5032 11.0361L40 21.7209Z" fill="#02A2A6"/>
<path d="M28 32H4.46394C4.26477 32 4.06551 31.9794 3.88596 31.9588C1.79351 31.693 0.159556 29.9331 0 27.764L9.46614 18.0435C10.8214 16.6522 13.0533 16.6522 14.4085 18.0435L28 32Z" fill="#00BDC2"/>
</svg>
