<svg width="70" height="65" viewBox="0 0 70 65" fill="none" xmlns="http://www.w3.org/2000/svg">
<path d="M18.2278 51.0442C13.5585 51.0442 9.40514 48.0624 7.89682 43.6231L7.79482 43.2886C7.43907 42.113 7.29005 41.1243 7.29005 40.1352V20.3008L0.214123 43.8586C-0.6959 47.3235 1.3779 50.9159 4.85735 51.873L49.9593 63.9199C50.5079 64.0623 51.0724 64.1346 51.6393 64.135C54.5441 64.135 57.1984 62.2122 57.9425 59.3783L60.5702 51.0442H18.2278Z" fill="#ECF7F8"/>
<path d="M69.9991 6.68018V40.1349C69.9991 43.7421 67.0531 46.6803 63.4364 46.6803H18.2267C17.9351 46.6803 17.6436 46.651 17.3808 46.6217C14.3184 46.244 11.927 43.7421 11.6935 40.6585C11.6641 40.4839 11.6641 40.309 11.6641 40.1349V6.68018C11.6641 3.07298 14.61 0.134766 18.2267 0.134766H63.4364C67.0531 0.134766 69.9991 3.07298 69.9991 6.68018Z" fill="#ECF7F8"/>
<path d="M32.0808 14.6797C32.0808 17.8928 29.4693 20.498 26.2477 20.498C23.0257 20.498 20.4141 17.8928 20.4141 14.6797C20.4141 11.4665 23.0257 8.86133 26.2477 8.86133C29.4693 8.86133 32.0808 11.4667 32.0808 14.6797Z" fill="#00BDC2"/>
<path d="M70.001 31.961V40.1359C70.001 43.743 67.0551 46.6813 63.4384 46.6813H18.2287C17.9371 46.6813 17.6456 46.6519 17.3828 46.6227L47.4253 16.6595C49.4089 14.6812 52.6753 14.6812 54.6588 16.6595L70.001 31.961Z" fill="#02A2A6"/>
<path d="M52.6752 46.6791H18.2286C17.9371 46.6791 17.6455 46.6498 17.3827 46.6204C14.3202 46.2427 11.9288 43.7409 11.6953 40.6573L25.5496 26.8388C27.5332 24.861 30.7996 24.861 32.7831 26.8388L52.6752 46.6791Z" fill="#00BDC2"/>
</svg>
