<svg width="19" height="19" viewBox="0 0 19 19" fill="none" xmlns="http://www.w3.org/2000/svg">
<path d="M8.45875 2.20865C8.68886 1.97503 8.68602 1.5991 8.4524 1.36899C8.21878 1.13887 7.84285 1.14171 7.61273 1.37533L6.22699 2.78219C5.99933 3.01332 5.99934 3.3844 6.22701 3.61552L7.61275 5.02229C7.84287 5.2559 8.2188 5.25873 8.45241 5.02861C8.68603 4.79849 8.68886 4.42256 8.45873 4.18894L8.03316 3.75692C8.47938 3.75278 8.96623 3.75274 9.5 3.75274C11.1964 3.75274 12.4081 3.75404 13.3287 3.8797C14.2314 4.0029 14.7652 4.23558 15.1586 4.63493C15.5532 5.03552 15.784 5.5811 15.906 6.50171C16.03 7.4385 16.0312 8.6707 16.0312 10.3921C16.0312 12.1135 16.03 13.3457 15.906 14.2825C15.784 15.2031 15.5532 15.7487 15.1586 16.1493C14.7652 16.5486 14.2314 16.7813 13.3287 16.9045C12.4081 17.0302 11.1964 17.0315 9.5 17.0315C7.80359 17.0315 6.5919 17.0302 5.67126 16.9045C4.76863 16.7813 4.23481 16.5486 3.84143 16.1493C3.44682 15.7487 3.21596 15.2031 3.09404 14.2825C2.96997 13.3457 2.96875 12.1135 2.96875 10.3921C2.96875 8.6707 2.96997 7.4385 3.09404 6.50171C3.21596 5.5811 3.44682 5.03552 3.84143 4.63493C4.07155 4.40132 4.06872 4.02539 3.8351 3.79526C3.60149 3.56514 3.22556 3.56797 2.99544 3.80159C2.34661 4.46026 2.05575 5.29674 1.91682 6.34581C1.78123 7.3696 1.78124 8.68046 1.78125 10.3476V10.4366C1.78124 12.1037 1.78123 13.4146 1.91682 14.4384C2.05575 15.4875 2.34661 16.3239 2.99544 16.9826C3.64549 17.6425 4.47307 17.9395 5.51068 18.0811C6.52091 18.219 7.81368 18.219 9.45432 18.219H9.54568C11.1863 18.219 12.4791 18.219 13.4893 18.0811C14.5269 17.9395 15.3545 17.6425 16.0046 16.9826C16.6534 16.3239 16.9442 15.4875 17.0832 14.4384C17.2188 13.4146 17.2188 12.1038 17.2187 10.4367V10.3476C17.2188 8.68047 17.2188 7.36959 17.0832 6.34581C16.9442 5.29674 16.6534 4.46026 16.0046 3.80159C15.3545 3.14167 14.5269 2.84473 13.4893 2.70311C12.4791 2.56522 11.1863 2.56523 9.54569 2.56524L9.48649 2.56524C8.99394 2.56524 8.53366 2.56524 8.10405 2.56875L8.45875 2.20865Z" fill="currentColor"/>
<path d="M12.6907 8.94088C12.9226 8.70901 12.9226 8.33307 12.6907 8.10119C12.4588 7.86932 12.0829 7.86932 11.851 8.10119L8.3125 11.6397L7.14901 10.4762C6.91714 10.2443 6.5412 10.2443 6.30932 10.4762C6.07745 10.7081 6.07745 11.084 6.30932 11.3159L7.89266 12.8992C8.12453 13.1311 8.50047 13.1311 8.73234 12.8992L12.6907 8.94088Z" fill="currentColor"/>
</svg>
