<svg width="23" height="24" viewBox="0 0 23 24" fill="none" xmlns="http://www.w3.org/2000/svg">
<path d="M1.86987 4.3644H6.57181C6.57181 4.66113 6.60139 4.95673 6.66161 5.24364C6.71911 5.52485 6.8046 5.79965 6.91682 6.06398C7.0276 6.32289 7.16255 6.57087 7.31989 6.80464C7.40112 6.92451 7.52681 7.00734 7.66934 7.03496C7.81186 7.06257 7.95956 7.0327 8.07998 6.95191C8.2003 6.87098 8.28344 6.7458 8.31117 6.60386C8.33889 6.46192 8.30892 6.31483 8.22785 6.19488C8.10927 6.01979 8.00769 5.83387 7.92447 5.63962C7.84125 5.43999 7.77662 5.23382 7.7339 5.02438C7.69011 4.80947 7.66711 4.58693 7.66711 4.3644C7.66711 4.14187 7.69011 3.91933 7.7339 3.70442C7.77709 3.49434 7.84092 3.28901 7.92447 3.09138C8.0077 2.89503 8.10848 2.70957 8.22677 2.53505C8.34505 2.36053 8.47977 2.19797 8.62763 2.05071C8.77774 1.90257 8.94127 1.76856 9.11613 1.65039C9.29193 1.53229 9.47861 1.43112 9.67364 1.34824C9.87232 1.26466 10.0789 1.20108 10.2903 1.15843C10.7229 1.07007 11.1829 1.07007 11.6155 1.15843C11.8264 1.2016 12.0326 1.26517 12.2311 1.34824C12.4282 1.43112 12.6144 1.5315 12.7896 1.64931C12.9649 1.76712 13.1281 1.9013 13.2759 2.04856C13.4249 2.19743 13.5595 2.35995 13.6779 2.53397C13.7964 2.70906 13.898 2.89498 13.9812 3.08923C14.0652 3.28712 14.129 3.49286 14.1718 3.7034C14.2156 3.91938 14.2386 4.14192 14.2386 4.36445C14.2386 4.58698 14.2156 4.80952 14.1718 5.02443C14.1285 5.23447 14.0646 5.43979 13.9812 5.63747C13.8989 5.83249 13.7973 6.01885 13.6779 6.1938C13.5092 6.44359 13.5749 6.78286 13.8257 6.95083C13.916 7.01151 14.0224 7.0438 14.1313 7.04354C14.221 7.0437 14.3094 7.0219 14.3886 6.98006C14.4679 6.93821 14.5356 6.87761 14.5858 6.80357C14.7446 6.57008 14.88 6.32162 14.99 6.06178C15.1021 5.79819 15.1876 5.52412 15.2452 5.24364C15.3044 4.95429 15.3342 4.65971 15.3339 4.3644H20.0358L18.7807 5.61451C18.5671 5.82723 18.5671 6.17304 18.7807 6.38576C18.8869 6.49268 19.0271 6.54611 19.1673 6.54611C19.3075 6.54611 19.4477 6.49268 19.555 6.38683L21.7445 4.20624C21.7952 4.15509 21.8358 4.09475 21.8638 4.02845C21.8915 3.96245 21.9057 3.89163 21.9057 3.82011C21.9057 3.74859 21.8915 3.67777 21.8638 3.61176C21.8368 3.5449 21.7962 3.48435 21.7445 3.43397L19.555 1.25338C19.3415 1.04067 18.9943 1.04067 18.7807 1.25338C18.5671 1.4661 18.5671 1.81192 18.7807 2.02463L20.0358 3.27367H15.1784C15.1247 3.06857 15.0722 2.8624 14.9889 2.66498C14.8784 2.40536 14.7431 2.15695 14.5847 1.92318C14.4272 1.69182 14.2482 1.47562 14.0502 1.27742C13.8515 1.08037 13.6348 0.902149 13.4029 0.745066C13.1685 0.58693 12.919 0.452109 12.6582 0.342543C12.3935 0.230826 12.1183 0.145677 11.8367 0.0883587C11.2606 -0.0294529 10.6473 -0.0294529 10.0712 0.0883587C9.78882 0.14563 9.51291 0.230779 9.24751 0.342543C8.98686 0.454884 8.73601 0.590183 8.50272 0.747265C8.27042 0.904216 8.05335 1.08244 7.85434 1.27962C7.6565 1.47755 7.47756 1.69337 7.31984 1.92431C7.16232 2.15855 7.02702 2.40689 6.91569 2.6661C6.83247 2.86245 6.7799 3.06862 6.72732 3.27372H1.86987L3.12503 2.02361C3.33861 1.81089 3.33861 1.46508 3.12503 1.25236C2.91146 1.03965 2.56424 1.03965 2.35067 1.25236L0.161262 3.4328C0.110466 3.48395 0.0699505 3.54429 0.0418959 3.61059C0.0142399 3.6766 0 3.74741 0 3.81893C0 3.89046 0.0142399 3.96127 0.0418959 4.02728C0.0688784 4.09414 0.109528 4.15469 0.161262 4.20507L2.35067 6.38566C2.40149 6.43652 2.46191 6.47687 2.52845 6.50439C2.59499 6.53191 2.66634 6.54606 2.73839 6.54601C2.8786 6.54601 3.01876 6.49258 3.12611 6.38673C3.22869 6.28418 3.28629 6.14533 3.28629 6.00057C3.28629 5.85581 3.22869 5.71696 3.12611 5.61441L1.86987 4.3644Z" fill="#00BDC2"/>
<path d="M21.3601 12.0372C20.7851 11.8932 20.186 11.9903 19.715 12.2608V11.9685C19.715 10.7708 18.7325 9.79773 17.5245 9.79773C17.1258 9.79773 16.7512 9.90353 16.4292 10.089V9.79773C16.4292 8.59451 15.4468 7.61602 14.2387 7.61602C13.854 7.61554 13.476 7.7168 13.1434 7.90947V4.35436C13.1434 3.15769 12.161 2.18359 10.9529 2.18359C9.74481 2.18359 8.76237 3.15774 8.76237 4.35436V11.1482C8.4535 10.9758 8.09535 10.8776 7.71092 10.8776C7.0264 10.8776 6.45354 11.122 6.05268 11.5834C5.57403 12.1354 5.37909 12.9732 5.51489 13.8829C6.09868 17.6944 7.49072 20.9058 9.6506 23.4279C9.96275 23.7922 10.4228 24.0006 10.9123 24.0006H19.4882C20.1519 24.0006 20.7467 23.6144 21.0008 23.0145C22.2417 20.0801 22.97 16.9036 22.9996 14.303C23.0128 13.2143 22.3381 12.2827 21.3601 12.0372ZM19.991 22.5901C19.9089 22.7843 19.7117 22.9097 19.4872 22.9097H10.9113C10.7448 22.9097 10.586 22.84 10.4842 22.721C8.45684 20.355 7.1491 17.3268 6.59709 13.7204C6.50945 13.1357 6.61573 12.6034 6.88075 12.2958C7.07132 12.0755 7.34296 11.9686 7.70876 11.9686C8.29799 11.9686 8.76021 12.4474 8.76021 13.0594C8.76021 13.3605 9.00556 13.6048 9.30786 13.6048C9.61015 13.6048 9.8555 13.3605 9.8555 13.0594V4.35436C9.85771 3.76965 10.3593 3.27443 10.953 3.27443C11.5466 3.27443 12.0482 3.76965 12.0482 4.35436V9.79768C12.0482 10.0988 12.2936 10.3431 12.5958 10.3431C12.8981 10.3431 13.1435 10.0988 13.1435 9.79768C13.1435 9.19661 13.6353 8.70685 14.2387 8.70685C14.8422 8.70685 15.334 9.19666 15.334 9.79768V11.9685C15.334 12.2695 15.5793 12.5139 15.8816 12.5139C16.1839 12.5139 16.4293 12.2695 16.4293 11.9685C16.4293 11.3827 16.9309 10.8885 17.5245 10.8885C18.1181 10.8885 18.6197 11.3837 18.6197 11.9685V14.1392C18.6197 14.4403 18.8651 14.6847 19.1674 14.6847C19.4697 14.6847 19.715 14.4403 19.715 14.1392C19.715 13.4618 20.4061 12.9284 21.0918 13.0942C21.5693 13.2142 21.911 13.7171 21.9044 14.2898C21.877 16.7192 21.1618 19.8226 19.991 22.5901Z" fill="#00BDC2"/>
</svg>
