<svg width="19" height="19" viewBox="0 0 19 19" fill="none" xmlns="http://www.w3.org/2000/svg">
<path fill-rule="evenodd" clip-rule="evenodd" d="M9.49917 6.53125C7.85957 6.53125 6.53042 7.8604 6.53042 9.5C6.53042 11.1396 7.85957 12.4687 9.49917 12.4687C11.1388 12.4687 12.4679 11.1396 12.4679 9.5C12.4679 7.8604 11.1388 6.53125 9.49917 6.53125ZM7.71792 9.5C7.71792 8.51624 8.51541 7.71875 9.49917 7.71875C10.4829 7.71875 11.2804 8.51624 11.2804 9.5C11.2804 10.4838 10.4829 11.2812 9.49917 11.2812C8.51541 11.2812 7.71792 10.4838 7.71792 9.5Z" fill="currentColor"/>
<path fill-rule="evenodd" clip-rule="evenodd" d="M9.47917 0.989578C9.1273 0.989573 8.83356 0.989568 8.59241 1.00602C8.34137 1.02315 8.10425 1.06008 7.87436 1.1553C7.34091 1.37626 6.91709 1.80008 6.69613 2.33353C6.5811 2.61124 6.54994 2.90392 6.53805 3.22205C6.52848 3.47778 6.39942 3.69115 6.20896 3.80111C6.0185 3.91107 5.76919 3.91616 5.54294 3.79658C5.26148 3.64781 4.99243 3.52845 4.69441 3.48921C4.12195 3.41385 3.543 3.56898 3.08492 3.92048C2.88751 4.07195 2.73696 4.25885 2.59661 4.46769C2.46179 4.66831 2.31492 4.92269 2.13899 5.22742L2.119 5.26205C1.94306 5.56677 1.79619 5.82115 1.68987 6.03822C1.57918 6.26419 1.4926 6.48801 1.46012 6.73471C1.38475 7.30717 1.53988 7.88612 1.89138 8.3442C2.07435 8.58265 2.3122 8.75595 2.58172 8.9253C2.79846 9.06149 2.91874 9.28 2.91872 9.49998C2.91871 9.71994 2.79844 9.93842 2.58172 10.0746C2.31217 10.2439 2.07429 10.4173 1.8913 10.6557C1.5398 11.1138 1.38467 11.6928 1.46004 12.2652C1.49252 12.5119 1.5791 12.7357 1.68979 12.9617C1.79611 13.1788 1.94298 13.4332 2.11892 13.7379L2.13891 13.7725C2.31484 14.0772 2.46171 14.3316 2.59654 14.5322C2.73689 14.7411 2.88743 14.928 3.08484 15.0795C3.54292 15.431 4.12187 15.5861 4.69433 15.5107C4.99234 15.4715 5.26137 15.3521 5.54281 15.2034C5.76909 15.0838 6.01844 15.0889 6.20892 15.1989C6.39941 15.3088 6.52848 15.5222 6.53805 15.778C6.54995 16.0961 6.5811 16.3888 6.69613 16.6665C6.91709 17.1999 7.34091 17.6237 7.87436 17.8447C8.10425 17.9399 8.34137 17.9768 8.59241 17.994C8.83356 18.0104 9.1273 18.0104 9.47916 18.0104H9.51915C9.87102 18.0104 10.1648 18.0104 10.4059 17.994C10.6569 17.9768 10.8941 17.9399 11.124 17.8447C11.6574 17.6237 12.0812 17.1999 12.3022 16.6665C12.4172 16.3887 12.4484 16.0961 12.4603 15.7779C12.4698 15.5222 12.5989 15.3088 12.7893 15.1988C12.9798 15.0888 13.2292 15.0838 13.4555 15.2033C13.7369 15.3521 14.0059 15.4714 14.3039 15.5107C14.8764 15.586 15.4553 15.4309 15.9134 15.0794C16.1108 14.9279 16.2614 14.741 16.4017 14.5322C16.5365 14.3316 16.6834 14.0772 16.8593 13.7725L16.8793 13.7379C17.0552 13.4332 17.2021 13.1787 17.3085 12.9617C17.4191 12.7357 17.5057 12.5119 17.5382 12.2652C17.6136 11.6927 17.4584 11.1138 17.1069 10.6557C16.924 10.4172 16.6861 10.2439 16.4166 10.0745C16.1998 9.93839 16.0796 9.7199 16.0796 9.49995C16.0796 9.28003 16.1999 9.06158 16.4165 8.92544C16.6861 8.75606 16.924 8.58274 17.107 8.34426C17.4585 7.88618 17.6136 7.30723 17.5383 6.73477C17.5058 6.48806 17.4192 6.26424 17.3085 6.03828C17.2022 5.82122 17.0554 5.56686 16.8794 5.26217L16.8594 5.22751C16.6835 4.92278 16.5366 4.66836 16.4018 4.46774C16.2614 4.2589 16.1109 4.07201 15.9135 3.92053C15.4554 3.56903 14.8764 3.4139 14.304 3.48927C14.006 3.5285 13.7369 3.64785 13.4555 3.7966C13.2292 3.9162 12.9799 3.91111 12.7894 3.80114C12.5989 3.69116 12.4698 3.47777 12.4603 3.222C12.4484 2.90389 12.4172 2.61123 12.3022 2.33353C12.0812 1.80008 11.6574 1.37626 11.124 1.1553C10.8941 1.06008 10.6569 1.02315 10.4059 1.00602C10.1648 0.989568 9.87101 0.989573 9.51915 0.989578H9.47917ZM8.32879 2.25241C8.38987 2.22711 8.48267 2.20377 8.67325 2.19077C8.86915 2.1774 9.12216 2.17708 9.49916 2.17708C9.87615 2.17708 10.1292 2.1774 10.3251 2.19077C10.5156 2.20377 10.6084 2.22711 10.6695 2.25241C10.912 2.35284 11.1046 2.54549 11.2051 2.78796C11.2368 2.86445 11.263 2.98369 11.2736 3.26639C11.2971 3.89369 11.6208 4.49768 12.1956 4.82954C12.7704 5.16141 13.4554 5.13981 14.0104 4.84648C14.2605 4.71429 14.3769 4.67741 14.459 4.66661C14.7192 4.63235 14.9824 4.70286 15.1906 4.86264C15.243 4.90288 15.3096 4.97158 15.4162 5.13012C15.5257 5.2931 15.6525 5.51205 15.841 5.83854C16.0295 6.16502 16.1557 6.3843 16.2421 6.56064C16.3261 6.73219 16.3523 6.82422 16.3609 6.88977C16.3952 7.14997 16.3247 7.41313 16.1649 7.62135C16.1145 7.68704 16.0244 7.76941 15.7848 7.91994C15.2533 8.25388 14.8921 8.83622 14.8921 9.49989C14.8921 10.1636 15.2532 10.7461 15.7848 11.08C16.0243 11.2305 16.1144 11.3129 16.1648 11.3786C16.3246 11.5868 16.3951 11.85 16.3609 12.1102C16.3522 12.1757 16.326 12.2677 16.242 12.4393C16.1556 12.6156 16.0294 12.8349 15.8409 13.1614C15.6524 13.4879 15.5256 13.7068 15.4161 13.8698C15.3096 14.0284 15.2429 14.0971 15.1905 14.1373C14.9823 14.2971 14.7191 14.3676 14.4589 14.3333C14.3768 14.3225 14.2604 14.2857 14.0103 14.1535C13.4553 13.8601 12.7703 13.8386 12.1955 14.1705C11.6208 14.5023 11.2971 15.1063 11.2736 15.7335C11.263 16.0163 11.2368 16.1355 11.2051 16.212C11.1046 16.4545 10.912 16.6471 10.6695 16.7476C10.6084 16.7729 10.5156 16.7962 10.3251 16.8092C10.1292 16.8226 9.87615 16.8229 9.49916 16.8229C9.12216 16.8229 8.86915 16.8226 8.67325 16.8092C8.48267 16.7962 8.38987 16.7729 8.32879 16.7476C8.08632 16.6471 7.89367 16.4545 7.79324 16.212C7.76155 16.1355 7.73529 16.0163 7.72472 15.7336C7.70126 15.1063 7.37747 14.5023 6.80267 14.1704C6.22787 13.8386 5.5429 13.8602 4.98792 14.1535C4.7378 14.2857 4.62141 14.3226 4.53933 14.3334C4.27912 14.3676 4.01596 14.2971 3.80774 14.1374C3.75529 14.0971 3.68869 14.0284 3.58214 13.8699C3.47261 13.7069 3.34582 13.4879 3.15733 13.1615C2.96883 12.835 2.8426 12.6157 2.75623 12.4393C2.6722 12.2678 2.64601 12.1758 2.63738 12.1102C2.60312 11.85 2.67364 11.5869 2.83341 11.3786C2.88381 11.313 2.97394 11.2306 3.21349 11.0801C3.745 10.7461 4.10619 10.1638 4.10622 9.50005C4.10626 8.83627 3.74506 8.25381 3.2135 7.91981C2.974 7.76933 2.88388 7.68697 2.83349 7.6213C2.67371 7.41308 2.6032 7.14992 2.63746 6.88971C2.64609 6.82417 2.67228 6.73213 2.7563 6.56059C2.84268 6.38424 2.96891 6.16497 3.1574 5.83848C3.3459 5.512 3.47269 5.29304 3.58222 5.13007C3.68876 4.97152 3.75537 4.90283 3.80782 4.86258C4.01604 4.70281 4.2792 4.6323 4.53941 4.66655C4.62149 4.67736 4.73789 4.71424 4.98804 4.84645C5.543 5.13977 6.22793 5.16136 6.8027 4.82952C7.37748 4.49767 7.70126 3.8937 7.72472 3.26643C7.73529 2.9837 7.76155 2.86446 7.79324 2.78797C7.89367 2.54549 8.08632 2.35284 8.32879 2.25241Z" fill="currentColor"/>
</svg>
