<svg width="20" height="20" viewBox="0 0 20 20" fill="none" xmlns="http://www.w3.org/2000/svg">
<path d="M7.82851 6.81271C8.06947 6.59029 8.08449 6.21465 7.86207 5.97369C7.63965 5.73273 7.26401 5.71771 7.02305 5.94013L5.2418 7.58436C5.12003 7.69676 5.05078 7.85494 5.05078 8.02065C5.05078 8.18636 5.12003 8.34454 5.2418 8.45694L7.02305 10.1012C7.26401 10.3236 7.63965 10.3086 7.86207 10.0676C8.08449 9.82665 8.06947 9.45101 7.82851 9.22859L7.16314 8.6144H11.6125C12.798 8.6144 13.7591 9.57548 13.7591 10.761C13.7591 11.9466 12.798 12.9077 11.6125 12.9077H8.01953C7.69162 12.9077 7.42578 13.1735 7.42578 13.5014C7.42578 13.8293 7.69162 14.0952 8.01953 14.0952H11.6125C13.4539 14.0952 14.9466 12.6024 14.9466 10.761C14.9466 8.91964 13.4539 7.4269 11.6125 7.4269H7.16314L7.82851 6.81271Z" fill="currentColor"/>
<path fill-rule="evenodd" clip-rule="evenodd" d="M9.95327 1.48958C8.1258 1.48957 6.69364 1.48956 5.57621 1.63979C4.43247 1.79357 3.52995 2.11446 2.82156 2.82285C2.11316 3.53124 1.79227 4.43376 1.6385 5.57751C1.48826 6.69494 1.48827 8.12709 1.48828 9.95457V10.0454C1.48827 11.8729 1.48826 13.3051 1.6385 14.4225C1.79227 15.5662 2.11316 16.4687 2.82156 17.1771C3.52995 17.8855 4.43247 18.2064 5.57621 18.3602C6.69364 18.5104 8.1258 18.5104 9.95328 18.5104H10.0441C11.8716 18.5104 13.3038 18.5104 14.4212 18.3602C15.5649 18.2064 16.4675 17.8855 17.1758 17.1771C17.8842 16.4687 18.2051 15.5662 18.3589 14.4225C18.5091 13.3051 18.5091 11.8729 18.5091 10.0454V9.95458C18.5091 8.1271 18.5091 6.69494 18.3589 5.57751C18.2051 4.43376 17.8842 3.53124 17.1758 2.82285C16.4675 2.11446 15.5649 1.79357 14.4212 1.63979C13.3038 1.48956 11.8716 1.48957 10.0441 1.48958H9.95327ZM3.66125 3.66254C4.11222 3.21156 4.72238 2.95277 5.73445 2.81671C6.7636 2.67834 8.11594 2.67708 9.9987 2.67708C11.8815 2.67708 13.2338 2.67834 14.263 2.81671C15.275 2.95277 15.8852 3.21156 16.3362 3.66254C16.7871 4.11352 17.0459 4.72367 17.182 5.73574C17.3204 6.76489 17.3216 8.11723 17.3216 10C17.3216 11.8828 17.3204 13.2351 17.182 14.2642C17.0459 15.2763 16.7871 15.8865 16.3362 16.3374C15.8852 16.7884 15.275 17.0472 14.263 17.1833C13.2338 17.3217 11.8815 17.3229 9.9987 17.3229C8.11594 17.3229 6.7636 17.3217 5.73445 17.1833C4.72238 17.0472 4.11222 16.7884 3.66125 16.3374C3.21027 15.8865 2.95148 15.2763 2.81541 14.2642C2.67704 13.2351 2.67578 11.8828 2.67578 10C2.67578 8.11723 2.67704 6.76489 2.81541 5.73574C2.95148 4.72367 3.21027 4.11352 3.66125 3.66254Z" fill="currentColor"/>
</svg>
