<svg width="19" height="20" viewBox="0 0 19 20" fill="none" xmlns="http://www.w3.org/2000/svg">
<path fill-rule="evenodd" clip-rule="evenodd" d="M9.4987 1.48959C7.42188 1.48959 5.73828 3.17319 5.73828 5.25001C5.73828 7.32683 7.42188 9.01043 9.4987 9.01043C11.5755 9.01043 13.2591 7.32683 13.2591 5.25001C13.2591 3.17319 11.5755 1.48959 9.4987 1.48959ZM6.92578 5.25001C6.92578 3.82903 8.07772 2.67709 9.4987 2.67709C10.9197 2.67709 12.0716 3.82903 12.0716 5.25001C12.0716 6.67099 10.9197 7.82293 9.4987 7.82293C8.07772 7.82293 6.92578 6.67099 6.92578 5.25001Z" fill="currentColor"/>
<path d="M14.926 13.6202C15.1613 13.8486 15.1669 14.2245 14.9385 14.4598L13.4873 15.9552C13.37 16.076 13.207 16.1414 13.0388 16.135C12.8705 16.1286 12.7129 16.0512 12.6051 15.9218L11.9453 15.1302C11.7353 14.8783 11.7693 14.5039 12.0212 14.2939C12.2731 14.084 12.6475 14.118 12.8574 14.3699L13.0947 14.6546L14.0864 13.6328C14.3148 13.3975 14.6907 13.3919 14.926 13.6202Z" fill="currentColor"/>
<path fill-rule="evenodd" clip-rule="evenodd" d="M11.0114 17.6066C10.5271 17.6799 10.0202 17.7188 9.4987 17.7188C7.88422 17.7188 6.3934 17.3461 5.28557 16.713C4.19453 16.0896 3.36328 15.1378 3.36328 13.9583C3.36328 12.7789 4.19453 11.8271 5.28557 11.2037C6.3934 10.5706 7.88422 10.1979 9.4987 10.1979C10.9272 10.1979 12.2557 10.4895 13.308 10.9925C13.3574 10.9906 13.4071 10.9896 13.457 10.9896C15.5339 10.9896 17.2174 12.6732 17.2174 14.75C17.2174 16.8268 15.5339 18.5104 13.457 18.5104C12.5232 18.5104 11.6689 18.17 11.0114 17.6066ZM10.8841 14.75C10.8841 13.329 12.036 12.1771 13.457 12.1771C14.878 12.1771 16.0299 13.329 16.0299 14.75C16.0299 16.171 14.878 17.3229 13.457 17.3229C12.036 17.3229 10.8841 16.171 10.8841 14.75ZM11.4126 11.5934C10.3798 12.2637 9.69661 13.427 9.69661 14.75C9.69661 15.3856 9.85432 15.9844 10.1327 16.5094C9.92523 16.5238 9.71363 16.5313 9.4987 16.5313C8.05259 16.5313 6.77259 16.1951 5.87473 15.682C4.96008 15.1593 4.55078 14.5278 4.55078 13.9583C4.55078 13.3889 4.96008 12.7573 5.87473 12.2347C6.77259 11.7216 8.05259 11.3854 9.4987 11.3854C10.1804 11.3854 10.8261 11.4602 11.4126 11.5934Z" fill="currentColor"/>
</svg>
