<svg width="19" height="19" viewBox="0 0 19 19" fill="none" xmlns="http://www.w3.org/2000/svg">
<path d="M15.0404 9.5C15.0404 9.93723 14.6859 10.2917 14.2487 10.2917C13.8115 10.2917 13.457 9.93723 13.457 9.5C13.457 9.06277 13.8115 8.70833 14.2487 8.70833C14.6859 8.70833 15.0404 9.06277 15.0404 9.5Z" fill="currentColor"/>
<path fill-rule="evenodd" clip-rule="evenodd" d="M7.8707 2.57292H10.335C11.7899 2.5729 12.9423 2.57289 13.8442 2.69415C14.7723 2.81894 15.5236 3.08186 16.116 3.67432C16.8479 4.40612 17.0811 5.38621 17.1657 6.65798C17.6227 6.85908 17.9678 7.28436 18.0058 7.82308C18.0092 7.87074 18.0091 7.9221 18.0091 7.96972C18.0091 7.97406 18.0091 7.97837 18.0091 7.98264V11.0174C18.0091 11.0216 18.0091 11.0259 18.0091 11.0303C18.0091 11.0779 18.0092 11.1293 18.0058 11.1769C17.9678 11.7156 17.6227 12.1409 17.1657 12.342C17.0811 13.6138 16.8479 14.5939 16.116 15.3257C15.5236 15.9181 14.7723 16.1811 13.8442 16.3059C12.9423 16.4271 11.7899 16.4271 10.335 16.4271H7.87071C6.41581 16.4271 5.26343 16.4271 4.36156 16.3059C3.43339 16.1811 2.68214 15.9181 2.08968 15.3257C1.49723 14.7332 1.2343 13.982 1.10951 13.0538C0.988259 12.1519 0.988269 10.9996 0.988282 9.54466V9.45534C0.988269 8.00044 0.988259 6.84807 1.10951 5.94619C1.2343 5.01802 1.49723 4.26677 2.08968 3.67432C2.68214 3.08186 3.43339 2.81894 4.36156 2.69415C5.26343 2.57289 6.41581 2.5729 7.8707 2.57292ZM15.965 12.4688H14.4314C12.7331 12.4688 11.2799 11.1803 11.2799 9.5C11.2799 7.81973 12.7331 6.53125 14.4314 6.53125H15.965C15.8749 5.46926 15.671 4.90868 15.2764 4.51401C14.9413 4.17897 14.4824 3.97814 13.6859 3.87106C12.8724 3.76168 11.7999 3.76042 10.2904 3.76042H7.91536C6.4058 3.76042 5.33335 3.76168 4.51979 3.87106C3.7233 3.97814 3.26441 4.17897 2.92937 4.51401C2.59433 4.84905 2.39351 5.30793 2.28642 6.10442C2.17704 6.91799 2.17578 7.99043 2.17578 9.5C2.17578 11.0096 2.17704 12.082 2.28642 12.8956C2.39351 13.6921 2.59433 14.151 2.92937 14.486C3.26441 14.821 3.7233 15.0219 4.51979 15.1289C5.33335 15.2383 6.4058 15.2396 7.91537 15.2396H10.2904C11.7999 15.2396 12.8724 15.2383 13.6859 15.1289C14.4824 15.0219 14.9413 14.821 15.2764 14.486C15.671 14.0913 15.8749 13.5307 15.965 12.4688ZM4.15495 6.33333C4.15495 6.00541 4.42078 5.73958 4.7487 5.73958H7.91537C8.24328 5.73958 8.50912 6.00541 8.50912 6.33333C8.50912 6.66125 8.24328 6.92708 7.91537 6.92708H4.7487C4.42078 6.92708 4.15495 6.66125 4.15495 6.33333ZM16.5632 7.71893C16.5471 7.71876 16.526 7.71875 16.4918 7.71875H14.4314C13.3045 7.71875 12.4674 8.55691 12.4674 9.5C12.4674 10.4431 13.3045 11.2812 14.4314 11.2812H16.4918C16.526 11.2812 16.5471 11.2812 16.5632 11.2811C16.573 11.281 16.5783 11.2808 16.5807 11.2807L16.5825 11.2807C16.7457 11.2707 16.8159 11.1606 16.8212 11.0943C16.8212 11.0943 16.8213 11.0893 16.8214 11.0822C16.8216 11.0682 16.8216 11.0494 16.8216 11.0174V7.98264C16.8216 7.95057 16.8216 7.93184 16.8214 7.9178C16.8213 7.91064 16.8212 7.90566 16.8212 7.90566C16.8159 7.83942 16.7457 7.72928 16.5825 7.71935C16.5825 7.71935 16.5786 7.71909 16.5632 7.71893Z" fill="currentColor"/>
</svg>
