<svg width="19" height="19" viewBox="0 0 19 19" fill="none" xmlns="http://www.w3.org/2000/svg">
<g clip-path="url(#clip0_564_1792)">
<path d="M5.54036 4.75C5.54036 5.18723 5.18592 5.54167 4.7487 5.54167C4.31147 5.54167 3.95703 5.18723 3.95703 4.75C3.95703 4.31278 4.31147 3.95834 4.7487 3.95834C5.18592 3.95834 5.54036 4.31278 5.54036 4.75Z" fill="currentColor"/>
<path d="M7.91536 4.75C7.91536 5.18723 7.56092 5.54167 7.1237 5.54167C6.68647 5.54167 6.33203 5.18723 6.33203 4.75C6.33203 4.31278 6.68647 3.95834 7.1237 3.95834C7.56092 3.95834 7.91536 4.31278 7.91536 4.75Z" fill="currentColor"/>
<path d="M9.4987 5.54167C9.93592 5.54167 10.2904 5.18723 10.2904 4.75C10.2904 4.31278 9.93592 3.95834 9.4987 3.95834C9.06147 3.95834 8.70703 4.31278 8.70703 4.75C8.70703 5.18723 9.06147 5.54167 9.4987 5.54167Z" fill="currentColor"/>
<path fill-rule="evenodd" clip-rule="evenodd" d="M9.45327 0.989586C7.6258 0.989576 6.19364 0.989568 5.07622 1.1398C3.93247 1.29358 3.02995 1.61447 2.32156 2.32286C1.61316 3.03125 1.29227 3.93377 1.1385 5.07752C1.04952 5.73931 1.01324 6.51149 0.998455 7.41081C0.991775 7.44647 0.988281 7.48324 0.988281 7.52084C0.988281 7.55242 0.990748 7.58343 0.995498 7.61368C0.988274 8.17761 0.988278 8.78995 0.988281 9.45458V9.54543C0.988271 11.3729 0.988263 12.8051 1.1385 13.9225C1.29227 15.0662 1.61316 15.9688 2.32156 16.6771C3.02995 17.3855 3.93247 17.7064 5.07622 17.8602C6.19364 18.0104 7.6258 18.0104 9.45328 18.0104H9.54412C11.3716 18.0104 12.8038 18.0104 13.9212 17.8602C15.0649 17.7064 15.9675 17.3855 16.6758 16.6771C17.3842 15.9688 17.7051 15.0662 17.8589 13.9225C18.0091 12.8051 18.0091 11.3729 18.0091 9.54542V9.45458C18.0091 8.78995 18.0091 8.17761 18.0019 7.61368C18.0066 7.58343 18.0091 7.55242 18.0091 7.52084C18.0091 7.48324 18.0056 7.44647 17.9989 7.41081C17.9842 6.51149 17.9479 5.73931 17.8589 5.07752C17.7051 3.93377 17.3842 3.03125 16.6758 2.32286C15.9675 1.61447 15.0649 1.29358 13.9212 1.1398C12.8038 0.989568 11.3716 0.989576 9.54412 0.989586H9.45327ZM2.17578 9.5C2.17578 9.00243 2.17587 8.54189 2.17855 8.11459H6.52995L6.52995 16.625C6.52995 16.6818 6.53793 16.7368 6.55284 16.7888C6.05961 16.7684 5.62389 16.7357 5.23445 16.6833C4.22238 16.5472 3.61222 16.2884 3.16125 15.8375C2.71027 15.3865 2.45148 14.7763 2.31541 13.7643C2.17704 12.7351 2.17578 11.3828 2.17578 9.5ZM7.68593 16.8164C8.2296 16.8228 8.83077 16.8229 9.4987 16.8229C11.3815 16.8229 12.7338 16.8217 13.7629 16.6833C14.775 16.5472 15.3852 16.2884 15.8362 15.8375C16.2871 15.3865 16.5459 14.7763 16.682 13.7643C16.8204 12.7351 16.8216 11.3828 16.8216 9.5C16.8216 9.00243 16.8215 8.54189 16.8188 8.11459H7.71745L7.71745 16.625C7.71745 16.692 7.70636 16.7563 7.68593 16.8164ZM2.31541 5.23575C2.25022 5.72058 2.21547 6.27714 2.19694 6.92709H16.8005C16.7819 6.27714 16.7472 5.72058 16.682 5.23575C16.5459 4.22368 16.2871 3.61353 15.8362 3.16255C15.3852 2.71157 14.775 2.45278 13.7629 2.31671C12.7338 2.17835 11.3815 2.17709 9.4987 2.17709C7.61594 2.17709 6.2636 2.17835 5.23445 2.31671C4.22238 2.45278 3.61222 2.71157 3.16125 3.16255C2.71027 3.61353 2.45148 4.22368 2.31541 5.23575Z" fill="currentColor"/>
</g>
<defs>
<clipPath id="clip0_564_1792">
<rect width="19" height="19" rx="5" fill="white"/>
</clipPath>
</defs>
</svg>
