<svg width="17" height="17" viewBox="0 0 17 17" fill="none" xmlns="http://www.w3.org/2000/svg">
<path d="M4.46094 16.0003V14.2695" stroke="black" stroke-linecap="round" stroke-linejoin="round"/>
<path d="M12.8271 16.0003V14.2695" stroke="black" stroke-linecap="round" stroke-linejoin="round"/>
<path d="M2.5625 7.3457C3.36508 7.3457 4.02633 7.96631 4.11491 8.76517C4.12836 8.88644 4.13593 9.00866 4.15767 9.12871V9.12871C4.3336 10.1005 5.17973 10.8072 6.16735 10.8072H10.8326C11.8203 10.8072 12.6664 10.1005 12.8423 9.12871V9.12871C12.8641 9.00866 12.8716 8.88644 12.8851 8.76517C12.9737 7.96631 13.6349 7.3457 14.4375 7.3457C15.3004 7.3457 16 8.06318 16 8.94827C16 9.47219 15.8443 9.97513 15.6311 10.4877C14.7829 12.5275 12.6466 14.2688 10.4375 14.2688H6.5625C4.35336 14.2688 2.21711 12.5275 1.3689 10.4877C1.15575 9.97513 1 9.47219 1 8.94827C1 8.06318 1.69956 7.3457 2.5625 7.3457Z" stroke="black"/>
<path d="M14.2695 7.34615L14.2695 4C14.2695 2.34315 12.9264 1 11.2695 1L5.73107 1.00001C4.07422 1.00001 2.73107 2.34316 2.73107 4.00001L2.73107 7.34615" stroke="black" stroke-linecap="round" stroke-linejoin="round"/>
</svg>
