<svg width="74" height="73" viewBox="0 0 74 73" fill="none" xmlns="http://www.w3.org/2000/svg">
<path d="M44.721 50.087L41.3566 48.0869L40.2124 43.6692L43.5768 45.6693L44.721 50.087Z" fill="#E74C3C"/>
<path d="M60.9699 15.5394L57.6055 13.5392L62.0177 12.2922L65.3821 14.2924L60.9699 15.5394Z" fill="#E74C3C"/>
<path d="M55.2433 22.8436C55.2537 28.0707 51.5751 34.4513 47.0235 37.0804C44.7372 38.4002 42.6589 38.5249 41.1625 37.6519L37.7969 35.6551C39.2933 36.5279 41.3717 36.4032 43.6578 35.0835C48.2094 32.4544 51.8881 26.0738 51.8777 20.8363C51.8673 18.2384 50.9529 16.4094 49.4668 15.5469L52.8324 17.5542C54.3185 18.4063 55.2329 20.2456 55.2433 22.8436Z" fill="#E74C3C"/>
<path d="M58.3048 4.20179L54.9404 2.20166L56.3216 3.01191L61.6202 6.09113L58.3048 4.20179Z" fill="#E74C3C"/>
<path d="M32.3732 49.1119L29.0088 47.1117L31.3148 41.2715L34.6792 43.2716L32.3732 49.1119Z" fill="#E74C3C"/>
<path d="M54.3952 9.12374L51.0308 7.12361L54.9407 2.20166L58.3051 4.20179L54.3952 9.12374Z" fill="#D8463F"/>
<path d="M34.6803 43.2717L31.3159 41.2716C30.5771 40.2999 30.0153 39.0902 29.6636 37.6614L33.028 39.6615C33.3797 41.0903 33.9416 42.3001 34.6803 43.2717Z" fill="#CC4444"/>
<path d="M50.4167 9.52953L47.0522 7.52941C48.4749 7.10752 49.8096 6.9786 51.0305 7.12367L54.3949 9.1238C53.174 8.97873 51.8393 9.10765 50.4167 9.52953Z" fill="#CC4444"/>
<path d="M33.0041 31.6852L29.6396 29.6851C29.9821 27.8555 30.5353 25.9978 31.2661 24.1777L34.6305 26.1779C33.8997 27.9979 33.3465 29.8556 33.0041 31.6852Z" fill="#CC4444"/>
<path d="M39.5221 17.7105L36.1577 15.7104C37.3738 14.1584 38.7049 12.7482 40.1216 11.5308L43.486 13.5309C42.0693 14.7483 40.7382 16.1585 39.5221 17.7105Z" fill="#CC4444"/>
<path d="M28.6111 40.9064L25.2467 38.9062L25.2314 33.5308L28.5959 35.5309L28.6111 40.9064Z" fill="#E74C3C"/>
<path d="M28.5959 35.5311L25.2314 33.531L29.64 29.6853L33.0044 31.6854L28.5959 35.5311Z" fill="#D8463F"/>
<path d="M44.6007 7.81707L41.2363 5.81694L45.9107 3.11816L49.2752 5.11829L44.6007 7.81707Z" fill="#E74C3C"/>
<path d="M43.485 13.5309L40.1206 11.5307L41.2361 5.81689L44.6005 7.81702L43.485 13.5309Z" fill="#D8463F"/>
<path d="M34.6305 26.1779L31.2661 24.1778L28.9346 21.0193L32.299 23.0194L34.6305 26.1779Z" fill="#D8463F"/>
<path d="M35.5963 17.3119L32.2319 15.3118L36.157 15.7102L39.5214 17.7103L35.5963 17.3119Z" fill="#D8463F"/>
<path d="M32.299 23.0192L28.9346 21.019L32.2321 15.3118L35.5965 17.3119L32.299 23.0192Z" fill="#E74C3C"/>
<path d="M65.397 19.6682L60.9922 23.516C60.6497 25.3456 60.0928 27.2012 59.3583 29.0234L61.6935 32.1841L58.3997 37.8934L54.4747 37.4908C53.2586 39.0385 51.9275 40.4488 50.5071 41.6683L49.3954 47.3885L44.7209 50.0873L43.5767 45.6695C42.1578 46.0936 40.823 46.2182 39.6022 46.0774L35.6923 51.0036L32.3732 49.1122L34.6792 43.2719C33.9405 42.3003 33.3786 41.0906 33.0269 39.6618L28.6109 40.9067L28.5957 35.5312L33.0043 31.6855C33.3467 29.8559 33.8999 27.9982 34.6307 26.1781L32.2992 23.0196L35.5967 17.3123L39.5218 17.7107C40.7378 16.1587 42.0689 14.7485 43.4856 13.5311L44.6011 7.81725L49.2755 5.11847L50.416 9.52983C51.8387 9.10795 53.1734 8.97903 54.3943 9.1241L58.3042 4.20215L61.6196 6.09148L59.3099 11.9338C60.0523 12.9033 60.6179 14.1109 60.9696 15.5397L65.3818 14.2927L65.397 19.6682ZM47.0214 37.0811C51.5777 34.4505 55.2579 28.0718 55.2431 22.8406C55.2282 17.6093 51.5239 15.4942 46.9677 18.1247C42.4188 20.751 38.7386 27.1297 38.7534 32.3609C38.7682 37.5921 42.4725 39.7074 47.0214 37.0811Z" fill="#C14242"/>
<path d="M19.2633 69.7307L17.374 68.6075L16.7314 66.1267L18.6208 67.2499L19.2633 69.7307Z" fill="#E74C3C"/>
<path d="M28.3874 50.3305L26.498 49.2073L28.9758 48.5071L30.8651 49.6303L28.3874 50.3305Z" fill="#E74C3C"/>
<path d="M25.1722 54.4322C25.178 57.3675 23.1122 60.9506 20.5562 62.4269C19.2724 63.1681 18.1053 63.2381 17.265 62.7479L15.375 61.6266C16.2153 62.1167 17.3824 62.0467 18.6662 61.3056C21.2222 59.8292 23.288 56.2462 23.2822 53.305C23.2764 51.8461 22.7628 50.8191 21.9283 50.3347L23.8183 51.4619C24.6528 51.9405 25.1663 52.9733 25.1722 54.4322Z" fill="#E74C3C"/>
<path d="M26.8917 43.9638L25.0024 42.8406L25.778 43.2956L28.7535 45.0247L26.8917 43.9638Z" fill="#E74C3C"/>
<path d="M12.3292 69.1833L10.4399 68.0601L11.7349 64.7805L13.6242 65.9037L12.3292 69.1833Z" fill="#E74C3C"/>
<path d="M24.6959 46.7277L22.8066 45.6045L25.0023 42.8406L26.8916 43.9638L24.6959 46.7277Z" fill="#D8463F"/>
<path d="M13.6243 65.9037L11.735 64.7805C11.3202 64.2349 11.0046 63.5555 10.8071 62.7532L12.6964 63.8764C12.8939 64.6787 13.2095 65.358 13.6243 65.9037Z" fill="#CC4444"/>
<path d="M22.4611 46.9555L20.5718 45.8323C21.3707 45.5954 22.1202 45.523 22.8058 45.6044L24.6951 46.7276C24.0095 46.6462 23.26 46.7185 22.4611 46.9555Z" fill="#CC4444"/>
<path d="M12.6847 59.397L10.7954 58.2738C10.9877 57.2464 11.2984 56.2032 11.7088 55.1812L13.5981 56.3043C13.1877 57.3264 12.877 58.3696 12.6847 59.397Z" fill="#CC4444"/>
<path d="M16.3434 51.5496L14.4541 50.4264C15.137 49.5549 15.8845 48.763 16.68 48.0793L18.5693 49.2025C17.7738 49.8862 17.0263 50.6781 16.3434 51.5496Z" fill="#CC4444"/>
<path d="M10.2167 64.5754L8.32741 63.4522L8.31885 60.4336L10.2082 61.5568L10.2167 64.5754Z" fill="#E74C3C"/>
<path d="M10.2082 61.5567L8.31885 60.4335L10.7945 58.2739L12.6838 59.3971L10.2082 61.5567Z" fill="#D8463F"/>
<path d="M19.1964 45.9937L17.3071 44.8705L19.9321 43.355L21.8214 44.4782L19.1964 45.9937Z" fill="#E74C3C"/>
<path d="M18.57 49.2027L16.6807 48.0795L17.3071 44.8708L19.1964 45.994L18.57 49.2027Z" fill="#D8463F"/>
<path d="M13.597 56.3046L11.7077 55.1814L10.3984 53.4077L12.2877 54.5309L13.597 56.3046Z" fill="#D8463F"/>
<path d="M14.1398 51.3258L12.2505 50.2026L14.4546 50.4264L16.3439 51.5495L14.1398 51.3258Z" fill="#D8463F"/>
<path d="M12.2877 54.5308L10.3984 53.4076L12.2502 50.2026L14.1395 51.3258L12.2877 54.5308Z" fill="#E74C3C"/>
<path d="M30.874 52.6489L28.4004 54.8097C28.2081 55.8371 27.8954 56.8791 27.4829 57.9024L28.7943 59.6773L26.9446 62.8834L24.7405 62.6573C24.0576 63.5265 23.3101 64.3184 22.5125 65.0032L21.8882 68.2154L19.2632 69.7309L18.6207 67.2501C17.8239 67.4883 17.0743 67.5583 16.3888 67.4792L14.1931 70.2455L12.3293 69.1834L13.6242 65.9037C13.2094 65.3581 12.8939 64.6788 12.6964 63.8764L10.2166 64.5755L10.208 61.5569L12.6837 59.3973C12.876 58.3699 13.1866 57.3267 13.597 56.3046L12.2877 54.5309L14.1395 51.326L16.3436 51.5497C17.0265 50.6781 17.774 49.8862 18.5695 49.2026L19.1959 45.9939L21.8209 44.4784L22.4613 46.9557C23.2602 46.7188 24.0098 46.6464 24.6953 46.7278L26.891 43.9639L28.7527 45.0248L27.4557 48.3056C27.8726 48.8501 28.1902 49.5282 28.3877 50.3305L30.8654 49.6303L30.874 52.6489ZM20.5551 62.4272C23.1137 60.95 25.1803 57.368 25.172 54.4304C25.1637 51.4928 23.0835 50.305 20.5249 51.7822C17.9704 53.257 15.9038 56.8389 15.9121 59.7766C15.9204 62.7142 18.0006 63.902 20.5551 62.4272Z" fill="#C14242"/>
</svg>
