<svg width="125" height="125" viewBox="0 0 125 125" fill="none" xmlns="http://www.w3.org/2000/svg">
<path d="M82.5532 100.843L76.3837 97.2576L63.9624 70.8L70.1318 74.3853L82.5532 100.843Z" fill="#DD4A4A"/>
<path d="M70.1318 74.3854L63.9624 70.8001L77.1841 56.7373L83.3535 60.3226L70.1318 74.3854Z" fill="#BF3F32"/>
<path d="M83.3538 60.3225L95.7724 86.7849L86.4553 88.0473L82.5534 100.843L70.1321 74.3853L83.3538 60.3225Z" fill="#F25A5A"/>
<path d="M53.0497 117.877L46.8803 114.292L42.9187 106.036L49.0881 109.621L53.0497 117.877Z" fill="#DD4A4A"/>
<path d="M52.0227 78.4117L45.8533 74.8264L59.1114 73.6011L65.2808 77.1864L52.0227 78.4117Z" fill="#B63C2F"/>
<path d="M39.7947 119.104L33.6252 115.519L45.8534 74.8264L52.0228 78.4117L39.7947 119.104Z" fill="#DD4A4A"/>
<path d="M42.1189 111.37L35.9495 107.785L45.8535 74.8264L52.0229 78.4117L42.1189 111.37Z" fill="#CC4848"/>
<path d="M52.0232 78.4117L46.7673 95.9017L40.5979 92.3164L45.8537 74.8264" fill="#DD4A4A"/>
<path d="M52.0226 78.4116L65.2807 77.1863L53.0497 117.877L49.0882 109.621L39.7944 119.104L52.0226 78.4116Z" fill="#F25A5A"/>
<path d="M67.0727 84.3752L58.127 79.1765L51.7544 75.468L60.7001 80.6667L67.0727 84.3752Z" fill="#796208"/>
<path d="M90.653 28.7856L81.7073 23.5869L88.1467 27.1796L97.0924 32.3783L90.653 28.7856Z" fill="#967A09"/>
<path d="M51.9974 88.4377L43.0517 83.239L40.7402 74.5132L49.6859 79.7118L51.9974 88.4377Z" fill="#EFC348"/>
<path d="M84.2631 19.8223L75.3174 14.6236L84.0657 12.2004L93.0114 17.3991L84.2631 19.8223Z" fill="#FFD651"/>
<path d="M40.9349 82.1399L31.9893 76.9412L34.3473 65.5547L43.293 70.7534L40.9349 82.1399Z" fill="#FFD651"/>
<path d="M73.2521 18.8659L64.3064 13.6672L73.0088 5.89624L81.9545 11.0949L73.2521 18.8659Z" fill="#EFC348"/>
<path d="M27.9153 61.9246L34.3044 50.9154L43.2533 56.1089L36.8641 67.118L27.9153 61.9246Z" fill="#EFC348"/>
<path d="M60.5455 26.1985L51.5999 20.9998L57.9307 9.96021L66.8763 15.1589L60.5455 26.1985Z" fill="#FFD651"/>
<path d="M40.8368 47.5189L31.8911 42.3202L40.6274 34.6519L49.5731 39.8505L40.8368 47.5189Z" fill="#EFC348"/>
<path d="M43.2516 56.153L34.3059 50.9544L31.8911 42.3203L40.8368 47.519L43.2516 56.153Z" fill="#FFD651"/>
<path d="M51.8248 28.4869L42.8792 23.2882L51.5999 21L60.5456 26.1987L51.8248 28.4869Z" fill="#EFC348"/>
<path d="M66.8763 15.1591L73.2517 18.866L81.9541 11.095L84.2628 19.8224L93.0112 17.3993L90.6531 28.7857L97.0926 32.3784L90.6945 43.3861L93.1093 52.0169L84.3758 59.6837L82.1213 71.0458L73.4033 73.3324L67.0726 84.3752L60.6999 80.6667L51.9976 88.4377L49.686 79.7118L40.9349 82.1398L43.293 70.7534L36.8535 67.1575L43.2516 56.153L40.8368 47.5189L49.573 39.8506L51.8248 28.4869L60.5455 26.1987L66.8763 15.1591Z" fill="#DDB040"/>
<path d="M49.5729 39.8504L40.6272 34.6518L42.8789 23.2881L51.8246 28.4867L49.5729 39.8504Z" fill="#FFD651"/>
<path d="M85.2577 34.3157C85.2665 34.5826 85.2709 34.8497 85.2709 35.1254C85.3015 47.0433 76.92 61.5654 66.5471 67.5571C57.6404 72.6998 50.1561 69.8768 48.2041 61.4297C48.6155 72.748 56.9007 77.1991 67.0329 71.3474C77.4058 65.36 85.7917 50.8379 85.7567 38.92C85.7523 37.2393 85.5772 35.6987 85.2577 34.3157Z" fill="#EFC348"/>
<path d="M66.5471 67.5571C76.92 61.5653 85.3015 47.0433 85.2709 35.1253C85.2709 34.8496 85.2665 34.5826 85.2578 34.3156C83.3057 25.8598 75.8214 23.0411 66.9104 28.1838C56.5375 34.1712 48.156 48.6889 48.191 60.6112C48.191 60.8869 48.1954 61.1627 48.2041 61.4296C50.1562 69.8768 57.6404 72.6998 66.5471 67.5571Z" fill="#FFD651"/>
<path d="M67.5157 35.2383L70.8899 41.2241L78.4824 38.1506L72.9978 47.4313L74.3505 55.3846L67.5721 55.1492L60.754 63.2346L61.994 53.7843L56.4749 50.8567L64.1232 45.1308L67.5157 35.2383Z" fill="#DDB040"/>
</svg>
