<svg width="40" height="40" viewBox="0 0 40 40" fill="none" xmlns="http://www.w3.org/2000/svg">
<path d="M5.86103 34.1389C-1.95313 26.325 -1.95422 13.6763 5.86103 5.86106C13.6752 -1.9531 26.3238 -1.95427 34.1389 5.86106C41.953 13.675 41.9544 26.3238 34.1389 34.1389C26.3252 41.953 13.6764 41.9544 5.86103 34.1389ZM20 1.67083C9.8932 1.67083 1.6708 9.89323 1.6708 20C1.6708 30.1069 9.8932 38.3293 20 38.3293C30.1068 38.3293 38.3292 30.1069 38.3292 20C38.3292 9.89323 30.1067 1.67083 20 1.67083Z" fill="#00D2D7"/>
<path d="M19.9996 34.9967C11.7304 34.9967 5.00293 28.2692 5.00293 20C5.00293 11.7309 11.7304 5.00342 19.9996 5.00342C28.2687 5.00342 34.9962 11.7309 34.9962 20C34.9962 28.2692 28.2687 34.9967 19.9996 34.9967ZM19.9996 6.66971C12.6492 6.66971 6.66922 12.6497 6.66922 20C6.66922 27.3505 12.6492 33.3304 19.9996 33.3304C27.35 33.3304 33.3299 27.3505 33.3299 20C33.3299 12.6497 27.3499 6.66971 19.9996 6.66971Z" fill="#00D2D7"/>
<path d="M19.9996 22.4995C18.6214 22.4995 17.5001 21.3782 17.5001 20C17.5001 18.6219 18.6214 17.5006 19.9996 17.5006C21.3777 17.5006 22.499 18.6219 22.499 20C22.499 21.3782 21.3777 22.4995 19.9996 22.4995ZM19.9996 19.1669C19.5402 19.1669 19.1664 19.5406 19.1664 20C19.1664 20.4594 19.5402 20.8332 19.9996 20.8332C20.459 20.8332 20.8327 20.4594 20.8327 20C20.8327 19.5406 20.459 19.1669 19.9996 19.1669ZM19.9996 10.0023C19.5394 10.0023 19.1664 9.62929 19.1664 9.16915V5.83656C19.1664 5.37642 19.5394 5.00342 19.9996 5.00342C20.4596 5.00342 20.8327 5.37642 20.8327 5.83656V9.16915C20.8327 9.62929 20.4596 10.0023 19.9996 10.0023ZM13.8626 11.0368L12.1963 8.15071C11.9662 7.75221 12.1027 7.24266 12.5012 7.01263C12.8997 6.78252 13.4092 6.91899 13.6393 7.31756L15.3056 10.2037C15.5357 10.6022 15.3992 11.1117 15.0007 11.3417C14.6047 11.5704 14.0941 11.4377 13.8626 11.0368ZM10.2031 15.3061L7.31699 13.6398C6.9185 13.4098 6.78195 12.9002 7.01206 12.5017C7.24218 12.1033 7.75181 11.9668 8.15014 12.1968L11.0362 13.8631C11.4347 14.0931 11.5713 14.6027 11.3412 15.0012C11.1105 15.4009 10.6004 15.5355 10.2031 15.3061ZM9.16866 20.8332H5.83608C5.37593 20.8332 5.00293 20.4601 5.00293 20C5.00293 19.5399 5.37593 19.1669 5.83608 19.1669H9.16866C9.62881 19.1669 10.0018 19.5399 10.0018 20C10.0018 20.4601 9.62881 20.8332 9.16866 20.8332ZM7.01214 27.4984C6.78203 27.0999 6.91858 26.5904 7.31708 26.3603L10.2032 24.694C10.6016 24.4638 11.1112 24.6005 11.3413 24.9989C11.5714 25.3974 11.4348 25.9069 11.0363 26.137L8.15022 27.8033C7.75331 28.0325 7.24309 27.8985 7.01214 27.4984ZM12.5012 32.9875C12.1027 32.7574 11.9662 32.248 12.1963 31.8495L13.8626 28.9633C14.0927 28.5648 14.6021 28.4284 15.0007 28.6583C15.3992 28.8885 15.5357 29.3979 15.3056 29.7964L13.6393 32.6826C13.409 33.0816 12.8994 33.2173 12.5012 32.9875ZM19.9996 34.9967C19.5394 34.9967 19.1664 34.6236 19.1664 34.1635V30.8309C19.1664 30.3709 19.5394 29.9978 19.9996 29.9978C20.4596 29.9978 20.8327 30.3709 20.8327 30.8309V34.1635C20.8327 34.6236 20.4596 34.9967 19.9996 34.9967ZM26.3598 32.6826L24.6935 29.7964C24.4634 29.3979 24.5999 28.8885 24.9984 28.6583C25.1898 28.5479 25.4172 28.5179 25.6306 28.5751C25.8441 28.6323 26.026 28.7719 26.1365 28.9633L27.8028 31.8495C28.0329 32.248 27.8964 32.7574 27.4979 32.9875C27.1 33.2172 26.5904 33.0819 26.3598 32.6826ZM31.8489 27.8033L28.9627 26.137C28.5642 25.9069 28.4277 25.3974 28.6578 24.9989C28.8877 24.6005 29.3973 24.4639 29.7959 24.694L32.682 26.3603C33.0805 26.5904 33.2171 27.0999 32.987 27.4984C32.7567 27.8974 32.2471 28.0331 31.8489 27.8033ZM34.163 20.8332H30.8305C30.3704 20.8332 29.9973 20.4601 29.9973 20C29.9973 19.5399 30.3704 19.1669 30.8305 19.1669H34.163C34.6231 19.1669 34.9962 19.5399 34.9962 20C34.9962 20.4601 34.6231 20.8332 34.163 20.8332ZM28.6579 15.0012C28.4277 14.6027 28.5643 14.0931 28.9628 13.8631L31.849 12.1968C32.2478 11.9668 32.757 12.1033 32.9871 12.5017C33.2172 12.9002 33.0806 13.4098 32.6821 13.6398L29.7959 15.3061C29.3987 15.5354 28.8887 15.401 28.6579 15.0012ZM24.9984 11.3417C24.5999 11.1117 24.4634 10.6022 24.6935 10.2037L26.3598 7.31756C26.5897 6.91907 27.0993 6.7826 27.4979 7.01263C27.8964 7.24266 28.0329 7.75221 27.8028 8.15071L26.1365 11.0368C25.9062 11.4358 25.3964 11.5714 24.9984 11.3417Z" fill="#00D2D7"/>
<path d="M20 19.1669C19.5398 19.1669 19.1668 18.7939 19.1668 18.3337V12.5017C19.1668 12.0416 19.5398 11.6686 20 11.6686C20.4601 11.6686 20.8331 12.0416 20.8331 12.5017V18.3337C20.8331 18.7939 20.4601 19.1669 20 19.1669ZM18.3337 20.8332H15.0011C14.541 20.8332 14.168 20.4601 14.168 20C14.168 19.5399 14.541 19.1669 15.0011 19.1669H18.3337C18.7938 19.1669 19.1668 19.5399 19.1668 20C19.1668 20.4601 18.7938 20.8332 18.3337 20.8332Z" fill="#00D2D7"/>
</svg>
