<svg width="50" height="50" viewBox="0 0 50 50" fill="none" xmlns="http://www.w3.org/2000/svg">
<path d="M25 50C38.8071 50 50 38.8071 50 25C50 11.1929 38.8071 0 25 0C11.1929 0 0 11.1929 0 25C0 38.8071 11.1929 50 25 50Z" fill="#F15249"/>
<path d="M14.511 36.2777L27.9968 49.7635C39.3533 48.4228 48.3438 39.5111 49.7634 28.1546L36.1987 14.59L14.511 36.2777Z" fill="#AD0E0E"/>
<path d="M36.8297 30.5202C37.9338 31.6243 37.9338 33.5171 36.8297 34.6212L34.6215 36.8294C33.5174 37.9335 31.6246 37.9335 30.5205 36.8294L13.1704 19.4792C12.0663 18.3751 12.0663 16.4824 13.1704 15.3783L15.4574 13.0912C16.5615 11.9871 18.4543 11.9871 19.5584 13.0912L36.8297 30.5202Z" fill="white"/>
<path d="M27.6812 21.2933L21.2932 27.6813L30.5203 36.8296C31.6244 37.9337 33.5172 37.9337 34.6213 36.8296L36.9084 34.5425C38.0125 33.4384 38.0125 31.5456 36.9084 30.4415L27.6812 21.2933Z" fill="#D6D6D6"/>
<path d="M30.5205 13.1701C31.6246 12.066 33.5174 12.066 34.6215 13.1701L36.9085 15.4572C38.0126 16.5613 38.0126 18.454 36.9085 19.5581L19.4795 36.8294C18.3754 37.9335 16.4827 37.9335 15.3786 36.8294L13.1704 34.6212C12.0663 33.5171 12.0663 31.6244 13.1704 30.5203L30.5205 13.1701Z" fill="white"/>
</svg>
