<svg width="13" height="19" viewBox="0 0 13 19" fill="none" xmlns="http://www.w3.org/2000/svg">
<path fill-rule="evenodd" clip-rule="evenodd" d="M6.50016 2.177C3.7675 2.177 1.55225 4.39226 1.55225 7.12492C1.55225 9.85758 3.7675 12.0728 6.50016 12.0728C9.23282 12.0728 11.4481 9.85758 11.4481 7.12492C11.4481 4.39226 9.23282 2.177 6.50016 2.177ZM0.364746 7.12492C0.364746 3.73642 3.11167 0.989502 6.50016 0.989502C9.88866 0.989502 12.6356 3.73642 12.6356 7.12492C12.6356 8.8867 11.893 10.475 10.7038 11.594C10.7244 11.6326 10.7411 11.674 10.7532 11.7179L11.2674 13.5935C11.5076 14.4697 11.7011 15.1754 11.7891 15.723C11.8753 16.2597 11.893 16.8126 11.5926 17.2621C11.4216 17.5179 11.1894 17.7274 10.915 17.8672C10.4164 18.1211 9.87261 17.9959 9.38548 17.812C8.8886 17.6244 8.26462 17.2993 7.49824 16.8999L7.46132 16.8807C6.88797 16.5819 6.73827 16.5149 6.59445 16.4996C6.53174 16.4929 6.46859 16.4929 6.40587 16.4996C6.26206 16.5149 6.11236 16.5819 5.539 16.8807L5.50209 16.8999C4.73571 17.2993 4.11173 17.6244 3.61485 17.812C3.12771 17.9959 2.58394 18.1211 2.08537 17.8672C1.81091 17.7274 1.5787 17.5179 1.40769 17.2621C1.10733 16.8126 1.12499 16.2597 1.21125 15.723C1.29925 15.1754 1.49273 14.4697 1.73296 13.5935L2.24717 11.7179C2.25922 11.674 2.2759 11.6326 2.29653 11.594C1.10731 10.475 0.364746 8.8867 0.364746 7.12492ZM3.30195 12.3619L2.88822 13.8709C2.63565 14.7922 2.46022 15.4353 2.3837 15.9114C2.30421 16.406 2.36347 16.555 2.39501 16.6022C2.45664 16.6944 2.5365 16.7643 2.62418 16.809C2.64227 16.8182 2.75569 16.867 3.19546 16.701C3.61752 16.5417 4.17808 16.2508 4.99026 15.8276C5.01788 15.8132 5.04516 15.7989 5.07212 15.7849C5.52186 15.5499 5.88355 15.361 6.28005 15.3188C6.42641 15.3032 6.57392 15.3032 6.72028 15.3188C7.11678 15.361 7.47847 15.5499 7.92821 15.7849C7.95517 15.7989 7.98244 15.8132 8.01006 15.8276C8.82224 16.2508 9.38281 16.5417 9.80487 16.701C10.2446 16.867 10.3581 16.8182 10.3761 16.809C10.4638 16.7643 10.5437 16.6944 10.6053 16.6022C10.6369 16.555 10.6961 16.406 10.6166 15.9114C10.5401 15.4353 10.3647 14.7922 10.1121 13.8709L9.69837 12.3619C8.76708 12.9318 7.67199 13.2603 6.50016 13.2603C5.32834 13.2603 4.23324 12.9318 3.30195 12.3619ZM6.50016 5.56889C6.45414 5.64857 6.40296 5.74032 6.34265 5.84851L6.26483 5.98812C6.25933 5.99798 6.25345 6.00874 6.24714 6.02027C6.18497 6.13397 6.08202 6.32224 5.91035 6.45257C5.73509 6.58561 5.52428 6.63138 5.401 6.65815C5.38865 6.66083 5.37718 6.66332 5.36672 6.66569L5.21558 6.69989C5.07691 6.73126 4.96394 6.75686 4.86735 6.78114C4.93018 6.85848 5.01179 6.9545 5.11794 7.07863L5.22097 7.19911C5.22828 7.20766 5.23623 7.21682 5.24469 7.22657C5.33014 7.325 5.4681 7.48391 5.5319 7.68906C5.59494 7.8918 5.5732 8.10059 5.55948 8.23232C5.55811 8.24546 5.55682 8.25783 5.5557 8.26935L5.54013 8.43011C5.52568 8.57915 5.51445 8.6981 5.50698 8.79484C5.58948 8.7585 5.68332 8.71533 5.79481 8.66399L5.93632 8.59884C5.94606 8.59435 5.95673 8.58932 5.96828 8.58388C6.08188 8.5303 6.27955 8.43707 6.50016 8.43707C6.72078 8.43707 6.91845 8.5303 7.03205 8.58388C7.04359 8.58932 7.05427 8.59435 7.06401 8.59884L7.20552 8.66399C7.31701 8.71533 7.41085 8.7585 7.49335 8.79484C7.48587 8.6981 7.47464 8.57915 7.4602 8.4301L7.44462 8.26935C7.44351 8.25783 7.44222 8.24546 7.44085 8.23232C7.42713 8.1006 7.40538 7.8918 7.46843 7.68906C7.53222 7.48391 7.67019 7.325 7.75563 7.22657C7.7641 7.21682 7.77205 7.20767 7.77936 7.19912L7.88239 7.07863C7.98854 6.9545 8.07015 6.85848 8.13298 6.78114C8.03638 6.75687 7.92342 6.73126 7.78474 6.69989L7.63361 6.66569C7.62314 6.66332 7.61167 6.66083 7.59932 6.65815C7.47605 6.63138 7.26524 6.58561 7.08998 6.45257C6.91831 6.32224 6.81536 6.13397 6.75318 6.02027C6.74688 6.00874 6.74099 5.99798 6.7355 5.98812L6.65767 5.84851C6.59736 5.74032 6.54619 5.64857 6.50016 5.56889ZM5.71918 4.59129C5.85548 4.41331 6.10298 4.15617 6.50016 4.15617C6.89734 4.15617 7.14485 4.41331 7.28115 4.59129C7.41124 4.76117 7.54225 4.99632 7.67656 5.2374C7.68267 5.24836 7.68878 5.25933 7.6949 5.27031L7.77273 5.40993C7.79078 5.4423 7.80499 5.46778 7.81742 5.48957C7.83905 5.49465 7.86422 5.50035 7.89567 5.50747L8.0468 5.54166C8.05918 5.54446 8.07155 5.54726 8.08393 5.55006C8.34345 5.6087 8.60137 5.66698 8.79935 5.745C9.01796 5.83116 9.31429 5.99893 9.42849 6.36619C9.54069 6.72698 9.39911 7.03258 9.27546 7.22899C9.16103 7.41077 8.98711 7.61406 8.80905 7.82217C8.801 7.83158 8.79295 7.84099 8.78489 7.85042L8.68186 7.9709C8.65456 8.00283 8.63398 8.0269 8.61665 8.04773C8.61901 8.0765 8.62224 8.11001 8.62659 8.15482L8.64216 8.31557C8.64335 8.32783 8.64454 8.34008 8.64573 8.35231C8.67278 8.63092 8.69893 8.90016 8.68934 9.11554C8.67928 9.34136 8.62508 9.68321 8.31857 9.91589C8.00237 10.1559 7.65317 10.1036 7.43172 10.0402C7.22767 9.98169 6.98658 9.87061 6.74376 9.75872C6.73213 9.75337 6.7205 9.748 6.70887 9.74265L6.56736 9.67749C6.54088 9.6653 6.51912 9.65529 6.50016 9.64671C6.4812 9.65529 6.45944 9.6653 6.43297 9.67749L6.29146 9.74265C6.27983 9.748 6.26819 9.75337 6.25656 9.75872C6.01374 9.87061 5.77265 9.98169 5.56861 10.0402C5.34716 10.1036 4.99795 10.1559 4.68175 9.91589C4.37525 9.68321 4.32105 9.34136 4.31099 9.11554C4.30139 8.90017 4.32754 8.63092 4.3546 8.35231C4.35578 8.34008 4.35697 8.32783 4.35816 8.31557L4.37374 8.15482C4.37808 8.11001 4.38132 8.0765 4.38368 8.04774C4.36634 8.02691 4.34577 8.00283 4.31847 7.9709L4.21544 7.85042C4.20738 7.84099 4.19932 7.83158 4.19127 7.82217C4.01322 7.61406 3.8393 7.41077 3.72486 7.22899C3.60122 7.03258 3.45964 6.72698 3.57183 6.36619C3.68604 5.99893 3.98236 5.83116 4.20098 5.745C4.39896 5.66698 4.65688 5.6087 4.9164 5.55006C4.92877 5.54726 4.94115 5.54446 4.95352 5.54166L5.10466 5.50747C5.13611 5.50035 5.16127 5.49465 5.18291 5.48957C5.19533 5.46778 5.20955 5.4423 5.2276 5.40992L5.30542 5.27031C5.31154 5.25933 5.31766 5.24836 5.32376 5.2374C5.45808 4.99632 5.58909 4.76117 5.71918 4.59129Z" fill="#00BDC2"/>
</svg>
