<svg width="21" height="21" viewBox="0 0 21 21" fill="none" xmlns="http://www.w3.org/2000/svg">
<path d="M19.25 0H1.75001C0.769986 0 0 0.769986 0 1.75001V19.25C0 20.23 0.769986 21 1.75001 21H9.80003H14H19.25C20.23 21 21 20.23 21 19.25V1.75001C21 0.769986 20.23 0 19.25 0ZM10.5 20.3V13.3H7.69999V10.5H10.5V8.05001C10.5 6.05501 12.04 4.37501 14 4.2H17.15V7.00001H14.35C13.755 7.00001 13.3 7.455 13.3 8.05001V10.5H16.8V13.3H13.3V20.3H10.5V20.3ZM20.3 19.25C20.3 19.845 19.845 20.3 19.25 20.3H14V14H17.5V9.79999H14V8.04997C14 7.83997 14.14 7.69999 14.35 7.69999H17.85V3.49999H13.965C11.62 3.70999 9.79999 5.70499 9.79999 8.04997V9.79999H6.99997V14H9.79999V20.3H1.75001C1.155 20.3 0.700014 19.845 0.700014 19.25V1.75001C0.700014 1.155 1.155 0.700014 1.75001 0.700014H19.25C19.845 0.700014 20.3 1.155 20.3 1.75001V19.25H20.3Z" fill="white"/>
</svg>
