<svg width="74" height="73" viewBox="0 0 74 73" fill="none" xmlns="http://www.w3.org/2000/svg">
<g clip-path="url(#clip0)">
<path d="M59.3218 -0.15746L62.4508 1.6478C62.2396 1.525 61.9466 1.54249 61.6242 1.72863L58.4951 -0.0766265C58.8175 -0.262761 59.1105 -0.280254 59.3218 -0.15746Z" fill="#3F9AE0"/>
<path d="M43.9524 34.1152L40.8234 32.3099L40.8086 27.0978L43.9377 28.903L43.9524 34.1152Z" fill="#3F9AE0"/>
<path d="M41.4264 29.9599L38.2973 28.1547C38.0894 28.0338 37.9605 27.7759 37.9595 27.4081L41.0885 29.2133C41.0896 29.5812 41.2185 29.8391 41.4264 29.9599Z" fill="#0074D1"/>
<path d="M41.0885 29.2132L37.9594 27.408L37.9189 13.132L41.048 14.9372L41.0885 29.2132Z" fill="#005E87"/>
<path d="M42.1994 12.9437L39.0703 11.1385L58.4954 -0.0766602L61.6245 1.72859L42.1994 12.9437Z" fill="#006CB5"/>
<path d="M42.1994 12.9438L39.0703 11.1385L52.8999 3.15405L56.0289 4.95931L42.1994 12.9438Z" fill="#3F9AE0"/>
<path d="M42.1994 12.9437L39.0703 11.1384L47.3043 6.38452L50.4333 8.18977L42.1994 12.9437Z" fill="#006CB5"/>
<path d="M41.048 14.9373L37.919 13.132C37.9169 12.3987 38.4316 11.507 39.0699 11.1385L42.1989 12.9438C41.5607 13.3123 41.0459 14.2039 41.048 14.9373Z" fill="#00649B"/>
<path d="M61.6239 1.72855C62.2622 1.36006 62.7852 1.65252 62.7873 2.3859L62.8277 16.6619C62.8298 17.4009 62.3102 18.2953 61.6719 18.6638L48.4685 26.2868L43.9522 34.115L43.9374 28.9029L42.2468 29.8789C41.6086 30.2474 41.0904 29.9522 41.0883 29.2132L41.0479 14.9371C41.0458 14.2038 41.5605 13.3122 42.1988 12.9437L61.6239 1.72855Z" fill="#0074D1"/>
<path d="M52.7967 11.6245L51.6895 10.9815C51.7759 10.7991 51.8721 10.6175 51.9772 10.4354C52.6229 9.31692 53.4715 8.45416 54.3211 7.96362C55.1708 7.47309 56.0215 7.35477 56.6714 7.72517L57.7787 8.36816C57.1287 7.99776 56.278 8.11607 55.4283 8.60661C54.5787 9.09715 53.7301 9.95991 53.0844 11.0784C52.9793 11.2605 52.8831 11.4421 52.7967 11.6245Z" fill="#E9E8E6"/>
<path d="M55.4283 8.60697C54.5787 9.09705 53.7302 9.95957 53.0847 11.0779C52.9789 11.2604 52.8828 11.4417 52.7965 11.6241L51.6895 10.9815C51.7758 10.7991 51.8719 10.6177 51.9777 10.4353C52.6232 9.31694 53.4717 8.45442 54.3212 7.96326L55.4283 8.60697Z" fill="#C4C2C0"/>
<path d="M51.4099 10.7759L52.5171 11.4189C52.5132 11.4166 52.5093 11.4144 52.5054 11.4121C51.8553 11.0416 51.0049 11.1598 50.1555 11.6501L49.0483 11.0072C49.8977 10.5168 50.7481 10.3986 51.3982 10.7691C51.4021 10.7714 51.406 10.7736 51.4099 10.7759Z" fill="#E9E8E6"/>
<path d="M47.8261 19.5177L46.7189 18.8747C45.4176 18.1339 45.4128 15.7172 46.7043 13.4802C47.3502 12.3611 48.1989 11.4978 49.0487 11.0072L50.1559 11.6502C49.3061 12.1408 48.4574 13.004 47.8115 14.1232C46.52 16.3602 46.5248 18.7769 47.8261 19.5177Z" fill="#C4C2C0"/>
<path d="M47.7657 19.4817L46.7192 18.8747C45.4173 18.1342 45.413 15.7172 46.7041 13.4805L47.8122 14.1231C46.5405 16.3253 46.5254 18.7012 47.7657 19.4817Z" fill="#E9E8E6"/>
<path d="M47.8122 14.1232L46.7042 13.4806C46.1295 14.4762 45.8121 15.5072 45.751 16.4105L46.8588 17.0529C46.9201 16.1497 47.2373 15.1189 47.8122 14.1232Z" fill="#E9E8E6"/>
<path d="M46.8585 17.0527L45.7507 16.4103C45.6744 17.5363 45.9966 18.4637 46.719 18.8746L47.7655 19.4816C47.086 19.054 46.7842 18.1471 46.8585 17.0527Z" fill="#C4C2C0"/>
<path d="M50.1561 11.6502C51.0054 11.1599 51.8558 11.0417 52.506 11.4122C52.6111 11.4721 52.7079 11.5431 52.7965 11.6244C52.883 11.442 52.9791 11.2604 53.0842 11.0784C53.73 9.95986 54.5786 9.0971 55.4282 8.60657C56.2778 8.11603 57.1285 7.99771 57.7785 8.36812C59.0798 9.10971 59.0853 11.526 57.7938 13.763L52.8263 22.367L47.8263 19.5177C46.525 18.7769 46.5202 16.3602 47.8117 14.1232C48.4576 13.0041 49.3063 12.1408 50.1561 11.6502Z" fill="#D6D4D2"/>
<path d="M36.2982 56.7697C35.9681 57.9589 36.6284 61.7325 36.2982 62.1975C35.9681 62.659 27.3313 65.009 25.9397 64.977C24.5517 64.9415 20.9096 59.7481 20.7427 59.1517C20.5794 58.5553 16.8379 43.8944 16.8379 43.8944L19.0885 38.5021L22.1023 41.6438L28.0767 43.6246L31.9283 41.5444L33.3128 35.5132L33.9163 37.2419L37.0259 41.3705L36.3941 47.2703C36.3941 47.2703 36.6284 55.577 36.2982 56.7697Z" fill="white"/>
<path d="M42.1518 61.7499C41.564 62.8975 35.3806 69.8096 23.948 72.2928C23.948 72.2928 11.8998 74.3512 11.2731 68.9977L10.9235 48.5404C10.9235 48.5404 9.92495 42.705 18.334 38.2902L31.5409 63.8433C33.0088 59.3185 33.5673 52.965 33.786 45.9319C33.7511 42.3986 33.6871 39.0353 33.4489 36.6496V36.6468C33.4085 36.2388 33.3626 35.86 33.311 35.5132C33.311 35.5132 38.5331 33.7567 40.1806 37.9209C41.5884 41.4801 42.4806 53.6577 42.7105 57.1271C42.7742 58.0884 42.7521 59.0548 42.6161 60.0086C42.5252 60.6459 42.3809 61.3036 42.1518 61.7499Z" fill="#F25A5A"/>
<path d="M32.627 59.3382C32.3916 60.7866 32.0128 62.2963 31.5407 63.8436L29.6243 60.1348L28.4781 45.1676L27.4782 44.935C27.4782 44.935 27.0242 43.0075 27.0646 42.9448C27.1063 42.8822 28.4572 41.1162 28.4572 41.1162C28.4572 41.1162 29.953 41.314 30.1814 41.3711C30.4098 41.4282 31.9473 43.0284 31.9473 43.0284L31.0616 44.2804L29.9851 44.8096L32.627 59.3382Z" fill="#6DCB60"/>
<path d="M20.4667 32.7801C20.4226 34.0794 20.1672 35.4287 19.79 36.8069C22.2417 39.8383 25.2117 41.77 28.7363 42.5251C28.7363 42.5251 32.4364 38.5415 31.6199 34.6407C30.8034 30.7398 20.4667 32.7801 20.4667 32.7801Z" fill="#EFC348"/>
<path d="M33.487 22.3601C33.487 22.3601 34.732 35.1955 29.2812 36.1842C22.6387 37.389 17.5923 29.3556 17.5923 29.3556L15.8516 23.6582L19.1233 20.6357L27.9102 18.3611C27.9102 18.3611 31.3377 18.6415 31.4312 18.7038C31.5247 18.7662 33.487 22.3601 33.487 22.3601Z" fill="#FFD651"/>
<path d="M28.736 42.5255C28.0259 43.5912 27.4839 44.7227 27.1483 45.9348C22.7586 44.2051 19.6988 41.7261 18.334 38.2903L19.7893 36.8071C22.2419 39.8376 25.2111 41.7693 28.736 42.5255Z" fill="#E9E8E6"/>
<path d="M33.6924 40.8362L31.5003 44.889C30.8485 43.85 29.9141 43.0757 28.7358 42.5256C28.7358 42.5256 32.4362 38.5411 31.6201 34.6401L33.3108 35.5134C33.5128 36.8684 33.6256 38.7235 33.6924 40.8362Z" fill="#E9E8E6"/>
<path d="M23.5355 54.1267V51.0816L20.6048 48.4195L18.335 38.2902L31.5406 63.8429L23.5355 54.1267Z" fill="#CC4848"/>
<path d="M34.9064 47.0251L36.0333 49.6339L31.541 63.8436C33.0089 59.3187 33.5674 52.9653 33.786 45.9322C33.7512 42.3989 33.6872 39.0356 33.449 36.6499L33.3111 35.5134L36.0705 42.7964L34.9064 47.0251Z" fill="#CC4848"/>
<path d="M33.4869 22.3602C34.8786 16.5641 32.7084 12.015 26.5 12.0895C23.42 10.6886 20.1957 11.4473 17.6572 14.167C15.7154 16.3886 14.7548 19.0764 14.7549 22.2206C14.7549 23.0706 14.8833 23.9171 15.1579 24.7215C15.6944 26.2933 16.535 27.8352 17.5922 29.3556C17.0367 25.6751 16.951 22.7553 19.4429 24.0083C20.0386 22.5124 20.9057 22.0596 22.0198 22.5562C25.0136 23.3353 27.863 23.3319 30.4907 22.1291C30.9673 21.948 31.3749 21.5325 31.7578 21.0328C32.4249 20.5427 32.9792 21.2124 33.4869 22.3602Z" fill="#2D2C2B"/>
</g>
<defs>
<clipPath id="clip0">
<rect width="72.4462" height="72.4462" fill="white" transform="translate(0.634277)"/>
</clipPath>
</defs>
</svg>
