<svg width="21" height="21" viewBox="0 0 21 21" fill="none" xmlns="http://www.w3.org/2000/svg">
<path d="M5.6845 0.1H15.3155C18.3947 0.1 20.9 2.60524 20.9 5.6845V15.3156C20.9 18.3947 18.3947 20.9 15.3156 20.9H5.6845C2.60524 20.9 0.1 18.3947 0.1 15.3156V5.6845C0.1 2.60524 2.60524 0.1 5.6845 0.1ZM15.3155 19.8689C17.8263 19.8689 19.8689 17.8263 19.8689 15.3156V5.6845C19.8689 3.17363 17.8263 1.13111 15.3156 1.13111H5.6845C3.17362 1.13111 1.13111 3.17362 1.13111 5.6845V15.3156C1.13111 17.8263 3.17363 19.8689 5.6845 19.8689H15.3155Z" fill="white" stroke="#7DB4AF" stroke-width="0.2"/>
<path d="M4.85806 10.5001C4.85806 7.38909 7.38909 4.85806 10.5001 4.85806C13.6111 4.85806 16.1421 7.38909 16.1421 10.5001C16.1421 13.6111 13.6111 16.1421 10.5001 16.1421C7.38909 16.1421 4.85806 13.6111 4.85806 10.5001ZM5.88916 10.5001C5.88916 13.0427 7.95764 15.111 10.5001 15.111C13.0427 15.111 15.111 13.0427 15.111 10.5001C15.111 7.95764 13.0427 5.88916 10.5001 5.88916C7.95764 5.88916 5.88916 7.95764 5.88916 10.5001Z" fill="white" stroke="#7DB4AF" stroke-width="0.2"/>
<path d="M14.7826 4.41545C14.7826 3.53516 15.4989 2.81875 16.3793 2.81875C17.2598 2.81875 17.9762 3.53502 17.9762 4.41545C17.9762 5.29589 17.2598 6.01231 16.3793 6.01231C15.4989 6.01231 14.7826 5.2959 14.7826 4.41545ZM15.8137 4.41545C15.8137 4.72734 16.0674 4.98104 16.3793 4.98104C16.6913 4.98104 16.9451 4.72737 16.9451 4.41545C16.9451 4.10335 16.6913 3.84986 16.3793 3.84986C16.0674 3.84986 15.8137 4.10337 15.8137 4.41545Z" fill="white" stroke="#7DB4AF" stroke-width="0.2"/>
</svg>
