<svg width="50" height="41" viewBox="0 0 50 41" fill="none" xmlns="http://www.w3.org/2000/svg">
<path d="M28.0937 11.2247C28.0937 14.7876 25.1929 17.6884 21.63 17.6884C18.067 17.6884 15.1663 14.7876 15.1663 11.2247C15.1663 7.66177 18.067 4.76099 21.63 4.76099C25.1929 4.79252 28.0937 7.66177 28.0937 11.2247ZM26.0127 11.2247C26.0127 8.79686 24.0578 6.84199 21.63 6.84199C19.2021 6.84199 17.2473 8.79686 17.2473 11.2247C17.2473 13.6525 19.2021 15.6074 21.63 15.6074C24.0578 15.6074 26.0127 13.6525 26.0127 11.2247Z" fill="white"/>
<path d="M49.881 1.0405V16.5219C49.881 17.8777 47.8315 17.8777 47.8315 16.5219V15.8282C43.7326 19.6434 36.9851 16.7426 36.9851 11.0987C36.9851 5.48627 43.7011 2.55395 47.8315 6.36912V1.0405C47.8315 0.472955 48.3045 0 48.872 0C49.4396 0 49.881 0.472955 49.881 1.0405ZM47.8315 11.0987C47.8315 8.67082 45.8766 6.71595 43.4488 6.71595C41.021 6.71595 39.0661 8.67082 39.0661 11.0987C39.0661 13.5265 41.021 15.4814 43.4488 15.4814C45.8766 15.4814 47.8315 13.5265 47.8315 11.0987Z" fill="white"/>
<path d="M12.8959 1.16672C12.8959 0.599176 12.4229 0.126221 11.8554 0.126221C11.2878 0.126221 10.8149 0.599176 10.8149 1.16672V7.91419H2.04947V1.16672C2.04947 -0.189081 0 -0.189081 0 1.16672C0 6.08544 0 19.9587 0 24.436C0 25.7918 2.04947 25.7918 2.04947 24.436V9.9006H10.8149V24.436C10.8149 25.7918 12.8643 25.7918 12.8643 24.436V12.0131C12.8959 12.0131 12.8959 1.16672 12.8959 1.16672Z" fill="white"/>
<path d="M12.8959 24.4673V34.5255C12.8959 40.4532 5.4232 42.4396 5.4232 39.9487C5.4232 39.3811 5.89616 38.9082 6.4637 38.9082C8.86 38.9082 10.8149 36.9848 10.8464 34.5885C6.71594 38.4037 0 35.4714 0 29.859V24.4358C0 23.08 2.04947 23.08 2.04947 24.4358V29.859C2.04947 32.2868 4.00434 34.2417 6.43217 34.2417C8.86 34.2417 10.8149 32.2868 10.8149 29.859V24.4358C10.8464 23.1115 12.8959 23.1115 12.8959 24.4673Z" fill="#262524"/>
<path d="M28.0937 29.8907C28.0937 33.4536 25.1929 36.3544 21.63 36.3544C18.067 36.3544 15.1663 33.4536 15.1663 29.8907C15.1663 26.3278 18.067 23.427 21.63 23.427C25.1929 23.4585 28.0937 26.3278 28.0937 29.8907ZM26.0127 29.8907C26.0127 27.4629 24.0578 25.508 21.63 25.508C19.2021 25.508 17.2473 27.4629 17.2473 29.8907C17.2473 32.3185 19.2021 34.2734 21.63 34.2734C24.0578 34.2734 26.0127 32.3185 26.0127 29.8907Z" fill="#262524"/>
<path d="M40.9262 25.2242C40.9262 22.1658 39.1605 21.2829 36.2913 19.9902C33.5481 18.729 30.1113 17.184 30.1113 12.1392V1.22971C30.1113 -0.157624 32.2239 -0.157624 32.2239 1.22971V12.1392C32.2239 15.8282 34.5256 16.8687 37.1741 18.0669C39.9172 19.2965 43.1649 20.9361 42.9757 25.2242C42.9441 26.6746 40.9262 26.58 40.9262 25.2242Z" fill="white"/>
<path d="M43.0072 24.4675V29.8907C43.0072 33.4537 40.1065 36.3544 36.5435 36.3544C32.9806 36.3544 30.0798 33.4537 30.0798 29.8907V24.4675C30.0798 23.1117 32.1293 23.1117 32.1293 24.4675V29.8907C32.1293 32.3186 34.0842 34.2734 36.512 34.2734C38.9398 34.2734 40.8947 32.3186 40.8947 29.8907V24.4675C40.9262 23.1117 43.0072 23.1117 43.0072 24.4675Z" fill="#262524"/>
</svg>
