<svg width="95" height="95" viewBox="0 0 95 95" fill="none" xmlns="http://www.w3.org/2000/svg">
<path d="M41.681 90.3382L31.9502 84.6833C31.829 84.6128 31.7168 84.5211 31.6156 84.407L41.3464 90.0619C41.4475 90.176 41.5598 90.2677 41.681 90.3382Z" fill="#E9E8E6"/>
<path d="M72.6288 4.84243L82.3596 10.4973C81.3864 9.9318 80.039 10.0114 78.5511 10.8704L68.8203 5.21553C70.3082 4.35648 71.6557 4.27688 72.6288 4.84243Z" fill="#E9E8E6"/>
<path d="M41.3466 90.0618L31.6158 84.4068L26.0431 78.1138L35.7739 83.7687L41.3466 90.0618Z" fill="#E9E8E6"/>
<path d="M22.371 89.6808L12.6402 84.0258C11.6788 83.4672 11.0833 82.2781 11.0785 80.5869L20.8093 86.2418C20.8141 87.933 21.4096 89.1221 22.371 89.6808Z" fill="#E9E8E6"/>
<path d="M20.809 86.2418L11.0782 80.5869L10.9767 44.7783L20.7075 50.4332L20.809 86.2418Z" fill="#D6D4D2"/>
<path d="M26.0476 41.183L16.3168 35.5281L68.8196 5.21558L78.5504 10.8705L26.0476 41.183Z" fill="#E9E8E6"/>
<path d="M20.7074 50.4332L10.9766 44.7782C10.967 41.3784 13.3545 37.2385 16.3171 35.5281L26.0479 41.183C23.0853 42.8935 20.6977 47.0333 20.7074 50.4332Z" fill="#D6D4D2"/>
<path d="M78.5511 10.8704C81.5098 9.16219 83.913 10.5361 83.9227 13.936L84.0242 49.7445C84.0338 53.1488 81.6463 57.2842 78.6875 58.9925L51.3878 74.754L45.869 87.4507C45.3312 88.6876 44.4721 89.6467 43.6117 90.1435C42.7512 90.6403 41.8895 90.6746 41.3465 90.0618L35.7738 83.7687L26.1846 89.305C23.222 91.0155 20.8188 89.646 20.8092 86.2417L20.7077 50.4331C20.698 47.0333 23.0856 42.8934 26.0482 41.183L78.5511 10.8704Z" fill="#C4C2C0"/>
<path d="M62.3455 30.5644L68.4367 34.1042C67.1539 33.3587 65.5132 33.2525 63.7053 33.8468C63.0833 34.0512 62.4867 34.3271 61.9167 34.6563L55.8256 31.1166C56.3956 30.7874 56.9922 30.5114 57.6142 30.307C59.4221 29.7127 61.0627 29.8189 62.3455 30.5644Z" fill="#DD4A4A"/>
<path d="M54.7238 42.9139L48.6327 39.3741C48.7718 39.0886 51.4141 33.6638 55.8253 31.1166L61.9164 34.6563C57.5052 37.2036 54.8629 42.6284 54.7238 42.9139Z" fill="#CC4848"/>
<path d="M43.562 66.414L37.4709 62.8742C36.9437 62.5678 36.3994 62.231 35.8385 61.861C31.2561 58.8366 31.8963 53.7237 33.2867 49.8969C34.5861 46.3208 36.9156 42.9332 39.6311 40.6894C40.2519 40.1763 40.8487 39.7633 41.4184 39.4343C44.7023 37.5384 47.0171 38.3628 48.0437 38.9594L54.1348 42.4992C53.1082 41.9026 50.7934 41.0782 47.5096 42.9741C46.9398 43.303 46.3431 43.7161 45.7222 44.2291C43.0068 46.473 40.6773 49.8606 39.3779 53.4367C37.9875 57.2635 37.3472 62.3763 41.9296 65.4007C42.4906 65.7708 43.0348 66.1076 43.562 66.414Z" fill="#DD4A4A"/>
<path d="M43.5632 66.4131L37.4711 62.8736C36.9443 62.5669 36.4002 62.2306 35.8388 61.8621C31.2563 58.8376 31.8968 53.7233 33.2867 49.8975L39.3788 53.4369C37.9889 57.2628 37.3484 62.377 41.931 65.4016C42.4899 65.7701 43.034 66.1089 43.5632 66.4131Z" fill="#CC4848"/>
<path d="M61.9171 34.6564C62.4871 34.3272 63.0837 34.0512 63.7057 33.8468C66.4251 32.9529 68.7661 33.6439 70.0799 35.7113C71.4874 37.9227 72.1546 42.2808 67.6042 50.5779C59.638 65.1016 55.0407 68.9039 54.7988 69.1041C54.5565 69.1835 49.9527 70.6935 41.9303 65.4008C37.3479 62.3764 37.9881 57.2635 39.3785 53.4368C40.6779 49.8606 43.0074 46.473 45.7229 44.2292C46.3437 43.7161 46.9405 43.3031 47.5102 42.9742C51.9217 40.4272 54.5844 42.7896 54.7245 42.9139C54.8636 42.6284 57.5059 37.2036 61.9171 34.6564Z" fill="#F25A5A"/>
<path d="M25.4807 46.3212C25.7951 46.4239 25.7951 46.8412 25.4807 46.9439C24.5208 47.2576 23.6641 47.794 22.9698 48.4883C22.2759 49.1822 21.7396 50.0384 21.426 50.9978C21.3231 51.3123 20.9056 51.3121 20.803 50.9975C20.178 49.082 18.6647 47.5687 16.7492 46.9438C16.4346 46.8411 16.4345 46.4236 16.7489 46.3208C17.7083 46.0071 18.5645 45.4709 19.2585 44.7769C19.9527 44.0827 20.4892 43.2259 20.8028 42.266C20.9055 41.9517 21.3228 41.9517 21.4255 42.266C21.7391 43.2259 22.2755 44.0827 22.9698 44.7769C23.6641 45.4712 24.5208 46.0076 25.4807 46.3212Z" fill="white"/>
</svg>
