<svg width="14" height="14" viewBox="0 0 14 14" fill="none" xmlns="http://www.w3.org/2000/svg">
<g clip-path="url(#clip0)">
<path d="M12.2909 1.67285H1.71198C0.767639 1.67285 0 2.44049 0 3.38483V10.6151C0 11.5595 0.767639 12.3271 1.71198 12.3271H12.288C13.2324 12.3271 14 11.5595 14 10.6151V3.38773C14.0029 2.44339 13.2353 1.67285 12.2909 1.67285ZM13.2208 10.6151C13.2208 11.1278 12.8036 11.545 12.2909 11.545H1.71198C1.19926 11.545 0.782123 11.1278 0.782123 10.6151V3.38773C0.782123 2.875 1.19926 2.45787 1.71198 2.45787H12.288C12.8007 2.45787 13.2179 2.875 13.2179 3.38773V10.6151H13.2208Z" fill="white"/>
<path d="M8.82928 6.91011L12.2532 3.83955C12.4126 3.69472 12.427 3.44849 12.2822 3.28627C12.1374 3.12695 11.8911 3.11247 11.7289 3.25731L7.00723 7.49525L6.08606 6.67258C6.08316 6.66968 6.08026 6.66678 6.08026 6.66389C6.05999 6.64361 6.03971 6.62623 6.01654 6.60885L2.26814 3.25441C2.10592 3.10957 1.8597 3.12406 1.71486 3.28627C1.57002 3.44849 1.58451 3.69472 1.74672 3.83955L5.21124 6.93618L1.76121 10.1661C1.60478 10.3138 1.59609 10.56 1.74383 10.7193C1.82204 10.8004 1.92632 10.8439 2.03061 10.8439C2.1262 10.8439 2.22179 10.8091 2.29711 10.7396L5.79928 7.46339L6.74941 8.31214C6.82473 8.37876 6.91743 8.41063 7.01012 8.41063C7.10282 8.41063 7.19841 8.37587 7.27083 8.30924L8.24704 7.43442L11.7289 10.7425C11.8042 10.8149 11.9027 10.8497 11.9983 10.8497C12.1026 10.8497 12.204 10.8091 12.2822 10.728C12.4299 10.5716 12.4242 10.3225 12.2677 10.1747L8.82928 6.91011Z" fill="white"/>
</g>
<defs>
<clipPath id="clip0">
<rect width="14" height="14" fill="white"/>
</clipPath>
</defs>
</svg>
