<svg width="73" height="73" viewBox="0 0 73 73" fill="none" xmlns="http://www.w3.org/2000/svg">
<path d="M41.4114 53.1475C42.8635 53.9859 42.8712 55.3635 41.4286 56.2018C39.9938 57.0357 37.6311 57.0266 36.179 56.1883C34.727 55.3499 34.7193 53.9905 36.1541 53.1566C37.5967 52.3183 39.9594 52.3092 41.4114 53.1475Z" fill="#BC874D"/>
<path d="M68.2286 41.6029C68.2286 49.026 65.4508 55.8214 60.8682 61.0003C60.8682 61.016 60.8526 61.0317 60.8369 61.0474C60.3347 61.6124 59.801 62.1773 59.2518 62.6795C59.1105 62.8365 58.9693 62.962 58.828 63.1033C58.781 63.1347 58.7496 63.166 58.7026 63.1974C53.4608 68.0468 46.43 70.9972 38.7244 70.9972C34.4557 70.9972 30.4067 70.1027 26.7344 68.4548C26.703 68.4392 26.6559 68.4235 26.6246 68.4078C25.3063 67.8271 24.0665 67.1209 22.8581 66.3519C22.7012 66.2577 22.5442 66.1636 22.3873 66.0694C22.3401 66.038 22.2774 66.0066 22.2303 65.9596C22.1518 65.9124 22.0734 65.8654 21.9949 65.8183C21.9635 65.8026 21.9478 65.7869 21.9321 65.7712C14.2579 60.4825 9.22021 51.6155 9.22021 41.6029C9.22021 40.2061 9.33008 38.8251 9.5184 37.4911C9.54982 37.2087 9.59685 36.9419 9.64398 36.675V36.6594C9.6753 36.4867 9.70672 36.3141 9.73813 36.1258C11.0564 29.1264 14.8543 23.0216 20.1901 18.7371C20.4726 18.4861 20.7551 18.2663 21.069 18.0466C21.1474 17.9839 21.2259 17.9211 21.3044 17.8583C25.0395 15.1276 29.4494 13.26 34.236 12.5225C35.6955 12.3027 37.2021 12.1929 38.7244 12.1929C46.587 12.1929 53.7119 15.2532 59.0007 20.2438C59.6598 20.8558 60.3032 21.5149 60.8839 22.2055C60.9938 22.3153 61.0722 22.4095 61.1508 22.5194C61.4646 22.8646 61.7471 23.2099 62.0139 23.5708C62.1551 23.7434 62.2807 23.9004 62.4062 24.0887C66.0629 28.9695 68.2286 35.0429 68.2286 41.6029Z" fill="#2EBF69"/>
<path d="M25.5452 55.4163C25.411 56.4303 25.2322 57.433 25.0087 58.4249C24.7963 59.383 24.4833 60.3191 24.2709 61.2662C24.1927 61.6005 24.3045 61.9793 24.2374 62.3136C24.0809 63.2941 23.8127 64.2636 23.6897 65.244C23.6227 65.7678 23.768 66.3138 23.8127 66.8821C23.332 66.6257 22.8514 66.3583 22.3931 66.0685C22.3372 66.0352 22.2814 66.0018 22.2255 65.9573C22.1472 65.9127 22.069 65.8681 21.9907 65.8123C21.9684 65.8011 21.946 65.79 21.9349 65.7678C14.2559 60.4751 9.22607 51.6166 9.22607 41.5995C9.22607 40.2066 9.32663 38.825 9.5167 37.4879C9.79614 37.6772 10.0644 37.8667 10.3326 38.0562C10.3773 38.0116 10.4221 37.967 10.4668 37.9225C10.1873 37.5102 9.91907 37.0868 9.65082 36.6745V36.6634C9.67313 36.485 9.7067 36.3067 9.74019 36.1285C9.8967 36.2511 10.0532 36.3736 10.1985 36.5185C10.6344 36.9642 11.0368 37.421 11.4504 37.8779C11.5398 37.9781 11.6851 38.0785 11.7074 38.1899C12.1322 40.1064 13.9877 40.1398 15.2731 40.9088C15.3513 40.9644 15.5301 40.8307 15.6531 40.8418C15.9772 40.8641 16.3126 40.8641 16.6032 40.9755C17.1621 41.1985 17.7209 41.4547 18.2351 41.7445C18.6375 41.9784 18.9952 42.3016 19.3752 42.5913C19.99 43.0704 20.6047 43.5494 21.2307 44.0286C21.2642 44.0619 21.3648 44.0731 21.3872 44.0398C21.8119 43.6163 22.1472 43.4492 22.516 44.1512C22.8961 44.8866 22.8849 45.5328 22.326 46.1569C22.259 46.2348 22.2031 46.3462 22.1137 46.402C21.566 46.7586 21.2419 47.1596 21.5436 47.8617C21.6107 48.0176 21.3983 48.2627 21.376 48.4745C21.3536 48.7086 21.3424 48.976 21.4542 49.1653C22.0019 50.1126 22.572 51.0595 23.1867 51.9733C23.4438 52.3632 23.768 52.7867 24.1704 52.9983C25.4557 53.667 25.7128 54.0125 25.5452 55.4163Z" fill="#84DBFF"/>
<path d="M23.6238 39.1262C22.4196 38.7591 21.4503 38.4636 20.5493 38.1889C21.2057 37.7524 22.3517 38.0192 23.6238 39.1262Z" fill="#84DBFF"/>
<path d="M26.1611 39.9671C25.48 39.8955 24.922 39.837 24.2856 39.7701C24.9213 39.0043 25.6822 39.0515 26.1611 39.9671Z" fill="#84DBFF"/>
<path d="M68.2272 41.6029C68.2272 49.026 65.4495 55.8214 60.8669 61.0003C60.8669 61.016 60.8513 61.0317 60.8355 61.0474C60.3333 61.6124 59.7997 62.1773 59.2505 62.6795C56.3628 63.5898 53.2712 64.0763 50.054 64.0763C33.7482 64.0763 20.5498 51.5685 20.5498 36.1415C20.5498 26.2073 26.0112 17.4816 34.2347 12.5225C35.6942 12.3027 37.2008 12.1929 38.7231 12.1929C46.5856 12.1929 53.7105 15.2532 58.9994 20.2438C59.6585 20.8558 60.3019 21.5149 60.8826 22.2055C60.9924 22.3153 61.0709 22.4095 61.1494 22.5194C61.4632 22.8646 61.7458 23.2099 62.0126 23.5708C62.1538 23.7434 62.2793 23.9004 62.4049 24.0887C66.0616 28.9695 68.2272 35.0429 68.2272 41.6029Z" fill="#2ECC71"/>
<path d="M65.1208 32.9036C63.4572 32.9192 63.3317 32.6211 62.6098 31.0831C62.343 31.2244 62.0762 31.3499 61.8251 31.5069C62.2488 32.3857 62.2175 32.4956 61.2445 32.7623C60.7423 32.0718 60.3342 31.2714 59.7536 30.675C59.1729 30.0787 58.4195 29.702 57.7447 29.1998C57.6505 29.3254 57.5721 29.4353 57.4779 29.5609C58.1528 30.1258 58.8119 30.6593 59.5024 31.2244C59.4082 31.4284 59.2984 31.6952 59.2513 31.8678C58.7021 31.5382 58.1213 31.24 57.5721 30.8948C57.321 30.7222 57.0229 30.5652 56.8816 30.3455C56.144 29.1841 55.2808 30.7692 54.5275 30.1885C54.4648 30.1572 54.1509 30.3612 54.0096 30.5024C53.4289 31.1145 52.8797 31.7579 52.2833 32.3386C52.0793 32.5426 51.7497 32.6054 51.4672 32.6996C51.1534 32.8094 50.8395 32.8565 50.5256 32.9349C50.2745 32.8251 50.0077 32.6525 49.7409 32.574C49.1446 32.4014 48.8621 32.1503 49.1289 31.5069C49.223 31.2714 49.176 31.0047 49.1289 30.7692C49.0818 30.2357 49.3329 29.9688 49.8508 29.9845C50.4001 29.9845 50.9337 30.0787 51.4515 30.0316C51.7184 29.9688 52.1735 29.702 52.2049 29.4823C52.2362 29.2155 51.9851 28.8546 51.7811 28.6035C51.6399 28.4466 51.3417 28.4151 50.9494 28.2268C51.8596 27.9601 52.5972 27.7403 53.4918 27.4736C52.4873 27.1283 51.4672 27.6619 50.7454 26.783C51.0121 26.5006 51.2162 26.2808 51.4829 25.9199C51.1063 25.81 50.8238 25.7629 50.5099 25.6687C50.4629 25.9826 50.4942 26.3122 50.3687 26.4064C49.9764 26.6575 49.5212 26.8301 49.0975 27.0341C49.019 26.7203 48.815 26.2808 48.9406 26.0768C49.176 25.7943 49.6311 25.653 49.9764 25.4491C50.0548 25.4334 50.1019 25.3706 50.1647 25.3235C50.0862 25.0724 50.0391 24.8841 49.9764 24.68C50.2745 24.5231 50.5727 24.3034 50.8238 24.3034C51.169 24.2877 51.8439 24.429 51.8596 24.5702C51.9067 25.5903 52.8483 25.9199 53.3191 26.6104C53.6801 27.1283 53.994 26.9556 54.3706 26.7673C54.8884 26.5319 55.4221 26.2338 55.9713 25.9669C55.7673 25.1195 55.9086 24.9312 56.8345 24.9625C56.709 25.6687 57.0856 25.9199 57.7447 25.9042C58.6864 25.8728 59.6123 25.8885 60.5853 25.8885C60.6167 24.9469 61.009 24.5389 61.8094 24.68C61.3857 23.9425 60.8992 23.2205 60.3969 22.5457C60.0831 22.7027 59.7221 22.7969 59.2513 23.0008C59.6123 23.299 59.8163 23.4403 60.0203 23.6129C59.0473 25.2294 58.7963 25.3863 57.4779 25.3235C57.321 24.9155 57.1483 24.5074 56.9914 24.1465C56.8345 24.1778 56.7717 24.1622 56.7247 24.1778C56.3323 24.6016 55.8144 24.7899 55.3906 24.429C55.0769 24.1935 54.8414 23.6286 54.9041 23.299C54.9826 22.9695 55.4535 22.687 55.8144 22.4673C56.5206 21.9651 57.2739 21.5413 57.9959 21.0705C58.2626 20.8822 58.4981 20.6782 58.7648 20.4428C58.7177 20.3643 58.6393 20.3015 58.5451 20.2074C57.9959 19.564 57.4152 18.9519 56.8031 18.3712C51.9381 14.589 45.8332 12.3291 39.2418 12.2192C39.0692 12.2036 38.8965 12.2036 38.7239 12.2036C37.186 12.2036 35.6793 12.3134 34.1884 12.5488C34.11 12.5645 34.0315 12.5645 33.9374 12.5802C33.7648 12.596 33.5921 12.6273 33.4194 12.6744C28.9468 13.4748 24.835 15.2795 21.3196 17.869C21.3667 17.8847 21.4295 17.9003 21.4765 17.9475C21.3354 17.9946 21.2098 18.0102 21.0528 18.0573C20.7703 18.2771 20.4721 18.4967 20.1897 18.7322C21.2255 18.2142 22.3084 18.3869 23.4383 18.8106C24.0032 19.0303 24.5839 19.2029 25.1802 19.3913C25.5098 19.5011 25.9022 19.5011 26.2161 19.6424C26.4671 19.7523 26.6869 19.9563 26.7653 20.3643C26.781 20.4428 26.9851 20.4741 27.1106 20.537C27.7226 20.7566 28.3504 20.9763 28.9625 21.1961C28.4131 22.3888 27.5657 21.3373 26.8125 21.5413C27.2048 21.9336 27.5186 22.2632 27.8168 22.5771C27.754 22.6556 27.707 22.7497 27.6442 22.8596C26.8282 22.7497 26.0435 22.6556 25.2588 22.5143C24.9606 22.4673 24.6624 22.4201 24.3642 22.3731C23.8777 22.2947 23.3755 22.2318 22.9047 22.1377C22.732 22.1063 22.6065 21.9651 22.4496 21.8709C22.5908 21.7453 22.685 21.5884 22.8262 21.5257C23.3598 21.3217 23.9091 21.1647 24.4427 20.9763C24.4113 20.8508 24.3642 20.741 24.3328 20.584C23.9091 20.741 23.4697 20.8508 22.9832 20.9921C23.0616 20.6625 23.1244 20.4428 23.2185 20.1132H21.0058C21.2098 20.4741 21.3196 20.6782 21.5237 21.0391C20.8017 21.1176 20.1897 21.2118 19.4521 21.3217C20.2525 21.6198 20.943 21.9023 21.6334 22.1691C21.6178 22.2318 21.5864 22.326 21.5707 22.3888C20.943 22.3417 20.3152 22.2947 19.5148 22.2475C19.4991 22.2318 19.3422 22.0278 19.2009 21.8395C18.9813 21.9651 18.8086 22.0749 18.6046 22.1691C17.9298 22.4987 17.2079 22.7812 16.5644 23.1892C15.968 23.5658 15.968 23.9895 16.6115 24.2877C17.6002 24.7115 18.6517 25.1352 19.7189 25.3235C20.6134 25.4647 21.1941 25.7943 21.508 26.6418C21.5393 26.7516 21.8846 26.8301 22.0572 26.8145C22.1671 26.783 22.2769 26.5006 22.2612 26.3436C22.2142 26.0611 22.1043 25.7786 22.0572 25.5746C22.4025 25.4177 22.7634 25.3392 22.9361 25.1195C23.0302 24.9625 22.7949 24.5859 22.6379 24.3662C22.2769 23.8169 22.685 22.7969 23.3441 22.8596C23.5795 22.8753 23.8149 22.891 24.0346 22.9381C24.6467 23.0165 25.2588 23.1735 25.8394 23.299C26.0591 24.4917 26.4044 24.5074 27.5657 23.6129C28.5544 24.3976 29.5117 25.1509 30.469 25.9356C30.7045 26.1239 30.9399 26.3122 31.1753 26.5006C31.0497 26.7673 30.9242 27.0812 30.7829 27.3166C31.2851 27.6619 31.7246 27.9601 32.1954 28.274C32.1483 28.3367 32.1169 28.4151 32.0384 28.4623H29.7942C29.857 28.3524 29.9041 28.2583 29.9669 28.1641C30.2022 27.756 30.3906 27.3951 30.673 26.8929C30.5004 26.9714 30.3278 27.0498 30.1708 27.1283C29.4647 27.4579 28.8996 27.7246 28.3504 27.9601C27.6128 27.1754 27.142 27.2068 26.2161 28.2583C26.6397 28.1327 26.8909 28.0071 27.142 27.9915C27.346 27.9915 27.7226 28.117 27.754 28.2268C27.8953 29.0272 28.4917 28.9645 29.0723 28.9645C29.245 28.9645 29.4176 29.1998 29.6373 29.4039C27.2832 30.267 27.2832 30.267 26.8595 29.6393C26.1376 29.8276 25.1802 29.7335 25.4784 31.0831C24.0503 30.5652 24.0503 32.0875 23.3441 32.4956C23.2185 32.8722 23.0302 33.2488 22.7634 33.5156C22.4181 33.8609 22.0258 34.1434 21.6334 34.3945C21.1627 34.6613 21.1156 34.9438 21.3354 35.4146C21.5393 35.9168 21.5864 36.466 21.7277 36.9997C21.6178 37.031 21.4765 37.0938 21.3667 37.1409C21.0999 36.7642 20.8331 36.3562 20.5507 35.9638C20.378 35.7598 20.1739 35.5402 19.9386 35.4146C18.6831 34.7555 17.4275 35.8383 16.1721 35.5245C16.0936 35.5087 16.0309 35.6186 15.968 35.65C14.8852 36.0737 15.0107 37.0781 14.9166 37.9255C14.8224 38.7731 15.356 39.2753 15.9995 39.6676C16.4232 39.9187 17.3805 39.5891 17.5061 39.134C17.7257 38.3179 18.4163 38.5376 18.8086 38.6789C19.405 38.8358 18.9185 39.2596 18.8086 39.6048C18.6987 39.9501 18.7459 40.3424 18.7144 40.7191C19.0283 40.7348 19.3422 40.7661 19.6561 40.7505C20.2368 40.6719 20.582 41.0173 20.5035 41.5822C20.4721 41.9118 20.3466 42.257 20.4408 42.5552C20.5507 42.8848 20.8959 43.4026 21.0528 43.4026C21.2255 43.3713 21.3824 43.3399 21.5393 43.3085C22.0102 43.2143 22.481 43.1516 22.9518 43.4498C23.0302 43.4969 23.2814 43.1987 23.454 43.0888C23.9091 42.7435 24.3642 42.4296 24.9762 41.9903V43.0417C25.3215 42.8064 25.808 42.3826 25.9022 42.461C26.9223 43.3085 28.1307 42.414 29.1508 42.9161C29.1508 43.0888 29.1194 43.3242 29.1194 43.4812C29.5274 43.7008 29.9041 43.8264 30.1395 44.0932C30.5161 44.4699 30.83 44.6739 31.3793 44.6111C31.6775 44.5797 32.1012 44.8151 32.4779 45.1604C32.9487 45.537 33.3567 46.0706 33.4509 46.4159C33.5293 46.7298 33.8589 47.1221 34.1571 47.1692C35.7265 47.5458 37.2487 48.0637 38.7082 48.77C39.1791 49.0053 39.5086 49.4291 39.1947 50.0254C38.8965 50.5747 38.5042 51.0769 38.1904 51.6262C38.0491 51.8616 37.9079 52.1127 37.8138 52.3638C37.7509 52.5208 37.7039 52.6777 37.6882 52.8346C37.594 53.7762 37.3743 54.6864 36.7622 55.3769C36.4954 55.6908 35.9305 55.7065 35.5067 55.9106C35.0987 56.0832 34.675 56.2402 34.2983 56.5069C34.1257 56.6481 33.9531 56.962 33.9845 57.1818C34.0943 57.9037 33.5607 58.2332 33.1841 58.6413C33.0899 58.7197 32.9958 58.7983 32.9016 58.861C32.8075 58.9394 32.7133 59.0179 32.6662 59.1278C32.2738 60.0066 31.6775 60.5402 30.6573 60.4147C30.7829 61.4348 30.4063 61.9526 29.3861 61.9213C28.8055 61.9213 28.4289 62.0782 28.3818 62.6588H27.4559C27.6442 62.9727 27.7697 63.1925 27.8953 63.4121C27.503 63.8516 27.0949 64.3067 26.6712 64.7461C26.9379 64.9187 27.142 65.06 27.4401 65.2641C27.0321 65.6093 26.7026 65.9075 26.373 66.1742C25.9336 66.5038 25.8708 66.8334 26.1376 67.1629C29.3391 68.3714 32.776 69.0148 36.4013 69.0148C42.5375 69.0148 48.2343 67.1316 52.9424 63.93C54.1509 63.114 55.2965 62.2038 56.3794 61.215C56.4108 61.1679 56.4578 61.1366 56.4892 61.1052C56.5991 61.011 56.709 60.9169 56.8031 60.807C57.3995 60.2578 57.9644 59.6614 58.4981 59.0336C58.5294 59.0336 58.5294 59.0179 58.5294 59.0022C58.7648 58.7197 59.0159 58.4529 59.2356 58.1548C59.1729 58.0606 59.1415 57.9664 59.0787 57.8723C58.9374 57.6055 58.6079 57.3387 58.6236 57.1033C58.7177 55.8949 57.9959 54.969 57.5407 53.9646C57.164 53.1642 57.1327 52.3638 57.886 51.6575C57.9959 51.5321 58.1685 51.2809 58.1057 51.1867C57.6348 50.2295 57.8389 48.9583 56.8973 48.2206C56.0184 47.5301 56.2852 46.7454 56.552 45.898C56.5991 45.7254 56.6305 45.3487 56.5206 45.2859C56.348 45.129 55.9713 45.0505 55.7987 45.1447C55.2652 45.4115 55.014 45.2074 54.6845 44.7837C54.4961 44.5169 53.9154 44.2502 53.6801 44.36C52.6757 44.8308 51.6555 44.9877 50.5727 44.9093C50.4629 44.8936 50.2589 44.925 50.1803 45.0034C49.7095 45.537 49.3329 45.2074 49.0033 44.8622C48.3442 44.1717 47.7949 43.3242 46.9945 42.8534C46.2726 42.4296 45.9117 41.6921 46.1314 41.2683C46.6649 40.2639 46.3354 39.2439 46.508 38.2708C46.6649 37.3449 47.1986 36.3876 48.2343 35.9168C48.5482 35.7598 48.8307 35.3518 48.9091 34.9751C49.1289 34.0178 49.8665 33.5156 50.6512 33.3587C52.3305 32.9664 54.041 32.7309 55.736 32.4956C56.0969 32.4327 56.5834 32.5113 56.8345 32.7309C57.0071 32.8722 56.8816 33.3901 56.8816 33.8922C57.6348 34.2218 58.5294 34.6613 59.4868 34.9751C59.7536 35.0693 60.1302 34.8496 60.4441 34.7241C60.8207 34.6142 61.1659 34.2846 61.4798 34.316C62.6098 34.4102 63.7554 34.6299 64.901 34.7868C65.1208 34.8339 65.3248 34.8182 65.4974 34.7711C65.3875 34.1277 65.2621 33.4999 65.1208 32.9036ZM22.7634 38.8515C22.4967 38.7888 22.2142 38.7102 21.9788 38.6161C21.7904 38.569 21.6334 38.5062 21.4608 38.4749C21.4138 38.4592 21.3667 38.4592 21.3354 38.4277C21.0842 38.365 20.8645 38.2866 20.6448 38.2237C20.6134 38.208 20.582 38.208 20.5507 38.1924C20.582 38.1767 20.5977 38.161 20.6291 38.161C21.2882 37.7686 22.3868 38.0668 23.6109 39.134C23.3284 39.0398 23.0302 38.9457 22.7634 38.8515ZM25.6825 39.9187C25.5098 39.903 25.3372 39.8873 25.196 39.8715C25.1175 39.8715 25.0548 39.8559 24.9762 39.8559C24.7566 39.8402 24.5211 39.8088 24.2701 39.7774C24.5683 39.4165 24.8978 39.2439 25.2117 39.2439C25.2744 39.2439 25.3686 39.2439 25.4157 39.2596C25.4314 39.2596 25.4627 39.2753 25.4784 39.2753C25.4941 39.3066 25.5256 39.3223 25.5413 39.3223C25.5883 39.3223 25.6197 39.3537 25.6825 39.3694C25.7296 39.4165 25.7923 39.4636 25.8394 39.5263C25.8708 39.5577 25.9022 39.5735 25.9179 39.6048V39.6362C25.9492 39.6519 25.9649 39.6832 25.9963 39.6989C26.0278 39.7461 26.0435 39.7618 26.0591 39.7931C26.1062 39.8402 26.1219 39.8873 26.1532 39.9658C25.9963 39.9501 25.8237 39.9187 25.6825 39.9187ZM44.1226 22.0749C44.1226 22.0749 44.0912 22.0592 44.0912 22.0435C44.0598 22.0122 44.0127 21.9651 43.997 21.918C43.95 21.761 43.9028 21.6041 43.8401 21.4786C44.0127 21.4158 44.1854 21.2902 44.3266 21.2902C45.0485 21.2902 45.7704 21.3059 46.4766 21.3373C46.7591 21.3844 47.0416 21.4943 47.481 21.6041C46.304 22.5771 45.2369 22.5928 44.1226 22.0749ZM47.1201 15.0285C46.6336 15.3894 46.1 15.719 45.6135 16.0956C45.2996 16.3467 45.0643 16.5821 45.4566 17.0529C45.8175 17.4924 45.174 18.5124 44.5934 18.5595C44.3737 18.5909 44.1697 18.638 43.8715 18.7007C43.9814 19.046 44.0598 19.3285 44.1697 19.7052C43.0868 20.2544 41.8784 20.5683 40.6543 20.741C40.2776 20.788 39.9481 21.0078 39.6028 21.1176C39.2889 21.2275 38.9908 21.3687 38.6612 21.4158C37.9392 21.4943 37.1703 21.4314 36.9035 22.3888C36.7936 22.7969 36.4013 23.1107 36.0874 23.4403C35.9775 23.5658 35.7265 23.7227 35.6166 23.66C34.6122 23.3461 33.498 23.2834 32.8702 22.2632C32.6662 21.9023 32.4464 21.557 32.2424 21.2118C32.0228 20.8665 31.8344 20.5056 31.6775 20.1446C31.599 19.9876 32.0541 19.5796 32.368 19.1559C32.0384 19.2344 31.6775 19.3285 31.3479 19.4384C30.8771 17.9946 29.8884 17.3668 28.115 17.4453H28.0993C27.5343 17.4767 26.9693 17.5865 26.3887 17.6493C26.2474 17.6493 26.0748 17.5551 25.9336 17.4767C25.5883 17.2727 25.2274 17.0529 24.9292 16.896C25.6354 16.5821 26.7967 16.4565 27.1262 15.8602C27.6128 14.997 28.4917 15.1383 29.0723 14.589C29.5431 14.1496 30.626 14.2281 31.395 14.2908C31.4734 14.3065 31.5363 14.3065 31.599 14.3065C32.7918 14.4321 32.8231 14.4635 33.3096 13.2865C33.5293 13.412 33.7176 13.569 33.9845 13.7416C34.5494 12.7371 35.5224 12.8313 36.417 12.8313C37.1388 12.8156 37.8608 12.7999 38.5827 12.7999C40.105 12.7843 41.6273 12.7686 43.1496 12.7529C44.0127 12.7529 44.1854 13.4277 44.3423 14.0398C44.6248 15.0598 45.0171 15.2168 45.8803 14.5577C46.4766 14.1025 47.073 14.024 47.8577 14.4635C47.5752 14.6989 47.3398 14.8872 47.1201 15.0285Z" fill="#84DBFF"/>
<g opacity="0.19">
<path opacity="0.19" d="M59.2513 62.6748C59.11 62.8317 58.9688 62.9573 58.8275 63.0986C58.7805 63.1299 58.7491 63.1614 58.7021 63.1928C53.4603 68.0421 46.4296 70.9925 38.7239 70.9925C34.4553 70.9925 30.4062 70.0979 26.7339 68.4501C26.7025 68.4344 26.6554 68.4187 26.6241 68.4031C25.3058 67.8224 24.066 67.1162 22.8576 66.3472C22.7007 66.2531 22.5437 66.1588 22.3868 66.0646C22.3397 66.0333 22.2769 66.0019 22.2298 65.9549C22.1513 65.9077 22.0729 65.8607 21.9944 65.8136C21.963 65.7979 21.9473 65.7822 21.9316 65.7665C14.2574 60.4777 9.21973 51.6108 9.21973 41.5982C9.21973 40.2014 9.32959 38.8204 9.51791 37.4865C9.54933 37.204 9.59636 36.9371 9.64349 36.6704V36.6546C9.67481 36.482 9.70623 36.3094 9.73765 36.1211C11.0559 29.1217 14.8538 23.0168 20.1896 18.7324C20.4721 18.4814 20.7546 18.2617 21.0685 18.0419C21.1469 17.9792 21.2255 17.9163 21.3039 17.8536C25.039 15.1229 29.449 13.2554 34.2355 12.5177C26.012 17.477 20.5506 26.2027 20.5506 36.1368C20.5506 51.5637 33.749 64.0716 50.0548 64.0716C53.272 64.0716 56.3636 63.5851 59.2513 62.6748Z" fill="#328EB7"/>
</g>
<g opacity="0.19">
<path opacity="0.19" d="M56.8032 60.807C56.7091 60.9169 56.5992 61.011 56.4893 61.1052C56.4579 61.1366 56.4109 61.1679 56.3795 61.215C55.2966 62.2038 54.151 63.114 52.9425 63.93C52.0009 64.0242 51.0279 64.0713 50.0549 64.0713C43.6676 64.0713 37.7353 62.1409 32.9017 58.861C27.3932 55.1416 23.3128 49.6645 21.5394 43.3085C21.0686 41.6764 20.7704 39.9658 20.6449 38.2237C20.6292 38.208 20.6292 38.1767 20.6292 38.161C20.5821 37.4862 20.5508 36.8113 20.5508 36.1365V35.9638C20.5821 32.1189 21.4139 28.4466 22.9362 25.1195C23.2658 24.3662 23.6267 23.6443 24.0347 22.9381C24.1446 22.734 24.2545 22.5457 24.3643 22.3731C24.9293 21.4314 25.5414 20.5213 26.2162 19.6424C26.8126 18.8734 27.4402 18.1358 28.1151 17.4453C29.1823 16.3154 30.3436 15.2638 31.5991 14.3065C32.4152 13.6788 33.2941 13.0981 34.1885 12.5488C35.6794 12.3134 37.1861 12.2036 38.724 12.2036C38.8966 12.2036 39.0693 12.2036 39.2419 12.2192C39.0065 12.3919 38.8025 12.5802 38.5828 12.7999C35.9619 15.1854 33.7962 18.0259 32.2425 21.2118C31.505 22.7183 30.9086 24.2877 30.4691 25.9356C30.3594 26.328 30.2495 26.7203 30.1709 27.1283C30.0925 27.4736 30.014 27.8188 29.967 28.1641C29.9356 28.2583 29.9199 28.3681 29.9042 28.4623C29.6531 29.9218 29.5275 31.4284 29.5275 32.9507C29.5275 37.3292 30.5947 41.4723 32.478 45.1604C33.8433 47.8283 35.6481 50.2609 37.8139 52.3638C42.6946 57.1503 49.3644 60.2734 56.8032 60.807Z" fill="#3498DB"/>
</g>
<g opacity="0.4">
<path opacity="0.4" d="M55.4899 36.7844C52.7011 39.2985 48.0744 38.7703 45.1588 35.559C42.2645 32.369 42.1589 27.6999 44.9476 25.1646C47.7364 22.6294 52.3632 23.1787 55.2787 26.3689C58.1942 29.5802 58.2786 34.2281 55.4899 36.7844Z" fill="#ECF0F1"/>
</g>
<path d="M18.8849 43.4766L18.7188 42.6825L19.5176 42.5211L19.6743 43.3153L18.8849 43.4766Z" fill="#5B5E71"/>
<path d="M54.5631 46.511C54.0671 46.2943 53.5704 46.0855 53.0721 45.883L53.3742 45.1331C53.8805 45.3356 54.3851 45.5476 54.8874 45.7675L54.5631 46.511ZM51.5629 45.3008C51.0559 45.1141 50.5465 44.9354 50.0371 44.7645L50.295 43.9957C50.8123 44.1697 51.328 44.3516 51.8429 44.5415L51.5629 45.3008ZM48.4979 44.2757C47.9798 44.1207 47.4617 43.9735 46.942 43.8327L47.1524 43.0513C47.68 43.1921 48.206 43.3423 48.7304 43.5005L48.4979 44.2757ZM45.3759 43.4357C44.8507 43.3139 44.3239 43.1968 43.7955 43.0908L43.9569 42.2967C44.4916 42.4058 45.0263 42.5229 45.5594 42.6479L45.3759 43.4357ZM21.2677 43.018L21.127 42.2207C21.6672 42.1258 22.2066 42.0356 22.7453 41.955L22.8655 42.7554C22.3348 42.8361 21.8017 42.9231 21.2677 43.018ZM42.2049 42.7918C41.6741 42.7001 41.1418 42.6162 40.6079 42.5403L40.7218 41.7398C41.2636 41.8158 41.8039 41.8996 42.3441 41.9945L42.2049 42.7918ZM24.4704 42.5292L24.3676 41.7256C24.9118 41.656 25.4544 41.5927 25.997 41.5357L26.0793 42.3425C25.5446 42.3963 25.0083 42.4596 24.4704 42.5292ZM39.003 42.3378C38.4675 42.2777 37.932 42.2255 37.3942 42.1812L37.4606 41.3744C38.0064 41.4187 38.5514 41.4709 39.0948 41.5342L39.003 42.3378ZM27.6928 42.1923L27.6264 41.3855C28.1738 41.3412 28.7187 41.3048 29.2629 41.2731L29.3072 42.0831C28.7709 42.1116 28.2323 42.148 27.6928 42.1923ZM35.7814 42.072C35.2435 42.0451 34.7041 42.023 34.163 42.0088L34.1836 41.1988C34.7309 41.213 35.2767 41.2352 35.8209 41.2621L35.7814 42.072ZM30.9256 42.0151L30.9018 41.2051C31.45 41.1893 31.9965 41.1814 32.5415 41.1798L32.5439 41.9898C32.006 41.9914 31.4658 41.9993 30.9256 42.0151Z" fill="#5B5E71"/>
<path d="M56.7679 47.5344C56.5266 47.4158 56.2862 47.3003 56.0449 47.1848L56.3914 46.454C56.6374 46.5695 56.8826 46.6881 57.127 46.8099L56.7679 47.5344Z" fill="#5B5E71"/>
<path d="M22.9093 31.2702C22.9093 33.3311 21.4495 35.8426 19.6679 36.8945C18.7662 37.4098 17.9504 37.4527 17.3494 37.1093L15.8467 36.229C16.4478 36.5726 17.2634 36.5296 18.1437 36.0144C19.9468 34.9626 21.3852 32.451 21.3852 30.3901C21.3852 29.3597 21.0202 28.6513 20.4406 28.3077L21.9647 29.188C22.5444 29.5314 22.8879 30.2398 22.9093 31.2702Z" fill="#C4C6C6"/>
<path d="M14.6878 36.0141C14.6878 39.1698 19.4319 43.8709 19.6895 44.1072L18.1654 43.2269C17.9292 42.9908 13.1636 38.2896 13.1636 35.134C13.1636 31.9998 15.3961 28.1358 18.1224 26.5686C19.4963 25.753 20.7628 25.6885 21.6645 26.2252L23.1671 27.1053C22.2655 26.5686 21.0204 26.6331 19.6466 27.4273C16.8988 29.0159 14.6663 32.8799 14.6878 36.0141Z" fill="#C4C6C6"/>
<path d="M19.6369 27.4375C22.378 25.8549 24.6193 27.1322 24.6282 30.2662C24.6372 33.416 19.9318 43.5808 19.6842 44.1158C19.4343 43.8681 14.6867 39.1609 14.6778 36.0112C14.6689 32.8771 16.9094 29.0122 19.6369 27.4375ZM19.6637 36.887C21.4591 35.8504 22.9072 33.3264 22.9013 31.2633C22.8955 29.2159 21.4379 28.3853 19.6425 29.4219C17.8607 30.4506 16.3989 32.9668 16.4047 35.0141C16.4105 37.0773 17.8818 37.9157 19.6637 36.887Z" fill="#ECF0F1"/>
<path d="M50.7587 18.3126L49.9614 18.1702C50.0097 17.9029 50.0603 17.6355 50.1133 17.3682L50.9074 17.5232C50.856 17.7874 50.8054 18.0516 50.7587 18.3126Z" fill="#5B5E71"/>
<path d="M54.0857 42.6575C53.7938 42.213 53.5138 41.7605 53.2473 41.3018L53.9465 40.8936C54.2067 41.3397 54.4788 41.7795 54.7628 42.2114L54.0857 42.6575ZM52.484 39.9017C52.2427 39.4287 52.0141 38.9494 51.7982 38.4622L52.5386 38.1331C52.7482 38.6077 52.9704 39.0744 53.2053 39.5347L52.484 39.9017ZM51.1923 36.9862C51.0056 36.491 50.8308 35.988 50.6711 35.4786L51.4431 35.235C51.5997 35.7317 51.7681 36.2189 51.9501 36.7014L51.1923 36.9862ZM50.2321 33.9457C50.1016 33.4347 49.9829 32.9174 49.8769 32.3922L50.6711 32.2308C50.7739 32.7434 50.8894 33.248 51.0167 33.7464L50.2321 33.9457ZM49.604 30.8245C49.5265 30.304 49.4617 29.7772 49.4087 29.2441L50.2155 29.165C50.2669 29.6855 50.3302 30.1996 50.4045 30.7043L49.604 30.8245ZM49.2908 27.6558C49.2631 27.1338 49.2481 26.6038 49.2441 26.0676L50.0541 26.0612C50.0581 26.5849 50.0731 27.1022 50.0992 27.6147L49.2908 27.6558ZM50.0763 24.5062L49.2663 24.4777C49.2845 23.9556 49.313 23.4257 49.3525 22.891L50.1609 22.9511C50.1213 23.4763 50.0929 23.9936 50.0763 24.5062ZM50.3064 21.4008L49.5012 21.3122C49.559 20.7933 49.627 20.2681 49.7045 19.7382L50.5065 19.8552C50.429 20.3757 50.3626 20.8914 50.3064 21.4008Z" fill="#5B5E71"/>
<path d="M55.4942 44.6266C55.3265 44.4099 55.162 44.1931 55.0015 43.9732L55.6564 43.4955C55.8122 43.7091 55.972 43.9195 56.1349 44.1299L55.4942 44.6266Z" fill="#5B5E71"/>
<path d="M60.2564 35.5633C60.2564 37.6241 58.7967 40.1357 57.015 41.1876C56.1133 41.7029 55.2976 41.7458 54.6966 41.4023L53.1938 40.5221C53.795 40.8657 54.6106 40.8227 55.4908 40.3075C57.294 39.2557 58.7323 36.7441 58.7323 34.6832C58.7323 33.6528 58.3673 32.9444 57.7878 32.6008L59.3119 33.481C59.8915 33.8245 60.2351 34.5329 60.2564 35.5633Z" fill="#CC4444"/>
<path d="M52.0349 40.3073C52.0349 43.463 56.779 48.1641 57.0366 48.4004L55.5126 47.5202C55.2763 47.284 50.5107 42.5828 50.5107 39.4272C50.5107 36.293 52.7433 32.429 55.4696 30.8618C56.8435 30.0462 58.11 29.9817 59.0117 30.5184L60.5143 31.3985C59.6127 30.8618 58.3676 30.9263 56.9938 31.7205C54.246 33.3091 52.0134 37.1731 52.0349 40.3073Z" fill="#CC4444"/>
<path d="M56.984 31.7306C59.7252 30.148 61.9665 31.4253 61.9754 34.5593C61.9843 37.7091 57.279 47.8739 57.0313 48.4089C56.7815 48.1612 52.0339 43.454 52.0249 40.3042C52.016 37.1702 54.2565 33.3053 56.984 31.7306ZM57.0108 41.1801C58.8062 40.1435 60.2544 37.6195 60.2485 35.5564C60.2427 33.509 58.7851 32.6784 56.9897 33.715C55.2078 34.7437 53.746 37.2599 53.7518 39.3072C53.7577 41.3704 55.229 42.2088 57.0108 41.1801Z" fill="#E74C3C"/>
<path d="M53.6631 6.84038C53.6631 8.90125 52.2034 11.4128 50.4218 12.4647C49.5201 12.98 48.7043 13.0229 48.1033 12.6794L46.6006 11.7992C47.2017 12.1428 48.0173 12.0998 48.8976 11.5846C50.7007 10.5328 52.1391 8.02116 52.1391 5.96029C52.1391 4.92992 51.774 4.22147 51.1945 3.87793L52.7186 4.75815C53.2982 5.10156 53.6418 5.81001 53.6631 6.84038Z" fill="#D6B218"/>
<path d="M45.4407 11.5848C45.4407 14.7405 50.1848 19.4416 50.4424 19.6778L48.9183 18.7976C48.6821 18.5615 43.9165 13.8603 43.9165 10.7047C43.9165 7.57046 46.149 3.70644 48.8753 2.13927C50.2493 1.32365 51.5157 1.25918 52.4174 1.79586L53.92 2.67594C53.0184 2.13927 51.7733 2.20373 50.3995 2.998C47.6517 4.58653 45.4192 8.45055 45.4407 11.5848Z" fill="#D6B218"/>
<path d="M50.3903 3.00805C53.1314 1.42545 55.3728 2.70272 55.3816 5.83679C55.3906 8.98658 50.6852 19.1514 50.4376 19.6864C50.1877 19.4386 45.4401 14.7315 45.4312 11.5817C45.4223 8.44763 47.6628 4.58278 50.3903 3.00805ZM50.4171 12.4575C52.2125 11.4209 53.6606 8.897 53.6547 6.83382C53.6489 4.78648 52.1913 3.95586 50.3959 4.99244C48.6141 6.02118 47.1523 8.53734 47.1581 10.5847C47.1639 12.6479 48.6352 13.4863 50.4171 12.4575Z" fill="#F1C40F"/>
</svg>
