<svg width="20" height="20" viewBox="0 0 20 20" fill="none" xmlns="http://www.w3.org/2000/svg">
<path d="M6.16667 9.5V11.1667H14.5V9.5H6.16667ZM10.3333 2C5.73333 2 2 5.73333 2 10.3333C2 14.9333 5.73333 18.6667 10.3333 18.6667C14.9333 18.6667 18.6667 14.9333 18.6667 10.3333C18.6667 5.73333 14.9333 2 10.3333 2ZM10.3333 17C6.65833 17 3.66667 14.0083 3.66667 10.3333C3.66667 6.65833 6.65833 3.66667 10.3333 3.66667C14.0083 3.66667 17 6.65833 17 10.3333C17 14.0083 14.0083 17 10.3333 17Z" fill="#00D2D7"/>
</svg>
