<svg width="74" height="73" viewBox="0 0 74 73" fill="none" xmlns="http://www.w3.org/2000/svg">
<path d="M7.11279 54.1346L7.1187 56.579C7.11944 56.8357 7.28839 57.0925 7.62556 57.2887L30.4087 70.5288C31.0867 70.9228 32.1904 70.9228 32.8728 70.5288L69.3896 49.4455C69.7327 49.2478 69.9038 48.9873 69.9031 48.7276L69.8972 46.2847C69.8972 46.5444 69.726 46.8033 69.3837 47.001L32.8669 68.0844C32.1845 68.4783 31.0808 68.4783 30.4028 68.0844L7.61965 54.8436C7.28248 54.648 7.11355 54.3913 7.11279 54.1346Z" fill="#C4C2C0"/>
<path d="M7.62701 53.4163C6.94447 53.8104 6.94086 54.4495 7.61943 54.8438L30.4026 68.084C31.0807 68.478 32.1841 68.478 32.8666 68.084L69.3832 47.0011C70.0657 46.607 70.0689 45.9682 69.3908 45.5741L46.6076 32.334C45.929 31.9397 44.8261 31.9394 44.1436 32.3335L7.62701 53.4163Z" fill="#E9E8E6"/>
<path d="M3.86568 43.3507L6.27046 44.7602L6.23779 33.2024L3.83301 31.793L3.86568 43.3507Z" fill="#494846"/>
<path d="M5.04527 22.8743C4.36286 23.2683 3.81173 24.2229 3.81397 25.0079L3.83318 31.793L6.23796 33.2024L6.21875 26.4173C6.21651 25.633 6.76765 24.6777 7.45012 24.2837L16.3711 19.1332L13.9662 17.7238L5.04527 22.8743Z" fill="#383736"/>
<path d="M3.88885 51.3589C3.8903 51.7485 4.02751 52.023 4.24958 52.1521L6.65364 53.5615C6.43235 53.4331 6.29436 53.1586 6.29363 52.7691L6.27099 44.7603L3.86621 43.3508L3.88885 51.3589Z" fill="#494846"/>
<path d="M13.9663 17.7237L16.3712 19.1332L26.8827 13.0645L24.4776 11.6549L13.9663 17.7237Z" fill="#494846"/>
<path d="M42.4421 1.7054C42.2171 1.5748 41.9065 1.59321 41.5627 1.791L34.9893 5.5862L37.3946 6.99595L43.9675 3.20115C44.3105 3.0027 44.6219 2.98422 44.8469 3.11482L42.4421 1.7054Z" fill="#494846"/>
<path d="M24.4771 11.6548L26.8822 13.0645L37.3936 6.99581L34.9883 5.58606L24.4771 11.6548Z" fill="#383736"/>
<path d="M43.9659 3.20097C44.6484 2.80691 45.2037 3.1228 45.2059 3.90765L45.2806 30.2591C45.2829 31.0433 44.7312 31.9983 44.0487 32.3924L7.53206 53.4753C6.84952 53.8693 6.29471 53.5532 6.29249 52.7689L6.21778 26.4175C6.21555 25.6326 6.76677 24.6779 7.44931 24.2838L43.9659 3.20097Z" fill="#21201F"/>
<path d="M61.0346 40.7189L58.5183 42.1712L44.3955 33.9643L46.9118 32.5115L61.0346 40.7189Z" fill="#D6D4D2"/>
<path d="M24.561 61.7741L22.0447 63.2264L7.92188 55.0194L10.4382 53.5667L24.561 61.7741Z" fill="#D6D4D2"/>
<path d="M39.4683 39.6251C39.4052 39.6615 39.4052 39.7208 39.4679 39.7572L40.9676 40.6288C41.0303 40.6652 41.1326 40.6654 41.1957 40.6289L42.7052 39.7574C42.7686 39.7208 42.7687 39.6616 42.706 39.6251L41.2062 38.7536C41.1435 38.7172 41.0412 38.717 40.9778 38.7536L39.4683 39.6251Z" fill="#494846"/>
<path d="M25.3978 52.8131C25.3343 52.8497 25.3343 52.9089 25.397 52.9454L26.8967 53.8169C26.9594 53.8533 27.0617 53.8535 27.1252 53.8169L28.6347 52.9454C28.6978 52.909 28.6978 52.8497 28.6351 52.8133L27.1354 51.9417C27.0727 51.9053 26.9704 51.9051 26.9073 51.9415L25.3978 52.8131Z" fill="#494846"/>
<path d="M30.0079 50.1511C29.9447 50.1876 29.9447 50.2468 30.0074 50.2833L31.5071 51.1548C31.5698 51.1912 31.6721 51.1914 31.7352 51.155L33.2451 50.2833C33.3082 50.2468 33.3082 50.1876 33.2455 50.1512L31.7458 49.2796C31.6831 49.2432 31.5808 49.243 31.5177 49.2794L30.0079 50.1511Z" fill="#494846"/>
<path d="M20.6673 58.076C20.6039 58.1126 20.6039 58.1719 20.6663 58.2082L22.1663 59.0799C22.2293 59.1165 22.331 59.1163 22.3944 59.0797L26.2091 56.8773C26.2725 56.8407 26.2732 56.7818 26.2102 56.7451L24.7101 55.8734C24.6478 55.8372 24.5455 55.837 24.482 55.8736L20.6673 58.076Z" fill="#494846"/>
<path d="M36.8039 48.7596C36.7408 48.796 36.7405 48.8554 36.8032 48.8919L38.3029 49.7634C38.3656 49.7999 38.4682 49.7999 38.5313 49.7634L40.0408 48.8919C40.1039 48.8555 40.1043 48.796 40.0416 48.7596L38.5419 47.888C38.4791 47.8516 38.3765 47.8516 38.3134 47.888L36.8039 48.7596Z" fill="#494846"/>
<path d="M34.4993 50.0907C34.4359 50.1273 34.4359 50.1865 34.4986 50.223L35.9983 51.0945C36.061 51.1309 36.1633 51.1311 36.2267 51.0945L37.7362 50.223C37.7994 50.1865 37.7994 50.1273 37.7367 50.0908L36.237 49.2193C36.1743 49.1829 36.072 49.1827 36.0089 49.2191L34.4993 50.0907Z" fill="#494846"/>
<path d="M42.8701 36.2607C42.8066 36.2973 42.8063 36.3563 42.8693 36.393L43.2078 36.5897C43.2708 36.6263 43.3728 36.6263 43.4362 36.5897L44.9457 35.7181C45.0088 35.6817 45.0092 35.6226 44.9462 35.586L44.6077 35.3893C44.5447 35.3527 44.4427 35.3527 44.3796 35.3891L42.8701 36.2607Z" fill="#494846"/>
<path d="M40.5641 37.5918C40.501 37.6282 40.5007 37.6873 40.5637 37.7239L40.9022 37.9206C40.9652 37.9572 41.0672 37.9572 41.1303 37.9208L42.6401 37.0491C42.7032 37.0126 42.7035 36.9536 42.6405 36.9169L42.3021 36.7202C42.2391 36.6836 42.1371 36.6836 42.0739 36.7201L40.5641 37.5918Z" fill="#494846"/>
<path d="M41.7738 38.2944C41.7107 38.3309 41.71 38.3901 41.7727 38.4266L43.2724 39.2981C43.3354 39.3347 43.4374 39.3344 43.5006 39.2979L47.3156 37.0953C47.379 37.0587 47.3793 37 47.3163 36.9634L45.8166 36.0918C45.7539 36.0554 45.6522 36.0552 45.5888 36.0919L41.7738 38.2944Z" fill="#494846"/>
<path d="M35.954 40.2536C35.8906 40.2902 35.8903 40.3493 35.9533 40.3859L36.2918 40.5826C36.3548 40.6192 36.4568 40.6192 36.5202 40.5826L38.0297 39.7111C38.0928 39.6746 38.0932 39.6155 38.0302 39.5789L37.6917 39.3822C37.6287 39.3456 37.5267 39.3456 37.4636 39.382L35.954 40.2536Z" fill="#494846"/>
<path d="M43.9585 39.5643C43.8954 39.6008 43.8954 39.66 43.9581 39.6965L45.4578 40.568C45.5205 40.6044 45.6228 40.6046 45.6859 40.5682L47.1957 39.6965C47.2589 39.66 47.2589 39.6008 47.1962 39.5644L45.6965 38.6928C45.6338 38.6564 45.5315 38.6562 45.4684 38.6926L43.9585 39.5643Z" fill="#494846"/>
<path d="M46.2639 38.2337C46.2011 38.2699 46.2005 38.3292 46.2632 38.3657L48.3351 39.5697L46.1442 40.8347C46.0811 40.8711 46.0808 40.9305 46.1435 40.967L47.6432 41.8385C47.7062 41.8751 47.8082 41.8748 47.8713 41.8383L51.6863 39.6357C51.7497 39.5991 51.7501 39.5404 51.6871 39.5038L48.0016 37.362C47.9389 37.3255 47.8372 37.3254 47.7737 37.362L46.2639 38.2337Z" fill="#494846"/>
<path d="M41.6538 40.8951C41.5907 40.9316 41.5907 40.9908 41.6534 41.0273L43.1531 41.8988C43.2158 41.9352 43.3181 41.9354 43.3812 41.899L44.8908 41.0275C44.9542 40.9908 44.9542 40.9316 44.8915 40.8951L43.3918 40.0236C43.3291 39.9872 43.2268 39.987 43.1634 40.0236L41.6538 40.8951Z" fill="#494846"/>
<path d="M37.1624 40.956C37.099 40.9926 37.099 41.0519 37.1617 41.0883L38.6614 41.9599C38.7241 41.9963 38.8264 41.9965 38.8898 41.9598L40.3993 41.0883C40.4624 41.0519 40.4625 40.9926 40.3998 40.9562L38.9001 40.0847C38.8374 40.0482 38.7351 40.0481 38.6719 40.0845L37.1624 40.956Z" fill="#494846"/>
<path d="M52.8216 42.044C52.7582 42.0806 52.7581 42.1399 52.8208 42.1763L54.3206 43.0479C54.3833 43.0843 54.4856 43.0845 54.549 43.0479L56.0585 42.1764C56.1216 42.1399 56.1216 42.0807 56.0589 42.0442L54.5592 41.1727C54.4965 41.1362 54.3942 41.1361 54.3311 41.1725L52.8216 42.044Z" fill="#494846"/>
<path d="M43.8394 42.1654C43.7763 42.2018 43.7763 42.2611 43.839 42.2975L45.3387 43.1691C45.4014 43.2055 45.5037 43.2057 45.5668 43.1692L47.0763 42.2977C47.1397 42.2611 47.1397 42.2018 47.077 42.1654L45.5773 41.2939C45.5146 41.2574 45.4123 41.2573 45.3489 41.2939L43.8394 42.1654Z" fill="#494846"/>
<path d="M39.348 42.2261C39.2845 42.2628 39.2845 42.322 39.3472 42.3585L40.8469 43.23C40.9096 43.2664 41.0119 43.2666 41.0753 43.23L42.5849 42.3585C42.648 42.322 42.648 42.2628 42.5853 42.2263L41.0856 41.3548C41.0229 41.3184 40.9206 41.3182 40.8575 41.3546L39.348 42.2261Z" fill="#494846"/>
<path d="M50.5162 43.3751C50.453 43.4116 50.453 43.4708 50.5157 43.5073L52.0154 44.3788C52.0781 44.4152 52.1804 44.4154 52.2435 44.379L53.7534 43.5073C53.8165 43.4709 53.8165 43.4116 53.7538 43.3752L52.2541 42.5036C52.1914 42.4672 52.0891 42.467 52.026 42.5034L50.5162 43.3751Z" fill="#494846"/>
<path d="M41.5345 43.4963C41.4711 43.5329 41.471 43.5922 41.5337 43.6286L43.0334 44.5001C43.0961 44.5366 43.1985 44.5367 43.2619 44.5001L44.7714 43.6286C44.8345 43.5922 44.8345 43.5329 44.7718 43.4965L43.2721 42.6249C43.2094 42.5885 43.1071 42.5883 43.044 42.6248L41.5345 43.4963Z" fill="#494846"/>
<path d="M37.0425 43.5573C36.9794 43.5937 36.9794 43.653 37.0421 43.6894L38.5418 44.5609C38.6045 44.5974 38.7068 44.5975 38.7699 44.5611L40.2797 43.6894C40.3428 43.653 40.3429 43.5937 40.2802 43.5573L38.7805 42.6857C38.7178 42.6493 38.6155 42.6491 38.5523 42.6856L37.0425 43.5573Z" fill="#494846"/>
<path d="M48.2115 44.7059C48.1483 44.7424 48.1483 44.8016 48.211 44.8381L49.7107 45.7096C49.7734 45.746 49.8757 45.7462 49.9389 45.7098L51.4484 44.8383C51.5118 44.8016 51.5118 44.7424 51.4491 44.7059L49.9494 43.8344C49.8867 43.798 49.7844 43.7978 49.721 43.8344L48.2115 44.7059Z" fill="#494846"/>
<path d="M43.72 44.7667C43.6566 44.8033 43.6566 44.8625 43.7193 44.899L45.219 45.7705C45.2817 45.807 45.384 45.8071 45.4474 45.7705L46.9569 44.899C47.0201 44.8626 47.0201 44.8033 46.9574 44.7669L45.4577 43.8953C45.395 43.8589 45.2927 43.8587 45.2296 43.8952L43.72 44.7667Z" fill="#494846"/>
<path d="M39.229 44.8276C39.1659 44.8641 39.1659 44.9233 39.2286 44.9598L40.7283 45.8313C40.791 45.8677 40.8933 45.8679 40.9564 45.8315L42.4662 44.9598C42.5294 44.9234 42.5294 44.8641 42.4667 44.8277L40.967 43.9561C40.9043 43.9197 40.802 43.9195 40.7389 43.956L39.229 44.8276Z" fill="#494846"/>
<path d="M30.2473 44.9488C30.1841 44.9852 30.1838 45.0447 30.2465 45.0811L31.7462 45.9526C31.8089 45.9891 31.9115 45.9891 31.9747 45.9526L33.4842 45.0811C33.5473 45.0447 33.5476 44.9852 33.4849 44.9488L31.9852 44.0773C31.9225 44.0408 31.8199 44.0408 31.7568 44.0773L30.2473 44.9488Z" fill="#494846"/>
<path d="M41.4146 46.0977C41.3515 46.1341 41.3514 46.1934 41.4142 46.2298L42.9139 47.1013C42.9766 47.1378 43.0789 47.1379 43.142 47.1015L44.6518 46.2298C44.7149 46.1934 44.7149 46.1341 44.6522 46.0977L43.1525 45.2262C43.0898 45.1897 42.9875 45.1895 42.9244 45.226L41.4146 46.0977Z" fill="#494846"/>
<path d="M36.9234 46.1583C36.8603 46.1948 36.8602 46.254 36.9229 46.2904L38.4226 47.162C38.4853 47.1984 38.5876 47.1986 38.6508 47.1622L40.1603 46.2906C40.2237 46.254 40.2237 46.1948 40.161 46.1583L38.6613 45.2868C38.5986 45.2504 38.4963 45.2502 38.4329 45.2868L36.9234 46.1583Z" fill="#494846"/>
<path d="M32.4328 46.2191C32.3697 46.2555 32.3694 46.3149 32.4321 46.3514L33.9318 47.2229C33.9945 47.2593 34.0971 47.2593 34.1602 47.2229L35.6697 46.3514C35.7328 46.3149 35.7332 46.2555 35.6705 46.2191L34.1708 45.3475C34.1081 45.3111 34.0054 45.3111 33.9423 45.3475L32.4328 46.2191Z" fill="#494846"/>
<path d="M27.9417 46.2796C27.8783 46.3162 27.8783 46.3755 27.941 46.4119L29.4407 47.2835C29.5034 47.3199 29.6057 47.3201 29.6691 47.2835L31.1786 46.4119C31.2417 46.3755 31.2418 46.3163 31.1791 46.2798L29.6794 45.4083C29.6166 45.3718 29.5144 45.3717 29.4512 45.4081L27.9417 46.2796Z" fill="#494846"/>
<path d="M39.1094 47.4286C39.0463 47.465 39.0463 47.5243 39.109 47.5607L40.6087 48.4323C40.6714 48.4687 40.7737 48.4689 40.8368 48.4324L42.3463 47.5609C42.4097 47.5243 42.4098 47.465 42.3471 47.4286L40.8474 46.5571C40.7846 46.5206 40.6824 46.5204 40.6189 46.5571L39.1094 47.4286Z" fill="#494846"/>
<path d="M34.6184 47.4892C34.5552 47.5256 34.5549 47.585 34.6176 47.6215L36.1173 48.493C36.18 48.5295 36.2826 48.5295 36.3458 48.493L37.8553 47.6215C37.9184 47.5851 37.9187 47.5256 37.856 47.4892L36.3563 46.6177C36.2936 46.5812 36.191 46.5812 36.1279 46.6177L34.6184 47.4892Z" fill="#494846"/>
<path d="M25.6363 47.6107C25.5732 47.6472 25.5731 47.7064 25.6358 47.7429L27.1355 48.6144C27.1982 48.6509 27.3005 48.651 27.3637 48.6146L28.8735 47.7429C28.9366 47.7065 28.9366 47.6472 28.8739 47.6108L27.3742 46.7392C27.3115 46.7028 27.2092 46.7026 27.1461 46.739L25.6363 47.6107Z" fill="#494846"/>
<path d="M32.3138 48.82C32.2504 48.8566 32.2503 48.9159 32.313 48.9523L33.8127 49.8239C33.8754 49.8603 33.9777 49.8605 34.0412 49.8239L35.5507 48.9523C35.6138 48.9159 35.6138 48.8566 35.5511 48.8202L34.0514 47.9487C33.9887 47.9122 33.8864 47.9121 33.8233 47.9485L32.3138 48.82Z" fill="#494846"/>
<path d="M17.5109 50.9013C17.4478 50.9378 17.4474 50.9969 17.5105 51.0335L17.8489 51.2302C17.9119 51.2668 18.0139 51.2668 18.0771 51.2304L19.5869 50.3586C19.65 50.3222 19.6503 50.2631 19.5873 50.2265L19.2488 50.0298C19.1858 49.9932 19.0838 49.9932 19.0207 50.0296L17.5109 50.9013Z" fill="#494846"/>
<path d="M21.0257 50.2728C20.9623 50.3094 20.9622 50.3687 21.025 50.4051L22.5247 51.2766C22.5874 51.3131 22.6897 51.3132 22.7531 51.2766L24.2626 50.4051C24.3257 50.3687 24.3258 50.3094 24.2631 50.273L22.7633 49.4014C22.7006 49.365 22.5983 49.3648 22.5352 49.4013L21.0257 50.2728Z" fill="#494846"/>
<path d="M32.1934 51.4214C32.1303 51.4578 32.1303 51.5171 32.193 51.5535L33.6927 52.4251C33.7554 52.4615 33.8577 52.4617 33.9208 52.4252L35.4306 51.5535C35.4937 51.5171 35.4938 51.4579 35.431 51.4214L33.9313 50.5499C33.8686 50.5134 33.7663 50.5133 33.7032 50.5497L32.1934 51.4214Z" fill="#494846"/>
<path d="M27.7023 51.4823C27.6392 51.5188 27.6389 51.5782 27.7016 51.6147L29.2013 52.4862C29.264 52.5226 29.3666 52.5226 29.4297 52.4862L30.9393 51.6147C31.0024 51.5782 31.0027 51.5188 30.94 51.4824L29.4403 50.6108C29.3776 50.5744 29.275 50.5744 29.2119 50.6108L27.7023 51.4823Z" fill="#494846"/>
<path d="M15.2062 52.2322C15.1431 52.2687 15.1428 52.3278 15.2058 52.3644L15.5442 52.5611C15.6073 52.5977 15.7093 52.5977 15.7724 52.5612L17.2819 51.6897C17.3453 51.6531 17.3456 51.594 17.2826 51.5574L16.9442 51.3607C16.8811 51.3241 16.7792 51.3241 16.7157 51.3607L15.2062 52.2322Z" fill="#494846"/>
<path d="M23.2117 51.5428C23.1483 51.5794 23.1483 51.6387 23.211 51.6751L24.7107 52.5467C24.7734 52.5831 24.8757 52.5833 24.9391 52.5467L26.4486 51.6751C26.5118 51.6387 26.5118 51.5794 26.4491 51.543L24.9494 50.6715C24.8867 50.635 24.7844 50.6348 24.7213 50.6713L23.2117 51.5428Z" fill="#494846"/>
<path d="M18.7203 51.6037C18.6571 51.6401 18.6571 51.6994 18.7198 51.7358L20.2195 52.6073C20.2822 52.6438 20.3845 52.644 20.4476 52.6075L21.9575 51.7358C22.0206 51.6994 22.0206 51.6401 21.9579 51.6037L20.4582 50.7321C20.3955 50.6957 20.2932 50.6955 20.2301 50.732L18.7203 51.6037Z" fill="#494846"/>
<path d="M29.8879 52.7524C29.8248 52.7888 29.8244 52.8482 29.8871 52.8847L31.3869 53.7562C31.4496 53.7926 31.5522 53.7926 31.6153 53.7562L33.1248 52.8847C33.1879 52.8482 33.1883 52.7888 33.1256 52.7524L31.6258 51.8808C31.5631 51.8444 31.4605 51.8444 31.3974 51.8808L29.8879 52.7524Z" fill="#494846"/>
<path d="M12.9013 53.5631C12.8379 53.5998 12.8375 53.6588 12.9006 53.6954L13.239 53.8921C13.302 53.9288 13.404 53.9288 13.4675 53.8921L14.977 53.0206C15.0401 52.9842 15.0404 52.9251 14.9774 52.8885L14.6389 52.6918C14.5759 52.6552 14.4739 52.6552 14.4108 52.6916L12.9013 53.5631Z" fill="#494846"/>
<path d="M20.9063 52.8739C20.8432 52.9104 20.8431 52.9696 20.9058 53.006L22.4056 53.8776C22.4683 53.914 22.5706 53.9142 22.6337 53.8778L24.1435 53.0061C24.2066 52.9696 24.2066 52.9104 24.1439 52.8739L22.6442 52.0024C22.5815 51.966 22.4792 51.9658 22.4161 52.0022L20.9063 52.8739Z" fill="#494846"/>
<path d="M16.4151 52.9346C16.352 52.971 16.3519 53.0302 16.4146 53.0667L17.9143 53.9382C17.9771 53.9747 18.0793 53.9748 18.1425 53.9384L19.652 53.0669C19.7154 53.0303 19.7154 52.971 19.6527 52.9346L18.153 52.063C18.0903 52.0266 17.988 52.0264 17.9246 52.063L16.4151 52.9346Z" fill="#494846"/>
<path d="M27.5833 54.0832C27.5199 54.1198 27.5199 54.1791 27.5826 54.2155L29.0823 55.0871C29.145 55.1235 29.2473 55.1237 29.3107 55.0871L30.8202 54.2155C30.8833 54.1791 30.8834 54.1198 30.8207 54.0834L29.321 53.2119C29.2582 53.1754 29.1559 53.1752 29.0928 53.2117L27.5833 54.0832Z" fill="#494846"/>
<path d="M14.1107 54.2653C14.0472 54.3019 14.0472 54.3612 14.1099 54.3976L15.6096 55.2692C15.6723 55.3056 15.7746 55.3058 15.838 55.2692L17.3476 54.3977C17.4107 54.3612 17.4107 54.302 17.348 54.2655L15.8483 53.394C15.7856 53.3576 15.6833 53.3574 15.6202 53.3938L14.1107 54.2653Z" fill="#494846"/>
<path d="M29.7692 55.3535C29.7058 55.3901 29.7061 55.4492 29.7688 55.4856L31.2685 56.3571C31.3315 56.3938 31.4332 56.3939 31.4966 56.3573L49.143 46.1692C49.2061 46.1327 49.2065 46.0736 49.1435 46.037L47.6437 45.1655C47.581 45.129 47.4787 45.1289 47.4156 45.1653L29.7692 55.3535Z" fill="#494846"/>
<path d="M25.2774 55.4143C25.2143 55.4508 25.2142 55.51 25.2769 55.5465L26.7767 56.418C26.8394 56.4544 26.9417 56.4546 27.0048 56.4182L28.5146 55.5465C28.5777 55.51 28.5777 55.4508 28.515 55.4143L27.0153 54.5428C26.9526 54.5064 26.8503 54.5062 26.7872 54.5426L25.2774 55.4143Z" fill="#494846"/>
<path d="M16.2959 55.5361C16.2324 55.5727 16.2321 55.6318 16.2948 55.6682L17.7945 56.5397C17.8575 56.5763 17.9592 56.5762 18.0227 56.5396L21.8374 54.3371C21.9008 54.3005 21.9014 54.2416 21.8384 54.205L20.3387 53.3335C20.276 53.297 20.174 53.297 20.1106 53.3336L16.2959 55.5361Z" fill="#494846"/>
<path d="M27.4634 56.6846C27.4003 56.721 27.4003 56.7803 27.463 56.8167L28.9627 57.6883C29.0254 57.7247 29.1277 57.7249 29.1908 57.6884L30.7006 56.8167C30.7638 56.7803 30.7638 56.721 30.7011 56.6846L29.2014 55.8131C29.1387 55.7766 29.0364 55.7764 28.9732 55.8129L27.4634 56.6846Z" fill="#494846"/>
<path d="M18.4818 56.8061C18.4183 56.8427 18.4183 56.9019 18.481 56.9384L19.9807 57.8099C20.0437 57.8465 20.1454 57.8463 20.2088 57.8097L26.3287 54.2764C26.3921 54.2398 26.3928 54.1809 26.3298 54.1443L24.8301 53.2728C24.7674 53.2363 24.6651 53.2361 24.6016 53.2728L18.4818 56.8061Z" fill="#494846"/>
<path d="M25.1582 58.0155C25.0951 58.0519 25.0951 58.1112 25.1578 58.1476L26.6575 59.0192C26.7202 59.0556 26.8225 59.0558 26.8856 59.0193L28.3952 58.1478C28.4586 58.1112 28.4586 58.0519 28.3959 58.0155L26.8962 57.144C26.8335 57.1075 26.7312 57.1074 26.6678 57.144L25.1582 58.0155Z" fill="#494846"/>
<path d="M22.8533 59.3464C22.7899 59.383 22.7899 59.4423 22.8526 59.4787L24.3523 60.3502C24.415 60.3867 24.5173 60.3869 24.5807 60.3502L26.0903 59.4787C26.1534 59.4423 26.1534 59.383 26.0907 59.3466L24.591 58.475C24.5283 58.4386 24.426 58.4384 24.3629 58.4749L22.8533 59.3464Z" fill="#494846"/>
<path d="M46.0256 43.4358C45.9625 43.4723 45.9622 43.5317 46.0246 43.568L47.5246 44.4397C47.5876 44.4763 47.6896 44.4759 47.7527 44.4395L53.8729 40.906C53.9363 40.8694 53.9367 40.8107 53.8737 40.774L52.3736 39.9023C52.3112 39.8661 52.2092 39.8657 52.1458 39.9023L46.0256 43.4358Z" fill="#494846"/>
<path d="M34.7378 44.8883C34.6747 44.9247 34.6747 44.984 34.7374 45.0204L36.2371 45.8919C36.2998 45.9284 36.4021 45.9286 36.4652 45.8921L37.9747 45.0206C38.0382 44.984 38.0382 44.9247 37.9755 44.8883L36.4758 44.0168C36.4131 43.9803 36.3108 43.9802 36.2473 44.0168L34.7378 44.8883Z" fill="#494846"/>
<path d="M30.1268 47.5499C30.0633 47.5865 30.0633 47.6458 30.126 47.6822L31.6257 48.5537C31.6884 48.5902 31.7907 48.5904 31.8542 48.5537L33.3637 47.6822C33.4268 47.6458 33.4268 47.5865 33.3641 47.5501L31.8644 46.6785C31.8017 46.6421 31.6994 46.6419 31.6363 46.6784L30.1268 47.5499Z" fill="#494846"/>
<path d="M27.8223 48.8811C27.7592 48.9176 27.7592 48.9768 27.8219 49.0132L29.3216 49.8848C29.3843 49.9212 29.4866 49.9214 29.5497 49.885L31.0595 49.0133C31.1226 48.9768 31.1227 48.9176 31.06 48.8811L29.5602 48.0096C29.4975 47.9732 29.3952 47.973 29.3321 48.0094L27.8223 48.8811Z" fill="#494846"/>
<path d="M23.3312 48.9416C23.2681 48.978 23.2678 49.0374 23.3305 49.0739L24.8302 49.9454C24.8929 49.9819 24.9955 49.9819 25.0586 49.9454L26.5682 49.0739C26.6313 49.0375 26.6316 48.978 26.5689 48.9416L25.0692 48.0701C25.0065 48.0336 24.9039 48.0336 24.8408 48.0701L23.3312 48.9416Z" fill="#494846"/>
<path d="M25.5168 50.212C25.4537 50.2484 25.4533 50.3078 25.516 50.3443L27.0158 51.2158C27.0785 51.2522 27.1811 51.2522 27.2442 51.2158L28.7537 50.3443C28.8168 50.3078 28.8172 50.2484 28.7545 50.212L27.2547 49.3404C27.192 49.304 27.0894 49.304 27.0263 49.3404L25.5168 50.212Z" fill="#494846"/>
<path d="M19.8173 49.5701C19.7539 49.6067 19.7536 49.6658 19.8166 49.7024L20.1551 49.8991C20.2181 49.9357 20.3201 49.9357 20.3835 49.8991L21.893 49.0276C21.9561 48.9911 21.9565 48.9321 21.8934 48.8955L21.555 48.6987C21.492 48.6621 21.39 48.6621 21.3268 48.6986L19.8173 49.5701Z" fill="#494846"/>
<path d="M22.1224 48.2391C22.0593 48.2756 22.0586 48.3348 22.1216 48.3714L22.4601 48.5682C22.5231 48.6048 22.6254 48.6046 22.6885 48.5682L24.1981 47.6966C24.2612 47.6602 24.2618 47.6009 24.1988 47.5643L23.8603 47.3676C23.7973 47.331 23.695 47.3312 23.6319 47.3676L22.1224 48.2391Z" fill="#494846"/>
<path d="M24.4269 46.9083C24.3638 46.9447 24.3635 47.0038 24.4265 47.0404L24.765 47.2371C24.828 47.2738 24.93 47.2738 24.9931 47.2373L26.5029 46.3656C26.566 46.3292 26.5663 46.2701 26.5033 46.2335L26.1649 46.0368C26.1018 46.0001 25.9999 46.0001 25.9367 46.0366L24.4269 46.9083Z" fill="#494846"/>
<path d="M26.7333 45.5774C26.6699 45.614 26.6696 45.6731 26.7326 45.7097L27.0711 45.9064C27.1341 45.9431 27.2361 45.9431 27.2995 45.9064L28.809 45.0349C28.8721 44.9985 28.8725 44.9394 28.8095 44.9028L28.471 44.7061C28.408 44.6695 28.306 44.6695 28.2429 44.7059L26.7333 45.5774Z" fill="#494846"/>
<path d="M29.0379 44.2463C28.9748 44.2828 28.9741 44.342 29.0372 44.3786L29.3756 44.5753C29.4386 44.6119 29.5409 44.6118 29.6041 44.5753L31.1136 43.7038C31.1767 43.6674 31.1773 43.6081 31.1143 43.5715L30.7759 43.3748C30.7128 43.3382 30.6105 43.3384 30.5474 43.3748L29.0379 44.2463Z" fill="#494846"/>
<path d="M34.8575 42.2869C34.7943 42.3233 34.7943 42.3826 34.857 42.419L36.3567 43.2905C36.4194 43.327 36.5217 43.3272 36.5848 43.2907L38.0947 42.419C38.1578 42.3826 38.1578 42.3233 38.0951 42.2869L36.5954 41.4154C36.5327 41.3789 36.4304 41.3787 36.3673 41.4152L34.8575 42.2869Z" fill="#494846"/>
<path d="M32.5523 43.6178C32.4892 43.6542 32.4891 43.7135 32.5518 43.7499L34.0516 44.6214C34.1143 44.6579 34.2166 44.6581 34.2797 44.6216L35.7892 43.7501C35.8526 43.7135 35.8526 43.6542 35.7899 43.6178L34.2902 42.7463C34.2275 42.7098 34.1252 42.7097 34.0618 42.7463L32.5523 43.6178Z" fill="#494846"/>
<path d="M31.3429 42.9155C31.2798 42.9519 31.2795 43.011 31.3425 43.0476L31.681 43.2443C31.744 43.2809 31.846 43.2809 31.9091 43.2445L33.4186 42.373C33.482 42.3363 33.4824 42.2773 33.4194 42.2406L33.0809 42.0439C33.0179 42.0073 32.9159 42.0073 32.8525 42.0439L31.3429 42.9155Z" fill="#494846"/>
<path d="M33.6481 41.5846C33.585 41.621 33.5847 41.6801 33.6477 41.7167L33.9861 41.9134C34.0492 41.95 34.1511 41.95 34.2143 41.9136L35.7241 41.0419C35.7872 41.0054 35.7875 40.9464 35.7245 40.9097L35.386 40.713C35.323 40.6764 35.221 40.6764 35.1579 40.7129L33.6481 41.5846Z" fill="#494846"/>
<path d="M38.2589 38.9227C38.1958 38.9591 38.1955 39.0182 38.2585 39.0548L38.597 39.2515C38.66 39.2881 38.762 39.2881 38.8251 39.2517L40.3346 38.3802C40.398 38.3435 40.3984 38.2845 40.3354 38.2478L39.9969 38.0511C39.9339 38.0145 39.8319 38.0145 39.7685 38.0511L38.2589 38.9227Z" fill="#494846"/>
<path d="M53.1006 54.6914C53.1006 55.0157 52.906 55.3077 52.5708 55.5023L43.3798 60.8114C43.1095 60.9628 42.7635 61.0493 42.3959 61.0493C42.0282 61.0493 41.6822 60.9628 41.4227 60.8114L35.0972 57.1351C34.762 56.9405 34.5674 56.6485 34.5674 56.3241C34.5674 55.9997 34.762 55.697 35.108 55.5023L44.299 50.1932C44.8612 49.8796 45.6938 49.8796 46.2561 50.1932L52.5708 53.8696C52.906 54.0642 53.1006 54.367 53.1006 54.6914Z" fill="#D6D4D2"/>
<path d="M7.17509 51.5088C7.17826 52.0219 7.73237 52.3399 8.17323 52.0819L42.886 32.0411C42.8892 32.0381 42.8892 32.0381 42.8892 32.0381L43.607 31.6256C44.0132 31.3893 44.3973 30.7283 44.3942 30.2624L44.3292 6.72754L7.10791 28.2165L7.17509 51.5088Z" fill="white"/>
<path d="M43.3293 4.58884L8.46224 24.7239L7.89546 25.0513C7.48305 25.2843 7.10205 25.9488 7.10205 26.4147L7.10726 28.2164L44.3286 6.72746L44.3243 5.16506C44.3243 4.65497 43.7701 4.33694 43.3293 4.58884Z" fill="#F25A5A"/>
<path d="M10.2661 39.5103L18.351 34.843L18.3772 44.1303L10.2929 48.7977L10.2661 39.5103Z" fill="#81D672"/>
<path d="M22.0723 32.701L30.1571 28.0337L30.1834 37.321L22.099 41.9883L22.0723 32.701Z" fill="#B5E5F4"/>
<path d="M33.8789 25.8917L41.9638 21.2244L41.99 30.5117L33.9056 35.179L33.8789 25.8917Z" fill="#DD4A4A"/>
<path d="M9.42871 29.499L43.649 9.74194L43.6716 17.5548L9.45083 37.3118L9.42871 29.499Z" fill="#E9E8E6"/>
<path d="M53.718 28.6926L52.0088 27.6993L51.9922 21.85L53.7015 22.8433L53.718 28.6926Z" fill="#00649B"/>
<path d="M60.158 1.69411L61.8672 2.68743C61.6718 2.57385 61.4008 2.5904 61.1009 2.76358L59.3916 1.77026C59.6916 1.59708 59.9625 1.58053 60.158 1.69411Z" fill="#3F9AE0"/>
<path d="M40.5518 30.0676L38.8425 29.0742C38.6502 28.9625 38.5307 28.7256 38.5298 28.3887L40.2391 29.382C40.24 29.719 40.3595 29.9558 40.5518 30.0676Z" fill="#006CB5"/>
<path d="M40.2387 29.382L38.5294 28.3887L38.4917 15.0756L40.2009 16.0689L40.2387 29.382Z" fill="#3F9AE0"/>
<path d="M41.2737 14.2108L39.5645 13.2175L59.3918 1.77014L61.1011 2.76346L41.2737 14.2108Z" fill="#006CB5"/>
<path d="M40.201 16.0689L38.4917 15.0756C38.4898 14.3906 38.9721 13.5596 39.5643 13.2177L41.2736 14.211C40.6813 14.5529 40.199 15.3839 40.201 16.0689Z" fill="#005E87"/>
<path d="M61.1007 2.76343C61.6968 2.41925 62.1784 2.69372 62.1803 3.37872L62.2181 16.6919C62.22 17.3724 61.7415 18.2011 61.1454 18.5453L58.7996 19.8996L53.718 28.6923L53.7014 22.8431L41.3181 29.9926C40.7258 30.3345 40.2404 30.0624 40.2384 29.3818L40.2007 16.0687C40.1987 15.3837 40.6811 14.5527 41.2733 14.2108L61.1007 2.76343Z" fill="#0074D1"/>
<path d="M46.539 12.406C49.4505 10.725 51.8235 12.0773 51.833 15.4297C51.8425 18.7821 49.4849 22.8655 46.5734 24.5465C43.6559 26.2309 41.283 24.8786 41.2735 21.5263C41.264 18.1738 43.6215 14.0904 46.539 12.406Z" fill="white"/>
<path d="M46.5569 14.2549C46.9971 14.0008 47.3599 14.2007 47.3614 14.7133C47.3628 15.226 47.0023 15.8505 46.5622 16.1046C46.116 16.3622 45.7471 16.1589 45.7456 15.6462C45.7442 15.1335 46.1108 14.5125 46.5569 14.2549Z" fill="#DDB040"/>
<path d="M46.5384 15.0197C47.1839 14.647 47.7666 14.6115 48.1921 14.854C48.6151 15.0951 48.8785 15.6182 48.8806 16.3545L48.8877 18.8639L49.0291 18.7823C49.2388 18.6612 49.4113 18.7569 49.412 18.9978C49.4127 19.2414 49.2412 19.5356 49.0316 19.6567L47.578 20.4959C47.5798 21.1455 47.1243 21.9373 46.5589 22.2637C45.9935 22.5902 45.5326 22.3275 45.5308 21.6779L44.0772 22.5171C43.8676 22.6381 43.695 22.5425 43.6943 22.2989C43.6937 22.0579 43.8651 21.7637 44.0747 21.6427L44.2161 21.5611L44.209 19.0516C44.2048 17.5736 45.2474 15.765 46.5384 15.0197Z" fill="#FFD651"/>
<path d="M61.2235 5.35706L61.2263 6.37714L53.0627 11.0904L53.0598 10.0703L61.2235 5.35706Z" fill="white"/>
<path d="M61.2227 8.22363L61.2256 9.24372L53.062 13.957L53.0591 12.9369L61.2227 8.22363Z" fill="white"/>
<path d="M61.2227 11.0903L61.2256 12.1104L53.062 16.8237L53.0591 15.8036L61.2227 11.0903Z" fill="white"/>
<path d="M61.2227 13.9572L61.2256 14.9772L53.062 19.6905L53.0591 18.6704L61.2227 13.9572Z" fill="white"/>
<path d="M8.76542 25.0944C9.17298 24.8591 9.50901 25.0442 9.51035 25.5189C9.5117 25.9936 9.17783 26.5719 8.77028 26.8072C8.35716 27.0457 8.01551 26.8575 8.01416 26.3827C8.01282 25.908 8.3523 25.3329 8.76542 25.0944Z" fill="white"/>
<path d="M11.2159 23.6794C11.629 23.4409 11.9651 23.6259 11.9664 24.1007C11.9678 24.5754 11.6339 25.1537 11.2208 25.3922C10.8076 25.6307 10.4716 25.4392 10.4702 24.9645C10.4689 24.4898 10.8028 23.9179 11.2159 23.6794Z" fill="white"/>
<path d="M13.6729 22.2612C14.086 22.0226 14.4221 22.2077 14.4234 22.6824C14.4248 23.1572 14.0909 23.7355 13.6778 23.974C13.2646 24.2125 12.9286 24.021 12.9273 23.5463C12.9259 23.0715 13.2598 22.4997 13.6729 22.2612Z" fill="white"/>
</svg>
