<svg width="104" height="104" viewBox="0 0 104 104" fill="none" xmlns="http://www.w3.org/2000/svg">
<path d="M96.7684 51.6686L96.6436 101.173L95.3332 101.922L74.6997 90.0034V91.1064C74.6997 91.8132 74.4501 92.3119 74.0341 92.5404L70.0405 94.8703C70.0405 94.8703 70.0405 94.8703 70.0405 94.85C69.6453 95.1201 69.0628 95.0998 68.418 94.725L39.9221 78.2719C38.6949 77.5437 37.6965 75.7968 37.6965 74.3831V72.9683L36.1989 72.1152L36.3653 15.6018L37.8421 14.7486L37.8628 9.23683C37.8628 8.52996 38.1124 8.03027 38.5076 7.80176H38.5284L42.5221 5.47191C42.9172 5.2434 43.4789 5.26371 44.1236 5.63848L72.6197 22.0916C73.8676 22.7985 74.8661 24.5464 74.8661 25.9804L74.8245 39.0018L96.7684 51.6686Z" fill="#E4E8F4"/>
<path d="M8.66006 2.08142L35.1592 17.3696L35.0136 66.8732L33.724 67.6227L7.22485 52.3132L7.37047 2.82994L8.66006 2.08142Z" fill="#E4E8F4"/>
<path d="M70.8512 28.2821L70.6807 93.4351C70.6807 94.8555 69.677 95.4428 68.4269 94.7233L39.9224 78.2647C38.6914 77.5442 37.6875 75.8019 37.6875 74.3814L37.858 9.22853C37.858 7.82654 38.8618 7.24022 40.1119 7.95971L68.6163 24.4183C69.8663 25.1378 70.8702 26.8801 70.8512 28.2821Z" fill="#474B59"/>
<path d="M69.5014 31.3766L69.3526 89.5544L39.0369 72.0515L39.1857 13.8738L69.5014 31.3766Z" fill="white"/>
<path d="M74.866 25.971L74.6955 91.1054C74.6955 91.8064 74.4494 92.3179 74.0326 92.5454L70.0364 94.874C70.434 94.6474 70.6803 94.136 70.6803 93.435L70.8508 28.2821C70.8697 26.8801 69.8659 25.1378 68.6159 24.4183L40.1114 7.95967C39.4864 7.59993 38.9182 7.56201 38.5015 7.808L42.5167 5.47844C42.9145 5.25094 43.4827 5.27036 44.1267 5.63011L72.6122 22.0887C73.8621 22.8082 74.866 24.5505 74.866 25.971Z" fill="#5B5E71"/>
<path d="M58.7205 15.5797C59.0558 15.7732 59.0575 16.0743 58.7306 16.2643C58.4036 16.4543 57.8775 16.4579 57.5423 16.2644L54.643 14.5905C54.314 14.4005 54.3123 14.0922 54.6393 13.9022C54.9662 13.7122 55.4922 13.7158 55.8212 13.9058L58.7205 15.5797Z" fill="#474B59"/>
<path d="M73.1913 35.9789C73.0008 36.0889 72.8354 36.2702 72.7116 36.485C72.5877 36.69 72.5137 36.9329 72.5143 37.142L72.5234 40.35C72.5246 40.7781 72.8321 40.944 73.2048 40.7288C73.5776 40.5136 73.8748 39.9985 73.8736 39.5704L73.8645 36.3625C73.8633 35.9344 73.5641 35.7637 73.1913 35.9789Z" fill="#474B59"/>
<path d="M72.0865 40.0846L72.0735 36.8803C72.0735 36.6725 72.1513 36.4261 72.2681 36.2183C72.3978 36.0105 72.5665 35.8287 72.7482 35.7121C72.9427 35.6082 73.1114 35.5955 73.2282 35.6602L73.6044 35.8939C73.5007 35.8679 73.3579 35.8939 73.2152 35.9845C73.0206 36.0884 72.852 36.2702 72.7352 36.4907C72.6055 36.6852 72.5276 36.9316 72.5276 37.1394L72.5405 40.3443C72.5405 40.5648 72.6184 40.7073 72.7352 40.7725L72.2811 40.5128C72.1643 40.4482 72.0865 40.2923 72.0865 40.0846Z" fill="#5B5E71"/>
<path d="M73.6948 41.7582C73.5781 41.6936 73.4094 41.6936 73.2278 41.8101C73.0331 41.914 72.8645 42.0952 72.7477 42.3157C72.618 42.5234 72.5531 42.7572 72.5531 42.9777V46.1826C72.5531 46.3897 72.6309 46.5456 72.7477 46.6108L72.2936 46.3511C72.1769 46.2732 72.099 46.1306 72.099 45.9228L72.0861 42.7053C72.0861 42.4975 72.1639 42.2643 72.2936 42.0432C72.4104 41.8361 72.5791 41.6543 72.7737 41.5377C72.9553 41.4338 73.124 41.4211 73.2408 41.4984L73.6948 41.7582Z" fill="#5B5E71"/>
<path d="M73.2082 41.8046C73.0177 41.9146 72.8522 42.096 72.7284 42.3103C72.6045 42.5245 72.5305 42.7581 72.5311 42.9771L72.5402 46.185C72.5414 46.6131 72.8489 46.779 73.2217 46.5638C73.5944 46.3486 73.8917 45.8336 73.8905 45.4055L73.8814 42.1975C73.8801 41.7694 73.5809 41.5894 73.2082 41.8046Z" fill="#474B59"/>
<path d="M57.1997 20.2888C57.5612 20.4975 57.8543 21.005 57.8531 21.4205C57.8519 21.8429 57.5569 22.0039 57.1954 21.7952L49.4045 17.2971C49.043 17.0884 48.7499 16.5879 48.7511 16.1655C48.7523 15.7499 49.0473 15.5821 49.4088 15.7908L57.1997 20.2888Z" fill="#5B5E71"/>
<path d="M59.0682 21.3677C59.4297 21.5764 59.7228 22.0838 59.7216 22.4993C59.7204 22.9145 59.4254 23.0827 59.0639 22.874C58.7025 22.6653 58.4093 22.1575 58.4105 21.7424C58.4117 21.3268 58.7067 21.159 59.0682 21.3677Z" fill="#5B5E71"/>
<path d="M60.937 22.4465C61.3046 22.6588 61.5977 23.1662 61.5965 23.5817C61.5954 23.9969 61.3003 24.1651 60.9327 23.9529C60.5712 23.7442 60.2781 23.2364 60.2793 22.8212C60.2805 22.4057 60.5755 22.2378 60.937 22.4465Z" fill="#FED57A"/>
<path opacity="0.3" d="M95.4786 52.4261L96.7755 51.6724L96.6352 101.164L95.3383 101.918L95.4786 52.4261Z" fill="#3C5DD6"/>
<path opacity="0.3" d="M68.985 37.1299L70.2819 36.3762L96.7757 51.6724L95.4787 52.4261L68.985 37.1299Z" fill="#3C5DD6"/>
<g opacity="0.3">
<path opacity="0.3" d="M95.4785 52.4262L95.3382 101.918L68.8445 86.6219L68.9848 37.13L95.4785 52.4262Z" fill="#3C5DD6"/>
</g>
<path d="M72.9018 53.6371L73.2127 54.1755L71.8425 54.9601L73.2038 57.318L72.8909 57.4963L71.2155 54.5981L72.9018 53.6371Z" fill="#3A3A3A"/>
<path d="M91.8428 63.3407L93.515 66.2408L91.8319 67.2L91.5177 66.6596L92.8912 65.8806L91.5266 63.5171L91.8428 63.3407Z" fill="#3A3A3A"/>
<path d="M92.0487 90.2442L92.0391 93.9909C92.0295 94.6361 91.5865 94.8962 91.0182 94.5783L73.8072 84.639C73.2582 84.3211 72.8055 83.5315 72.8055 82.8858L72.8152 79.149C72.8152 78.5136 73.2775 78.2536 73.8265 78.5715L91.0375 88.5108C91.5961 88.8381 92.0487 89.6089 92.0487 90.2442Z" fill="#E63044"/>
<path d="M81.7993 85.742L80.8362 85.9922L81.2022 87.5041L80.2391 86.1365L79.276 86.3872L79.642 85.3084L78.6788 83.9408L79.8731 84.634L80.2391 83.5364L80.6051 85.0483L81.7993 85.742Z" fill="#F9BB4A"/>
<path d="M88.1273 90.2011L88.4933 91.7131L87.5302 90.3455L86.567 90.6056L86.9426 89.5173L85.9795 88.1498L87.1738 88.843L87.5398 87.7449L87.8962 89.2667L89.0904 89.9505L88.1273 90.2011Z" fill="white"/>
<path d="M85.4492 87.8412L84.4765 88.0919L84.8425 89.6038L83.8793 88.2457L82.9162 88.4963L83.2919 87.4076L82.3287 86.0499L83.523 86.7337L83.889 85.6455L84.255 87.1574L85.4492 87.8412Z" fill="white"/>
<path d="M78.1585 83.6324L77.1858 83.883L77.5517 85.395L76.5886 84.0368L75.6255 84.2875L76.0011 83.1992L75.038 81.8317L76.2226 82.5249L76.5982 81.4366L76.9642 82.9486L78.1585 83.6324Z" fill="#F9BB4A"/>
<path opacity="0.3" d="M33.8671 18.1277L35.1641 17.374L35.0238 66.8659L33.7268 67.6196L33.8671 18.1277Z" fill="#3C5DD6"/>
<path opacity="0.3" d="M7.37366 2.83158L8.6706 2.07788L35.1643 17.374L33.8674 18.1278L7.37366 2.83158Z" fill="#3C5DD6"/>
<path opacity="0.3" d="M33.8671 18.1277L33.7268 67.6196L7.23303 52.3234L7.37334 2.83154L33.8671 18.1277Z" fill="#576CFB"/>
<path d="M11.2904 19.3387L11.6013 19.8772L10.2311 20.6618L11.5924 23.0197L11.2795 23.198L9.604 20.2997L11.2904 19.3387Z" fill="#3A3A3A"/>
<path d="M30.2314 29.0424L31.9035 31.9424L30.2204 32.9016L29.9062 32.3613L31.2797 31.5823L29.9152 29.2188L30.2314 29.0424Z" fill="#3A3A3A"/>
<path d="M30.4373 55.9459L30.4277 59.6925C30.4181 60.3378 29.975 60.5978 29.4068 60.2799L12.1957 50.3406C11.6467 50.0227 11.1941 49.2331 11.1941 48.5875L11.2037 44.8506C11.2037 44.2153 11.666 43.9552 12.215 44.2732L29.426 54.2124C29.9847 54.5397 30.4373 55.3105 30.4373 55.9459Z" fill="#E63044"/>
<path d="M20.1879 51.4436L19.2248 51.6938L19.5908 53.2058L18.6276 51.8382L17.6645 52.0888L18.0305 51.01L17.0674 49.6425L18.2617 50.3357L18.6276 49.238L18.9936 50.75L20.1879 51.4436Z" fill="#F9BB4A"/>
<path d="M26.5158 55.9028L26.8818 57.4147L25.9187 56.0472L24.9556 56.3072L25.3312 55.219L24.368 53.8514L25.5624 54.5446L25.9284 53.4465L26.2847 54.9683L27.479 55.6521L26.5158 55.9028Z" fill="white"/>
<path d="M23.8378 53.5429L22.865 53.7935L23.231 55.3055L22.2679 53.9473L21.3048 54.198L21.6804 53.1093L20.7173 51.7516L21.9116 52.4354L22.2775 51.3472L22.6435 52.8591L23.8378 53.5429Z" fill="white"/>
<path d="M16.547 49.334L15.5743 49.5847L15.9403 51.0966L14.9771 49.7385L14.014 49.9891L14.3896 48.9009L13.4265 47.5333L14.6112 48.2265L14.9868 47.1383L15.3528 48.6502L16.547 49.334Z" fill="#F9BB4A"/>
<path opacity="0.3" d="M66.6231 33.0669L68.1042 32.2062L67.944 88.7258L66.4629 89.5865L66.6231 33.0669Z" fill="#3C5DD6"/>
<g opacity="0.3">
<path opacity="0.3" d="M36.3668 15.5988L37.8479 14.738L68.1037 32.2062L66.6226 33.0669L36.3668 15.5988Z" fill="#3C5DD6"/>
</g>
<path opacity="0.3" d="M66.6228 33.0669L66.4626 89.5865L36.2068 72.1183L36.367 15.5988L66.6228 33.0669Z" fill="#576CFB"/>
<path d="M40.8405 34.4498L41.1956 35.0647L39.6308 35.9607L41.1854 38.6535L40.8281 38.8571L38.9147 35.5473L40.8405 34.4498Z" fill="#3A3A3A"/>
<path d="M62.4704 45.5312L64.38 48.8431L62.4579 49.9385L62.0991 49.3214L63.6676 48.4318L62.1093 45.7327L62.4704 45.5312Z" fill="#3A3A3A"/>
<path d="M60.2726 46.066C60.2649 48.7473 59.3451 50.6336 57.8329 51.5455C56.6637 52.2785 55.136 52.403 53.4212 51.8184C52.8366 51.6315 52.2286 51.3586 51.6128 51.0001C51.036 50.6648 50.4592 50.2751 49.9058 49.8229C48.1988 48.4436 46.6788 46.5882 45.5019 44.5303C43.9585 41.8414 43.0154 38.8404 43.0231 36.1123C43.0387 30.6328 46.9049 28.4269 51.6674 31.1782C56.4299 33.9219 60.2882 40.5942 60.2726 46.066Z" fill="#748BFD"/>
<path d="M53.3554 38.1739C53.8679 38.6534 54.1518 41.5847 54.2865 41.6624C54.3321 41.6344 54.4024 41.4605 54.4767 41.1889C54.53 41.2775 54.5867 41.4318 54.6116 41.7C54.6595 42.2233 54.7069 42.9139 54.3918 42.7319C54.3573 42.712 54.3185 42.6818 54.2749 42.6396C54.2608 42.68 53.9921 43.4483 53.4386 43.997C53.0047 44.4274 52.4044 44.6977 51.6433 44.2936C50.9278 43.8473 50.3575 42.9674 49.9348 42.09C49.3373 40.8497 49.0497 39.6758 49.0346 39.6141C48.9909 39.6059 48.952 39.5913 48.9176 39.5714C48.6023 39.3893 48.6531 38.7555 48.6994 38.2866C48.7372 37.9424 48.8418 37.9117 48.9062 37.9284C48.9418 38.0841 48.9675 38.1739 48.9688 38.1786C48.9216 37.61 49.1336 36.9468 49.265 36.6001C49.3026 36.5279 49.3442 36.4609 49.3894 36.3984C49.8623 37.0562 50.3673 37.4882 50.8534 37.7689C52.1751 38.5319 53.2964 38.1918 53.3554 38.1739Z" fill="#F6CBB8"/>
<path d="M49.927 43.4341L49.93 44.1403C49.9279 44.9007 50.4636 45.8287 51.1255 46.2109L52.2353 46.8516C52.8971 47.2337 53.4314 46.9235 53.4336 46.1631L53.4356 45.4582L53.4225 51.8214C52.8398 51.6339 52.2325 51.3578 51.6153 51.0015C51.0331 50.6654 50.461 50.272 49.9089 49.8215L49.927 43.4341Z" fill="white"/>
<path d="M53.439 43.9972L53.4349 45.4582L53.4329 46.1631C53.4307 46.9235 52.8964 47.2338 52.2346 46.8516L51.1248 46.2109C50.4629 45.8288 49.9272 44.9007 49.9293 44.1403L49.9313 43.4354L49.9351 42.0902C50.3579 42.9676 50.9282 43.8475 51.6436 44.2938C52.4048 44.6979 53.0051 44.4276 53.439 43.9972Z" fill="#E7BAA3"/>
<path d="M49.3904 36.3986C49.3452 36.461 49.3036 36.5281 49.266 36.6002C49.3223 36.4518 49.3617 36.366 49.3638 36.3615C49.3726 36.374 49.3816 36.3863 49.3904 36.3986Z" fill="#EDEDED"/>
<path d="M51.7021 34.486C52.118 34.7261 52.5394 35.0688 52.9051 35.5307C53.2518 35.9692 53.3765 36.1223 53.3858 36.1277C53.4056 36.1391 52.9302 35.5175 52.9052 35.4848C52.9662 35.5228 54.1243 36.2461 54.5683 37.8943C54.8931 39.0934 54.6719 40.4778 54.4774 41.189C54.4032 41.4607 54.3329 41.6345 54.2984 41.6621C54.1526 41.5848 53.8686 38.6535 53.3562 38.174C53.2972 38.1919 52.1759 38.5321 50.8542 37.769C50.368 37.4883 49.863 37.0563 49.3902 36.3986C49.3813 36.3863 49.3724 36.374 49.3636 36.3614C49.3615 36.3659 49.322 36.4518 49.2657 36.6002C49.1343 36.9469 48.9223 37.6101 48.9696 38.1787C48.9682 38.174 48.9426 38.0842 48.907 37.9285C48.7841 37.3911 48.5581 36.1229 48.9773 35.4681C48.9539 35.4394 48.5103 34.8949 48.7426 33.8379C48.7494 33.845 48.878 33.9791 49.0715 34.0908C49.2773 34.2097 49.549 34.2951 49.7935 34.141C50.1037 33.9416 50.8921 34.0183 51.7021 34.486Z" fill="#6F4D42"/>
<path d="M49.9174 43.4285V49.8234C48.1948 48.4381 46.6704 46.5965 45.5022 44.5374C45.6408 43.706 45.8387 42.9935 46.0961 42.9539C46.5516 42.8746 48.2939 42.9732 49.9174 43.4285Z" fill="#6EBA6E"/>
<path d="M57.8364 51.5461C56.6683 52.2789 55.1437 52.3978 53.4213 51.8235L53.4411 45.4683C55.0646 46.8739 56.8069 48.7938 57.2622 49.4077C57.4998 49.7248 57.6978 50.5958 57.8364 51.5461Z" fill="#6EBA6E"/>
<path d="M62.7054 76.2552L62.6944 80.5339C62.6835 81.2707 62.1775 81.5677 61.5286 81.2047L41.8736 69.8541C41.2467 69.491 40.7297 68.5893 40.7297 67.8519L40.7407 63.5845C40.7407 62.8589 41.2687 62.5619 41.8956 62.925L61.5506 74.2756C62.1885 74.6494 62.7054 75.5296 62.7054 76.2552Z" fill="#E63044"/>
<path d="M51.0008 71.1136L49.9009 71.3993L50.3188 73.126L49.2189 71.5642L48.1191 71.8505L48.537 70.6185L47.4371 69.0567L48.801 69.8483L49.2189 68.5948L49.6369 70.3215L51.0008 71.1136Z" fill="#F9BB4A"/>
<path d="M58.2263 76.2058L58.6443 77.9324L57.5444 76.3707L56.4445 76.6677L56.8734 75.4249L55.7736 73.8632L57.1375 74.6548L57.5554 73.4008L57.9624 75.1387L59.3262 75.9195L58.2263 76.2058Z" fill="white"/>
<path d="M55.169 73.5109L54.0581 73.7972L54.476 75.5238L53.3761 73.9728L52.2763 74.259L52.7052 73.0158L51.6053 71.4653L52.9692 72.2462L53.3872 71.0034L53.8051 72.73L55.169 73.5109Z" fill="#F9BB4A"/>
<path d="M46.8428 68.7043L45.732 68.9905L46.1499 70.7172L45.05 69.1662L43.9501 69.4524L44.3791 68.2097L43.2792 66.6479L44.6321 67.4395L45.061 66.1968L45.4789 67.9234L46.8428 68.7043Z" fill="#F9BB4A"/>
<path d="M89.8108 65.3702C89.8029 68.0517 88.762 69.8495 87.1059 70.5041C85.7653 71.0482 84.0304 70.8353 82.1299 69.739C80.2452 68.6508 78.5182 66.8688 77.1855 64.7787C75.5452 62.2239 74.5042 59.2193 74.5121 56.5301C74.5279 51.6804 77.9583 49.717 82.1851 52.1536C86.412 54.5979 89.8266 60.5124 89.8108 65.3702Z" fill="#748BFD"/>
<path d="M82.1833 53.9507C84.1117 55.064 85.6638 59.0255 85.6531 62.7977C85.6499 63.9135 85.5103 64.8883 85.2653 65.6791C84.7732 65.0592 84.2104 64.5261 83.6018 64.1399L83.5907 62.7227C83.9397 62.5463 84.244 62.186 84.3708 61.5012C84.469 61.5582 84.897 61.777 84.9213 61.2163C84.9476 60.61 84.9488 60.3638 84.7019 60.1018C84.7303 59.7922 84.7468 59.4753 84.7506 59.1531C84.7569 58.7107 84.7431 58.2565 84.6537 57.7761C84.5643 57.2956 84.3943 56.7803 84.1182 56.3078C83.6967 55.5833 83.0829 55.0438 82.4941 54.6052C82.2962 54.4585 82.0951 54.3154 81.8952 54.1999C81.7393 54.1099 81.5841 54.0367 81.4318 53.9918C80.8322 53.8138 80.3573 54.0958 80.0736 54.558C79.7898 55.0258 79.667 55.6676 79.5492 56.295C79.5134 56.4771 79.4826 56.6738 79.5576 56.9026C79.5216 57.01 79.4836 57.0639 79.4462 57.0583C79.179 57.0201 79.1783 57.263 79.2017 57.9141C79.2228 58.501 79.6506 58.7763 79.7346 58.8248C79.9052 59.8693 80.3377 60.7195 80.7878 61.3579L80.7219 62.4655C80.0949 62.1513 79.5331 62.0348 79.0408 62.0847C78.8006 61.0142 78.6666 59.8817 78.6697 58.7658C78.6804 54.9936 80.255 52.8373 82.1833 53.9507Z" fill="#6F4D42"/>
<path d="M83.5906 62.7229L83.5866 64.1196L82.2449 67.7726L82.0385 67.6534L80.7252 62.4792L80.7877 61.358C81.0072 61.6693 81.2309 61.9308 81.4288 62.1381C81.6299 62.3498 81.8412 62.5196 82.0527 62.6417C82.5895 62.9516 83.197 62.9218 83.5906 62.7229Z" fill="#EBC5B2"/>
<path d="M80.7221 62.4655C80.8162 62.8361 82.1063 67.9192 82.0388 67.6532L80.0604 64.6102L80.6268 64.0852L79.2992 62.7336L80.7064 62.4687L80.7221 62.4655Z" fill="white"/>
<path d="M83.5866 64.1196C83.7462 64.3345 85.1629 66.2422 85.0034 66.0273L83.6725 65.844L84.2391 67.0231L82.2449 67.7726C82.3245 67.5559 83.6706 63.891 83.5866 64.1196Z" fill="white"/>
<path d="M83.6018 64.1398C84.2104 64.5261 84.7732 65.0591 85.2654 65.679C86.3673 67.0635 87.1085 68.8707 87.104 70.4502L87.1039 70.5023C85.7659 71.0509 84.0317 70.8378 82.1335 69.7419C80.2455 68.6518 78.5157 66.8649 77.1852 64.7813L77.1853 64.7236C77.1898 63.1441 77.9389 62.1974 79.0386 62.085C79.5332 62.0347 80.095 62.1513 80.7062 62.4687L79.299 62.7336L80.6266 64.0852L80.0602 64.6102L82.0386 67.6533L80.7254 62.4791L82.0386 67.6533L82.245 67.7724L83.5832 64.1291L82.245 67.7724L84.2392 67.0229L83.6727 65.8438L85.0035 66.0271L83.6018 64.1398Z" fill="#E5A03C"/>
<path d="M84.6324 60.6843C84.6308 60.7029 84.6283 60.7206 84.6248 60.7381C84.6275 60.7201 84.6298 60.7023 84.6324 60.6843Z" fill="#6F4D42"/>
<path d="M84.6533 57.7761C84.7427 58.2566 84.7565 58.7107 84.7502 59.1532C84.7463 59.4754 84.7299 59.7923 84.7015 60.1019C84.6834 60.2993 84.6604 60.4938 84.6323 60.6845C84.6592 60.3856 84.4406 59.967 84.1991 59.6637C83.9428 59.3419 83.6409 59.0806 83.3998 58.7445C83.0783 58.298 82.8782 57.7306 82.8896 57.2851C82.6364 57.6432 82.2425 57.833 81.7836 57.8114C81.9453 57.696 82.0217 57.4446 81.9822 57.1435C81.6188 57.2353 81.2555 57.3267 80.8921 57.4184C81.0287 57.2539 81.09 56.9938 81.0556 56.684C80.9846 56.8112 80.8935 56.9209 80.7924 57.0074C80.6154 57.1659 80.3933 57.2577 80.1511 57.2918C80.0552 57.3027 79.9546 57.3475 79.8411 57.2819C79.8352 57.2785 79.8293 57.2748 79.8234 57.2707C79.7163 57.1976 79.6143 57.057 79.5625 56.917C79.4821 56.6738 79.513 56.4772 79.5488 56.2951C79.6666 55.6676 79.7894 55.0258 80.0731 54.558C80.3569 54.0959 80.8317 53.8139 81.4313 53.9919C81.5837 54.0368 81.7389 54.11 81.8948 54.2C82.0947 54.3154 82.2958 54.4586 82.4937 54.6052C83.0825 55.0439 83.6962 55.5834 84.1178 56.3078C84.3938 56.7803 84.5639 57.2957 84.6533 57.7761Z" fill="#6F4D42"/>
<path d="M82.8897 57.2852C82.8783 57.7307 83.0785 58.298 83.4 58.7446C83.6411 59.0806 83.9429 59.342 84.1992 59.6638C84.4407 59.967 84.6594 60.3857 84.6325 60.6846C84.6298 60.7025 84.6275 60.7204 84.6248 60.7383C84.6284 60.7209 84.6308 60.7031 84.6325 60.6846C84.6605 60.4939 84.6836 60.2994 84.7016 60.102C84.9485 60.364 84.9473 60.6101 84.921 61.2165C84.8967 61.7771 84.4687 61.5584 84.3847 61.5099C84.0984 62.8828 82.9484 63.159 82.0525 62.6417C81.841 62.5196 81.6297 62.3498 81.4286 62.1381C80.5586 61.2265 79.9366 60.0802 79.7485 58.8328C79.6503 58.7764 79.2225 58.5011 79.2014 57.9142C79.178 57.2632 79.1787 57.0202 79.4459 57.0584C79.4833 57.064 79.5213 57.0102 79.5626 56.9171C79.6144 57.057 79.7164 57.1977 79.8235 57.2708C79.8294 57.2749 79.8353 57.2786 79.8412 57.282C79.9547 57.3475 80.0553 57.3028 80.1513 57.2918C80.3934 57.2578 80.6156 57.166 80.7925 57.0075C80.8936 56.921 80.9847 56.8113 81.0557 56.6841C81.0901 56.9938 81.0289 57.254 80.8922 57.4185C81.2556 57.3267 81.619 57.2353 81.9823 57.1436C82.0218 57.4447 81.9455 57.6961 81.7837 57.8115C82.2426 57.8331 82.6365 57.6433 82.8897 57.2852Z" fill="#E7BAA3"/>
<path d="M84.6324 60.6846C84.6308 60.7031 84.6283 60.7209 84.6248 60.7383C84.6275 60.7204 84.6298 60.7025 84.6324 60.6846Z" fill="#6F4D42"/>
<path d="M27.8363 29.348C27.8284 32.0295 26.7875 33.8273 25.1314 34.4819C23.7908 35.026 22.0559 34.8131 20.1554 33.7168C18.2707 32.6286 16.5437 30.8466 15.211 28.7565C13.5707 26.2017 12.5297 23.1971 12.5376 20.5079C12.5534 15.6582 15.9838 13.6948 20.2106 16.1314C24.4375 18.5757 27.852 24.4901 27.8363 29.348Z" fill="#748BFD"/>
<path d="M23.6786 26.7755C23.6755 27.8914 23.5358 28.8662 23.2908 29.6569C22.7987 29.037 22.2359 28.504 21.6273 28.1177L21.6162 26.7006C21.9652 26.5242 22.2695 26.1638 22.3963 25.479C22.4945 25.5361 22.9225 25.7548 22.9468 25.1942C22.9731 24.5878 22.9743 24.3417 22.7274 24.0797C22.7558 23.77 22.7723 23.4532 22.7762 23.131C22.7825 22.6885 22.7686 22.2344 22.6792 21.7539C22.5898 21.2735 22.4198 20.7581 22.1437 20.2856C21.406 19.0178 19.0837 16.9319 18.0991 18.5358C17.8153 19.0036 17.6925 19.6454 17.5747 20.2729C17.5389 20.455 17.5081 20.6516 17.5831 20.8804C17.5471 20.9879 17.5091 21.0417 17.4717 21.0362C17.2045 20.9979 17.2038 21.2409 17.2272 21.8919C17.2483 22.4788 17.6761 22.7541 17.7601 22.8026C17.9307 23.8471 18.3633 24.6974 18.8133 25.3358L18.7474 26.4433C18.1204 26.1292 17.5586 26.0126 17.0663 26.0626C16.8261 24.992 16.6921 23.8595 16.6952 22.7437C16.7207 13.7649 23.7045 17.6367 23.6786 26.7755Z" fill="#6F4D42"/>
<path d="M21.6161 26.7005L21.6121 28.0973L20.2704 31.7503L20.064 31.6311L18.7507 26.4569L18.8132 25.3357C19.0327 25.647 19.2565 25.9085 19.4543 26.1158C19.6554 26.3274 19.8667 26.4973 20.0782 26.6193C20.2896 26.7414 20.5012 26.8158 20.7029 26.8367C20.9845 26.8682 21.3168 26.8519 21.6161 26.7005Z" fill="#EBC5B2"/>
<path d="M18.7476 26.4434L18.7511 26.457L20.0643 31.6312L18.0859 28.5881L18.6523 28.0631L17.3247 26.7115L18.732 26.4466L18.7476 26.4434Z" fill="white"/>
<path d="M21.6121 28.0974L21.6272 28.1177L23.0289 30.0051L21.698 29.8218L22.2646 31.0009L20.2704 31.7504L21.6086 28.107L21.6121 28.0974Z" fill="white"/>
<path d="M21.6274 28.1177C22.2359 28.504 22.7987 29.037 23.2909 29.657C24.3928 31.0414 25.134 32.8486 25.1296 34.4281L25.1294 34.4802C23.7914 35.0288 22.0572 34.8157 20.1591 33.7198C18.271 32.6297 16.5412 30.8429 15.2107 28.7592L15.2109 28.7015C15.2153 27.122 15.9644 26.1753 17.0641 26.0629C17.5587 26.0126 18.1205 26.1292 18.7318 26.4466L17.3245 26.7115L18.6521 28.0631L18.0858 28.5881L20.0641 31.6312L18.7509 26.457L20.0641 31.6312L20.2705 31.7503L21.6088 28.107L20.2705 31.7503L22.2647 31.0008L21.6982 29.8218L23.029 30.005L21.6274 28.1177Z" fill="#E63044"/>
<path d="M22.6579 24.6621C22.6563 24.6806 22.6538 24.6984 22.6503 24.7159C22.653 24.6979 22.6553 24.6801 22.6579 24.6621Z" fill="#6F4D42"/>
<path d="M22.6788 21.7539C22.7683 22.2343 22.7821 22.6884 22.7758 23.1309C22.7719 23.4531 22.7555 23.77 22.7271 24.0796C22.709 24.277 22.6859 24.4715 22.6579 24.6622C22.6848 24.3633 22.4661 23.9447 22.2247 23.6415C21.9023 23.2367 20.8859 22.4116 20.9151 21.2628C20.662 21.621 20.2681 21.8108 19.8092 21.7892C19.9709 21.6738 20.0473 21.4223 20.0078 21.1213C19.6444 21.213 19.2811 21.3044 18.9177 21.3961C19.0543 21.2317 19.1156 20.9715 19.0812 20.6617C18.5646 21.5879 17.324 21.5455 17.5744 20.2728C17.6921 19.6454 17.815 19.0036 18.0987 18.5358C19.0914 16.9188 21.4323 19.0637 22.1434 20.2856C22.4194 20.7581 22.5894 21.2734 22.6788 21.7539Z" fill="#6F4D42"/>
<path d="M20.9153 21.2628C20.8861 22.4086 21.9017 23.2357 22.2248 23.6415C22.4663 23.9447 22.685 24.3633 22.6581 24.6622C22.6555 24.6802 22.6532 24.698 22.6504 24.716C22.654 24.6985 22.6564 24.6807 22.6581 24.6622C22.6861 24.4715 22.7092 24.277 22.7273 24.0796C22.9741 24.3416 22.9729 24.5878 22.9466 25.1941C22.9223 25.7548 22.4943 25.536 22.4104 25.4875C22.2693 26.1638 21.965 26.5241 21.616 26.7005C21.3167 26.8519 20.9845 26.8682 20.7028 26.8367C20.5012 26.8158 20.2896 26.7414 20.0781 26.6194C19.8666 26.4973 19.6553 26.3275 19.4542 26.1158C19.2564 25.9085 19.0327 25.647 18.8132 25.3357C18.3631 24.6973 17.9305 23.8471 17.7741 22.8105C17.6759 22.7541 17.2481 22.4788 17.227 21.8919C17.2036 21.2408 17.2043 20.9979 17.4715 21.0361C17.5089 21.0417 17.5469 20.9878 17.5882 20.8947C17.8865 21.6998 18.8274 21.1169 19.0813 20.6617C19.1157 20.9715 19.0545 21.2317 18.9179 21.3961C19.2812 21.3044 19.6446 21.213 20.008 21.1213C20.0474 21.4223 19.9711 21.6738 19.8094 21.7892C20.2682 21.8107 20.6621 21.621 20.9153 21.2628Z" fill="#E7BAA3"/>
<path d="M22.6579 24.6622C22.6563 24.6808 22.6538 24.6985 22.6503 24.716C22.653 24.6981 22.6553 24.6802 22.6579 24.6622Z" fill="#6F4D42"/>
</svg>
