<svg width="19" height="20" viewBox="0 0 19 20" fill="none" xmlns="http://www.w3.org/2000/svg">
<path d="M13.4625 19.0143C13.5483 19.0182 13.6302 19.0221 13.716 19.0221C14.6325 19.0221 15.3969 18.6906 15.9975 18.0393C16.0014 18.0354 16.0092 18.0276 16.0131 18.0237C16.2276 17.7663 16.4694 17.5323 16.7267 17.2866C16.9022 17.1189 17.0816 16.9473 17.2493 16.7679C18.0488 15.9333 18.0449 14.8765 17.2415 14.0731L15.0186 11.8502C14.6364 11.4524 14.1801 11.2418 13.6965 11.2418C13.2168 11.2418 12.7567 11.4485 12.3628 11.8424L11.0485 13.1566C10.9315 13.0903 10.8106 13.0318 10.6936 12.9733C10.5454 12.8992 10.4089 12.829 10.288 12.7549C9.08296 11.9906 7.99099 10.9922 6.94582 9.70912C6.41933 9.04614 6.07224 8.49236 5.82655 7.92298C6.16974 7.61098 6.48953 7.28729 6.79762 6.9714C6.91072 6.85831 7.02382 6.74131 7.14081 6.62431C7.97539 5.78974 7.97539 4.75627 7.14081 3.92559L6.03715 2.82192C5.90845 2.69322 5.78365 2.56453 5.65886 2.43973C5.41316 2.19014 5.15967 1.92885 4.90618 1.69485C4.52399 1.31266 4.0716 1.11377 3.59192 1.11377C3.11613 1.11377 2.65594 1.31266 2.25815 1.69485L0.873692 3.07541C0.366707 3.5824 0.0781147 4.19858 0.0157165 4.91226C-0.0544816 5.80144 0.109314 6.74521 0.530502 7.88398C1.18178 9.64283 2.16066 11.2769 3.61141 13.024C5.37806 15.13 7.4996 16.7952 9.92534 17.9691C10.8496 18.4098 12.0859 18.9246 13.4625 19.0143ZM4.34849 12.4117C2.96793 10.7504 2.04366 9.20604 1.43138 7.55249C1.05309 6.53462 0.912691 5.74294 0.971189 4.99026C1.01409 4.50277 1.20128 4.09718 1.55227 3.75009L2.92893 2.37343C3.13953 2.17064 3.36962 2.06534 3.59581 2.06534C3.81811 2.06534 4.0365 2.17064 4.2471 2.37733C4.49279 2.60743 4.73068 2.84922 4.98028 3.10271C5.10507 3.23141 5.23377 3.36401 5.36636 3.4927L6.47003 4.59637C6.92242 5.04876 6.92242 5.49334 6.47003 5.94573C6.35304 6.06273 6.23604 6.17973 6.12294 6.29672C5.77975 6.64381 5.45996 6.9714 5.10507 7.28729C5.09727 7.29509 5.09337 7.29899 5.08557 7.30679C4.76968 7.62268 4.81648 7.92688 4.89448 8.15307C4.89838 8.16477 4.90228 8.17257 4.90618 8.18427C5.19087 8.87065 5.59256 9.52193 6.20874 10.3019C7.32021 11.6708 8.49018 12.7354 9.78494 13.5583C9.94483 13.6597 10.1125 13.7455 10.2763 13.8274C10.4245 13.9015 10.561 13.9717 10.6819 14.0458C10.6975 14.0536 10.7092 14.0614 10.7248 14.0692C10.8496 14.1316 10.9705 14.1628 11.0953 14.1628C11.4034 14.1628 11.5984 13.9678 11.6608 13.9015L13.0452 12.517C13.2558 12.3064 13.482 12.1973 13.7043 12.1973C13.9773 12.1973 14.1996 12.3688 14.3439 12.517L16.5746 14.7478C17.1206 15.2938 16.871 15.7852 16.5629 16.1088C16.407 16.2765 16.2432 16.4325 16.0716 16.6002C15.8103 16.8498 15.5412 17.1111 15.2955 17.4036C14.8743 17.856 14.3751 18.0666 13.7238 18.0666C13.6614 18.0666 13.5951 18.0627 13.5327 18.0588C12.3199 17.9808 11.1967 17.5089 10.3504 17.1072C8.04169 15.9957 6.02545 14.4163 4.34849 12.4117Z" fill="white"/>
<path d="M10.4445 3.48131C10.1832 3.43841 9.93754 3.61391 9.89464 3.8713C9.85174 4.13259 10.0272 4.37828 10.2846 4.42118C11.3571 4.60448 12.3321 5.11146 13.112 5.88754C13.8881 6.66362 14.3951 7.64249 14.5784 8.71496C14.6174 8.94896 14.8202 9.11275 15.0503 9.11275C15.0776 9.11275 15.1049 9.10885 15.1322 9.10495C15.3935 9.06205 15.569 8.81246 15.5222 8.55507C15.3077 7.2876 14.7071 6.12933 13.7906 5.21286C12.8664 4.29249 11.712 3.6958 10.4445 3.48131Z" fill="white"/>
<path d="M18.52 8.9489C18.5473 8.9489 18.5746 8.945 18.6019 8.9411C18.8632 8.8982 19.0387 8.64861 18.9919 8.39122C18.637 6.29308 17.6464 4.38603 16.1294 2.86897C14.6084 1.35192 12.7014 0.361345 10.6032 0.00645557C10.3419 -0.0364432 10.0962 0.139052 10.0533 0.396444C10.0104 0.657737 10.1859 0.90343 10.4433 0.946329C12.3426 1.27002 14.0741 2.16699 15.4508 3.54365C16.8274 4.92032 17.7244 6.65187 18.0481 8.55111C18.0871 8.78511 18.2899 8.9489 18.52 8.9489Z" fill="white"/>
</svg>
