<svg width="10" height="13" viewBox="0 0 10 13" fill="none" xmlns="http://www.w3.org/2000/svg">
<path d="M4.57031 0C2.05024 0 0 2.05024 0 4.57031C0 5.42176 0.235854 6.2527 0.682221 6.97359L4.31016 12.82C4.37965 12.932 4.50209 13 4.63376 13C4.63478 13 4.63577 13 4.63679 13C4.7696 12.999 4.89229 12.9288 4.96052 12.8149L8.49598 6.91184C8.91772 6.20618 9.14062 5.3965 9.14062 4.57031C9.14062 2.05024 7.09038 0 4.57031 0ZM7.8423 6.52077L4.628 11.8875L1.32963 6.57226C0.95809 5.97223 0.756641 5.27998 0.756641 4.57031C0.756641 2.47025 2.47025 0.756641 4.57031 0.756641C6.67037 0.756641 8.38145 2.47025 8.38145 4.57031C8.38145 5.25893 8.19328 5.93348 7.8423 6.52077Z" fill="white"/>
<path d="M4.57031 2.28516C3.31028 2.28516 2.28516 3.31028 2.28516 4.57031C2.28516 5.8223 3.2936 6.85547 4.57031 6.85547C5.86277 6.85547 6.85547 5.80854 6.85547 4.57031C6.85547 3.31028 5.83035 2.28516 4.57031 2.28516ZM4.57031 6.09883C3.7259 6.09883 3.0418 5.41244 3.0418 4.57031C3.0418 3.73029 3.73029 3.0418 4.57031 3.0418C5.41034 3.0418 6.09629 3.73029 6.09629 4.57031C6.09629 5.40015 5.42811 6.09883 4.57031 6.09883Z" fill="white"/>
</svg>
