<svg width="35" height="70" viewBox="0 0 35 70" fill="none" xmlns="http://www.w3.org/2000/svg">
<path d="M0 14H25C30.5228 14 35 18.4772 35 24V46C35 51.5228 30.5228 56 25 56H0V14Z" fill="#00BDC2"/>
<g clip-path="url(#clip0_243_1242)">
<path d="M14.5385 28.2309H10.8462C10.3333 28.2309 9.89743 28.4104 9.53838 28.7693C9.17951 29.1283 9 29.5641 9 30.077V33.7693C9 34.2822 9.1794 34.718 9.53838 35.0769C9.89739 35.4357 10.3334 35.6153 10.8462 35.6153H13C13.2563 35.6153 13.4743 35.7051 13.6538 35.8845C13.8334 36.0639 13.9231 36.282 13.9231 36.5385V36.846C13.9231 37.5255 13.6826 38.1055 13.2019 38.5863C12.7212 39.067 12.1411 39.3073 11.4615 39.3073H10.8462C10.6794 39.3073 10.5352 39.3684 10.4134 39.4901C10.2916 39.6118 10.2307 39.7561 10.2307 39.9228V41.1537C10.2307 41.3201 10.2916 41.4647 10.4134 41.5864C10.5353 41.7081 10.6794 41.7692 10.8462 41.7692H11.4615C12.1283 41.7692 12.7645 41.6392 13.3703 41.3796C13.9761 41.1201 14.5001 40.769 14.9424 40.3267C15.3846 39.8843 15.7356 39.3604 15.9952 38.7546C16.2548 38.1488 16.3846 37.5127 16.3846 36.846V30.0769C16.3846 29.564 16.2051 29.1282 15.8462 28.7692C15.4873 28.4103 15.0513 28.2309 14.5385 28.2309ZM24.4614 28.7693C24.1025 28.4104 23.6666 28.2309 23.1537 28.2309H19.4615C18.9486 28.2309 18.5127 28.4104 18.1538 28.7693C17.7949 29.1283 17.6155 29.5641 17.6155 30.077V33.7693C17.6155 34.2822 17.7949 34.718 18.1538 35.0769C18.5127 35.4357 18.9486 35.6153 19.4615 35.6153H21.6153C21.8716 35.6153 22.0898 35.7051 22.2693 35.8845C22.4486 36.064 22.5385 36.282 22.5385 36.5385V36.846C22.5385 37.5255 22.2981 38.1055 21.8173 38.5863C21.3365 39.067 20.7566 39.3073 20.0769 39.3073H19.4615C19.2948 39.3073 19.1505 39.3684 19.0288 39.4901C18.907 39.6118 18.846 39.7561 18.846 39.9228V41.1537C18.846 41.3201 18.907 41.4647 19.0288 41.5864C19.1505 41.7081 19.2948 41.7692 19.4615 41.7692H20.0769C20.7436 41.7692 21.3797 41.6392 21.9856 41.3796C22.5913 41.1201 23.1152 40.769 23.5576 40.3267C23.9999 39.8843 24.3511 39.3603 24.6105 38.7546C24.8701 38.149 25 37.5127 25 36.846V30.0769C24.9999 29.564 24.8205 29.1282 24.4614 28.7693Z" fill="white"/>
</g>
<path fill-rule="evenodd" clip-rule="evenodd" d="M0 14H14C6.26801 14 0 7.73199 0 0V14Z" fill="#00BDC2"/>
<path fill-rule="evenodd" clip-rule="evenodd" d="M0 56L-6.11959e-07 70C-2.73984e-07 62.268 6.26801 56 14 56L0 56Z" fill="#00BDC2"/>
<defs>
<clipPath id="clip0_243_1242">
<rect width="16" height="16" fill="white" transform="translate(9 27)"/>
</clipPath>
</defs>
</svg>
