<svg width="95" height="89" viewBox="0 0 95 89" fill="none" xmlns="http://www.w3.org/2000/svg">
<path d="M0.0708226 55.2319L3.24344 57.0301L3.5539 41.281L0.0244141 39.2805L0.0708226 55.2319Z" fill="#C4C2C0"/>
<path d="M1.88582 27.5854C0.838132 28.1906 0 29.6497 0 30.8526L0.0245098 39.2805L3.554 41.281L3.71933 32.8953C3.71933 31.6924 4.55746 30.2333 5.60515 29.6282L14.1193 24.7127L10.457 22.6371L1.88582 27.5854Z" fill="#D6D4D2"/>
<path d="M0.100579 65.5118L3.04326 67.1794L3.2433 57.03L0.0706787 55.2318L0.100579 65.5118Z" fill="#E9E8E6"/>
<path d="M10.4568 22.6372L14.1191 24.7128L28.5051 16.4078L24.8428 14.3322L10.4568 22.6372Z" fill="#C4C2C0"/>
<path d="M24.8429 14.3321L28.5052 16.4078L41.4342 8.94371L37.772 6.86804L24.8429 14.3321Z" fill="#D6D4D2"/>
<path d="M50.5688 0.128072C50.2273 -0.0735649 49.7461 -0.0425698 49.2185 0.25997L37.7723 6.868L41.4346 8.94366L52.9378 2.30262C53.4655 1.99233 53.1699 1.59411 53.5115 1.79591L50.5688 0.128072Z" fill="#E9E8E6"/>
<path d="M54.1587 37.6671L3.04169 67.1812L2.93896 32.5209C2.93896 31.316 3.77957 29.859 4.82563 29.2519L52.16 1.92352C53.206 1.31652 54.0559 1.80221 54.0653 3.00697L54.1587 37.6671Z" fill="#494846"/>
<path d="M3.04346 67.1785L3.05895 70.4693L33.0229 87.8633C34.0629 88.4686 35.7469 88.4686 36.7947 87.8633L84.1271 60.5379C84.6548 60.2352 84.9187 59.8317 84.9187 59.4359L84.9031 56.1738C84.9031 56.5696 84.6393 56.9654 84.1115 57.2681L3.04346 67.1785Z" fill="#B2B0AF"/>
<path d="M84.903 56.1738C84.903 56.5695 84.6392 56.9652 84.1114 57.2681L14.4105 65.7887V77.0588L33.0228 87.8631C34.0628 88.4684 35.7468 88.4684 36.7946 87.8631L84.127 60.5377C84.6547 60.2352 84.9185 59.8316 84.9185 59.4357L84.903 56.1738Z" fill="#C4C2C0"/>
<path d="M84.9033 56.1738C84.9033 56.5695 84.6394 56.9652 84.1117 57.2681L27.2065 64.2245V84.4867L33.0231 87.8631C34.063 88.4684 35.7471 88.4684 36.7948 87.8631L84.1272 60.5377C84.6549 60.2352 84.9188 59.8316 84.9188 59.4357L84.9033 56.1738Z" fill="#D6D4D2"/>
<path d="M84.903 56.1738C84.903 56.5695 84.6391 56.9652 84.1113 57.2681L46.4734 61.8692V82.2754L84.1269 60.5377C84.6546 60.2352 84.9185 59.8316 84.9185 59.4357L84.903 56.1738Z" fill="#C4C2C0"/>
<path d="M84.9031 56.1738C84.9031 56.5695 84.6392 56.9652 84.1115 57.2681L73.5359 58.5608V66.6522L84.127 60.5377C84.6547 60.2352 84.9186 59.8316 84.9186 59.4357L84.9031 56.1738Z" fill="#B2B0AF"/>
<path d="M3.04663 67.1766L33.0113 84.5902C34.05 85.1938 35.7391 85.1938 36.7845 84.5902L84.1141 57.2645C85.1645 56.658 85.17 55.6796 84.1313 55.076L54.1666 37.6625L3.04663 67.1766Z" fill="#E9E8E6"/>
<path d="M49.2604 45.5707C49.1756 45.6196 49.1752 45.7035 49.2594 45.7524L51.4369 47.0179C51.5211 47.0668 51.6659 47.0668 51.7507 47.0179L53.9364 45.756C54.0272 45.7035 54.0216 45.6231 53.9374 45.5742L51.7599 44.3088C51.6757 44.2598 51.5369 44.2563 51.4461 44.3088L49.2604 45.5707Z" fill="#494846"/>
<path d="M45.4343 47.7799C45.3435 47.8324 45.3491 47.9128 45.4333 47.9617L47.6108 49.2271C47.695 49.2761 47.8338 49.2796 47.9246 49.2271L50.1103 47.9652C50.1951 47.9163 50.1955 47.8324 50.1113 47.7834L47.9338 46.518C47.8496 46.4691 47.7048 46.4691 47.62 46.518L45.4343 47.7799Z" fill="#494846"/>
<path d="M41.6017 49.9925C41.5169 50.0415 41.5165 50.1254 41.6007 50.1743L43.7782 51.4397C43.8624 51.4887 44.0072 51.4887 44.092 51.4397L46.2838 50.1743C46.3685 50.1254 46.3629 50.045 46.2787 49.9961L44.1012 48.7306C44.017 48.6817 43.8782 48.6782 43.7935 48.7271L41.6017 49.9925Z" fill="#494846"/>
<path d="M51.4571 48.8251C51.3663 48.8775 51.3658 48.9544 51.4561 49.0068L53.6275 50.2688C53.7117 50.3177 53.8505 50.3212 53.9413 50.2688L57.8344 48.0211C57.9252 47.9687 57.9196 47.8883 57.8354 47.8393L55.664 46.5774C55.5737 46.525 55.441 46.525 55.3501 46.5774L51.4571 48.8251Z" fill="#494846"/>
<path d="M47.5701 51.0693C47.4853 51.1182 47.4788 51.1986 47.569 51.2511L49.7405 52.513C49.8247 52.562 49.9696 52.5619 50.0543 52.513L52.24 51.2511C52.3309 51.1987 52.3253 51.1183 52.2411 51.0693L50.0696 49.8074C49.9794 49.755 49.8466 49.755 49.7558 49.8074L47.5701 51.0693Z" fill="#494846"/>
<path d="M43.6591 53.3273C43.5743 53.3763 43.5678 53.4566 43.658 53.5091L45.8295 54.771C45.9137 54.8199 46.0585 54.82 46.1433 54.771L48.3351 53.5056C48.4198 53.4567 48.4142 53.3763 48.33 53.3273L46.1585 52.0654C46.0683 52.013 45.9356 52.013 45.8508 52.0619L43.6591 53.3273Z" fill="#494846"/>
<path d="M39.7473 55.5855C39.6626 55.6345 39.6561 55.7149 39.7463 55.7673L41.9178 57.0292C42.002 57.0782 42.1468 57.0782 42.2316 57.0292L44.4233 55.7638C44.5081 55.7149 44.5086 55.631 44.4243 55.5821L42.2529 54.3201C42.1626 54.2677 42.0238 54.2712 41.939 54.3201L39.7473 55.5855Z" fill="#494846"/>
<path d="M35.8363 57.8437C35.7515 57.8926 35.7451 57.973 35.8353 58.0255L38.0068 59.2874C38.091 59.3363 38.2358 59.3363 38.3205 59.2874L40.5123 58.022C40.5971 57.9731 40.5975 57.8892 40.5133 57.8402L38.3418 56.5783C38.2516 56.5259 38.1128 56.5294 38.0281 56.5783L35.8363 57.8437Z" fill="#494846"/>
<path d="M31.9312 60.0983C31.8404 60.1507 31.8399 60.2276 31.9302 60.2801L34.1017 61.542C34.1859 61.5909 34.3246 61.5944 34.4155 61.542L36.6012 60.2801C36.6859 60.2311 36.6864 60.1472 36.6022 60.0983L34.4307 58.8364C34.3405 58.7839 34.2017 58.7874 34.1169 58.8364L31.9312 60.0983Z" fill="#494846"/>
<path d="M28.0202 62.3564C27.9294 62.4089 27.9289 62.4858 28.0192 62.5382L30.1906 63.8001C30.2749 63.8491 30.4136 63.8526 30.5045 63.8001L32.6901 62.5383C32.7749 62.4893 32.7754 62.4054 32.6911 62.3565L30.5197 61.0945C30.4294 61.0421 30.2906 61.0456 30.2059 61.0946L28.0202 62.3564Z" fill="#494846"/>
<path d="M24.1084 64.6147C24.0176 64.6672 24.0172 64.7441 24.1074 64.7965L26.2789 66.0584C26.3631 66.1074 26.5019 66.1109 26.5927 66.0584L28.7784 64.7965C28.8692 64.7441 28.8637 64.6637 28.7794 64.6147L26.608 63.3528C26.5177 63.3004 26.385 63.3004 26.2942 63.3528L24.1084 64.6147Z" fill="#494846"/>
<path d="M37.7749 52.2018C37.6841 52.2542 37.6897 52.3346 37.7739 52.3835L39.9514 53.649C40.0356 53.6979 40.1744 53.7014 40.2652 53.649L42.4509 52.3871C42.5417 52.3346 42.5361 52.2542 42.4519 52.2053L40.2744 50.9399C40.1902 50.8909 40.0514 50.8874 39.9606 50.9399L37.7749 52.2018Z" fill="#494846"/>
<path d="M33.9423 54.4145C33.8575 54.4635 33.8571 54.5474 33.9413 54.5963L36.1188 55.8617C36.203 55.9107 36.3478 55.9107 36.4326 55.8617L38.6243 54.5963C38.7091 54.5474 38.7096 54.4635 38.6254 54.4145L36.4479 53.1491C36.3637 53.1002 36.2188 53.1002 36.134 53.1491L33.9423 54.4145Z" fill="#494846"/>
<path d="M30.1158 56.6236C30.031 56.6726 30.0305 56.7565 30.1147 56.8054L32.2922 58.0708C32.3764 58.1198 32.5213 58.1198 32.6061 58.0708L34.7917 56.809C34.8825 56.7565 34.877 56.6761 34.7927 56.6272L32.6152 55.3618C32.531 55.3128 32.3923 55.3093 32.3014 55.3618L30.1158 56.6236Z" fill="#494846"/>
<path d="M26.2895 58.8329C26.1987 58.8853 26.2043 58.9657 26.2885 59.0147L28.466 60.2801C28.5502 60.329 28.689 60.3325 28.7798 60.2801L30.9655 59.0182C31.0502 58.9693 31.0507 58.8854 30.9665 58.8364L28.789 57.571C28.7048 57.5221 28.56 57.5221 28.4752 57.571L26.2895 58.8329Z" fill="#494846"/>
<path d="M22.457 61.0456C22.3722 61.0946 22.3717 61.1785 22.4559 61.2274L24.6334 62.4928C24.7176 62.5418 24.8625 62.5418 24.9472 62.4928L27.139 61.2274C27.2237 61.1785 27.2181 61.0981 27.1339 61.0492L24.9564 59.7837C24.8722 59.7348 24.7334 59.7313 24.6487 59.7802L22.457 61.0456Z" fill="#494846"/>
<path d="M18.6309 63.2549C18.54 63.3073 18.5456 63.3877 18.6298 63.4366L20.8073 64.7021C20.8915 64.751 21.0303 64.7545 21.1211 64.7021L23.3068 63.4402C23.3976 63.3877 23.392 63.3073 23.3078 63.2584L21.1303 61.993C21.0461 61.944 20.9073 61.9405 20.8165 61.993L18.6309 63.2549Z" fill="#494846"/>
<path d="M14.7982 65.4675C14.7135 65.5164 14.713 65.6003 14.7972 65.6493L16.9747 66.9147C17.0589 66.9636 17.2038 66.9636 17.2885 66.9147L19.4803 65.6493C19.565 65.6004 19.5655 65.5165 19.4813 65.4675L17.3038 64.2021C17.2196 64.1532 17.0747 64.1532 16.99 64.2021L14.7982 65.4675Z" fill="#494846"/>
<path d="M18.7021 67.7362C18.6174 67.7851 18.6109 67.8655 18.7011 67.9179L20.8726 69.1799C20.9568 69.2288 21.1017 69.2288 21.1864 69.1798L25.0855 66.9287C25.1763 66.8763 25.1707 66.7959 25.0865 66.7469L22.9151 65.485C22.8248 65.4326 22.6921 65.4326 22.6013 65.485L18.7021 67.7362Z" fill="#494846"/>
<path d="M53.6233 52.0899C53.5385 52.1389 53.532 52.2193 53.6223 52.2717L55.7938 53.5336C55.884 53.5861 56.0228 53.5826 56.1076 53.5336L61.7322 50.2862C61.823 50.2338 61.8235 50.1569 61.7332 50.1045L59.5618 48.8426C59.4715 48.7901 59.3388 48.7901 59.2479 48.8426L53.6233 52.0899Z" fill="#494846"/>
<path d="M49.403 54.5264C49.3182 54.5754 49.3117 54.6557 49.4019 54.7082L51.5734 55.9701C51.6636 56.0225 51.8024 56.0191 51.8872 55.9701L54.079 54.7047C54.1637 54.6558 54.1642 54.5789 54.0739 54.5264L51.9024 53.2645C51.8122 53.2121 51.6795 53.2121 51.5947 53.261L49.403 54.5264Z" fill="#494846"/>
<path d="M45.5767 56.7357C45.4859 56.7881 45.4855 56.865 45.5757 56.9174L47.7472 58.1794C47.8374 58.2318 47.9702 58.2318 48.0609 58.1794L50.2466 56.9175C50.3375 56.865 50.3379 56.7881 50.2477 56.7357L48.0762 55.4738C47.986 55.4213 47.8532 55.4213 47.7624 55.4738L45.5767 56.7357Z" fill="#494846"/>
<path d="M41.7442 58.9483C41.6594 58.9973 41.6529 59.0777 41.7431 59.1301L43.9146 60.392C44.0048 60.4445 44.1436 60.441 44.2284 60.392L46.4202 59.1266C46.5049 59.0777 46.5114 58.9973 46.4212 58.9448L44.2497 57.6829C44.1595 57.6305 44.0206 57.634 43.9359 57.6829L41.7442 58.9483Z" fill="#494846"/>
<path d="M37.9176 61.1575C37.8328 61.2065 37.8264 61.2869 37.9166 61.3393L40.0881 62.6012C40.1783 62.6537 40.3171 62.6502 40.4019 62.6012L42.5875 61.3394C42.6784 61.2869 42.6788 61.21 42.5886 61.1576L40.4171 59.8957C40.3269 59.8432 40.1941 59.8432 40.1033 59.8957L37.9176 61.1575Z" fill="#494846"/>
<path d="M34.0914 63.3667C34.0007 63.4191 34.0002 63.496 34.0905 63.5485L36.2619 64.8104C36.3522 64.8628 36.4849 64.8628 36.5757 64.8104L38.7614 63.5485C38.8462 63.4996 38.8527 63.4192 38.7624 63.3667L36.591 62.1048C36.5007 62.0524 36.3619 62.0559 36.2771 62.1048L34.0914 63.3667Z" fill="#494846"/>
<path d="M30.2589 65.5795C30.1741 65.6285 30.1677 65.7088 30.2579 65.7613L32.4294 67.0232C32.5196 67.0756 32.6584 67.0722 32.7432 67.0232L34.9349 65.7578C35.0197 65.7089 35.0201 65.632 34.9299 65.5795L32.7584 64.3176C32.6682 64.2652 32.5354 64.2652 32.4507 64.3141L30.2589 65.5795Z" fill="#494846"/>
<path d="M22.5995 70.0014C22.5147 70.0503 22.5082 70.1307 22.5985 70.1832L24.7699 71.4451C24.8602 71.4975 24.999 71.494 25.0838 71.4451L31.1807 67.925C31.2715 67.8726 31.2719 67.7957 31.1817 67.7433L29.0102 66.4813C28.92 66.4289 28.7872 66.4289 28.6964 66.4813L22.5995 70.0014Z" fill="#494846"/>
<path d="M57.3828 54.2747C57.298 54.3237 57.2916 54.4041 57.3818 54.4565L59.5533 55.7184C59.6435 55.7709 59.7823 55.7674 59.8671 55.7184L65.4917 52.4711C65.5825 52.4186 65.583 52.3417 65.4928 52.2893L63.3213 51.0274C63.231 50.9749 63.0983 50.9749 63.0075 51.0274L57.3828 54.2747Z" fill="#494846"/>
<path d="M58.1705 56.6984L36.6747 69.11C36.5874 69.1575 36.4524 69.1655 36.3571 69.11L34.1892 67.8473C34.094 67.7997 34.1019 67.7124 34.1892 67.6647L55.685 55.2532C55.7723 55.2056 55.9074 55.1977 56.0026 55.2532L58.1705 56.5158C58.2657 56.5714 58.2578 56.6508 58.1705 56.6984Z" fill="#494846"/>
<path d="M19.4775 66.0379L17.2872 67.2993C17.209 67.3482 17.0624 67.3482 16.9743 67.2993L14.7939 66.0379C14.7547 66.0086 14.7352 65.9793 14.7352 65.9499V65.5588C14.7352 65.5881 14.7547 65.6273 14.7939 65.6468L16.9743 66.918C17.0624 66.9669 17.1992 66.9669 17.2872 66.918L19.4775 65.6468C19.5264 65.6273 19.5459 65.5881 19.5459 65.5588V65.9402C19.5459 65.9793 19.5264 66.0086 19.4775 66.0379Z" fill="#21201F"/>
<path d="M18.6267 63.8184C18.5876 63.7989 18.568 63.7696 18.568 63.7305V63.3491C18.568 63.3785 18.5876 63.4078 18.6267 63.4371L20.8071 64.6985C20.8951 64.7473 21.032 64.7571 21.12 64.6985L23.3102 63.4371C23.3494 63.4176 23.3689 63.3785 23.3689 63.3491V63.7403C23.3689 63.7696 23.3494 63.7989 23.3102 63.8282L21.12 65.0896C21.032 65.1385 20.8951 65.1385 20.8071 65.0896L18.6267 63.8184Z" fill="#21201F"/>
<path d="M26.2927 59.3988C26.2438 59.3792 26.2242 59.3401 26.2242 59.3108V58.9197C26.2242 58.9588 26.2438 58.9881 26.2927 59.0174L28.4634 60.2788C28.5514 60.3276 28.6882 60.3276 28.7763 60.2788L30.9665 59.0174C31.0056 58.9979 31.0252 58.9588 31.0252 58.9294L31.0349 59.3108C31.0349 59.3498 31.0056 59.3792 30.9665 59.4086L28.7763 60.6699C28.6882 60.7188 28.5514 60.7188 28.4634 60.6699L26.2927 59.3988Z" fill="#21201F"/>
<path d="M34.4183 61.5401L36.5987 60.2788C36.6476 60.2592 36.6672 60.2201 36.6672 60.1908V60.5721C36.6672 60.6112 36.6476 60.6405 36.5987 60.6699L34.4183 61.9312C34.3303 61.9801 34.1836 61.9801 34.1054 61.9312L31.9347 60.6699C31.8858 60.6405 31.8662 60.6112 31.8662 60.5721V60.1908C31.8662 60.2201 31.8858 60.2495 31.9347 60.2788L34.1054 61.5401C34.1836 61.589 34.3205 61.5988 34.4183 61.5401Z" fill="#21201F"/>
<path d="M34.5352 70.3011L34.545 70.6727C34.545 70.7119 34.5157 70.7412 34.4766 70.7607L28.8445 74.0167C28.7565 74.0657 28.6196 74.0657 28.5316 74.0167L26.3609 72.7554C26.312 72.7261 26.2925 72.6967 26.2925 72.6674V72.2763C26.2925 72.3056 26.312 72.3448 26.3609 72.3643L28.5316 73.6257C28.6196 73.6843 28.7565 73.6745 28.8445 73.6257L34.4766 70.3794C34.5059 70.35 34.5352 70.3305 34.5352 70.3011Z" fill="#21201F"/>
<path d="M33.9392 54.9792C33.9001 54.9597 33.8805 54.9304 33.8805 54.8912V54.5099C33.8805 54.5392 33.9001 54.5686 33.9392 54.5979L36.1197 55.8593C36.2076 55.9081 36.3445 55.9081 36.4326 55.8593L38.6228 54.5979C38.6717 54.5686 38.6913 54.5392 38.6913 54.5001V54.8912C38.6913 54.9206 38.6717 54.9597 38.6228 54.9792L36.4326 56.2503C36.3445 56.2992 36.2076 56.2992 36.1197 56.2503L33.9392 54.9792Z" fill="#21201F"/>
<path d="M22.4599 61.6184C22.4111 61.5891 22.3915 61.5597 22.3915 61.5206V61.1393C22.3915 61.1686 22.4111 61.2077 22.4599 61.2273L24.6307 62.4886C24.7186 62.5375 24.8653 62.5375 24.9435 62.4886L27.1436 61.2273C27.1827 61.2077 27.2022 61.1686 27.2022 61.1393V61.5304C27.2022 61.5597 27.1827 61.5891 27.1436 61.6184L24.9533 62.8798C24.8653 62.9287 24.7186 62.9287 24.6307 62.8798L22.4599 61.6184Z" fill="#21201F"/>
<path d="M30.2627 66.1456C30.2137 66.1261 30.1942 66.0869 30.1942 66.0576V65.6763C30.1942 65.7056 30.2137 65.735 30.2529 65.7643L32.4333 67.0256C32.5214 67.0745 32.6582 67.0745 32.7462 67.0256L34.9365 65.7545C34.9756 65.735 34.9951 65.7056 34.9951 65.6665V66.0576C34.9951 66.0869 34.9756 66.1163 34.9365 66.1456L32.7462 67.407C32.6582 67.4559 32.5214 67.4657 32.4333 67.407L30.2627 66.1456Z" fill="#21201F"/>
<path d="M30.0569 57.101L30.0471 56.7197C30.0471 56.749 30.0765 56.7784 30.1156 56.8077L32.296 58.069C32.3743 58.118 32.521 58.118 32.6089 58.069L34.7894 56.8077C34.8383 56.7784 34.8578 56.749 34.8578 56.7197V57.101C34.8578 57.1402 34.8383 57.1695 34.7894 57.1988L32.6089 58.4602C32.521 58.509 32.3743 58.509 32.296 58.4602L30.1156 57.189C30.0765 57.1695 30.0569 57.1304 30.0569 57.101Z" fill="#21201F"/>
<path d="M26.5955 66.0576L28.776 64.7962C28.8249 64.7669 28.8444 64.7376 28.8444 64.7083V65.0896C28.8444 65.1287 28.8249 65.158 28.776 65.1874L26.5955 66.4487C26.5075 66.4976 26.3609 66.4976 26.2826 66.4487L24.1119 65.1874C24.063 65.158 24.0435 65.1287 24.0435 65.0896V64.7083C24.0435 64.7376 24.063 64.7669 24.1119 64.7962L26.2826 66.0576C26.3609 66.1065 26.4977 66.1065 26.5955 66.0576Z" fill="#21201F"/>
<path d="M25.0896 67.3188L21.1882 69.5677C21.1003 69.6166 20.9536 69.6166 20.8753 69.5677L18.7047 68.3064C18.6558 68.277 18.6362 68.2477 18.6362 68.2184V67.8273C18.6362 67.8566 18.6558 67.8958 18.7047 67.9153L20.8753 69.1766C20.9536 69.2255 21.1003 69.2255 21.1882 69.1766L25.0896 66.9277C25.1288 66.8984 25.1483 66.869 25.1483 66.8397V67.2211C25.1483 67.2602 25.1288 67.2895 25.0896 67.3188Z" fill="#21201F"/>
<path d="M30.1942 64.19L28.0235 62.9287C27.9747 62.8993 27.9551 62.87 27.9551 62.8309V62.4496C27.9551 62.4789 27.9747 62.5082 28.0235 62.5375L30.1942 63.7989C30.2725 63.8478 30.4093 63.8478 30.5071 63.7989L32.6876 62.5375C32.7365 62.518 32.756 62.4789 32.756 62.4496V62.8309C32.756 62.87 32.7365 62.8993 32.6876 62.9287L30.5071 64.19C30.4191 64.2389 30.2725 64.2389 30.1942 64.19Z" fill="#21201F"/>
<path d="M31.1816 68.3163L25.0802 71.8363C25.002 71.8852 24.8651 71.8852 24.7673 71.8363L22.5966 70.5652C22.5575 70.5456 22.538 70.5163 22.538 70.4771V70.0958C22.538 70.1251 22.5575 70.1545 22.5966 70.1838L24.7673 71.4452C24.8651 71.4941 25.002 71.4941 25.0802 71.4452L31.1816 67.9251C31.2305 67.8958 31.2501 67.8665 31.2501 67.8372V68.2184C31.2501 68.2478 31.2305 68.2869 31.1816 68.3163Z" fill="#21201F"/>
<path d="M36.2661 65.1972L34.0954 63.9358C34.0466 63.9065 34.027 63.8771 34.027 63.8478V63.4567C34.027 63.486 34.0466 63.5251 34.0856 63.5447L36.2661 64.806C36.3541 64.8647 36.4812 64.8647 36.579 64.806L38.7595 63.5447C38.8084 63.5251 38.8279 63.486 38.8279 63.4567V63.8478C38.8279 63.8771 38.8084 63.9065 38.7595 63.9358L36.579 65.1972C36.4812 65.246 36.3541 65.246 36.2661 65.1972Z" fill="#21201F"/>
<path d="M41.6046 50.5595C41.5557 50.54 41.5361 50.5009 41.5361 50.4716V50.0804C41.5361 50.1196 41.5557 50.1489 41.6046 50.1783L43.7753 51.4396C43.8633 51.4885 44.01 51.4885 44.0881 51.4396L46.2784 50.1783C46.3273 50.1489 46.3468 50.1196 46.3468 50.0902V50.4716C46.3468 50.5107 46.3273 50.54 46.2882 50.5595L44.0881 51.8307C44.01 51.8796 43.8633 51.8796 43.7753 51.8307L41.6046 50.5595Z" fill="#21201F"/>
<path d="M47.7453 58.5677L45.5746 57.3064C45.5355 57.277 45.5061 57.2477 45.5061 57.2184V56.8273C45.5061 56.8566 45.5355 56.8957 45.5746 56.9152L47.7453 58.1766C47.8332 58.2353 47.9701 58.2353 48.0581 58.1766L50.2484 56.9152C50.2875 56.8957 50.3169 56.8566 50.3169 56.8273V57.2086C50.3169 57.2477 50.2973 57.277 50.2484 57.3064L48.0581 58.5677C47.9701 58.6166 47.843 58.6166 47.7453 58.5677Z" fill="#21201F"/>
<path d="M40.089 62.9873L37.9182 61.726C37.8694 61.6966 37.8499 61.6673 37.8499 61.638V61.2468C37.8499 61.286 37.8694 61.3153 37.9182 61.3349L40.089 62.606C40.1769 62.6548 40.3138 62.6548 40.4019 62.606L42.5921 61.3349C42.6214 61.3153 42.6508 61.286 42.6508 61.2566L42.6606 61.638C42.6606 61.6673 42.6312 61.6966 42.5921 61.726L40.4019 62.9873C40.3138 63.0362 40.1769 63.0362 40.089 62.9873Z" fill="#21201F"/>
<path d="M42.231 57.0325L44.4212 55.7614C44.4701 55.7419 44.4897 55.7028 44.4897 55.6735V56.0548C44.4897 56.0939 44.4701 56.1232 44.4212 56.1526L42.231 57.4139C42.1527 57.4628 42.0061 57.4628 41.9181 57.4139L39.7473 56.1526C39.7083 56.133 39.679 56.0939 39.679 56.0645V55.6735C39.679 55.7126 39.6985 55.7419 39.7473 55.7712L41.9181 57.0325C42.0061 57.0815 42.1429 57.0815 42.231 57.0325Z" fill="#21201F"/>
<path d="M38.3192 59.2912L40.5095 58.0201C40.5583 58.0006 40.5779 57.9614 40.5779 57.9321V58.3134C40.5779 58.3526 40.5583 58.3819 40.5095 58.4112L38.3192 59.6726C38.241 59.7214 38.0944 59.7214 38.0063 59.6726L35.8356 58.4112C35.7965 58.3819 35.7672 58.3526 35.7672 58.3232V57.9321C35.7672 57.9712 35.7867 58.0006 35.8356 58.0299L38.0063 59.2912C38.0944 59.3401 38.2312 59.3401 38.3192 59.2912Z" fill="#21201F"/>
<path d="M43.9123 60.7774L41.7417 59.5161C41.7025 59.4867 41.683 59.4574 41.683 59.4281L41.6732 59.037C41.6732 59.0761 41.7025 59.1054 41.7417 59.1347L43.9123 60.3961C44.0004 60.445 44.147 60.445 44.2252 60.3961L46.4155 59.125C46.4644 59.1054 46.4839 59.0663 46.4839 59.037V59.4183C46.4839 59.4574 46.4644 59.4867 46.4253 59.5161L44.2252 60.7774C44.147 60.8263 44.0101 60.8263 43.9123 60.7774Z" fill="#21201F"/>
<path d="M45.4381 48.3498C45.3892 48.3205 45.3696 48.2912 45.3696 48.2619V47.8707C45.3696 47.9001 45.3892 47.9392 45.4284 47.9588L47.6088 49.2299C47.6968 49.2787 47.8337 49.2787 47.9217 49.2299L50.1119 47.9685C50.151 47.9392 50.1706 47.9099 50.1706 47.8707V48.2619C50.1706 48.2912 50.151 48.3303 50.1119 48.3498L47.9217 49.6112C47.8337 49.6699 47.6968 49.6601 47.6088 49.6112L45.4381 48.3498Z" fill="#21201F"/>
<path d="M37.772 52.7694C37.7329 52.7498 37.7134 52.7107 37.7134 52.6814V52.2903C37.7134 52.3294 37.7329 52.3587 37.772 52.388L39.9525 53.6494C40.0405 53.6983 40.1774 53.6983 40.2654 53.6494L42.4556 52.388C42.4948 52.3587 42.5143 52.3294 42.5143 52.3001V52.6814C42.5143 52.7107 42.4948 52.7498 42.4556 52.7694L40.2654 54.0308C40.1774 54.0894 40.0405 54.0797 39.9525 54.0308L37.772 52.7694Z" fill="#21201F"/>
<path d="M46.142 54.7739L48.3322 53.5028C48.3616 53.4832 48.3909 53.4637 48.3909 53.4343L48.4007 53.8059C48.4007 53.8352 48.3811 53.8645 48.3322 53.8939L46.142 55.1552C46.0637 55.2041 45.9171 55.2041 45.8291 55.1552L43.6584 53.8939C43.6193 53.8743 43.59 53.8352 43.59 53.8059V53.4148C43.59 53.4539 43.6095 53.4832 43.6584 53.5126L45.8291 54.7739C45.9171 54.8228 46.054 54.8228 46.142 54.7739Z" fill="#21201F"/>
<path d="M49.2022 46.052L49.1924 45.6609C49.1924 45.7 49.2217 45.7293 49.2608 45.7489L51.4413 47.02C51.5195 47.0689 51.6662 47.0689 51.7542 47.02L53.9346 45.7587C53.9836 45.7293 54.0031 45.7 54.0031 45.6609V46.052C54.0031 46.0814 53.9836 46.1205 53.9346 46.1401L51.7542 47.4014C51.6662 47.4503 51.5195 47.4503 51.4413 47.4014L49.2608 46.1401C49.2217 46.1107 49.2022 46.0814 49.2022 46.052Z" fill="#21201F"/>
<path d="M49.7402 52.8966L47.5695 51.6352C47.5304 51.6157 47.5011 51.5766 47.5011 51.5472V51.1659C47.5011 51.1952 47.5206 51.2245 47.5695 51.2539L49.7402 52.5152C49.8282 52.5641 49.9651 52.5641 50.0531 52.5152L52.2434 51.2539C52.2824 51.2245 52.302 51.1952 52.302 51.1561L52.3118 51.5472C52.3118 51.5766 52.2824 51.6157 52.2434 51.6352L50.0531 52.8966C49.9749 52.9454 49.8282 52.9454 49.7402 52.8966Z" fill="#21201F"/>
<path d="M58.1685 56.7001C58.2173 56.6708 58.2369 56.6414 58.2369 56.6023V56.9934C58.2369 57.0228 58.2173 57.0619 58.1685 57.0815L36.6767 69.4993C36.5887 69.5483 36.4518 69.5483 36.3638 69.4993L34.1834 68.238C34.1442 68.2087 34.1246 68.1793 34.1246 68.1402V67.7589C34.1246 67.7882 34.1442 67.8273 34.1834 67.8469L36.354 69.1082C36.4518 69.1669 36.5887 69.1571 36.6767 69.1082L58.1685 56.7001Z" fill="#21201F"/>
<path d="M51.578 56.3579L49.4073 55.0965C49.3584 55.0672 49.3389 55.0379 49.3389 55.0086V54.6174C49.3389 54.6467 49.3584 54.6859 49.3975 54.7054L51.578 55.9668C51.6659 56.0255 51.8029 56.0157 51.8909 55.9668L54.0811 54.7054C54.1202 54.6761 54.1398 54.6467 54.1398 54.6174V55.0086C54.1398 55.0379 54.1202 55.0672 54.0811 55.0868L51.8909 56.3579C51.8029 56.4068 51.6659 56.4068 51.578 56.3579Z" fill="#21201F"/>
<path d="M53.9447 50.2662L57.8363 48.0173C57.8754 47.9978 57.9047 47.9587 57.9047 47.9293V48.3205C57.9047 48.3498 57.8852 48.3791 57.8363 48.4085L53.9447 50.6574C53.847 50.7063 53.7101 50.7063 53.6318 50.6574L51.4612 49.396C51.4123 49.3667 51.3927 49.3373 51.3927 49.2982V48.9169C51.3927 48.9463 51.4123 48.9853 51.4514 49.0049L53.6318 50.2662C53.7101 50.3151 53.847 50.3249 53.9447 50.2662Z" fill="#21201F"/>
<path d="M56.1056 53.5322L61.7279 50.2859C61.7768 50.2565 61.7963 50.2272 61.7963 50.1979L61.8061 50.5792C61.8061 50.6183 61.7768 50.6477 61.7377 50.677L56.1056 53.9232C56.0274 53.9721 55.8807 53.9721 55.7927 53.9232L53.622 52.6619C53.5829 52.6326 53.5536 52.6033 53.5536 52.5642V52.1828C53.5536 52.2121 53.5829 52.2415 53.622 52.2708L55.7927 53.5322C55.8807 53.5908 56.0274 53.581 56.1056 53.5322Z" fill="#21201F"/>
<path d="M65.5609 52.3783V52.7694C65.5609 52.7987 65.5413 52.828 65.4924 52.8574L59.8701 56.1037C59.7822 56.1525 59.6453 56.1525 59.5572 56.1037L57.3866 54.8423C57.3377 54.813 57.3181 54.7836 57.3181 54.7543V54.3632C57.3181 54.4023 57.3377 54.4316 57.3866 54.4609L59.5572 55.7223C59.6453 55.7712 59.7822 55.7712 59.8701 55.7223L65.4924 52.4663C65.5413 52.4467 65.5609 52.4076 65.5609 52.3783Z" fill="#21201F"/>
<path d="M26.3591 72.1861C26.2744 72.2351 26.2679 72.3155 26.3581 72.3679L28.5296 73.6298C28.6198 73.6823 28.7586 73.6788 28.8434 73.6298L34.4741 70.3789C34.5588 70.33 34.5654 70.2496 34.4751 70.1972L32.3037 68.9352C32.2134 68.8828 32.0746 68.8863 31.9898 68.9352L26.3591 72.1861Z" fill="#494846"/>
<path d="M49.9569 42.0927C50.7658 41.6257 52.0819 41.6257 52.8856 42.0927L69.6678 51.8455C70.4715 52.3125 70.4672 53.0749 69.6582 53.5419L30.3427 76.2407C29.5338 76.7077 28.2177 76.7077 27.414 76.2407L10.6318 66.4879C9.82816 66.0209 9.83243 65.2586 10.6414 64.7915L49.9569 42.0927ZM28.0742 75.8595C28.5174 76.1171 29.2407 76.1171 29.6868 75.8595L69.0023 53.1607C69.4484 52.9031 69.4508 52.4842 69.0076 52.2266L52.2254 42.4739C51.7822 42.2163 51.0589 42.2163 50.6128 42.4739L11.2973 65.1727C10.8512 65.4303 10.8488 65.8492 11.292 66.1068L28.0742 75.8595Z" fill="#A0A8AA"/>
<path d="M58.8808 69.7165L50.6838 74.4764C50.2348 74.7377 49.6959 74.7377 49.255 74.4846L44.0298 71.4638C43.5481 71.1943 43.5481 70.5086 44.0135 70.231L52.2187 65.4711C52.6596 65.2099 53.2066 65.2099 53.6475 65.4629L58.8808 68.4838C59.3543 68.7532 59.3543 69.4391 58.8808 69.7165Z" fill="#A0A8AA"/>
<path d="M12.134 61.682C12.2203 61.631 12.338 61.6389 12.4713 61.7134C12.7498 61.8742 12.9616 62.2664 12.9616 62.5802L51.6686 40.1946C51.6686 39.8808 51.4569 39.4886 51.1823 39.3317C51.049 39.2533 50.9274 39.2494 50.8411 39.3003L12.134 61.682Z" fill="#21201F"/>
<path d="M12.4725 61.7141C12.1995 61.5566 11.9834 61.6998 11.9825 62.0134L12.9616 62.5787C12.9625 62.2651 12.7479 61.8732 12.4725 61.7141Z" fill="#383736"/>
<path d="M51.7457 4.85352L51.7384 4.86322V4.85836L51.7457 4.85352Z" fill="white"/>
<path d="M52.5603 4.8567V3.43591L4.44934 31.1986L4.45816 34.5603L52.5659 6.79944L52.5603 4.8567Z" fill="white"/>
<path d="M4.45825 34.5603L4.53303 63.1559L4.54097 64.6084L5.84632 63.8165L52.652 36.7981L52.566 6.79944L4.45825 34.5603Z" fill="#3F9AE0"/>
<path d="M44.0774 20.3615C45.0166 19.8192 45.778 20.2532 45.7811 21.3324C45.7842 22.4117 45.0277 23.722 44.0885 24.2642L15.2378 40.9212C14.2986 41.4634 13.5371 41.0295 13.5341 39.9503C13.531 38.871 14.2875 37.5607 15.2268 37.0184L44.0774 20.3615Z" fill="#0074D1"/>
<path d="M61.2707 52.3748L33.782 68.3546C32.5676 69.0584 30.8979 68.9618 29.0488 67.8993C25.3918 65.7879 22.4111 60.6407 22.4249 56.4318L22.4525 46.7997C22.4663 43.6396 20.2446 39.8033 17.5123 38.2302L16.6292 37.7196L44.1317 21.7397L45.0148 22.2503C47.7471 23.8235 49.9689 27.6597 49.955 30.8061L49.9274 40.452C49.9137 44.6608 52.8805 49.808 56.5513 51.9194C58.4004 52.9819 60.0701 53.0785 61.2707 52.3748Z" fill="#F2F2F2"/>
<path d="M62.0911 53.7813L34.5892 69.7636C35.9896 68.9498 36.8593 67.2217 36.8662 64.7685L64.3681 48.7861C64.3611 51.2394 63.4915 52.9675 62.0911 53.7813Z" fill="#D6D4D2"/>
<path d="M36.8669 64.4345L64.3688 48.4521L64.3678 48.7861L36.866 64.7685L36.8669 64.4345Z" fill="#D6D4D2"/>
<path d="M38.5032 60.8466L66.0051 44.8643C64.999 45.4489 64.374 46.6893 64.369 48.4522L36.8672 64.4345C36.8722 62.6716 37.4971 61.4313 38.5032 60.8466Z" fill="#D6D4D2"/>
<path d="M58.4776 84.8926L85.9795 68.9103L85.9757 70.2343L58.4739 86.2166L58.4776 84.8926Z" fill="#C4C2C0"/>
<path d="M17.5081 38.2273C20.2487 39.8095 22.4629 43.6447 22.4539 46.7938L22.4266 56.4317C22.4147 60.6424 25.3842 65.7859 29.0486 67.9015C32.713 70.0171 35.7019 68.3138 35.7139 64.1031L35.7148 63.7692C35.727 59.4869 38.7784 57.748 42.505 59.8996C46.2421 62.0572 49.2634 67.3022 49.2512 71.5844L49.2376 76.3915C49.2327 78.133 50.4639 80.2656 51.9795 81.1406L58.4778 84.8924L58.474 86.2164L51.9757 82.4646C49.8269 81.224 48.0783 78.1953 48.0853 75.7262L48.099 70.9191C48.109 67.3645 45.5947 63.0215 42.5013 61.2355C39.4078 59.4495 36.8772 60.8798 36.8671 64.4344L36.8662 64.7684C36.8522 69.7067 33.3425 71.7067 29.0448 69.2255C24.7472 66.7443 21.2604 60.7048 21.2744 55.7665L21.3017 46.1285C21.3086 43.7071 19.6117 40.768 17.5044 39.5513L16.6221 39.0419L16.6258 37.7179L17.5081 38.2273Z" fill="#B2B0AF"/>
<path d="M37.6929 59.4354L65.1947 43.4531C66.4268 42.7371 68.1312 42.8346 70.0065 43.9173C73.7436 46.0749 76.7649 51.3199 76.7527 55.6021L49.2509 71.5844C49.263 67.3022 46.2417 62.0572 42.5047 59.8996C40.6293 58.8169 38.925 58.7194 37.6929 59.4354Z" fill="#F2F2F2"/>
<path d="M65.1953 43.4533L37.6935 59.4356C38.1943 59.1445 38.7763 58.9958 39.413 58.9851L66.9149 43.0027C66.2782 43.0134 65.6962 43.1621 65.1953 43.4533Z" fill="#D6D4D2"/>
<path d="M85.9848 68.9068L58.4823 84.8867L51.9827 81.147C50.4647 80.2638 49.2365 78.1387 49.2365 76.3861L49.2503 71.5839C49.2642 67.306 46.2421 62.0622 42.5024 59.8956C41.3984 59.2609 40.3359 58.9711 39.4113 58.9849L66.9138 43.005C67.8384 42.9912 68.9009 43.281 70.0049 43.9158C73.7446 46.0685 76.7667 51.3262 76.7529 55.604L76.7391 60.4062C76.7391 62.145 77.9672 64.2839 79.4852 65.1533L85.9848 68.9068Z" fill="#F2F2F2"/>
<path d="M82.824 68.6721L58.0814 83.0512L56.936 82.4026L81.6786 68.0096L82.824 68.6721Z" fill="#D6D4D2"/>
<path d="M78.2707 66.0087L53.4866 80.4154L52.6725 79.9463C52.5759 79.891 52.4793 79.8221 52.3827 79.7393L77.3875 65.2084C77.6635 65.5119 77.9532 65.7741 78.2707 66.0087Z" fill="#D6D4D2"/>
<path d="M75.6625 62.2275L50.6438 76.7723C50.63 76.6342 50.6162 76.5101 50.6162 76.3859V75.4613L75.4003 61.0546C75.4417 61.4409 75.5382 61.8412 75.6625 62.2275Z" fill="#D6D4D2"/>
<path d="M75.3722 55.7832V57.0942L50.6296 71.4733C50.6296 71.0593 50.602 70.6454 50.533 70.2176L75.3722 55.7832Z" fill="#D6D4D2"/>
<path d="M74.7377 52.1677L49.6638 66.74C49.5397 66.3812 49.3879 66.0224 49.2085 65.6775L74.3237 51.0913C74.4755 51.4501 74.6135 51.8089 74.7377 52.1677Z" fill="#D6D4D2"/>
<path d="M64.0271 53.0657L47.4696 62.6968C47.2488 62.3932 47.0142 62.0896 46.7797 61.7998L63.3095 52.1687C63.5717 52.4585 63.8063 52.7483 64.0271 53.0657Z" fill="#D6D4D2"/>
<path d="M60.4252 49.8642L44.1575 59.3297C43.8401 59.0951 43.5228 58.8881 43.1916 58.6949C43.1639 58.6811 43.1225 58.6674 43.095 58.6397L59.0038 49.3812C59.4592 49.464 59.9421 49.6158 60.4252 49.8642Z" fill="#D6D4D2"/>
<path d="M46.8904 25.9487L21.7751 40.5486C21.5681 40.2174 21.3474 39.9138 21.1128 39.6103L46.1866 25.0378C46.435 25.3277 46.6695 25.6313 46.8904 25.9487Z" fill="#D6D4D2"/>
<path d="M48.56 34.256V35.5669L23.8174 49.9461L23.8312 48.6351L48.56 34.256Z" fill="#D6D4D2"/>
<path d="M51.9135 49.5321L26.8259 64.1045C26.5914 63.8147 26.3568 63.4973 26.1498 63.1799L51.2374 48.6075C51.4582 48.925 51.679 49.2424 51.9135 49.5321Z" fill="#D6D4D2"/>
<path d="M49.6231 45.5579L24.5494 60.1302C24.3975 59.7714 24.2872 59.3988 24.1906 59.0262L49.2367 44.4814C49.3471 44.8402 49.4714 45.1991 49.6231 45.5579Z" fill="#D6D4D2"/>
<path d="M48.5601 40.8659L23.8037 55.2588L23.8175 53.9341L48.5463 39.5549V40.4519C48.5463 40.5899 48.5463 40.7279 48.5601 40.8659Z" fill="#D6D4D2"/>
<path d="M48.5466 30.2817L23.5971 44.7713C23.5143 44.3987 23.4177 44.0122 23.2935 43.6397L48.3397 29.0812C48.4501 29.4951 48.5191 29.8953 48.5466 30.2817Z" fill="#D6D4D2"/>
<path d="M72.5573 48.1245L66.0127 51.9299C64.7017 49.9704 63.0596 48.7145 60.9896 48.2454L67.5343 44.4401C69.6042 44.9092 71.2602 46.165 72.5573 48.1245Z" fill="#E19CBD"/>
<path d="M13.2738 27.7732C13.2876 28.3252 12.9012 29.0014 12.4182 29.2773C11.9353 29.5533 11.5626 29.3187 11.5488 28.7667C11.5488 28.2148 11.9353 27.5662 12.4182 27.2764C12.9012 27.0004 13.2738 27.2212 13.2738 27.7732Z" fill="#F25A5A"/>
<path d="M10.5831 29.3325C10.5831 29.8844 10.1967 30.5607 9.71371 30.8366C9.23068 31.1126 8.85815 30.878 8.85815 30.326C8.84433 29.7879 9.23068 29.1255 9.71371 28.8495C10.1967 28.5597 10.5693 28.7805 10.5831 29.3325Z" fill="#F25A5A"/>
<path d="M7.87851 30.8919C7.87851 31.4439 7.49208 32.1201 7.00913 32.3961C6.53991 32.6721 6.15356 32.4513 6.15356 31.8993C6.15356 31.3473 6.52618 30.6849 7.00913 30.4089C7.49208 30.133 7.87851 30.3399 7.87851 30.8919Z" fill="#F25A5A"/>
<path d="M68.9326 71.4266L65.097 74.7303L64.6196 75.6267L63.8043 77.1648L65.5317 76.7814L67.7619 76.2896L70.7487 73.7171L68.9326 71.4266Z" fill="#EFC348"/>
<path d="M67.6905 69.8601L65.0969 74.7303L68.9326 71.4266L67.6905 69.8601Z" fill="#FFD651"/>
<path d="M70.7485 73.7172L67.7617 76.2897L72.0401 75.3463L70.7485 73.7172Z" fill="#DDB040"/>
<path d="M89.8469 60.1944L72.8728 74.9264C71.7861 75.8664 69.8357 75.3814 68.5151 73.8516C67.1945 72.3218 67.0015 70.3204 68.0871 69.3848L85.0438 54.6672C83.9714 55.6061 84.1753 57.6008 85.4893 59.1197C86.8098 60.6495 88.7602 61.1346 89.8469 60.1944Z" fill="#F25A5A"/>
<path d="M85.4899 59.1197C85.1236 58.6963 84.847 58.2357 84.6568 57.7716L67.684 72.503C67.8735 72.9669 68.1497 73.4275 68.5158 73.8516C68.8345 74.2208 69.1903 74.5275 69.5613 74.7696L86.535 60.0375C86.1641 59.7954 85.8085 59.4887 85.4899 59.1197Z" fill="#DD4A4A"/>
<path d="M85.0442 54.6672L68.0874 69.3848C67.3029 70.061 67.1895 71.2938 67.6837 72.503L84.6565 57.7716C84.1645 56.5706 84.2707 55.3444 85.0442 54.6672Z" fill="#F25A5A"/>
<path d="M86.5356 60.0375L69.5619 74.7696C70.7284 75.5309 72.0496 75.6395 72.874 74.9264L89.8481 60.1944C89.0236 60.9078 87.7022 60.799 86.5356 60.0375Z" fill="#CC4848"/>
<path d="M87.8979 52.1897L85.0582 54.6515C84.2651 55.3364 84.1578 56.5887 84.67 57.81L87.5097 55.3482C86.9974 54.1269 87.1048 52.8746 87.8979 52.1897Z" fill="#D6D4D2"/>
<path d="M88.3268 56.6594C87.9705 56.2468 87.6991 55.7996 87.5098 55.3483L84.6702 57.8101C84.8595 58.2614 85.1308 58.7086 85.4872 59.1212C85.8087 59.4936 86.168 59.8027 86.5429 60.0456L89.3826 57.5838C89.0077 57.3408 88.6484 57.0318 88.3268 56.6594Z" fill="#C4C2C0"/>
<path d="M89.3827 57.5839L86.5431 60.0457C87.7078 60.8006 89.0253 60.906 89.847 60.1964L92.6867 57.7346C91.8649 58.4442 90.5475 58.3387 89.3827 57.5839Z" fill="#B2B0AF"/>
<path d="M92.2523 53.269C93.5729 54.7982 93.7674 56.8007 92.6861 57.7345C91.5999 58.6725 89.647 58.1885 88.3265 56.6594C87.0059 55.1303 86.8115 53.1277 87.8977 52.1897C88.9789 51.256 90.9318 51.74 92.2523 53.269Z" fill="#E9E8E6"/>
<path d="M89.8607 50.8795L88.3981 52.1426C87.6884 52.7554 87.5622 53.8468 87.967 54.9364L89.4296 53.6733C89.0248 52.5837 89.151 51.4924 89.8607 50.8795Z" fill="#EFC348"/>
<path d="M91.3065 55.9658L89.8439 57.2289C90.9225 57.9073 92.1244 57.9904 92.8828 57.3356L94.3454 56.0725C93.587 56.7274 92.3851 56.6442 91.3065 55.9658Z" fill="#CEA03A"/>
<path d="M90.259 55.0595C89.8833 54.6244 89.6065 54.149 89.4298 53.6732L87.9672 54.9363C88.1439 55.412 88.4207 55.8875 88.7964 56.3225C89.1154 56.692 89.4725 56.9953 89.844 57.2289L91.3066 55.9658C90.9351 55.7322 90.578 55.4289 90.259 55.0595Z" fill="#DDB040"/>
<path d="M93.9312 51.8884C95.1764 53.3304 95.3579 55.1984 94.3456 56.0727C93.326 56.9531 91.5043 56.5016 90.259 55.0597C89.0227 53.6281 88.8413 51.7601 89.8608 50.8796C90.8732 50.0054 92.6949 50.4569 93.9312 51.8884Z" fill="#FFD651"/>
<path d="M65.5321 76.7814L63.8047 77.1649L64.62 75.6267L65.5321 76.7814Z" fill="#434240"/>
<path d="M91.4884 32.0722C91.498 35.1679 89.3948 38.8104 86.7023 40.3657C86.5598 40.4476 86.4044 40.487 86.2513 40.487C85.9385 40.487 85.6353 40.3242 85.4683 40.0348C85.2183 39.6029 85.3662 39.0498 85.7981 38.7997C87.9097 37.5806 89.6884 34.502 89.681 32.0776C89.6788 31.101 89.3778 30.3691 88.8576 30.0702C88.331 29.768 87.5342 29.8776 86.6736 30.3744C86.2417 30.6244 85.6896 30.4755 85.4396 30.0436C85.1896 29.6116 85.3385 29.0585 85.7704 28.8085C87.2246 27.9681 88.6416 27.8596 89.7597 28.5032C90.8692 29.1425 91.4841 30.4106 91.4884 32.0722Z" fill="#2C8C2C"/>
<path d="M87.2811 27.3903L87.208 40.7886C87.2049 41.8988 86.4746 43.0073 85.0159 43.855C82.0838 45.5589 77.3095 45.5614 74.3539 43.855C72.8688 42.9976 72.1271 41.8707 72.1303 40.7456L72.2033 27.3473C72.2002 28.4724 72.9419 29.5993 74.427 30.4568C77.3826 32.1632 82.1569 32.1606 85.089 30.4567C86.5477 29.609 87.2779 28.5005 87.2811 27.3903Z" fill="#6DCB60"/>
<path d="M85.0891 30.4568C82.5143 31.9531 78.5194 32.1369 75.5825 31.0041V44.4301C78.5123 45.5319 82.4625 45.339 85.016 43.8551C86.4748 43.0073 87.205 41.8988 87.2081 40.7887L87.2812 27.3904C87.2781 28.5005 86.5478 29.609 85.0891 30.4568Z" fill="#3DB542"/>
<path d="M85.0891 30.4568C84.0628 31.0532 82.8105 31.4404 81.4897 31.6195V45.0074C82.7835 44.8241 84.0086 44.4405 85.016 43.8551C86.4748 43.0073 87.205 41.8988 87.2082 40.7887L87.2812 27.3904C87.2781 28.5005 86.5479 29.609 85.0891 30.4568Z" fill="#2C9A2C"/>
<path d="M87.2936 27.3974C87.3008 24.9855 83.9311 23.0201 79.767 23.0076C75.603 22.9951 72.2215 24.9403 72.2143 27.3522C72.207 29.7641 75.5768 31.7295 79.7408 31.742C83.9049 31.7545 87.2863 29.8093 87.2936 27.3974Z" fill="#81D672"/>
<path d="M85.8218 28.2435C85.5569 27.6148 85.0069 27.018 84.1559 26.5265C81.7027 25.1106 77.7337 25.1085 75.2922 26.5265C74.4582 27.0116 73.9189 27.5999 73.6582 28.2201C73.1593 27.0329 73.6987 25.7287 75.2922 24.8021C77.7337 23.3841 81.7027 23.3862 84.1559 24.8021C85.7739 25.7361 86.325 27.0499 85.8218 28.2435Z" fill="#3DB542"/>
<path d="M85.822 28.2436C85.5646 28.8649 85.0188 29.45 84.1859 29.9351C81.7476 31.3488 77.7786 31.3542 75.3191 29.9351C74.4712 29.4457 73.9212 28.8489 73.6584 28.2181C73.8606 27.7436 74.2244 27.284 74.7616 26.8777C74.9223 26.7553 75.0978 26.6383 75.2893 26.5266C77.7328 25.1075 81.7072 25.1075 84.1604 26.5266C84.6625 26.817 85.0603 27.1436 85.355 27.4936C85.5593 27.734 85.7156 27.9862 85.822 28.2436Z" fill="#EFC348"/>
<path d="M85.3534 27.4935C85.1917 27.6158 85.0151 27.7328 84.8226 27.8446C82.3843 29.2584 78.4153 29.2637 75.9568 27.8446C75.4536 27.5541 75.0558 27.2275 74.76 26.8776C74.9206 26.7552 75.0962 26.6382 75.2877 26.5265C77.7312 25.1074 81.7056 25.1074 84.1588 26.5265C84.6609 26.8169 85.0587 27.1435 85.3534 27.4935Z" fill="#FFD651"/>
<path d="M82.7585 18.5023L82.7553 18.6916C82.7521 18.9459 82.7149 19.1991 82.6606 19.4491C82.6276 19.5725 82.5947 19.6959 82.5532 19.8171L82.4862 19.9969L82.451 20.0874L82.4191 20.1639C82.333 20.3639 82.2447 20.5618 82.1542 20.7597C82.0628 20.9575 81.9691 21.1533 81.8734 21.348C81.7957 21.5139 81.7223 21.6724 81.667 21.8448C81.6053 22.0139 81.5649 22.1905 81.5255 22.3692C81.5117 22.4586 81.4926 22.5501 81.4851 22.6416C81.4798 22.6873 81.4713 22.733 81.4681 22.7798L81.4596 22.9192C81.4362 23.2947 81.4755 23.6809 81.5585 24.0777C81.6064 24.2724 81.6585 24.4745 81.734 24.6734C81.7681 24.7734 81.8117 24.8798 81.8511 24.9851C81.8894 25.0915 81.9287 25.1989 81.9617 25.3096C81.8649 25.2458 81.7745 25.1777 81.683 25.1096C81.5936 25.0404 81.5043 24.9755 81.4181 24.8936C81.3894 24.8692 81.3606 24.8436 81.3341 24.8181C81.1894 24.6819 81.0628 24.5266 80.9415 24.3628C80.6681 23.9681 80.4681 23.5043 80.3766 23.0128C80.282 22.5224 80.2873 22.0033 80.399 21.5043C80.449 21.2544 80.5373 21.0086 80.633 20.7767C80.7192 20.5767 80.8075 20.3778 80.899 20.181C80.9904 19.9842 81.083 19.7874 81.1798 19.5927L81.2149 19.5214L81.2426 19.4608C81.2607 19.4203 81.2798 19.3799 81.3 19.3395C81.3362 19.2576 81.3649 19.1735 81.4 19.0906C81.4245 19.0044 81.4585 18.9203 81.4809 18.8321C81.5 18.7448 81.533 18.6576 81.5468 18.5672L81.5734 18.4321C81.5809 18.3874 81.584 18.3416 81.5915 18.2959C81.6085 18.2044 81.6149 18.1119 81.6202 18.0182C81.65 17.6427 81.6202 17.2544 81.5372 16.8587C81.4575 16.4693 81.3192 16.0789 81.133 15.6694C81.1298 15.6608 81.1266 15.6534 81.1224 15.6449C81.9372 16.0715 82.5351 16.9555 82.7021 17.9406C82.7213 18.064 82.7415 18.1874 82.7479 18.314C82.7532 18.3767 82.7574 18.4395 82.7585 18.5023Z" fill="#E9E8E6"/>
<path d="M82.1532 18.08L82.1511 18.2694C82.1479 18.5236 82.1096 18.7768 82.0553 19.0268C82.0234 19.1502 81.9894 19.2736 81.9489 19.3949L81.8809 19.5747L81.8457 19.6651L81.8138 19.7417C81.7287 19.9417 81.6394 20.1396 81.5489 20.3374C81.4585 20.5353 81.3649 20.731 81.2692 20.9257C81.1904 21.0917 81.117 21.2502 81.0617 21.4225C81.0011 21.5916 80.9596 21.7682 80.9202 21.947C80.9064 22.0363 80.8873 22.1278 80.8798 22.2193C80.8745 22.265 80.867 22.3118 80.8628 22.3576L80.8553 22.498C80.8309 22.8725 80.8713 23.2586 80.9532 23.6554C81.0011 23.8501 81.0543 24.0522 81.1298 24.2512C81.1638 24.3512 81.2064 24.4575 81.2468 24.5629C81.2766 24.648 81.3075 24.732 81.3341 24.8182C81.1894 24.682 81.0628 24.5267 80.9415 24.3629C80.6681 23.9682 80.4681 23.5044 80.3766 23.0129C80.282 22.5225 80.2873 22.0033 80.399 21.5044C80.449 21.2544 80.5373 21.0087 80.633 20.7768C80.7192 20.5768 80.8075 20.3778 80.899 20.181C80.9904 19.9842 81.083 19.7874 81.1798 19.5927L81.2149 19.5215L81.2426 19.4608C81.2607 19.4204 81.2798 19.38 81.3 19.3396C81.3362 19.2577 81.3649 19.1736 81.4 19.0906C81.4245 19.0045 81.4585 18.9204 81.4809 18.8321C81.5 18.7449 81.533 18.6577 81.5468 18.5672L81.5734 18.4321C81.5809 18.3875 81.584 18.3417 81.5915 18.296C81.6085 18.2045 81.6149 18.1119 81.6202 18.0183C81.65 17.6428 81.6202 17.2545 81.5372 16.8588C81.4575 16.4694 81.3192 16.079 81.133 15.6694C81.6266 16.1407 81.9755 16.8034 82.0968 17.5183C82.117 17.6417 82.1362 17.7662 82.1436 17.8917C82.1479 17.9545 82.1521 18.0173 82.1532 18.08Z" fill="#D6D4D2"/>
<path d="M79.8363 17.9566L79.8289 18.1906C79.8203 18.5023 79.7703 18.814 79.7012 19.1204C79.6597 19.2714 79.6172 19.4246 79.5661 19.5735L79.481 19.7938L79.4374 19.9044L79.397 20.0012C79.2863 20.2544 79.1725 20.5065 79.0576 20.7576C78.9416 21.0086 78.8236 21.2586 78.7033 21.5075C78.6012 21.7267 78.5055 21.9405 78.4363 22.1703C78.3587 22.3958 78.3087 22.6309 78.264 22.8681C78.248 22.9884 78.2257 23.1075 78.2193 23.2288C78.2151 23.2894 78.2066 23.3511 78.2034 23.4118L78.198 23.5958C78.1842 24.0894 78.2555 24.5905 78.3874 25.0947C78.4608 25.3426 78.5416 25.5968 78.6512 25.8436C78.7023 25.9681 78.7629 26.0979 78.8204 26.2266C78.8767 26.3574 78.9331 26.4872 78.9831 26.6223C78.8693 26.5351 78.7608 26.4436 78.6523 26.3521C78.5448 26.2585 78.4385 26.1691 78.3353 26.0638C78.2502 25.984 78.1693 25.8979 78.0938 25.8085C77.9789 25.6734 77.8725 25.5287 77.7704 25.3798C77.4481 24.8777 77.2151 24.299 77.1151 23.6894C77.0108 23.0809 77.0257 22.4426 77.1683 21.8299C77.2321 21.5224 77.3438 21.2214 77.4629 20.9352C77.5736 20.682 77.6863 20.4299 77.8023 20.1788C77.9183 19.9289 78.0363 19.6788 78.1576 19.4299L78.2023 19.3384L78.2385 19.2576L78.3119 19.0959C78.3587 18.9863 78.397 18.8736 78.4406 18.7618L78.4917 18.5906C78.5097 18.5331 78.531 18.4767 78.5416 18.4182C78.5661 18.3012 78.6044 18.1853 78.6193 18.0661L78.6502 17.8863C78.6597 17.8268 78.6619 17.7661 78.6704 17.7055C78.6757 17.6449 78.6874 17.5842 78.6895 17.5225L78.697 17.3395C78.7182 16.8459 78.6587 16.3417 78.5278 15.8385C78.398 15.3332 78.1895 14.8353 77.9161 14.3322C78.0023 14.3853 78.0874 14.4417 78.1693 14.5024C79.014 15.1268 79.6118 16.1491 79.7778 17.2619L79.8086 17.4917C79.8193 17.5683 79.8203 17.6459 79.8267 17.7236C79.831 17.8012 79.8352 17.8789 79.8363 17.9566Z" fill="#E9E8E6"/>
<path d="M79.1725 17.3257L79.165 17.5598C79.1565 17.8714 79.1065 18.1831 79.0374 18.4895C78.9959 18.6416 78.9533 18.7938 78.9023 18.9427L78.8172 19.1629L78.7746 19.2735L78.7331 19.3704C78.6225 19.6235 78.5087 19.8757 78.3938 20.1267C78.2778 20.3778 78.1597 20.6278 78.0395 20.8767C77.9374 21.0958 77.8417 21.3097 77.7725 21.5394C77.6949 21.766 77.6449 22.0001 77.6002 22.2373C77.5842 22.3575 77.5619 22.4767 77.5555 22.599C77.5512 22.6596 77.5427 22.7203 77.5395 22.7809L77.5342 22.965C77.5204 23.4586 77.5917 23.9596 77.7236 24.4639C77.797 24.7117 77.8778 24.966 77.9874 25.2128C78.0385 25.3372 78.0991 25.467 78.1565 25.5968C78.2129 25.7266 78.2693 25.8564 78.3193 25.9915C78.2417 25.9319 78.1672 25.8713 78.0938 25.8085C77.9789 25.6734 77.8725 25.5287 77.7704 25.3798C77.4481 24.8777 77.2151 24.299 77.1151 23.6894C77.0108 23.0809 77.0257 22.4426 77.1683 21.8299C77.2321 21.5224 77.3438 21.2214 77.4629 20.9352C77.5736 20.682 77.6863 20.4299 77.8023 20.1788C77.9183 19.9289 78.0363 19.6788 78.1576 19.4299L78.2023 19.3384L78.2385 19.2576L78.3119 19.0959C78.3587 18.9863 78.397 18.8736 78.4406 18.7618L78.4917 18.5906C78.5097 18.5331 78.531 18.4767 78.5416 18.4182C78.5661 18.3012 78.6044 18.1853 78.6193 18.0661L78.6502 17.8863C78.6597 17.8268 78.6619 17.7661 78.6704 17.7055C78.6757 17.6449 78.6874 17.5842 78.6895 17.5225L78.697 17.3395C78.7182 16.8459 78.6587 16.3417 78.5278 15.8385C78.398 15.3332 78.1895 14.8353 77.9161 14.3322C78.0023 14.3853 78.0874 14.4417 78.1693 14.5024C78.6587 15.0917 78.9959 15.8385 79.114 16.6311L79.1448 16.8608C79.1555 16.9374 79.1565 17.0151 79.1629 17.0927C79.1672 17.1704 79.1725 17.2481 79.1725 17.3257Z" fill="#D6D4D2"/>
</svg>
