<svg width="125" height="125" viewBox="0 0 125 125" fill="none" xmlns="http://www.w3.org/2000/svg">
<path d="M65.5621 15.2352L59.1016 11.4807L91.5805 24.0156L100.851 29.403L65.5621 15.2352Z" fill="#CEA03A"/>
<path d="M30.6084 119.104L24.1479 115.35L24.0088 66.2837L30.4693 70.0381L30.6084 119.104Z" fill="#CEA03A"/>
<path d="M30.4693 70.0381L24.0088 66.2836L59.102 11.4807L65.5626 15.2352L30.4693 70.0381Z" fill="#DDB040"/>
<path d="M65.5622 15.2351L100.851 29.4029L100.99 78.4688L30.6081 119.104L30.469 70.038L65.5622 15.2351Z" fill="#FFD651"/>
<path d="M38.1796 106.67L33.2974 103.833L33.1333 38.6191L38.0154 41.4563L38.1796 106.67Z" fill="#C4C2C0"/>
<path d="M38.0154 41.4564L33.1333 38.6192L89.8111 5.89624L94.6932 8.73343L38.0154 41.4564Z" fill="#E9E8E6"/>
<path d="M38.0154 41.4563L33.1333 38.6191L76.0282 13.8538L80.9103 16.6909L38.0154 41.4563Z" fill="#C4C2C0"/>
<path d="M38.0154 41.4565L33.1333 38.6193L62.2453 21.8115L67.1274 24.6487L38.0154 41.4565Z" fill="#B2B0AF"/>
<path d="M38.0154 41.4565L33.1333 38.6193L48.4623 29.769L53.3445 32.6062L38.0154 41.4565Z" fill="#E9E8E6"/>
<path d="M94.8522 73.9414L89.4131 77.0821L65.7282 74.2506L42.1126 104.4L38.1827 106.674L38.077 70.9473L38.0078 41.4531L94.6935 8.73291L94.7464 37.1856L94.8522 73.9414Z" fill="#D6D4D2"/>
<path d="M65.7293 74.2491L42.1127 104.401L30.6055 119.103L30.4717 70.0391L38.0766 70.948L65.7293 74.2491Z" fill="#EFC348"/>
<path d="M100.986 78.4726L89.4123 77.0826L65.7292 74.2492L94.745 37.1875L100.839 29.4089L100.986 78.4726Z" fill="#EFC348"/>
<path d="M41.4809 83.1482C39.9851 83.597 38.639 84.4645 37.5022 85.5714C36.455 86.6185 35.6175 88.0245 35.0191 89.4903C34.9293 90.0588 34.2413 90.0588 34.0918 89.4903C33.0745 86.4688 30.6813 84.1055 27.6897 83.1482C27.1812 82.9088 27.1812 82.2508 27.6897 82.1312C29.1855 81.6524 30.5917 80.6951 31.6686 79.6481C32.7755 78.5712 33.613 77.2249 34.0918 75.6692C34.2413 75.1907 34.9293 75.1907 35.0191 75.6692C35.6175 77.2249 36.455 78.5712 37.5022 79.6481C38.639 80.6951 39.9851 81.6524 41.4809 82.1312C42.0493 82.2508 42.0493 82.9088 41.4809 83.1482Z" fill="white"/>
<path d="M67.1816 28.1868L69.2776 31.8337L73.9356 29.9224L70.5777 35.6408L71.3879 40.5107L67.2162 40.399L63.0597 45.319L63.8387 39.5315L60.4595 37.7028L65.114 34.2376L67.1816 28.1868Z" fill="#DDB040"/>
<path d="M86.2719 35.9719L86.285 40.606L51.9824 60.4106L51.9692 55.7765L86.2719 35.9719Z" fill="#C4C2C0"/>
<path d="M69.6169 50.2293L86.2851 40.606L86.2719 35.9719L69.6169 45.5877V50.2293Z" fill="#B2B0AF"/>
<path d="M80.8813 47.2949L80.8945 51.9306L59.4665 64.302L59.4534 59.6664L80.8813 47.2949Z" fill="#C4C2C0"/>
<path d="M69.7476 58.3658L80.8936 51.9306L80.8805 47.2949L69.7476 53.7225V58.3658Z" fill="#B2B0AF"/>
</svg>
