<svg width="45" height="45" viewBox="0 0 45 45" fill="none" xmlns="http://www.w3.org/2000/svg">
<path d="M44.4114 21.9415L27.9321 6.20703L24.4329 8.30962C24.1947 8.44675 24.0493 8.702 24.0528 8.97686V15.7967L3.88035 13.9657L0.38121 16.0682C0.142984 16.2054 -0.00244877 16.4606 0.00103788 16.7355V28.2648C-0.00244877 28.5396 0.142984 28.7949 0.38121 28.932L3.88035 31.0346L24.0528 29.2036V36.0234C24.0493 36.2983 24.1947 36.5535 24.4329 36.6907L27.9321 38.7932L44.4114 23.0588C44.5631 22.9125 44.6488 22.7109 44.6488 22.5001C44.6488 22.2894 44.5631 22.0878 44.4114 21.9415Z" fill="#88D3CF"/>
<path d="M27.9314 6.20703L27.9314 15.3001C27.933 15.5182 27.8417 15.7266 27.6802 15.8732C27.5188 16.0198 27.3026 16.0908 27.0857 16.0682L24.0521 15.7967V8.97686C24.0486 8.702 24.194 8.44675 24.4322 8.30962L27.9314 6.20703Z" fill="#6BBEB9"/>
<path d="M27.9314 29.6999L27.9314 38.793L24.4322 36.6905C24.194 36.5533 24.0486 36.2981 24.0521 36.0232V29.2034L27.0857 28.9318C27.3026 28.9093 27.5188 28.9802 27.6802 29.1269C27.8417 29.2735 27.933 29.4819 27.9314 29.6999Z" fill="#6BBEB9"/>
<path d="M3.87962 13.9656V31.0345L0.380478 28.9319C0.142252 28.7948 -0.00318119 28.5396 0.000305455 28.2647V16.7354C-0.00318119 16.4605 0.142252 16.2053 0.380478 16.0682L3.87962 13.9656Z" fill="#6BBEB9"/>
<path d="M26.3795 20.1153C25.3368 20.1153 29.9989 20.2495 13.9371 19.6552C13.5097 19.6396 13.1755 19.2811 13.1899 18.8537C13.1955 18.6473 13.284 18.4519 13.4353 18.3114C13.5867 18.171 13.7882 18.0974 13.9945 18.1073L26.4083 18.5666C26.8367 18.5746 27.1777 18.9284 27.1698 19.3569C27.1618 19.7854 26.808 20.1263 26.3795 20.1184V20.1153Z" fill="#6BBEB9"/>
<path d="M10.8623 19.5402C10.5519 19.5402 11.9593 19.5813 6.95425 19.3967C6.74843 19.3892 6.55403 19.3002 6.41388 19.1493C6.27373 18.9984 6.19934 18.7979 6.20709 18.5921C6.21077 18.385 6.29863 18.1883 6.45042 18.0474C6.60221 17.9064 6.80484 17.8333 7.01166 17.845L10.891 17.9893C11.1682 17.9944 11.4216 18.147 11.5557 18.3896C11.6899 18.6322 11.6844 18.928 11.5414 19.1655C11.3983 19.403 11.1394 19.5461 10.8623 19.541V19.5402Z" fill="#6BBEB9"/>
</svg>
