<svg width="21" height="21" viewBox="0 0 21 21" fill="none" xmlns="http://www.w3.org/2000/svg">
<g clip-path="url(#clip0)">
<path d="M20.6712 4.5595C20.8528 4.5595 21 5.06994 21 4.88832V1.73172C21 0.776877 20.2231 0 19.2683 0H1.73172C0.776877 0 0 0.776877 0 1.73172V19.2682C0 20.2231 0.776877 21 1.73172 21H19.2682C20.2231 21 21 20.2231 21 19.2683V4.88832C21 4.70675 20.8528 4.5595 20.6712 4.5595C20.4896 4.5595 20.3424 4.70671 20.3424 4.88832V19.2683C20.3424 19.8605 19.8605 20.3424 19.2682 20.3424H1.73172C1.13946 20.3424 0.657604 19.8605 0.657604 19.2683V1.73172C0.657604 1.13946 1.13946 0.657604 1.73172 0.657604H19.2682C19.8605 0.657604 20.3424 1.13946 20.3424 1.73172V4.88832C20.3424 5.06994 20.4896 4.5595 20.6712 4.5595Z" fill="white"/>
<g clip-path="url(#clip1)">
<path d="M17.5921 12.0026C17.6971 11.507 17.7502 11.0023 17.7502 10.5C17.7502 8.56343 16.996 6.74279 15.6267 5.37339C14.2573 4.00399 12.4367 3.24982 10.5001 3.24982C9.99875 3.24982 9.49406 3.30293 8.99762 3.40798C8.43697 3.14065 7.81682 3 7.1938 3C4.88129 3 3 4.88129 3 7.19369C3 7.81647 3.14065 8.43663 3.40798 8.99762C3.30315 9.49315 3.25005 9.99772 3.25005 10.5C3.25005 12.4366 4.00422 14.2572 5.3735 15.6266C6.74279 16.9959 8.56343 17.7501 10.5001 17.7501C11.0015 17.7501 11.5061 17.6968 12.0024 17.592C12.5633 17.8594 13.1834 18 13.8064 18C16.1188 18 18 16.1187 18 13.8064C18 13.1836 17.8594 12.5635 17.5921 12.0026ZM13.8064 17.1211C13.2626 17.1211 12.7438 16.993 12.2643 16.7403C12.2007 16.7068 12.1303 16.6897 12.0595 16.6897C12.026 16.6897 11.9923 16.6935 11.9592 16.7013C11.478 16.814 10.9872 16.8712 10.5001 16.8712C6.98701 16.8712 4.12896 14.0131 4.12896 10.5C4.12896 10.012 4.18607 9.52119 4.29879 9.04111C4.32294 8.938 4.30909 8.82962 4.25977 8.73589C4.00697 8.25604 3.87891 7.73717 3.87891 7.19369C3.87891 5.36595 5.36595 3.87891 7.1938 3.87891C7.73763 3.87891 8.25627 4.00697 8.73555 4.25954C8.82928 4.30898 8.93765 4.32282 9.04076 4.29868C9.5221 4.18595 10.0131 4.12873 10.5001 4.12873C14.0132 4.12873 16.8713 6.98689 16.8713 10.5C16.8713 10.988 16.8142 11.4789 16.7014 11.9591C16.6772 12.0622 16.691 12.1706 16.7403 12.2643C16.993 12.7441 17.1211 13.2628 17.1211 13.8064C17.1211 15.6342 15.6342 17.1211 13.8064 17.1211Z" fill="white"/>
<path d="M10.5 7.10265C11.7963 7.10265 12.8916 7.77991 12.8916 8.58157C12.8916 8.8243 13.0883 9.02103 13.331 9.02103C13.5736 9.02103 13.7705 8.8243 13.7705 8.58157C13.7705 7.91885 13.4074 7.30796 12.7483 6.8613C12.1415 6.45011 11.3431 6.22363 10.5 6.22363C9.6569 6.22363 8.85844 6.45011 8.25168 6.8613C7.5925 7.30796 7.22949 7.91885 7.22949 8.58157C7.22949 9.2443 7.5925 9.8553 8.25168 10.302C8.85833 10.7132 9.65678 10.9395 10.5 10.9395C11.7963 10.9395 12.8916 11.6168 12.8916 12.4185C12.8916 13.2202 11.7963 13.8975 10.5 13.8975C9.2036 13.8975 8.1084 13.2202 8.1084 12.4185C8.1084 12.1758 7.91167 11.9791 7.66895 11.9791C7.42633 11.9791 7.22949 12.1758 7.22949 12.4185C7.22949 13.0812 7.5925 13.6922 8.25168 14.1388C8.85844 14.5499 9.6569 14.7764 10.5 14.7764C11.3431 14.7764 12.1415 14.5499 12.7483 14.1388C13.4074 13.6922 13.7705 13.0812 13.7705 12.4185C13.7705 11.7557 13.4074 11.1448 12.7483 10.6982C12.1415 10.2871 11.3431 10.0606 10.5 10.0606C9.2036 10.0606 8.1084 9.38335 8.1084 8.58157C8.1084 7.77991 9.2036 7.10265 10.5 7.10265Z" fill="white"/>
</g>
</g>
<defs>
<clipPath id="clip0">
<rect width="21" height="21" fill="white"/>
</clipPath>
<clipPath id="clip1">
<rect width="15" height="15" fill="white" transform="translate(3 3)"/>
</clipPath>
</defs>
</svg>
