<svg width="20" height="20" viewBox="0 0 20 20" fill="none" xmlns="http://www.w3.org/2000/svg">
<path d="M1.66699 10.0003C1.66699 14.6027 5.39795 18.3337 10.0003 18.3337C10.5401 18.3337 11.0422 18.084 11.4239 17.7023L17.7023 11.4239C18.084 11.0422 18.3337 10.5401 18.3337 10.0003C18.3337 5.39795 14.6027 1.66699 10.0003 1.66699C5.39795 1.66699 1.66699 5.39795 1.66699 10.0003Z" stroke="#00BDC2"/>
<path d="M7.42773 13.2773C8.28947 13.4933 9.24647 13.5319 10.2246 13.3608" stroke="#00BDC2" stroke-linecap="round"/>
<ellipse cx="12.0914" cy="8.14505" rx="0.833333" ry="1.25" transform="rotate(-15 12.0914 8.14505)" fill="#00BDC2"/>
<ellipse cx="7.26127" cy="9.43997" rx="0.833333" ry="1.25" transform="rotate(-15 7.26127 9.43997)" fill="#00BDC2"/>
<path d="M10 18.3333C10 16.0059 10 14.8422 10.3273 13.9067C10.9137 12.2311 12.2311 10.9137 13.9067 10.3273C14.8422 10 16.0059 10 18.3333 10" stroke="#00BDC2"/>
</svg>
