<svg width="96" height="110" viewBox="0 0 96 110" fill="none" xmlns="http://www.w3.org/2000/svg">
<path d="M3.73163 110L0.200175 107.948L0.0205078 44.5732L3.55197 46.6255L3.73163 110Z" fill="#D6D4D2"/>
<path d="M3.55197 46.6252L0.0205078 44.5729L64.394 7.42529L67.9254 9.47755L3.55197 46.6252Z" fill="#C8C8C6"/>
<path d="M67.9044 2.05225L67.9254 9.45942L3.55206 46.6438L3.53101 39.2183L67.9044 2.05225Z" fill="#6DCB60"/>
<path d="M67.9247 9.47754L68.1204 72.8245L3.73094 110L3.55127 46.6252L67.9247 9.47754Z" fill="#E9E8E6"/>
<path d="M3.55251 46.6438L0.0210515 44.5916L0 37.166L3.53146 39.2183L3.55251 46.6438Z" fill="#3DB542"/>
<path d="M3.53146 39.2183L0 37.166L64.3734 0L67.9049 2.05226L3.53146 39.2183Z" fill="#81D672"/>
<path d="M3.53146 39.218L0 37.1658L44.9716 11.2014L48.503 13.2537L3.53146 39.218Z" fill="#3DB542"/>
<path d="M3.53146 39.2183L0 37.166L20.3198 25.4343L23.8513 27.4866L3.53146 39.2183Z" fill="#81D672"/>
<path d="M8.79263 37.9682C9.81381 37.3786 10.6544 37.8426 10.6577 39.016C10.661 40.1894 9.82588 41.636 8.8047 42.2256C7.7835 42.8152 6.95597 42.3286 6.95265 41.1552C6.94932 39.9817 7.77144 38.5578 8.79263 37.9682Z" fill="#E9E8E6"/>
<path d="M14.8277 34.484C15.8489 33.8944 16.6764 34.3659 16.6797 35.5394C16.683 36.7128 15.8609 38.1518 14.8397 38.7414C13.8186 39.3309 12.9779 38.8519 12.9746 37.6785C12.9713 36.5051 13.8065 35.0735 14.8277 34.484Z" fill="#E9E8E6"/>
<path d="M20.8638 30.9994C21.885 30.4098 22.7125 30.8813 22.7158 32.0547C22.7191 33.2281 21.8971 34.6671 20.8759 35.2567C19.8547 35.8463 19.0141 35.3673 19.0108 34.1939C19.0074 33.0204 19.8426 31.5889 20.8638 30.9994Z" fill="#E9E8E6"/>
<path d="M61.9936 20.7312C62.0805 20.681 62.1617 20.6743 62.2257 20.704C62.2838 20.7438 62.3188 20.8169 62.3191 20.9166L62.3243 22.7671C62.3249 22.9668 62.1806 23.2169 62.001 23.3205C61.8272 23.4209 61.6819 23.338 61.6813 23.1383L61.6771 21.654L60.3911 22.3965C60.2115 22.5002 60.0662 22.4173 60.0657 22.2176C60.0651 22.0114 60.2094 21.7613 60.389 21.6576L61.9936 20.7312Z" fill="#C4C2C0"/>
<path d="M62.0097 26.5552C62.1893 26.4515 62.3345 26.5275 62.3351 26.734L62.3464 30.708C62.347 30.9077 62.2026 31.1574 62.023 31.2611C61.8493 31.3614 61.704 31.2789 61.7034 31.0792L61.6921 27.1053C61.6916 26.8987 61.8359 26.6555 62.0097 26.5552Z" fill="#C4C2C0"/>
<path d="M62.0334 34.4968C62.213 34.3931 62.3583 34.4759 62.3588 34.6756L62.3701 38.6496C62.3707 38.8558 62.2263 39.1059 62.0467 39.2096C61.873 39.3099 61.7277 39.227 61.7271 39.0208L61.7158 35.0469C61.7153 34.8472 61.8596 34.5971 62.0334 34.4968Z" fill="#C4C2C0"/>
<path d="M62.0548 42.4378C62.2344 42.3341 62.3797 42.4166 62.3803 42.6232L62.3916 46.5903C62.3921 46.7968 62.2478 47.0469 62.0682 47.1506C61.8944 47.2509 61.7491 47.1681 61.7485 46.9615L61.7373 42.9945C61.7367 42.7879 61.8811 42.5381 62.0548 42.4378Z" fill="#C4C2C0"/>
<path d="M62.0765 50.3854C62.2561 50.2817 62.4014 50.3581 62.402 50.5643L62.4072 52.4148C62.4075 52.5148 62.373 52.628 62.3153 52.7279C62.2518 52.838 62.1708 52.9181 62.0839 52.9682L60.4793 53.9015C60.2997 54.0052 60.1544 53.9223 60.1538 53.7158C60.1532 53.5096 60.2976 53.2595 60.4772 53.1558L61.7632 52.4133L61.759 50.9355C61.7584 50.7293 61.9028 50.4857 62.0765 50.3854Z" fill="#C4C2C0"/>
<path d="M57.5875 54.8248C57.7613 54.7244 57.9066 54.8073 57.9072 55.0135C57.9078 55.2201 57.7634 55.4702 57.5896 55.5705L54.699 57.2394C54.5194 57.3431 54.3741 57.2603 54.3735 57.0537C54.373 56.8475 54.5173 56.5974 54.6969 56.4937L57.5875 54.8248Z" fill="#C4C2C0"/>
<path d="M51.8048 58.1627C51.9786 58.0623 52.1239 58.1452 52.1245 58.3514C52.1251 58.558 51.9807 58.8081 51.8069 58.9084L48.9163 60.5773C48.7367 60.681 48.5914 60.5981 48.5908 60.3916C48.5902 60.1853 48.7346 59.9352 48.9142 59.8316L51.8048 58.1627Z" fill="#C4C2C0"/>
<path d="M46.0187 61.5034C46.1983 61.3997 46.3436 61.4826 46.3442 61.6889C46.3448 61.8954 46.2004 62.1455 46.0208 62.2492L43.1302 63.9181C42.9564 64.0184 42.8111 63.9356 42.8105 63.729C42.81 63.5228 42.9543 63.2727 43.1281 63.1723L46.0187 61.5034Z" fill="#C4C2C0"/>
<path d="M40.2372 64.8416C40.4168 64.7379 40.5621 64.8207 40.5627 65.027C40.5633 65.2335 40.4189 65.4836 40.2393 65.5873L37.3487 67.2562C37.1749 67.3565 37.0296 67.2737 37.0291 67.0671C37.0285 66.8609 37.1728 66.6108 37.3466 66.5105L40.2372 64.8416Z" fill="#C4C2C0"/>
<path d="M32.8461 67.2619C33.0199 67.1615 33.1651 67.2379 33.1657 67.4441L33.1699 68.9219L34.4559 68.1794C34.6355 68.0757 34.7808 68.1586 34.7814 68.3648C34.782 68.5714 34.6376 68.8146 34.458 68.9183L32.8534 69.8447C32.7665 69.8949 32.6853 69.9085 32.6214 69.8719C32.5633 69.8389 32.5282 69.7658 32.528 69.6658L32.5227 67.8154C32.5221 67.6092 32.6665 67.3656 32.8461 67.2619Z" fill="#C4C2C0"/>
<path d="M32.8224 59.3143C32.9962 59.214 33.1415 59.2965 33.142 59.5031L33.1533 63.4701C33.1539 63.6767 33.0095 63.9268 32.8357 64.0271C32.6561 64.1308 32.5109 64.0479 32.5103 63.8414L32.499 59.8743C32.4984 59.6677 32.6428 59.418 32.8224 59.3143Z" fill="#C4C2C0"/>
<path d="M34.3669 36.6812C34.5465 36.5775 34.6918 36.6603 34.6924 36.8666C34.693 37.0663 34.5486 37.3164 34.369 37.42L33.083 38.1625L33.0872 39.6468C33.0878 39.8465 32.9435 40.0966 32.7697 40.1969C32.5901 40.3006 32.4448 40.2177 32.4442 40.018L32.439 38.1676C32.4387 38.0679 32.4732 37.9546 32.5309 37.8479C32.5944 37.7447 32.6754 37.6577 32.7623 37.6076L34.3669 36.6812Z" fill="#C4C2C0"/>
<path d="M57.4972 23.3262C57.671 23.2259 57.8163 23.3088 57.8169 23.515C57.8174 23.7147 57.6731 23.9648 57.4993 24.0651L54.6087 25.734C54.4291 25.8377 54.2838 25.7548 54.2832 25.5551C54.2826 25.3489 54.427 25.0988 54.6066 24.9951L57.4972 23.3262Z" fill="#C4C2C0"/>
<path d="M51.7157 26.6641C51.8895 26.5638 52.0348 26.6466 52.0354 26.8528C52.0359 27.0526 51.8916 27.3026 51.7178 27.403L48.8271 29.0719C48.6476 29.1756 48.5023 29.0927 48.5017 28.893C48.5011 28.6868 48.6455 28.4367 48.825 28.333L51.7157 26.6641Z" fill="#C4C2C0"/>
<path d="M60.0652 22.2174C60.0658 22.4171 60.2111 22.5 60.3907 22.3963L61.6767 21.6538L61.6809 23.1381C61.6814 23.3378 61.8267 23.4206 62.0005 23.3203L62.0097 26.5554C61.8359 26.6557 61.6915 26.8989 61.6921 27.1055L61.7034 31.0794C61.7039 31.2791 61.8492 31.3616 62.023 31.2613L62.0322 34.4964C61.8584 34.5967 61.7141 34.8468 61.7146 35.0465L61.7259 39.0204C61.7265 39.2266 61.8718 39.3095 62.0456 39.2092L62.0547 42.4377C61.8809 42.538 61.7366 42.7878 61.7372 42.9944L61.7484 46.9614C61.749 47.168 61.8943 47.2509 62.0681 47.1505L62.0772 50.3852C61.9035 50.4855 61.7591 50.7291 61.7597 50.9354L61.7639 52.4131L60.4779 53.1556C60.2983 53.2593 60.1539 53.5094 60.1545 53.7156L57.9069 55.0132C57.9063 54.807 57.761 54.7242 57.5872 54.8245L54.6966 56.4934C54.517 56.5971 54.3726 56.8472 54.3732 57.0534L52.1256 58.3511C52.125 58.1449 51.9797 58.062 51.8059 58.1623L48.9153 59.8312C48.7357 59.9349 48.5914 60.185 48.592 60.3912L46.3443 61.6889C46.3438 61.4827 46.1985 61.3998 46.0189 61.5035L43.1283 63.1724C42.9545 63.2727 42.8101 63.5228 42.8107 63.729L40.5631 65.0267C40.5625 64.8205 40.4172 64.7376 40.2376 64.8413L37.347 66.5102C37.1732 66.6105 37.0289 66.8606 37.0294 67.0669L34.7818 68.3645C34.7812 68.1583 34.6359 68.0755 34.4564 68.1791L33.1704 68.9216L33.1662 67.4438C33.1656 67.2376 33.0203 67.1613 32.8465 67.2616L32.8373 64.0269C33.0111 63.9266 33.1555 63.6765 33.1549 63.4699L33.1437 59.5028C33.1431 59.2963 32.9978 59.2138 32.824 59.3141L32.8148 56.0856C32.9886 55.9852 33.133 55.7351 33.1324 55.5289L33.1211 51.555C33.1206 51.3553 32.9753 51.2724 32.8015 51.3728L32.7923 48.1377C32.9661 48.0374 33.1104 47.7876 33.1099 47.5879L33.0986 43.614C33.098 43.4074 32.9527 43.3314 32.7789 43.4318L32.7698 40.1967C32.9436 40.0964 33.0879 39.8463 33.0874 39.6466L33.0832 38.1623L34.3692 37.4198C34.5487 37.3161 34.6931 37.066 34.6925 36.8663L36.9401 35.5687C36.9407 35.7684 37.086 35.8512 37.2598 35.7509L40.1504 34.082C40.33 33.9783 40.4743 33.7282 40.4738 33.5285L42.7214 32.2309C42.722 32.4306 42.8673 32.5134 43.0411 32.4131L45.9317 30.7442C46.1113 30.6405 46.2556 30.3904 46.255 30.1907L48.5027 28.893C48.5032 29.0927 48.6485 29.1756 48.8281 29.0719L51.7187 27.403C51.8925 27.3027 52.0369 27.0526 52.0363 26.8529L54.2839 25.5552C54.2845 25.7549 54.4298 25.8378 54.6094 25.7341L57.5 24.0652C57.6738 23.9649 57.8182 23.7148 57.8176 23.5151L60.0652 22.2174Z" fill="white"/>
<path d="M32.7784 43.4319C32.9522 43.3315 33.0975 43.4075 33.0981 43.6141L33.1094 47.588C33.1099 47.7877 32.9656 48.0375 32.7918 48.1378C32.6122 48.2415 32.4669 48.159 32.4663 47.9593L32.4551 43.9854C32.4545 43.7788 32.5989 43.5356 32.7784 43.4319Z" fill="#C4C2C0"/>
<path d="M32.8009 51.373C32.9747 51.2727 33.12 51.3556 33.1206 51.5552L33.1318 55.5292C33.1324 55.7354 32.9881 55.9855 32.8143 56.0858C32.6347 56.1895 32.4894 56.1066 32.4888 55.9004L32.4775 51.9265C32.477 51.7268 32.6213 51.4767 32.8009 51.373Z" fill="#C4C2C0"/>
<path d="M45.9296 30.0059C46.1092 29.9022 46.2545 29.9851 46.2551 30.1913C46.2556 30.391 46.1113 30.6411 45.9317 30.7447L43.0411 32.4136C42.8673 32.514 42.722 32.4311 42.7214 32.2314C42.7209 32.0252 42.8652 31.7751 43.039 31.6748L45.9296 30.0059Z" fill="#C4C2C0"/>
<path d="M40.1471 33.3435C40.3267 33.2398 40.472 33.3227 40.4726 33.5289C40.4732 33.7286 40.3288 33.9787 40.1492 34.0824L37.2586 35.7513C37.0848 35.8516 36.9395 35.7688 36.939 35.569C36.9384 35.3628 37.0827 35.1127 37.2565 35.0124L40.1471 33.3435Z" fill="#C4C2C0"/>
<path d="M56.3429 34.5192C57.0838 34.0915 57.9205 33.767 58.877 33.575L58.9229 49.7861L36.3984 62.7907L36.3782 55.6728C36.4328 55.464 37.4705 51.4964 40.5796 49.7014C41.0068 49.4548 41.472 49.253 41.9776 49.1133C44.372 48.4516 45.9924 48.3546 47.3034 47.5977C48.2845 47.0312 49.0922 46.0958 49.9223 44.2772C51.52 40.7771 52.8779 36.5201 56.3429 34.5192Z" fill="#6DCB60"/>
<path d="M44.1155 40.4348C45.3888 39.6996 46.3726 40.304 46.3766 41.7233C46.3808 43.1863 45.4035 44.8791 44.1302 45.6143C42.8951 46.3273 41.8796 45.785 41.8755 44.322C41.8715 42.9027 42.8804 41.1479 44.1155 40.4348Z" fill="#EFC348"/>
<path d="M25.4578 67.35C25.9983 67.038 26.4284 67.3045 26.4301 67.9042L26.4578 72.5129C26.4596 73.134 26.0323 73.8741 25.4918 74.1861L9.22024 83.5805C8.6984 83.8818 8.24967 83.6474 8.24791 83.0264L8.22022 78.4176C8.21852 77.8179 8.66439 77.0457 9.18624 76.7444L25.4578 67.35Z" fill="#C4C2C0"/>
<path d="M25.4578 79.8471C25.9983 79.535 26.4284 79.8015 26.4301 80.4012L26.4578 85.0099C26.4596 85.631 26.0323 86.3711 25.4918 86.6832L9.22024 96.0776C8.6984 96.3788 8.24967 96.1445 8.24791 95.5234L8.22022 90.9147C8.21852 90.315 8.66439 89.5427 9.18624 89.2415L25.4578 79.8471Z" fill="#C4C2C0"/>
<path d="M25.3609 42.0404C25.9013 41.7283 26.3314 41.9734 26.3332 42.5945L26.3609 59.2374C26.3626 59.8585 25.9353 60.5986 25.3949 60.9107L9.12332 70.305C8.60148 70.6063 8.15275 70.372 8.15098 69.7509L8.1233 53.108C8.12154 52.4869 8.56747 51.7361 9.08932 51.4348L25.3609 42.0404Z" fill="#F25A5A"/>
<path d="M63.9473 59.272L63.9551 62.0037L33.2377 79.7384L33.23 77.0066L63.9473 59.272Z" fill="#C4C2C0"/>
<path d="M50.5327 72.814L50.5404 75.5457L33.2543 85.5258L33.2466 82.7941L50.5327 72.814Z" fill="#C4C2C0"/>
<path d="M23.1106 53.6983L14.1096 64.5827C14.0485 64.6561 13.9873 64.7172 13.9261 64.7417C13.7305 64.864 13.5592 64.7784 13.5592 64.5338L13.5348 53.1724C13.5225 52.9156 13.706 52.6343 13.9017 52.5243C13.9628 52.4876 14.024 52.4631 14.0851 52.4754L23.1106 52.9523C23.3674 52.9646 23.3674 53.3926 23.1106 53.6983Z" fill="white"/>
<path d="M92.1041 2.98215L95.0972 4.72154C94.8256 4.56369 94.4483 4.58716 94.0322 4.82741L91.0391 3.08802C91.4552 2.84777 91.8325 2.82429 92.1041 2.98215Z" fill="#3F9AE0"/>
<path d="M71.697 45.3414L68.7039 43.602L68.6877 37.9004L71.6808 39.6398L71.697 45.3414Z" fill="#3F9AE0"/>
<path d="M69.0244 40.6642L66.0313 38.9249C65.7661 38.7707 65.6017 38.4437 65.6003 37.9768L68.5934 39.7162C68.5948 40.1831 68.7592 40.5101 69.0244 40.6642Z" fill="#006CB5"/>
<path d="M68.5933 39.716L65.6002 37.9766L65.5479 19.5115L68.5409 21.2509L68.5933 39.716Z" fill="#0074D1"/>
<path d="M70.0275 18.6868L67.0344 16.9474L91.0393 3.08813L94.0324 4.82753L70.0275 18.6868Z" fill="#0074D1"/>
<path d="M68.5409 21.2512L65.5479 19.5118C65.5452 18.5666 66.2118 17.4224 67.0343 16.9475L70.0274 18.6869C69.2049 19.1617 68.5383 20.306 68.5409 21.2512Z" fill="#006CB5"/>
<path d="M94.0319 4.82752C94.8544 4.35267 95.5253 4.72465 95.528 5.66982L95.5803 24.1349C95.583 25.08 94.9164 26.2242 94.0939 26.699L76.6325 36.7804L71.6958 45.3415L71.6797 39.6399L70.089 40.5583C69.2665 41.0331 68.5956 40.6612 68.5929 39.7161L68.5405 21.251C68.5379 20.3059 69.2045 19.1616 70.027 18.6868L94.0319 4.82752Z" fill="#00649B"/>
<path d="M91.7027 14.5386L93.052 15.3226C92.6342 15.0798 92.0556 15.1142 91.4168 15.483L90.0676 14.6989C90.7064 14.3301 91.285 14.2958 91.7027 14.5386Z" fill="#E9E8E6"/>
<path d="M89.7983 20.923L88.4491 20.1389C88.0365 19.8992 87.7806 19.3893 87.7786 18.665C87.7744 17.2064 88.7995 15.4309 90.0677 14.6987L91.4169 15.4828C90.1487 16.215 89.1236 17.9905 89.1278 19.4491C89.1298 20.1734 89.3857 20.6832 89.7983 20.923Z" fill="#D6D4D2"/>
<path d="M89.7892 20.9107L88.4588 20.1431C88.0493 19.8873 87.7934 19.4011 87.7678 18.6589L89.1241 19.4522C89.1241 20.1687 89.3799 20.6805 89.7892 20.9107Z" fill="#E9E8E6"/>
<path d="M91.4168 15.4831C92.6862 14.7502 93.7179 15.3382 93.7221 16.7968C93.7262 18.254 92.7012 20.0308 91.4318 20.7637C90.1636 21.4959 89.1318 20.9066 89.1277 19.4493C89.1236 17.9907 90.1486 16.2153 91.4168 15.4831Z" fill="#C4C2C0"/>
<path d="M76.2462 23.4841L77.5954 24.2682C77.1776 24.0254 76.5991 24.0597 75.9603 24.4285L74.6111 23.6444C75.2499 23.2757 75.8284 23.2413 76.2462 23.4841Z" fill="#E9E8E6"/>
<path d="M74.3418 29.8686L72.9926 29.0845C72.58 28.8447 72.3241 28.3348 72.322 27.6106C72.3179 26.152 73.343 24.3765 74.6112 23.6443L75.9603 24.4284C74.6922 25.1605 73.6671 26.936 73.6712 28.3946C73.6733 29.1189 73.9292 29.6288 74.3418 29.8686Z" fill="#D6D4D2"/>
<path d="M74.3327 29.8563L73.0022 29.0887C72.5927 28.8328 72.3369 28.3467 72.3113 27.6045L73.6675 28.3977C73.6675 29.1143 73.9234 29.6261 74.3327 29.8563Z" fill="#E9E8E6"/>
<path d="M75.9603 24.4284C77.2296 23.6955 78.2614 24.2835 78.2655 25.7421C78.2697 27.1993 77.2446 28.9762 75.9752 29.709C74.7071 30.4412 73.6753 29.8519 73.6712 28.3947C73.667 26.9361 74.6921 25.1606 75.9603 24.4284Z" fill="#C4C2C0"/>
<path d="M83.9759 19.011L85.3251 19.795C84.9074 19.5523 84.3288 19.5866 83.69 19.9554L82.3408 19.1713C82.9796 18.8025 83.5582 18.7682 83.9759 19.011Z" fill="#E9E8E6"/>
<path d="M82.0713 25.3957L80.7221 24.6116C80.3095 24.3718 80.0536 23.8619 80.0515 23.1377C80.0474 21.6791 81.0725 19.9036 82.3406 19.1714L83.6898 19.9555C82.4217 20.6876 81.3966 22.4631 81.4007 23.9217C81.4028 24.646 81.6587 25.1559 82.0713 25.3957Z" fill="#D6D4D2"/>
<path d="M82.0622 25.3831L80.7317 24.6155C80.3222 24.3597 80.0664 23.8735 80.0408 23.1313L81.397 23.9246C81.397 24.6411 81.6529 25.1529 82.0622 25.3831Z" fill="#E9E8E6"/>
<path d="M83.69 19.9552C84.9594 19.2224 85.9911 19.8103 85.9953 21.2689C85.9994 22.7262 84.9744 24.503 83.705 25.2359C82.4368 25.9681 81.405 25.3788 81.4009 23.9215C81.3968 22.4629 82.4218 20.6874 83.69 19.9552Z" fill="#C4C2C0"/>
<path d="M91.6208 45.0058C92.827 44.3094 93.812 44.8682 93.816 46.2594L93.8978 75.1233C93.9017 76.5146 92.9231 78.2071 91.7169 78.9035L55.0943 100.048C53.8835 100.747 52.9007 100.187 52.8968 98.7953L52.815 69.9313C52.811 68.5401 53.7874 66.8489 54.9982 66.1499L91.6208 45.0058Z" fill="#EFC348"/>
<path d="M90.9081 43.536C90.5099 43.3047 89.9589 43.3373 89.352 43.6877L52.7294 64.8318C51.5186 65.5308 50.5422 67.222 50.5462 68.6132L50.628 97.4772C50.63 98.1683 50.8735 98.6543 51.2665 98.8828L53.5346 100.201C53.1416 99.9724 52.898 99.4864 52.8961 98.7952L52.8143 69.9313C52.8103 68.54 53.7867 66.8488 54.9975 66.1498L91.6201 45.0057C92.227 44.6553 92.778 44.6227 93.1761 44.8541L90.9081 43.536Z" fill="#FFE2A9"/>
<path d="M52.8132 69.9303L52.8988 98.7915C52.8988 99.4888 53.1434 99.9782 53.535 100.198L51.2629 98.8806C50.8714 98.6604 50.6267 98.171 50.6267 97.4736L50.541 68.6125C50.541 67.2178 51.5198 65.5294 52.731 64.832L55.0031 66.1498C53.7919 66.8472 52.8132 68.5356 52.8132 69.9303Z" fill="#FFD651"/>
<path d="M52.8184 71.072L53.1305 71.1125L53.1463 71.1145C53.0709 71.1129 52.9966 71.1083 52.922 71.1048C52.8876 71.1032 52.8531 71.1017 52.8184 71.101L52.8184 71.072Z" fill="#C4990D"/>
<path d="M93.8196 47.4287C89.1165 54.5373 81.7495 64.7561 76.6349 71.6886C75.0337 73.8591 73.7221 75.6182 73.3668 76.0965C73.1946 76.0637 69.9123 75.4404 70.0845 75.4732C69.7179 75.3967 65.7894 74.6301 62.7095 73.8725C59.7166 73.1363 55.9722 72.2112 52.8186 71.1006C52.8532 71.1018 52.8876 71.1032 52.9221 71.1044C52.9968 71.108 53.0711 71.1126 53.1465 71.1142C56.7728 71.2553 60.8029 71.7706 63.4747 72.0951C67.2451 72.5656 71.2268 73.2734 73.3621 73.6414C78.9413 66.1746 87.81 54.5856 93.8196 47.4287Z" fill="#CEA03A"/>
<path d="M93.8194 47.4287L93.8946 73.9546L76.6348 71.6887C81.7728 64.7243 89.1378 54.5048 93.8194 47.4287Z" fill="#DDB040"/>
<path d="M52.8184 71.1008C55.9719 72.2114 59.8565 73.1709 62.7093 73.8727C65.7591 74.623 69.6916 75.3915 70.0842 75.4734L52.8936 97.6267L52.8184 71.1008Z" fill="#DDB040"/>
</svg>
