<svg width="21" height="21" viewBox="0 0 21 21" fill="none" xmlns="http://www.w3.org/2000/svg">
<path d="M17.9246 3.07539C15.9414 1.09216 13.3046 0 10.5 0C7.69539 0 5.05858 1.09216 3.07539 3.07539C1.09216 5.05858 0 7.69539 0 10.5C0 13.3046 1.09216 15.9414 3.07539 17.9246C5.05858 19.9078 7.69539 21 10.5 21C13.3046 21 15.9414 19.9078 17.9246 17.9246C19.9078 15.9414 21 13.3046 21 10.5C21 7.69539 19.9078 5.05858 17.9246 3.07539ZM10.5 20.3369C5.07593 20.3369 0.663141 15.9241 0.663141 10.5C0.663141 5.07593 5.07593 0.663141 10.5 0.663141C15.9241 0.663141 20.3369 5.07593 20.3369 10.5C20.3369 15.9241 15.9241 20.3369 10.5 20.3369Z" fill="white"/>
<path d="M16.4466 4.04571C16.3448 3.96901 16.208 3.95752 16.0948 4.01609L3.27377 10.6477C3.16294 10.705 3.09367 10.8197 3.09449 10.9445C3.09531 11.0692 3.16614 11.183 3.27779 11.2388L6.63139 12.9155V16.238C6.63139 16.325 6.66096 16.411 6.7208 16.4741C6.787 16.544 6.87498 16.579 6.963 16.579C7.01845 16.579 7.07391 16.5652 7.12407 16.5373L10.9608 14.4057L13.8974 15.6642C13.9599 15.691 14.0291 15.7021 14.0959 15.6896C14.2335 15.6639 14.3358 15.5585 14.3619 15.4283L15.1049 11.7132C15.1459 11.508 14.989 11.3166 14.7797 11.3166C14.6216 11.3165 14.4856 11.4281 14.4546 11.583L13.7917 14.8974L11.0726 13.7321C10.9783 13.6917 10.8706 13.6972 10.7809 13.747L7.29457 15.6838V12.7105C7.29457 12.585 7.22362 12.4702 7.11127 12.414L4.15753 10.9371L15.7867 4.922L14.4546 11.583C14.4136 11.7882 14.5705 11.3166 14.7797 11.3166C14.9378 11.3166 15.0738 11.8682 15.1049 11.7132L16.5723 4.37555C16.5973 4.25062 16.5484 4.12236 16.4466 4.04571Z" fill="white"/>
<path d="M14.2971 6.75741C14.1929 6.62551 14.0064 6.59237 13.8631 6.68059L8.11579 10.2175C8.01773 10.2778 7.95801 10.3847 7.95801 10.4998V14.0367C7.95797 14.1905 8.0637 14.3241 8.21333 14.3594C8.2388 14.3654 8.26435 14.3684 8.28962 14.3684C8.41295 14.3684 8.52903 14.2992 8.58608 14.185L9.88832 11.5805L14.2714 7.19747C14.3903 7.07853 14.4013 6.8894 14.2971 6.75741ZM9.38137 11.1496C9.35623 11.1748 9.33523 11.2039 9.31931 11.2357L8.62115 12.632V10.6851L11.8054 8.72551L9.38137 11.1496Z" fill="white"/>
</svg>
