<svg width="50" height="50" viewBox="0 0 50 50" fill="none" xmlns="http://www.w3.org/2000/svg">
<g clip-path="url(#clip0)">
<path d="M25 50C38.8071 50 50 38.8071 50 25C50 11.1929 38.8071 0 25 0C11.1929 0 0 11.1929 0 25C0 38.8071 11.1929 50 25 50Z" fill="#92D1CE"/>
<path d="M18.6121 36.2776L31.4669 49.1325C42.1136 46.2934 50.0001 36.5931 50.0001 25C50.0001 24.7634 50.0001 24.5268 50.0001 24.2902L39.9054 14.9843L18.6121 36.2776Z" fill="#6FB8B4"/>
<path d="M25.6308 30.5993C26.7349 31.7034 26.7349 33.5961 25.6308 34.7002L23.3437 36.9873C22.2396 38.0914 20.3469 38.0914 19.2428 36.9873L9.227 26.8926C8.1229 25.7885 8.1229 23.8958 9.227 22.7917L11.5141 20.5046C12.6182 19.4005 14.5109 19.4005 15.615 20.5046L25.6308 30.5993Z" fill="white"/>
<path d="M34.3848 13.1703C35.4889 12.0662 37.3816 12.0662 38.4857 13.1703L40.7728 15.4573C41.8769 16.5614 41.8769 18.4542 40.7728 19.5583L23.4226 36.8296C22.3185 37.9337 20.4258 37.9337 19.3217 36.8296L17.0346 34.5425C15.9305 33.4384 15.9305 31.5457 17.0346 30.4416L34.3848 13.1703Z" fill="white"/>
</g>
<defs>
<clipPath id="clip0">
<rect width="50" height="50" fill="white"/>
</clipPath>
</defs>
</svg>
