<svg width="21" height="21" viewBox="0 0 21 21" fill="none" xmlns="http://www.w3.org/2000/svg">
<path d="M12.4998 0H8.49986C4.31034 0 0.901855 3.40769 0.901855 7.59641V11.1997C0.901855 14.319 2.81865 17.1224 5.70085 18.2642V20.6001C5.70085 20.7585 5.79403 20.9016 5.9388 20.9656C5.99079 20.9888 6.04598 21 6.10077 21C6.19795 21 6.29432 20.9644 6.36911 20.8964L8.68822 18.7961H12.4998C16.6893 18.7961 20.0978 15.3884 20.0978 11.1997V7.59641C20.0978 3.40769 16.6893 0 12.4998 0ZM19.298 11.1997C19.298 14.9473 16.2486 17.9962 12.4998 17.9962H8.53386C8.43468 17.9962 8.3391 18.033 8.26551 18.0998L6.50068 19.6983V17.987C6.50068 17.8175 6.3939 17.6663 6.23394 17.6103C3.52331 16.6517 1.70169 14.0754 1.70169 11.1997V7.59641C1.70169 3.84879 4.75145 0.799832 8.49986 0.799832H12.4998C16.2486 0.799832 19.298 3.84879 19.298 7.59641V11.1997Z" fill="white"/>
<path d="M15.785 12.1949L13.3271 10.5984C13.0584 10.4236 12.7384 10.3644 12.4253 10.4292C12.1118 10.4952 11.8422 10.6804 11.6675 10.9503L11.5519 11.1279C10.4881 10.7764 9.31517 10.3273 8.61291 8.29448L8.90365 8.04174C9.40275 7.60783 9.45514 6.84879 9.02123 6.34889L7.09843 4.13695C6.95366 3.97019 6.70091 3.95299 6.53415 4.09736L5.3268 5.14674C4.26782 6.06735 4.76252 7.42906 4.92529 7.87657C4.93248 7.89657 4.94128 7.91576 4.95168 7.93456C4.99367 8.00974 5.99626 9.79897 7.61552 11.4482C9.24118 13.1043 12.1762 14.6336 12.2661 14.6779C12.6013 14.8955 12.9784 14.9999 13.3515 14.9999C14.0066 14.9999 14.6489 14.6787 15.032 14.0901L15.903 12.7488C16.023 12.5628 15.9702 12.3152 15.785 12.1949ZM14.3609 13.6542C14.0006 14.2092 13.2559 14.3668 12.6681 13.9877C12.6389 13.9725 9.72308 12.454 8.1862 10.8883C6.7497 9.42505 5.7959 7.79939 5.66593 7.57263C5.3492 6.68442 5.40519 6.13853 5.85149 5.75062L6.7573 4.96358L8.41775 6.87358C8.56532 7.04315 8.54813 7.29109 8.37936 7.43786L7.88867 7.86417C7.76909 7.96815 7.7219 8.13252 7.76869 8.28368C8.60532 11.0023 10.2322 11.5362 11.4199 11.9261L11.5931 11.9833C11.7663 12.0417 11.9558 11.9749 12.055 11.8221L12.3385 11.3854C12.3969 11.2951 12.4865 11.2339 12.5905 11.2119C12.6949 11.1895 12.8012 11.2103 12.8916 11.2691L15.0144 12.6476L14.3609 13.6542Z" fill="white"/>
<path d="M11.413 6.49735C11.2002 6.43616 10.9791 6.55974 10.9187 6.77249C10.8583 6.98485 10.9815 7.206 11.1938 7.26639C11.7897 7.43595 12.2644 7.91146 12.4324 8.50773C12.4819 8.68369 12.6423 8.79927 12.8171 8.79927C12.8531 8.79927 12.8895 8.79447 12.9258 8.78447C13.1382 8.72448 13.2622 8.50373 13.2022 8.29098C12.9594 7.42956 12.2736 6.7421 11.413 6.49735Z" fill="white"/>
<path d="M14.4562 8.88567C14.4922 8.88567 14.5286 8.88087 14.565 8.87087C14.7777 8.81089 14.9013 8.58973 14.8413 8.37738C14.3694 6.70453 13.0381 5.37041 11.3664 4.89451C11.1541 4.83332 10.9329 4.95769 10.8725 5.17005C10.8121 5.3824 10.9353 5.60356 11.1477 5.66395C12.5542 6.06386 13.6743 7.18723 14.0715 8.59453C14.1214 8.77049 14.2814 8.88567 14.4562 8.88567Z" fill="white"/>
<path d="M11.194 3.03202C10.9812 2.97083 10.7601 3.0944 10.6997 3.30756C10.6393 3.51992 10.7625 3.74107 10.9748 3.80146C13.3579 4.47931 15.2563 6.38212 15.929 8.76682C15.9786 8.94278 16.1389 9.05835 16.3137 9.05835C16.3497 9.05835 16.3861 9.05356 16.4225 9.04356C16.6348 8.98357 16.7588 8.76242 16.6988 8.55006C15.9514 5.89982 13.8422 3.78586 11.194 3.03202Z" fill="white"/>
</svg>
