<svg width="76" height="75" viewBox="0 0 76 75" fill="none" xmlns="http://www.w3.org/2000/svg">
<path d="M55.7355 11.6483L48.0002 16.1189L48.1179 56.0894C48.1179 57.6631 47.015 59.5749 45.6621 60.3544L24.7209 72.4573C24.0297 72.8544 23.3973 72.8836 22.9562 72.6335L20.9708 71.4719C20.5296 71.2218 20.2502 70.663 20.2502 69.8837L20.1179 23.9718C20.1179 22.4131 21.2209 20.5013 22.5885 19.7071L43.5297 7.6189C44.2208 7.22181 44.8385 7.17765 45.2797 7.44243L45.412 7.53058L54.5296 2.2514C54.6473 2.19252 54.7503 2.19252 54.8238 2.23668L55.9709 2.89837C56.0737 2.92781 56.1326 3.01596 56.1326 3.17769L56.1473 10.9424C56.1473 11.207 55.9709 11.516 55.7355 11.6483Z" fill="#5B5E71"/>
<path d="M47.2662 8.60002C46.8159 8.33729 46.1966 8.37479 45.5117 8.7689L24.5695 20.8632C23.1996 21.6513 22.1019 23.5654 22.1019 25.1323L22.2332 71.0418C22.2332 71.8205 22.5147 72.3741 22.9557 72.6274L20.9665 71.4733C20.5256 71.22 20.2535 70.6664 20.2535 69.8877L20.1221 23.9782C20.1127 22.4113 21.2199 20.4973 22.5898 19.7091L43.5319 7.61479C44.2169 7.22073 44.8361 7.18321 45.2865 7.4459L47.2662 8.60002Z" fill="#3F434F"/>
<path d="M45.5141 8.76914C46.874 7.98402 47.9858 8.61765 47.9903 10.1871L48.1204 56.0936C48.1249 57.67 47.0203 59.5764 45.6604 60.3615L24.7175 72.4529C23.3457 73.2449 22.2399 72.6147 22.2354 71.0384L22.1052 25.1318C22.1008 23.5624 23.1994 21.6525 24.5713 20.8605L45.5141 8.76914Z" fill="#5B5E71"/>
<path d="M36.5619 15.891C36.7537 15.7803 36.9099 15.8693 36.9105 16.0896C36.9111 16.3099 36.7559 16.5788 36.5642 16.6895L30.8313 19.9994C30.6396 20.1101 30.4833 20.021 30.4827 19.8007C30.482 19.5805 30.6373 19.3116 30.829 19.2009L36.5619 15.891Z" fill="#3F434F"/>
<path d="M37.8801 15.13C38.0659 15.0228 38.2281 15.1153 38.2287 15.3287C38.2293 15.5421 38.0681 15.8144 37.8824 15.9217C37.6907 16.0323 37.5404 15.9398 37.5398 15.7264C37.5392 15.5131 37.6885 15.2407 37.8801 15.13Z" fill="#3F434F"/>
<path d="M37.6899 62.9493C37.6899 63.1523 37.5429 63.4042 37.368 63.5092L33.0013 66.0284C32.8193 66.1334 32.6724 66.0494 32.6724 65.8395V64.2579C32.6724 64.048 32.8123 63.8031 32.9943 63.6981L37.3609 61.1789C37.5359 61.0739 37.6829 61.1509 37.6829 61.3608L37.6899 62.9493Z" fill="#3F434F"/>
<path d="M45.4482 55.2271L24.8894 67.0967L24.7747 24.9299L45.3335 13.0603L45.4482 55.2271Z" fill="white"/>
<path d="M20.6958 29.2329C20.7658 29.1909 20.8182 29.3093 20.9232 29.3722C21.1401 29.4982 21.3151 29.7991 21.3151 30.044L21.3011 33.8439C21.3011 33.9629 21.3047 33.9355 21.2417 33.9774L21.523 33.8126C21.593 33.7706 21.635 33.6867 21.635 33.5677L21.642 29.7679C21.642 29.5229 21.467 29.222 21.2571 29.0961C21.1451 29.0331 21.0472 29.0261 20.9772 29.0681L20.6958 29.2329Z" fill="#D4D6D6"/>
<path d="M20.9695 29.2598C20.755 29.1359 20.5802 29.2356 20.5795 29.482L20.572 33.2838C20.5713 33.5302 20.745 33.8259 20.9595 33.9497C21.1739 34.0736 21.3487 33.9791 21.3494 33.7326L21.3569 29.9308C21.3576 29.6844 21.1839 29.3836 20.9695 29.2598Z" fill="#ECF0F1"/>
<path d="M20.6953 35.0393C20.7653 34.9973 20.8178 35.1156 20.9227 35.1786C21.1396 35.3046 21.3146 35.6055 21.3146 35.8504L21.3006 39.6503C21.3006 39.7693 21.3042 39.7419 21.2412 39.7839L21.5225 39.619C21.5925 39.5771 21.6345 39.4931 21.6345 39.3741L21.6415 35.5743C21.6415 35.3293 21.4665 35.0284 21.2566 34.9025C21.1446 34.8395 21.0467 34.8325 20.9767 34.8745L20.6953 35.0393Z" fill="#D4D6D6"/>
<path d="M20.969 35.0662C20.7545 34.9423 20.5797 35.042 20.579 35.2884L20.5715 39.0902C20.5708 39.3366 20.7445 39.6323 20.959 39.7562C21.1734 39.88 21.3483 39.7855 21.3489 39.5391L21.3564 35.7372C21.3571 35.4908 21.1834 35.19 20.969 35.0662Z" fill="#ECF0F1"/>
<path d="M34.5089 25.4809C32.1323 26.853 30.2133 30.1525 30.221 32.859C30.2212 32.9401 30.2214 33.0211 30.2287 33.1062L30.2289 33.1467C30.2311 33.9231 30.4111 34.6331 30.5862 35.1409C30.7528 35.6241 30.9067 35.9093 30.9148 35.9243C30.9182 35.9394 30.9812 36.2271 31.0674 36.1773C31.0908 36.1638 31.1157 36.1242 31.1412 36.0452C31.2392 35.7208 31.358 35.2788 31.4202 34.7722C31.5029 34.0507 31.7549 33.2559 32.1979 32.5456C32.9011 31.4253 33.8097 30.4949 34.7758 29.9371L35.4811 29.5299C36.3414 29.0332 37.1797 28.2246 37.855 27.234C37.8621 27.2405 37.9967 27.3633 38.202 27.5531C38.9671 28.3208 39.3923 28.8221 39.3754 30.3334C39.3761 30.5603 39.3626 30.7872 39.3348 30.9656C39.4052 30.6855 39.497 30.229 39.587 29.7519C39.6221 29.566 39.6569 29.377 39.69 29.194C39.9056 27.9738 39.9447 26.8149 39.7441 25.8349C39.6724 25.4705 39.5727 25.179 39.4661 24.9646C39.3621 24.774 39.1501 24.7658 38.9416 24.8862C38.7518 24.9958 38.5648 25.2119 38.4646 25.4941C37.7269 24.4265 36.1309 24.5444 34.5089 25.4809Z" fill="#5B5E71"/>
<path d="M33.305 41.0392C33.0271 41.3392 32.7924 41.6918 32.6171 42.06C32.359 42.6018 32.2293 43.1771 32.2791 43.6674L32.431 44.9271C32.4576 45.1156 32.6071 45.1622 32.7657 45.0707C32.8218 45.0382 32.8791 44.9885 32.9325 44.9216L35.1708 42.1359L37.4106 42.3362C37.4642 42.3413 37.5215 42.3249 37.5776 42.2925C37.7363 42.2009 37.885 41.982 37.9105 41.7635L38.0618 40.3288C38.1047 39.785 37.9726 39.3609 37.7122 39.1183C37.5366 38.9547 37.3026 38.874 37.0242 38.895C36.982 40.1265 36.1924 41.546 35.2273 42.1033L35.1144 42.1684C34.1416 42.7301 33.3525 42.2203 33.305 41.0392Z" fill="#2ECC71"/>
<path d="M33.2974 39.2464L33.3021 40.9336C33.3022 40.9694 33.3032 41.0045 33.3046 41.0391C33.352 42.2203 34.1411 42.7301 35.1139 42.1684L35.2268 42.1032C36.1919 41.546 36.9815 40.1265 37.0238 38.895C37.025 38.8577 37.0258 38.8207 37.0257 38.7838L37.0211 37.1704C36.4719 37.8581 35.8606 38.4176 35.2174 38.7889C34.5272 39.1874 33.8761 39.3292 33.2974 39.2464Z" fill="#D6B218"/>
<path d="M29.4749 43.8737C28.7203 44.3093 28.0449 45.2594 27.8074 46.2243L26.2573 52.5819L44.1063 42.2767L42.5253 37.727C42.2902 37.0348 41.6116 36.8665 40.85 37.3062L37.7117 39.1181C37.9721 39.3607 38.1042 39.7848 38.0613 40.3286L37.91 41.7634C37.8845 41.9819 37.7357 42.2008 37.5771 42.2923C37.521 42.3247 37.4637 42.3412 37.4101 42.336L35.1703 42.1357L32.932 44.9215C32.8786 44.9884 32.8214 45.0381 32.7652 45.0705C32.6066 45.1621 32.4571 45.1154 32.4305 44.927L32.2786 43.6673C32.2288 43.177 32.3585 42.6017 32.6166 42.0598L29.4749 43.8737Z" fill="#30B265"/>
<path d="M37.8548 27.234C37.1795 28.2245 36.3412 29.0332 35.4808 29.5299L34.7756 29.9371C33.8094 30.4949 32.9009 31.4253 32.1977 32.5456C31.7547 33.2559 31.5026 34.0507 31.4199 34.7721C31.3578 35.2788 31.2389 35.7208 31.141 36.0452C31.1155 36.1241 31.0906 36.1638 31.0671 36.1773C30.9809 36.2271 30.9179 35.9394 30.9146 35.9243C30.9065 35.9093 30.7525 35.6241 30.5859 35.1409C30.376 35.5191 30.2533 35.9973 30.2803 36.4366C30.3177 37.1536 30.7354 37.4969 31.2151 37.2605C31.6351 38.41 32.3742 39.1143 33.2974 39.2464C33.8761 39.3292 34.5272 39.1874 35.2174 38.7889C35.8607 38.4176 36.4719 37.8581 37.0212 37.1704C37.9894 35.958 38.7651 34.3464 39.184 32.6596C39.6635 32.3585 40.0778 31.5186 40.1181 30.7567C40.15 30.1426 39.9258 29.7577 39.5868 29.7519C39.4968 30.229 39.4049 30.6855 39.3346 30.9656C39.3623 30.7872 39.3758 30.5603 39.3752 30.3334C39.3921 28.822 38.9668 28.3208 38.2018 27.5531C37.9964 27.3633 37.8619 27.2405 37.8548 27.234Z" fill="#F1C40F"/>
<path d="M28.841 57.5737C29.9732 56.92 30.8928 57.4441 30.8965 58.7451C30.9002 60.0433 29.9866 61.6257 28.8543 62.2794C27.7245 62.9317 26.805 62.4077 26.8013 61.1095C26.7976 59.8084 27.7112 58.226 28.841 57.5737Z" fill="#D4D6D6"/>
<path d="M35.5878 53.6786C36.7201 53.0249 37.6396 53.5489 37.6433 54.85C37.647 56.1482 36.7334 57.7306 35.6012 58.3843C34.4713 59.0366 33.5518 58.5125 33.5481 57.2143C33.5444 55.9133 34.458 54.3309 35.5878 53.6786Z" fill="#E74C3C"/>
<path d="M42.3346 49.7832C43.4669 49.1295 44.3865 49.6535 44.3901 50.9546C44.3938 52.2528 43.4802 53.8352 42.348 54.4889C41.2182 55.1412 40.2986 54.6172 40.2949 53.3189C40.2912 52.0179 41.2048 50.4355 42.3346 49.7832Z" fill="#D4D6D6"/>
<path d="M35.5931 55.3541C35.8675 55.1957 36.1408 55.0639 36.4121 54.962C36.8001 54.8188 37.0832 55.042 37.0855 55.4932C37.0857 55.569 37.06 55.6522 37.0169 55.7268C36.9739 55.8014 36.9145 55.8655 36.8487 55.9035L36.5095 56.0994C36.3788 56.1748 36.2725 56.1131 36.2721 55.9629L36.272 55.9194C36.2717 55.804 36.2087 55.7371 36.1125 55.7529C35.9459 55.7795 35.7698 55.8464 35.5937 55.948C35.4198 56.0484 35.2438 56.1848 35.0766 56.351C34.9816 56.4444 34.9193 56.5836 34.9196 56.7002L34.9197 56.7437C34.9201 56.8939 34.8135 57.0785 34.6828 57.154L34.3436 57.3498C34.2129 57.4253 34.1056 57.3641 34.1052 57.2139C34.1039 56.7621 34.3859 56.2127 34.7734 55.9081C35.0444 55.697 35.3187 55.5125 35.5931 55.3541Z" fill="white"/>
<path d="M42.8474 51.092C42.9018 51.0607 42.9481 51.0871 42.9483 51.1495L42.9493 51.5116L43.7142 50.651L43.7155 52.0698L42.9509 52.0922L42.952 52.4543C42.9522 52.5167 42.9061 52.5934 42.8518 52.6247L41.1512 53.6066C41.0968 53.6379 41.0505 53.6147 41.0503 53.5522L41.0466 52.2474C41.0465 52.185 41.0925 52.1052 41.1468 52.0739L42.8474 51.092Z" fill="#3F434F"/>
<path d="M29.6414 59.4303C29.6429 59.939 29.3112 60.5486 28.8809 60.8533L28.8821 61.2778L29.0653 61.1721L29.066 61.4071L28.4981 61.735L28.4974 61.4999L28.6775 61.3959L28.6763 60.9714C28.2487 61.1621 27.9148 60.9367 27.9133 60.428L28.1179 60.3099C28.119 60.7274 28.4162 60.8967 28.7795 60.687C29.1459 60.4754 29.438 59.9659 29.4368 59.5484L29.6414 59.4303Z" fill="#3F434F"/>
<path d="M28.7725 58.2977C29.0045 58.1638 29.1944 58.2685 29.1952 58.5386L29.1984 59.6858C29.1992 59.9525 29.0105 60.2793 28.7785 60.4133C28.5464 60.5472 28.3565 60.439 28.3558 60.1724L28.3525 59.0251C28.3518 58.755 28.5405 58.4317 28.7725 58.2977Z" fill="#3F434F"/>
<path d="M44.6519 21.5895L43.4754 20.9089L43.4653 17.3741L44.6419 18.0547L44.6519 21.5895Z" fill="#3498DB"/>
<path d="M56.0046 2.90927C55.9297 2.87181 55.8248 2.87181 55.7124 2.93923L43.2514 10.1401C43.0266 10.2675 42.8392 10.5897 42.8392 10.852L42.8617 18.6074C42.8617 18.7422 42.9067 18.8321 42.9816 18.8696L41.8009 18.1955C41.7334 18.1506 41.6884 18.0606 41.6809 17.9258L41.666 10.1704C41.6585 9.90814 41.8458 9.58594 42.0706 9.45857L54.5317 2.2577C54.6516 2.19774 54.7564 2.19024 54.8314 2.23519L56.0046 2.90927Z" fill="#3498DB"/>
<path d="M55.7118 2.94175C55.9414 2.80917 56.1286 2.91584 56.1293 3.17971L56.1513 10.9364C56.1521 11.2003 55.9661 11.5169 55.7364 11.6495L47.7087 16.2843L44.6521 21.5895L44.6421 18.0548L43.2739 18.8447C43.049 18.9746 42.8618 18.8734 42.8611 18.6095L42.8391 10.8528C42.8384 10.589 43.0243 10.2668 43.2492 10.137L55.7118 2.94175Z" fill="#3293C9"/>
<path d="M45.2538 11.8844C45.9895 11.4596 46.5951 11.7994 46.5975 12.6448C46.5999 13.4902 45.9982 14.5161 45.2624 14.9409C44.5267 15.3657 43.9353 15.0286 43.9329 14.1832C43.9305 13.3378 44.518 12.3092 45.2538 11.8844Z" fill="white"/>
<path d="M49.3288 9.53192C50.0645 9.10715 50.6654 9.44959 50.6678 10.295C50.6702 11.1404 50.0732 12.1636 49.3375 12.5884C48.6017 13.0132 48.0056 12.6789 48.0032 11.8335C48.0008 10.988 48.5931 9.9567 49.3288 9.53192Z" fill="white"/>
<path d="M53.3988 7.18195C54.1345 6.75717 54.7354 7.09961 54.7378 7.94502C54.7402 8.79043 54.1432 9.81365 53.4075 10.2384C52.6717 10.6632 52.0803 10.3262 52.0779 9.48074C52.0755 8.63533 52.6631 7.60671 53.3988 7.18195Z" fill="white"/>
</svg>
