<svg width="21" height="21" viewBox="0 0 21 21" fill="none" xmlns="http://www.w3.org/2000/svg">
<path d="M10.5 0C4.71006 0 0 4.71006 0 10.5C0 12.4752 0.548827 14.3927 1.58994 16.0577C1.17519 17.5108 0.426058 20.2593 0.417981 20.288C0.379212 20.4302 0.420808 20.582 0.527019 20.6842C0.633231 20.7864 0.786692 20.8227 0.926423 20.7799L5.08846 19.4997C6.71879 20.4819 8.58577 21 10.5 21C16.2899 21 21 16.2899 21 10.5C21 4.71006 16.2899 0 10.5 0ZM10.5 20.1923C8.67502 20.1923 6.89729 19.6822 5.35863 18.7179C5.29362 18.6771 5.2189 18.6565 5.14419 18.6565C5.10421 18.6565 5.06423 18.6625 5.02546 18.6742L1.39125 19.7929C1.65819 18.8184 2.13796 17.0754 2.41621 16.1058C2.44852 15.9935 2.43035 15.8724 2.36694 15.7742C1.34683 14.2045 0.807692 12.3807 0.807692 10.5C0.807692 5.1559 5.1559 0.807692 10.5 0.807692C15.8441 0.807692 20.1923 5.1559 20.1923 10.5C20.1923 15.8441 15.8441 20.1923 10.5 20.1923Z" fill="white"/>
<path d="M17.3594 12.9741C16.6139 12.5602 15.979 12.145 15.5158 11.8421C15.1621 11.6111 14.9064 11.4444 14.719 11.3503C14.1952 11.089 13.7983 11.2735 13.6472 11.4262C13.6282 11.4452 13.6113 11.4658 13.5967 11.4876C13.0528 12.3037 12.3424 13.0844 12.1344 13.1264C11.8941 13.0888 10.7694 12.4495 9.65157 11.5187C8.5103 10.5676 7.79226 9.65693 7.68686 9.03662C8.41903 8.28304 8.68274 7.80893 8.68274 7.26939C8.68274 6.71329 7.38559 4.39158 7.15096 4.15695C6.91551 3.92191 6.38526 3.88516 5.57474 4.0467C5.4968 4.06245 5.42492 4.10081 5.36838 4.15695C5.27024 4.25508 2.97398 6.59618 4.06517 9.4336C5.26298 12.5477 8.33746 16.1673 12.2572 16.7553C12.7026 16.822 13.1202 16.8551 13.5111 16.8551C15.8171 16.8551 17.1781 15.6948 17.5613 13.3933C17.59 13.2249 17.5088 13.0569 17.3594 12.9741ZM12.3771 15.9565C8.23205 15.335 5.62119 11.2283 4.81915 9.14364C4.02357 7.07595 5.49074 5.23239 5.85905 4.81562C6.15871 4.76474 6.47411 4.74333 6.60576 4.76393C6.88078 5.14637 7.83305 6.94551 7.87505 7.26939C7.87505 7.48141 7.80599 7.77662 6.98376 8.59925C6.90784 8.67477 6.86544 8.77735 6.86544 8.88477C6.86544 10.9993 11.3255 13.9329 12.1154 13.9329C12.8024 13.9329 13.6981 12.7783 14.2082 12.0259C14.2376 12.0271 14.2873 12.0372 14.358 12.0727C14.5034 12.1458 14.7554 12.3102 15.074 12.5186C15.4948 12.7936 16.0537 13.1587 16.7136 13.5371C16.414 14.9788 15.5764 16.4371 12.3771 15.9565Z" fill="white"/>
</svg>
