<svg width="21" height="21" viewBox="0 0 21 21" fill="none" xmlns="http://www.w3.org/2000/svg">
<path d="M12.4998 0H8.49986C4.31034 0 0.901855 3.40769 0.901855 7.59641V11.1997C0.901855 14.319 2.81865 17.1224 5.70085 18.2642V20.6001C5.70085 20.7585 5.79403 20.9016 5.9388 20.9656C5.99079 20.9888 6.04598 21 6.10077 21C6.19795 21 6.29432 20.9644 6.36911 20.8964L8.68822 18.7961H12.4998C16.6893 18.7961 20.0978 15.3884 20.0978 11.1997V7.59641C20.0978 3.40769 16.6893 0 12.4998 0ZM19.298 11.1997C19.298 14.9473 16.2486 17.9962 12.4998 17.9962H8.53386C8.43468 17.9962 8.3391 18.033 8.26551 18.0998L6.50068 19.6983V17.987C6.50068 17.8175 6.3939 17.6663 6.23394 17.6103C3.52331 16.6517 1.70169 14.0754 1.70169 11.1997V7.59641C1.70169 3.84879 4.75145 0.799832 8.49986 0.799832H12.4998C16.2486 0.799832 19.298 3.84879 19.298 7.59641V11.1997Z" fill="#000"/>
<path d="M15.785 12.1944L13.3271 10.5979C13.0584 10.4231 12.7384 10.364 12.4253 10.4287C12.1118 10.4947 11.8422 10.6799 11.6675 10.9498L11.5519 11.1274C10.4881 10.7759 9.31517 10.3268 8.61291 8.29399L8.90365 8.04125C9.40275 7.60734 9.45514 6.8483 9.02123 6.3484L7.09843 4.13647C6.95366 3.9697 6.70091 3.9525 6.53415 4.09687L5.3268 5.14625C4.26782 6.06686 4.76252 7.42858 4.92529 7.87608C4.93248 7.89608 4.94128 7.91527 4.95168 7.93407C4.99367 8.00925 5.99626 9.79848 7.61552 11.4477C9.24118 13.1038 12.1762 14.6331 12.2661 14.6775C12.6013 14.895 12.9784 14.9994 13.3515 14.9994C14.0066 14.9994 14.6489 14.6783 15.032 14.0896L15.903 12.7483C16.023 12.5623 15.9702 12.3148 15.785 12.1944ZM14.3609 13.6537C14.0006 14.2088 13.2559 14.3663 12.6681 13.9872C12.6389 13.972 9.72308 12.4535 8.1862 10.8879C6.7497 9.42456 5.7959 7.7989 5.66593 7.57215C5.3492 6.68393 5.40519 6.13805 5.85149 5.75013L6.7573 4.96309L8.41775 6.87309C8.56532 7.04266 8.54813 7.2906 8.37936 7.43737L7.88867 7.86368C7.76909 7.96766 7.7219 8.13203 7.76869 8.2832C8.60532 11.0018 10.2322 11.5357 11.4199 11.9256L11.5931 11.9828C11.7663 12.0412 11.9558 11.9744 12.055 11.8217L12.3385 11.3849C12.3969 11.2946 12.4865 11.2334 12.5905 11.2114C12.6949 11.189 12.8012 11.2098 12.8916 11.2686L15.0144 12.6471L14.3609 13.6537Z" fill="#000"/>
<path d="M11.413 6.49711C11.2002 6.43592 10.9791 6.55949 10.9187 6.77225C10.8583 6.98461 10.9815 7.20576 11.1938 7.26615C11.7897 7.43571 12.2644 7.91121 12.4324 8.50749C12.4819 8.68345 12.6423 8.79903 12.8171 8.79903C12.8531 8.79903 12.8895 8.79423 12.9258 8.78423C13.1382 8.72424 13.2622 8.50349 13.2022 8.29073C12.9594 7.42931 12.2736 6.74186 11.413 6.49711Z" fill="#000"/>
<path d="M14.4562 8.88567C14.4922 8.88567 14.5286 8.88087 14.565 8.87087C14.7777 8.81089 14.9013 8.58973 14.8413 8.37738C14.3694 6.70453 13.0381 5.37041 11.3664 4.89451C11.1541 4.83332 10.9329 4.95769 10.8725 5.17005C10.8121 5.3824 10.9353 5.60356 11.1477 5.66395C12.5542 6.06386 13.6743 7.18723 14.0715 8.59453C14.1214 8.77049 14.2814 8.88567 14.4562 8.88567Z" fill="#000"/>
<path d="M11.194 3.03226C10.9812 2.97107 10.7601 3.09465 10.6997 3.3078C10.6393 3.52016 10.7625 3.74131 10.9748 3.8017C13.3579 4.47956 15.2563 6.38236 15.929 8.76706C15.9786 8.94302 16.1389 9.0586 16.3137 9.0586C16.3497 9.0586 16.3861 9.0538 16.4225 9.0438C16.6348 8.98382 16.7588 8.76266 16.6988 8.55031C15.9514 5.90006 13.8422 3.7861 11.194 3.03226Z" fill="#000"/>
</svg>
