<svg width="20" height="21" viewBox="0 0 20 21" fill="none" xmlns="http://www.w3.org/2000/svg">
<path d="M14.1711 20.015C14.2614 20.0191 14.3476 20.0232 14.4379 20.0232C15.4026 20.0232 16.2072 19.6743 16.8394 18.9887C16.8435 18.9846 16.8518 18.9764 16.8559 18.9723C17.0816 18.7013 17.3362 18.455 17.6071 18.1964C17.7918 18.0199 17.9807 17.8393 18.1572 17.6504C18.9987 16.7719 18.9946 15.6594 18.149 14.8138L15.809 12.4738C15.4067 12.0551 14.9264 11.8334 14.4174 11.8334C13.9125 11.8334 13.4281 12.051 13.0134 12.4656L11.63 13.8491C11.5069 13.7793 11.3796 13.7177 11.2564 13.6561C11.1004 13.5781 10.9568 13.5042 10.8295 13.4262C9.56101 12.6216 8.41157 11.5707 7.31139 10.2201C6.75719 9.52223 6.39184 8.9393 6.13321 8.33995C6.49447 8.01154 6.83109 7.67081 7.15539 7.33829C7.27444 7.21924 7.39349 7.09609 7.51665 6.97294C8.39515 6.09443 8.39515 5.00657 7.51665 4.13217L6.35489 2.97042C6.21942 2.83495 6.08806 2.69948 5.95669 2.56811C5.69807 2.30538 5.43123 2.03034 5.1644 1.78403C4.76209 1.38173 4.2859 1.17236 3.78096 1.17236C3.28014 1.17236 2.79573 1.38173 2.377 1.78403L0.919676 3.23725C0.386007 3.77092 0.082226 4.41953 0.0165436 5.17078C-0.057349 6.10675 0.115067 7.10019 0.558423 8.2989C1.24398 10.1503 2.27437 11.8704 3.80149 13.7095C5.66112 15.9263 7.89432 17.6792 10.4477 18.9148C11.4206 19.3787 12.722 19.9206 14.1711 20.015ZM4.57736 13.065C3.12414 11.3162 2.15122 9.69054 1.50671 7.94996C1.10851 6.87852 0.960727 6.04517 1.0223 5.25288C1.06746 4.73974 1.26451 4.3128 1.63397 3.94744L3.08309 2.49833C3.30477 2.28486 3.54697 2.17402 3.78507 2.17402C4.01906 2.17402 4.24895 2.28486 4.47063 2.50243C4.72925 2.74463 4.97967 2.99915 5.2424 3.26599C5.37376 3.40146 5.50923 3.54103 5.64881 3.6765L6.81056 4.83826C7.28676 5.31446 7.28676 5.78244 6.81056 6.25864C6.68741 6.38179 6.56425 6.50495 6.4452 6.6281C6.08395 6.99346 5.74733 7.33829 5.37376 7.67081C5.36555 7.67902 5.36144 7.68313 5.35323 7.69134C5.02072 8.02385 5.06998 8.34405 5.15208 8.58215C5.15619 8.59447 5.16029 8.60268 5.1644 8.61499C5.46407 9.3375 5.8869 10.0231 6.53552 10.8441C7.70548 12.285 8.93703 13.4057 10.2999 14.2719C10.4682 14.3786 10.6448 14.4689 10.8172 14.5551C10.9732 14.6331 11.1169 14.707 11.2441 14.785C11.2605 14.7932 11.2729 14.8014 11.2893 14.8097C11.4206 14.8753 11.5479 14.9082 11.6793 14.9082C12.0036 14.9082 12.2088 14.7029 12.2745 14.6331L13.7318 13.1758C13.9535 12.9541 14.1916 12.8392 14.4256 12.8392C14.713 12.8392 14.947 13.0198 15.0989 13.1758L17.447 15.524C18.0217 16.0987 17.759 16.6159 17.4347 16.9567C17.2705 17.1332 17.0981 17.2974 16.9174 17.4739C16.6424 17.7366 16.3591 18.0117 16.1005 18.3196C15.6572 18.7958 15.1317 19.0174 14.4461 19.0174C14.3805 19.0174 14.3107 19.0133 14.245 19.0092C12.9683 18.9271 11.786 18.4304 10.8952 18.0076C8.46494 16.8376 6.34258 15.175 4.57736 13.065Z" fill="black"/>
<path d="M10.9938 3.66402C10.7188 3.61887 10.4602 3.8036 10.415 4.07454C10.3698 4.34958 10.5546 4.60821 10.8255 4.65336C11.9544 4.8463 12.9807 5.37997 13.8017 6.1969C14.6187 7.01382 15.1523 8.04421 15.3453 9.17313C15.3863 9.41944 15.5998 9.59186 15.842 9.59186C15.8707 9.59186 15.8995 9.58775 15.9282 9.58365C16.2033 9.53849 16.388 9.27576 16.3387 9.00482C16.1129 7.67065 15.4807 6.45142 14.516 5.48671C13.5431 4.51789 12.328 3.88981 10.9938 3.66402Z" fill="black"/>
<path d="M19.4953 9.4199C19.524 9.4199 19.5527 9.41579 19.5815 9.41169C19.8565 9.36653 20.0412 9.1038 19.992 8.83286C19.6184 6.62429 18.5757 4.61688 16.9788 3.01997C15.3778 1.42307 13.3704 0.380364 11.1618 0.00679534C10.8867 -0.0383613 10.6281 0.14637 10.583 0.41731C10.5378 0.692355 10.7225 0.950979 10.9935 0.996136C12.9927 1.33686 14.8154 2.28105 16.2645 3.73016C17.7136 5.17928 18.6578 7.00197 18.9985 9.00117C19.0396 9.24748 19.253 9.4199 19.4953 9.4199Z" fill="black"/>
</svg>
