<svg width="21" height="21" viewBox="0 0 21 21" fill="none" xmlns="http://www.w3.org/2000/svg">
<path d="M17.9246 3.07539C15.9414 1.09216 13.3046 0 10.5 0C7.69539 0 5.05858 1.09216 3.07539 3.07539C1.09216 5.05858 0 7.69539 0 10.5C0 13.3046 1.09216 15.9414 3.07539 17.9246C5.05858 19.9078 7.69539 21 10.5 21C13.3046 21 15.9414 19.9078 17.9246 17.9246C19.9078 15.9414 21 13.3046 21 10.5C21 7.69539 19.9078 5.05858 17.9246 3.07539ZM10.5 20.3369C5.07593 20.3369 0.663141 15.9241 0.663141 10.5C0.663141 5.07593 5.07593 0.663141 10.5 0.663141C15.9241 0.663141 20.3369 5.07593 20.3369 10.5C20.3369 15.9241 15.9241 20.3369 10.5 20.3369Z" fill="#000000"/>
<path d="M16.4466 4.04522C16.3448 3.96852 16.208 3.95703 16.0948 4.0156L3.27377 10.6472C3.16294 10.7045 3.09367 10.8192 3.09449 10.944C3.09531 11.0687 3.16614 11.1825 3.27779 11.2383L6.63139 12.915V16.2375C6.63139 16.3245 6.66096 16.4105 6.7208 16.4736C6.787 16.5435 6.87498 16.5785 6.963 16.5785C7.01845 16.5785 7.07391 16.5647 7.12407 16.5368L10.9608 14.4052L13.8974 15.6638C13.9599 15.6905 14.0291 15.7016 14.0959 15.6891C14.2335 15.6634 14.3358 15.558 14.3619 15.4278L15.1049 11.7127C15.1459 11.5075 14.989 11.3161 14.7797 11.3161C14.6216 11.316 14.4856 11.4276 14.4546 11.5825L13.7917 14.8969L11.0726 13.7316C10.9783 13.6912 10.8706 13.6967 10.7809 13.7465L7.29457 15.6834V12.7101C7.29457 12.5845 7.22362 12.4697 7.11127 12.4135L4.15753 10.9366L15.7867 4.92152L14.4546 11.5825C14.4136 11.7877 14.5705 11.3161 14.7797 11.3161C14.9378 11.3161 15.0738 11.8677 15.1049 11.7127L16.5723 4.37506C16.5973 4.25013 16.5484 4.12188 16.4466 4.04522Z" fill="#000000"/>
<path d="M14.2971 6.7579C14.1929 6.626 14.0064 6.59286 13.8631 6.68108L8.11579 10.2179C8.01773 10.2783 7.95801 10.3852 7.95801 10.5003V14.0372C7.95797 14.191 8.0637 14.3245 8.21333 14.3599C8.2388 14.3659 8.26435 14.3688 8.28962 14.3688C8.41295 14.3688 8.52903 14.2997 8.58608 14.1855L9.88832 11.581L14.2714 7.19796C14.3903 7.07901 14.4013 6.88989 14.2971 6.7579ZM9.38137 11.1501C9.35623 11.1752 9.33523 11.2044 9.31931 11.2362L8.62115 12.6325V10.6856L11.8054 8.726L9.38137 11.1501Z" fill="#000000"/>
</svg>
