<svg width="20" height="16" viewBox="0 0 20 16" fill="none" xmlns="http://www.w3.org/2000/svg">
<path d="M17.5585 0.389648H2.44569C1.09663 0.389648 0 1.48628 0 2.83533V13.1643C0 14.5134 1.09663 15.61 2.44569 15.61H17.5543C18.9034 15.61 20 14.5134 20 13.1643V2.83947C20.0041 1.49041 18.9075 0.389648 17.5585 0.389648ZM18.8868 13.1643C18.8868 13.8968 18.2909 14.4927 17.5585 14.4927H2.44569C1.71322 14.4927 1.11732 13.8968 1.11732 13.1643V2.83947C1.11732 2.10701 1.71322 1.51111 2.44569 1.51111H17.5543C18.2868 1.51111 18.8827 2.10701 18.8827 2.83947V13.1643H18.8868Z" fill="black"/>
<path d="M12.6128 7.87145L17.5041 3.48494C17.7317 3.27803 17.7524 2.92628 17.5455 2.69454C17.3386 2.46694 16.9869 2.44624 16.7551 2.65316L10.0098 8.70737L8.69388 7.53211C8.68974 7.52797 8.6856 7.52384 8.6856 7.5197C8.65664 7.49073 8.62767 7.4659 8.59456 7.44107L3.23971 2.64902C3.00797 2.44211 2.65622 2.4628 2.44931 2.69454C2.2424 2.92628 2.26309 3.27803 2.49483 3.48494L7.44414 7.90869L2.51552 12.5228C2.29206 12.7339 2.27964 13.0856 2.49069 13.3132C2.60242 13.4291 2.7514 13.4911 2.90038 13.4911C3.03694 13.4911 3.1735 13.4415 3.28109 13.3422L8.2842 8.66185L9.64153 9.87434C9.74913 9.96952 9.88155 10.015 10.014 10.015C10.1464 10.015 10.283 9.96538 10.3864 9.8702L11.781 8.62046L16.7551 13.3463C16.8627 13.4498 17.0034 13.4994 17.14 13.4994C17.289 13.4994 17.4338 13.4415 17.5455 13.3256C17.7566 13.1022 17.7483 12.7463 17.5248 12.5352L12.6128 7.87145Z" fill="black"/>
</svg>
