<svg width="21" height="21" viewBox="0 0 21 21" fill="none" xmlns="http://www.w3.org/2000/svg">
<path d="M15.3155 0H5.6845C2.55001 0 0 2.55001 0 5.6845V15.3156C0 18.4499 2.55001 21 5.6845 21H15.3156C18.4499 21 21 18.4499 21 15.3156V5.6845C21 2.55001 18.4499 0 15.3155 0V0ZM19.7689 15.3156C19.7689 17.7711 17.7711 19.7689 15.3155 19.7689H5.6845C3.22885 19.7689 1.23111 17.7711 1.23111 15.3156V5.6845C1.23111 3.22885 3.22885 1.23111 5.6845 1.23111H15.3156C17.7711 1.23111 19.7689 3.22885 19.7689 5.6845V15.3156Z" fill="black"/>
<path d="M10.4998 4.75781C7.33362 4.75781 4.75781 7.33362 4.75781 10.4998C4.75781 13.666 7.33362 16.2418 10.4998 16.2418C13.666 16.2418 16.2418 13.666 16.2418 10.4998C16.2418 7.33362 13.666 4.75781 10.4998 4.75781ZM10.4998 15.0107C8.01262 15.0107 5.98892 12.9872 5.98892 10.4998C5.98892 8.01262 8.01262 5.98892 10.4998 5.98892C12.9872 5.98892 15.0107 8.01262 15.0107 10.4998C15.0107 12.9872 12.9872 15.0107 10.4998 15.0107Z" fill="black"/>
<path d="M16.3783 2.71875C15.4427 2.71875 14.6816 3.47994 14.6816 4.41545C14.6816 5.35111 15.4427 6.11231 16.3783 6.11231C17.314 6.11231 18.0752 5.35111 18.0752 4.41545C18.0752 3.47978 17.314 2.71875 16.3783 2.71875ZM16.3783 4.88104C16.1217 4.88104 15.9127 4.67212 15.9127 4.41545C15.9127 4.15862 16.1217 3.94986 16.3783 3.94986C16.6352 3.94986 16.8441 4.15862 16.8441 4.41545C16.8441 4.67212 16.6352 4.88104 16.3783 4.88104Z" fill="black"/>
</svg>
