<svg width="404" height="328" viewBox="0 0 404 328" fill="none" xmlns="http://www.w3.org/2000/svg">
<path d="M399.982 296.546C399.979 296.491 399.979 296.437 399.974 296.382C399.954 296.164 399.923 295.95 399.878 295.741C399.874 295.72 399.867 295.699 399.862 295.679C399.819 295.486 399.765 295.298 399.702 295.115C399.685 295.066 399.667 295.018 399.648 294.969C399.587 294.803 399.517 294.64 399.44 294.483C399.426 294.455 399.418 294.426 399.404 294.398L369.946 236.296V45.138C369.946 39.2586 365.163 34.4756 359.284 34.4756H64.7145C58.8351 34.4756 54.0521 39.2586 54.0521 45.138V236.294L24.5956 294.397C24.5816 294.425 24.5728 294.454 24.5596 294.482C24.4825 294.64 24.4135 294.802 24.351 294.968C24.3327 295.016 24.3143 295.065 24.2974 295.114C24.235 295.298 24.1807 295.487 24.1373 295.68C24.1329 295.699 24.1263 295.719 24.1219 295.739C24.0771 295.949 24.0455 296.163 24.0257 296.381C24.0206 296.435 24.0206 296.49 24.0176 296.545C24.0103 296.659 24 296.772 24 296.888V310.861C24 317.844 29.6804 323.524 36.6636 323.524H387.336C394.32 323.524 400 317.844 400 310.861V296.888C400 296.772 399.99 296.659 399.982 296.546ZM65.0685 45.4927H358.932V232.104H65.0685V45.4927ZM62.9432 243.119H361.056L385.524 291.38H264.514L258.44 269.357C257.203 264.873 253.092 261.742 248.441 261.742H175.557C170.907 261.742 166.795 264.873 165.559 269.356L159.485 291.38H38.4753L62.9432 243.119ZM253.087 291.381H170.913L176.049 272.758H247.951L253.087 291.381ZM388.984 310.86C388.984 311.768 388.245 312.508 387.336 312.508H36.6636C35.7551 312.508 35.0156 311.768 35.0156 310.86V302.395H388.984V310.86Z" fill="#359691" stroke="white" stroke-width="8"/>
<path d="M341.674 147.978C338.631 147.978 336.166 150.443 336.166 153.485V209.338H87.834V153.485C87.834 150.443 85.3687 147.978 82.3262 147.978C79.2837 147.978 76.8184 150.443 76.8184 153.485V211.717C76.8184 216.479 80.6922 220.354 85.4553 220.354H338.545C343.308 220.354 347.182 216.48 347.182 211.717V153.485C347.181 150.444 344.716 147.978 341.674 147.978Z" fill="#359691" stroke="white" stroke-width="8"/>
<path d="M338.544 57.2432H85.4553C80.6929 57.2432 76.8184 61.117 76.8184 65.8801V124.112C76.8184 127.154 79.2837 129.619 82.3262 129.619C85.3687 129.619 87.834 127.154 87.834 124.112V68.2588H336.166V124.112C336.166 127.154 338.631 129.619 341.674 129.619C344.716 129.619 347.181 127.154 347.181 124.112V65.8801C347.181 61.1163 343.308 57.2432 338.544 57.2432Z" fill="#359691" stroke="white" stroke-width="8"/>
<rect width="137" height="92" rx="10" fill="#92D1CE"/>
<path d="M39.975 65.985V56.69H22.32V52.4L41.515 27.595H44.815V52.29H49.655V56.69H44.815V65.985H39.975ZM27.325 52.29H40.47V35.075L27.325 52.29ZM82.4689 42.885C82.4689 45.305 82.1206 47.5417 81.4239 49.595C80.7273 51.6117 79.7556 53.3717 78.5089 54.875C77.2623 56.3417 75.7773 57.4967 74.0539 58.34C72.3673 59.1467 70.5339 59.55 68.5539 59.55C66.5373 59.55 64.6673 59.1467 62.9439 58.34C61.2573 57.4967 59.7906 56.3417 58.5439 54.875C57.3339 53.3717 56.3806 51.6117 55.6839 49.595C54.9873 47.5417 54.6389 45.305 54.6389 42.885C54.6389 40.465 54.9873 38.2467 55.6839 36.23C56.3806 34.1767 57.3339 32.4167 58.5439 30.95C59.7906 29.4467 61.2573 28.2733 62.9439 27.43C64.6673 26.5867 66.5373 26.165 68.5539 26.165C70.5339 26.165 72.3673 26.5867 74.0539 27.43C75.7773 28.2733 77.2623 29.4467 78.5089 30.95C79.7556 32.4167 80.7273 34.1767 81.4239 36.23C82.1206 38.2467 82.4689 40.465 82.4689 42.885ZM77.5739 42.885C77.5739 41.0883 77.3539 39.4383 76.9139 37.935C76.4739 36.4317 75.8506 35.1483 75.0439 34.085C74.2373 32.985 73.2839 32.1417 72.1839 31.555C71.0839 30.9683 69.8739 30.675 68.5539 30.675C67.1973 30.675 65.9506 30.9683 64.8139 31.555C63.7139 32.1417 62.7606 32.985 61.9539 34.085C61.1839 35.1483 60.5789 36.4317 60.1389 37.935C59.6989 39.4383 59.4789 41.0883 59.4789 42.885C59.4789 44.7183 59.6989 46.3867 60.1389 47.89C60.5789 49.3567 61.1839 50.6217 61.9539 51.685C62.7606 52.7483 63.7139 53.5733 64.8139 54.16C65.9506 54.7467 67.1973 55.04 68.5539 55.04C69.8739 55.04 71.0839 54.7467 72.1839 54.16C73.2839 53.5733 74.2373 52.7483 75.0439 51.685C75.8506 50.6217 76.4739 49.3567 76.9139 47.89C77.3539 46.3867 77.5739 44.7183 77.5739 42.885ZM104.428 65.985V56.69H86.7731V52.4L105.968 27.595H109.268V52.29H114.108V56.69H109.268V65.985H104.428ZM91.7781 52.29H104.923V35.075L91.7781 52.29Z" fill="white"/>
<circle cx="168.5" cy="124.5" r="5.5" fill="#359691"/>
<circle cx="255.5" cy="124.5" r="5.5" fill="#359691"/>
<path d="M162.5 173.5C178.333 162.834 220.1 147.9 260.5 173.5" stroke="#359691" stroke-width="3" stroke-linecap="round"/>
</svg>
