<svg width="18" height="16" viewBox="0 0 18 16" fill="none" xmlns="http://www.w3.org/2000/svg">
<path d="M8.86304 5.14926L11.4397 7.72595L11.452 7.59098C11.452 6.23719 10.3518 5.13699 8.99801 5.13699L8.86304 5.14926Z" fill="#8C8C8C"/>
<path d="M8.99794 3.50103C11.2556 3.50103 13.0879 5.33336 13.0879 7.59102C13.0879 8.11863 12.9816 8.6217 12.7976 9.08385L15.1902 11.4765C16.4254 10.4458 17.3988 9.1125 18 7.59102C16.5808 4.00003 13.092 1.45605 8.99798 1.45605C7.85278 1.45605 6.75669 1.66054 5.73828 2.02864L7.50515 3.79141C7.96727 3.61146 8.47034 3.50103 8.99794 3.50103Z" fill="#8C8C8C"/>
<path d="M0.817983 1.27196L2.68301 3.13699L3.05521 3.5092C1.70552 4.56441 0.638037 5.96729 0 7.59098C1.41515 11.182 4.90798 13.726 8.99797 13.726C10.2659 13.726 11.4765 13.4806 12.5849 13.0347L12.9326 13.3824L15.317 15.7709L16.36 14.7321L1.86093 0.229019L0.817983 1.27196ZM5.34153 5.7914L6.60533 7.05521C6.56852 7.23109 6.54398 7.40693 6.54398 7.59098C6.54398 8.94478 7.64417 10.045 8.99797 10.045C9.18202 10.045 9.3579 10.0204 9.52968 9.98362L10.7935 11.2474C10.2495 11.5174 9.64421 11.681 8.99797 11.681C6.7403 11.681 4.90798 9.84865 4.90798 7.59098C4.90798 6.94478 5.07159 6.33945 5.34153 5.7914Z" fill="#8C8C8C"/>
</svg>
