<svg width="19" height="13" viewBox="0 0 19 13" fill="none" xmlns="http://www.w3.org/2000/svg">
<path d="M9.26677 3.79091C7.87255 3.79091 6.7395 4.92395 6.7395 6.31818C6.7395 7.7124 7.87255 8.84545 9.26677 8.84545C10.661 8.84545 11.794 7.7124 11.794 6.31818C11.794 4.92395 10.661 3.79091 9.26677 3.79091Z" fill="#8C8C8C"/>
<path d="M9.26667 0C5.05454 0 1.45741 2.61991 0 6.31817C1.45741 10.0164 5.05454 12.6363 9.26667 12.6363C13.483 12.6363 17.0759 10.0164 18.5333 6.31817C17.0759 2.61991 13.483 0 9.26667 0ZM9.26667 10.5303C6.94158 10.5303 5.05454 8.64322 5.05454 6.31813C5.05454 3.99305 6.94158 2.10605 9.26667 2.10605C11.5918 2.10605 13.4788 3.99309 13.4788 6.31817C13.4788 8.64326 11.5918 10.5303 9.26667 10.5303Z" fill="#8C8C8C"/>
</svg>
