<svg width="50" height="41" viewBox="0 0 50 41" fill="none" xmlns="http://www.w3.org/2000/svg">
<path d="M28.0934 11.2249C28.0934 14.7878 25.1926 17.6886 21.6297 17.6886C18.0667 17.6886 15.166 14.7878 15.166 11.2249C15.166 7.66201 18.0667 4.76123 21.6297 4.76123C25.1926 4.79276 28.0934 7.66201 28.0934 11.2249ZM26.0124 11.2249C26.0124 8.7971 24.0575 6.84223 21.6297 6.84223C19.2018 6.84223 17.247 8.7971 17.247 11.2249C17.247 13.6527 19.2018 15.6076 21.6297 15.6076C24.0575 15.6076 26.0124 13.6527 26.0124 11.2249Z" fill="white"/>
<path d="M49.8813 1.0405V16.5219C49.8813 17.8777 47.8318 17.8777 47.8318 16.5219V15.8282C43.7329 19.6434 36.9854 16.7426 36.9854 11.0987C36.9854 5.48627 43.7014 2.55395 47.8318 6.36912V1.0405C47.8318 0.472955 48.3048 0 48.8723 0C49.4399 0 49.8813 0.472955 49.8813 1.0405ZM47.8318 11.0987C47.8318 8.67082 45.8769 6.71595 43.4491 6.71595C41.0213 6.71595 39.0664 8.67082 39.0664 11.0987C39.0664 13.5265 41.0213 15.4814 43.4491 15.4814C45.8769 15.4814 47.8318 13.5265 47.8318 11.0987Z" fill="white"/>
<path d="M12.8959 1.16696C12.8959 0.59942 12.4229 0.126465 11.8554 0.126465C11.2878 0.126465 10.8149 0.59942 10.8149 1.16696V7.91443H2.04947V1.16696C2.04947 -0.188837 0 -0.188837 0 1.16696C0 6.08568 0 19.9589 0 24.4362C0 25.792 2.04947 25.792 2.04947 24.4362V9.90084H10.8149V24.4362C10.8149 25.792 12.8643 25.792 12.8643 24.4362V12.0133C12.8959 12.0133 12.8959 1.16696 12.8959 1.16696Z" fill="white"/>
<path d="M12.8959 24.4673V34.5255C12.8959 40.4532 5.4232 42.4396 5.4232 39.9487C5.4232 39.3811 5.89616 38.9082 6.4637 38.9082C8.86 38.9082 10.8149 36.9848 10.8464 34.5885C6.71594 38.4037 0 35.4714 0 29.859V24.4358C0 23.08 2.04947 23.08 2.04947 24.4358V29.859C2.04947 32.2868 4.00434 34.2417 6.43217 34.2417C8.86 34.2417 10.8149 32.2868 10.8149 29.859V24.4358C10.8464 23.1115 12.8959 23.1115 12.8959 24.4673Z" fill="#262524"/>
<path d="M28.0934 29.8905C28.0934 33.4534 25.1926 36.3542 21.6297 36.3542C18.0667 36.3542 15.166 33.4534 15.166 29.8905C15.166 26.3276 18.0667 23.4268 21.6297 23.4268C25.1926 23.4583 28.0934 26.3276 28.0934 29.8905ZM26.0124 29.8905C26.0124 27.4627 24.0575 25.5078 21.6297 25.5078C19.2018 25.5078 17.247 27.4627 17.247 29.8905C17.247 32.3183 19.2018 34.2732 21.6297 34.2732C24.0575 34.2732 26.0124 32.3183 26.0124 29.8905Z" fill="#262524"/>
<path d="M40.9262 25.2244C40.9262 22.166 39.1605 21.2831 36.2913 19.9904C33.5481 18.7292 30.1113 17.1842 30.1113 12.1394V1.22995C30.1113 -0.15738 32.2239 -0.15738 32.2239 1.22995V12.1394C32.2239 15.8284 34.5256 16.8689 37.1741 18.0671C39.9172 19.2967 43.1649 20.9363 42.9757 25.2244C42.9441 26.6748 40.9262 26.5802 40.9262 25.2244Z" fill="white"/>
<path d="M43.0075 24.4675V29.8907C43.0075 33.4537 40.1068 36.3544 36.5438 36.3544C32.9809 36.3544 30.0801 33.4537 30.0801 29.8907V24.4675C30.0801 23.1117 32.1296 23.1117 32.1296 24.4675V29.8907C32.1296 32.3186 34.0845 34.2734 36.5123 34.2734C38.9401 34.2734 40.895 32.3186 40.895 29.8907V24.4675C40.9265 23.1117 43.0075 23.1117 43.0075 24.4675Z" fill="#262524"/>
</svg>
