<svg width="20" height="19" viewBox="0 0 20 19" fill="none" xmlns="http://www.w3.org/2000/svg">
<path d="M16.6406 18.7488H3.35938C2.36859 18.7488 1.5625 17.9428 1.5625 16.952V7.49805C1.5625 7.15289 1.8423 6.87305 2.1875 6.87305C2.5327 6.87305 2.8125 7.15289 2.8125 7.49805V16.952C2.8125 17.2535 3.05781 17.4988 3.35938 17.4988H16.6406C16.9422 17.4988 17.1875 17.2535 17.1875 16.952V7.49805C17.1875 7.15289 17.4673 6.87305 17.8125 6.87305C18.1577 6.87305 18.4375 7.15289 18.4375 7.49805V16.952C18.4375 17.9427 17.6315 18.7488 16.6406 18.7488Z" fill="#555555"/>
<path d="M19.375 9.68519C19.215 9.68519 19.0551 9.62418 18.9331 9.50211L11.1601 1.72918C10.5204 1.08949 9.47961 1.08949 8.83992 1.72918L1.06694 9.50215C0.822882 9.74625 0.427139 9.74625 0.183076 9.50215C-0.0610255 9.25808 -0.0610255 8.86234 0.183076 8.61828L7.95605 0.845273C9.08309 -0.281758 10.917 -0.281758 12.0439 0.845273L19.8169 8.61824C20.061 8.86234 20.061 9.25805 19.8169 9.50211C19.6949 9.62418 19.535 9.68519 19.375 9.68519Z" fill="#555555"/>
<path d="M12.5 18.749H7.5C7.1548 18.749 6.875 18.4692 6.875 18.124V12.5772C6.875 11.5002 7.75117 10.624 8.82813 10.624H11.1719C12.2488 10.624 13.125 11.5002 13.125 12.5772V18.124C13.125 18.4692 12.8452 18.749 12.5 18.749ZM8.125 17.499H11.875V12.5772C11.875 12.1895 11.5596 11.874 11.1719 11.874H8.82813C8.44043 11.874 8.125 12.1895 8.125 12.5772V17.499Z" fill="#555555"/>
</svg>
