<svg width="53" height="53" viewBox="0 0 53 53" fill="none" xmlns="http://www.w3.org/2000/svg">
<path d="M49.4497 13.25C54.1834 21.4491 54.1834 31.5509 49.4497 39.75C44.7159 47.9491 35.9675 53 26.5 53C17.0325 53 8.28409 47.9491 3.55033 39.75C-1.18344 31.5509 -1.18344 21.4491 3.55033 13.25C8.2841 5.05087 17.0325 3.35158e-07 26.5 7.48997e-07C35.9675 1.16284e-06 44.7159 5.05087 49.4497 13.25Z" fill="#00D2D7"/>
<path d="M28.3984 21.5521C28.3984 23.6318 26.7052 25.3251 24.6255 25.3251C22.5457 25.3251 20.8525 23.6318 20.8525 21.5521C20.8525 19.4724 22.5457 17.7792 24.6255 17.7792C26.7052 17.7976 28.3984 19.4724 28.3984 21.5521ZM27.1837 21.5521C27.1837 20.135 26.0426 18.9939 24.6255 18.9939C23.2083 18.9939 22.0672 20.135 22.0672 21.5521C22.0672 22.9693 23.2083 24.1104 24.6255 24.1104C26.0426 24.1104 27.1837 22.9693 27.1837 21.5521Z" fill="white"/>
<path d="M41.1163 15.6074V24.644C41.1163 25.4354 39.92 25.4354 39.92 24.644V24.2391C37.5274 26.466 33.5889 24.7728 33.5889 21.4784C33.5889 18.2024 37.5091 16.4908 39.92 18.7177V15.6074C39.92 15.2761 40.1961 15 40.5274 15C40.8587 15 41.1163 15.2761 41.1163 15.6074ZM39.92 21.4784C39.92 20.0612 38.7789 18.9202 37.3618 18.9202C35.9447 18.9202 34.8036 20.0612 34.8036 21.4784C34.8036 22.8955 35.9447 24.0366 37.3618 24.0366C38.7789 24.0366 39.92 22.8955 39.92 21.4784Z" fill="white"/>
<path d="M19.5274 15.6811C19.5274 15.3498 19.2514 15.0738 18.9201 15.0738C18.5888 15.0738 18.3127 15.3498 18.3127 15.6811V19.6197H13.1963V15.6811C13.1963 14.8897 12 14.8897 12 15.6811C12 18.5522 12 26.6502 12 29.2636C12 30.055 13.1963 30.055 13.1963 29.2636V20.7792H18.3127V29.2636C18.3127 30.055 19.509 30.055 19.509 29.2636V22.0122C19.5274 22.0122 19.5274 15.6811 19.5274 15.6811Z" fill="white"/>
<path d="M19.5274 29.2818V35.1528C19.5274 38.6129 15.1656 39.7723 15.1656 38.3184C15.1656 37.9871 15.4416 37.711 15.7729 37.711C17.1717 37.711 18.3127 36.5883 18.3311 35.1896C15.9202 37.4166 12 35.7049 12 32.4289V29.2634C12 28.472 13.1963 28.472 13.1963 29.2634V32.4289C13.1963 33.8461 14.3374 34.9872 15.7545 34.9872C17.1717 34.9872 18.3127 33.8461 18.3127 32.4289V29.2634C18.3311 28.4904 19.5274 28.4904 19.5274 29.2818Z" fill="#262524"/>
<path d="M28.3984 32.4473C28.3984 34.527 26.7052 36.2202 24.6255 36.2202C22.5457 36.2202 20.8525 34.527 20.8525 32.4473C20.8525 30.3676 22.5457 28.6744 24.6255 28.6744C26.7052 28.6928 28.3984 30.3676 28.3984 32.4473ZM27.1837 32.4473C27.1837 31.0302 26.0426 29.8891 24.6255 29.8891C23.2083 29.8891 22.0672 31.0302 22.0672 32.4473C22.0672 33.8644 23.2083 35.0055 24.6255 35.0055C26.0426 35.0055 27.1837 33.8644 27.1837 32.4473Z" fill="#262524"/>
<path d="M35.8889 29.7237C35.8889 27.9385 34.8583 27.4232 33.1835 26.6686C31.5823 25.9324 29.5762 25.0306 29.5762 22.0859V15.7179C29.5762 14.9081 30.8093 14.9081 30.8093 15.7179V22.0859C30.8093 24.2392 32.1528 24.8466 33.6988 25.546C35.3 26.2637 37.1957 27.2207 37.0852 29.7237C37.0668 30.5703 35.8889 30.5151 35.8889 29.7237Z" fill="white"/>
<path d="M37.1034 29.2819V32.4475C37.1034 34.5272 35.4103 36.2204 33.3305 36.2204C31.2508 36.2204 29.5576 34.5272 29.5576 32.4475V29.2819C29.5576 28.4905 30.7539 28.4905 30.7539 29.2819V32.4475C30.7539 33.8647 31.895 35.0057 33.3121 35.0057C34.7293 35.0057 35.8704 33.8647 35.8704 32.4475V29.2819C35.8888 28.4905 37.1034 28.4905 37.1034 29.2819Z" fill="#262524"/>
</svg>
