<svg width="77" height="53" viewBox="0 0 77 53" fill="none" xmlns="http://www.w3.org/2000/svg">
<path d="M1.4 44.6L0.56795 44.0453L0.139819 44.6875L0.652591 45.2644L1.4 44.6ZM3.6 42.2L2.93564 41.4526L2.91367 41.4721L2.89289 41.4929L3.6 42.2ZM6.4 39.4L5.69289 38.6929L5.66082 38.725L5.63178 38.7598L6.4 39.4ZM8.6 36.6L7.84742 35.9415L7.80429 35.9908L7.76795 36.0453L8.6 36.6ZM10.6 33.4L9.66367 33.0489L10.6 33.4ZM6.2 23.6L5.50747 24.3214L5.51513 24.3287L5.52294 24.3359L6.2 23.6ZM4.8 4.8L5.48662 5.52701L5.49701 5.51721L5.50711 5.50711L4.8 4.8ZM24.6 6.2L23.8191 6.82469L24.6 6.2ZM8.2 51.4L7.53564 52.1474L8.13651 52.6815L8.78723 52.2094L8.2 51.4ZM2.23205 45.1547C2.4326 44.8539 3.08676 44.1275 4.30711 42.9071L2.89289 41.4929C1.71324 42.6725 0.900733 43.5461 0.56795 44.0453L2.23205 45.1547ZM4.26436 42.9474C5.48397 41.8633 6.45746 40.8931 7.16822 40.0402L5.63178 38.7598C5.00921 39.5069 4.11603 40.4034 2.93564 41.4526L4.26436 42.9474ZM7.10711 40.1071C7.83792 39.3763 8.61254 38.384 9.43205 37.1547L7.76795 36.0453C6.98746 37.216 6.29541 38.0904 5.69289 38.6929L7.10711 40.1071ZM9.35258 37.2585C10.3465 36.1226 11.0852 34.9542 11.5363 33.7511L9.66367 33.0489C9.31484 33.9791 8.72014 34.9441 7.84742 35.9415L9.35258 37.2585ZM11.5363 33.7511C11.9694 32.5962 12.2 31.4764 12.2 30.4H10.2C10.2 31.1902 10.0306 32.0705 9.66367 33.0489L11.5363 33.7511ZM12.2 30.4C12.2 29.332 11.6165 28.1783 10.7557 27.0076C9.86832 25.8008 8.56621 24.4181 6.87706 22.8641L5.52294 24.3359C7.16713 25.8486 8.36501 27.1325 9.14435 28.1924C9.95018 29.2883 10.2 30.0013 10.2 30.4H12.2ZM6.89253 22.8786C3.70583 19.8194 2.2 16.599 2.2 13.2H0.200001C0.200001 17.2677 2.0275 20.9806 5.50747 24.3214L6.89253 22.8786ZM2.2 13.2C2.2 10.1387 3.28885 7.60269 5.48662 5.52701L4.11338 4.07298C1.51116 6.53064 0.200001 9.59457 0.200001 13.2H2.2ZM5.50711 5.50711C7.71512 3.29909 10.3922 2.2 13.6 2.2V0.199997C9.87447 0.199997 6.68488 1.50092 4.09289 4.0929L5.50711 5.50711ZM13.6 2.2C17.9952 2.2 21.3616 3.75275 23.8191 6.82469L25.3809 5.5753C22.5051 1.98059 18.5381 0.199997 13.6 0.199997V2.2ZM23.8191 6.82469C26.3305 9.96387 27.6 13.7378 27.6 18.2H29.6C29.6 13.3288 28.2029 9.1028 25.3809 5.5753L23.8191 6.82469ZM27.6 18.2C27.6 30.0368 21.057 40.8369 7.61277 50.5906L8.78723 52.2094C22.543 42.2298 29.6 30.8965 29.6 18.2H27.6ZM8.86436 50.6526C6.49365 48.5453 4.25471 46.3064 2.14741 43.9356L0.652591 45.2644C2.81196 47.6936 5.10635 49.9881 7.53564 52.1474L8.86436 50.6526ZM48.4703 44.6L47.6383 44.0453L47.2101 44.6875L47.7229 45.2644L48.4703 44.6ZM50.6703 42.2L50.006 41.4526L49.984 41.4721L49.9632 41.4929L50.6703 42.2ZM53.4703 39.4L52.7632 38.6929L52.7311 38.725L52.7021 38.7598L53.4703 39.4ZM55.6703 36.6L54.9177 35.9415L54.8746 35.9908L54.8383 36.0453L55.6703 36.6ZM57.6703 33.4L56.734 33.0489L57.6703 33.4ZM53.2703 23.6L52.5778 24.3214L52.5854 24.3287L52.5933 24.3359L53.2703 23.6ZM51.8703 4.8L52.5569 5.52701L52.5673 5.51721L52.5774 5.50711L51.8703 4.8ZM71.6703 6.2L70.8894 6.82469L71.6703 6.2ZM55.2703 51.4L54.6059 52.1474L55.2068 52.6815L55.8575 52.2094L55.2703 51.4ZM49.3024 45.1547C49.5029 44.8539 50.1571 44.1275 51.3774 42.9071L49.9632 41.4929C48.7836 42.6725 47.971 43.5461 47.6383 44.0453L49.3024 45.1547ZM51.3347 42.9474C52.5543 41.8633 53.5278 40.8931 54.2385 40.0402L52.7021 38.7598C52.0795 39.5069 51.1863 40.4034 50.006 41.4526L51.3347 42.9474ZM54.1774 40.1071C54.9082 39.3763 55.6829 38.384 56.5024 37.1547L54.8383 36.0453C54.0578 37.216 53.3657 38.0904 52.7632 38.6929L54.1774 40.1071ZM56.4229 37.2585C57.4168 36.1226 58.1555 34.9542 58.6066 33.7511L56.734 33.0489C56.3851 33.9791 55.7905 34.9441 54.9177 35.9415L56.4229 37.2585ZM58.6066 33.7511C59.0397 32.5962 59.2703 31.4764 59.2703 30.4H57.2703C57.2703 31.1902 57.1009 32.0705 56.734 33.0489L58.6066 33.7511ZM59.2703 30.4C59.2703 29.332 58.6868 28.1783 57.826 27.0076C56.9386 25.8008 55.6365 24.4181 53.9474 22.8641L52.5933 24.3359C54.2374 25.8486 55.4353 27.1325 56.2147 28.1924C57.0205 29.2883 57.2703 30.0013 57.2703 30.4H59.2703ZM53.9628 22.8786C50.7761 19.8194 49.2703 16.599 49.2703 13.2H47.2703C47.2703 17.2677 49.0978 20.9806 52.5778 24.3214L53.9628 22.8786ZM49.2703 13.2C49.2703 10.1387 50.3592 7.60269 52.5569 5.52701L51.1837 4.07298C48.5815 6.53064 47.2703 9.59457 47.2703 13.2H49.2703ZM52.5774 5.50711C54.7854 3.29909 57.4625 2.2 60.6703 2.2V0.199997C56.9448 0.199997 53.7552 1.50092 51.1632 4.0929L52.5774 5.50711ZM60.6703 2.2C65.0656 2.2 68.4319 3.75275 70.8894 6.82469L72.4512 5.5753C69.5754 1.98059 65.6084 0.199997 60.6703 0.199997V2.2ZM70.8894 6.82469C73.4008 9.96387 74.6703 13.7378 74.6703 18.2H76.6703C76.6703 13.3288 75.2732 9.1028 72.4512 5.5753L70.8894 6.82469ZM74.6703 18.2C74.6703 30.0368 68.1274 40.8369 54.6831 50.5906L55.8575 52.2094C69.6133 42.2298 76.6703 30.8965 76.6703 18.2H74.6703ZM55.9347 50.6526C53.564 48.5453 51.325 46.3064 49.2177 43.9356L47.7229 45.2644C49.8823 47.6936 52.1767 49.9881 54.6059 52.1474L55.9347 50.6526Z" fill="#262524"/>
</svg>
