<svg width="70" height="35" viewBox="0 0 70 35" fill="none" xmlns="http://www.w3.org/2000/svg">
	<path d="M56 0L56 25C56 30.5228 51.5228 35 46 35L24 35C18.4772 35 14 30.5228 14 25L14 -1.83588e-06L56 0Z" fill="#00D2D7" />
	<g clip-path="url(#clip0_94_12635)">
		<path d="M32.5385 10.2305H28.8462C28.3333 10.2305 27.8974 10.41 27.5384 10.7689C27.1795 11.1279 27 11.5637 27 12.0767V15.7689C27 16.2818 27.1794 16.7176 27.5384 17.0765C27.8974 17.4354 28.3334 17.6149 28.8462 17.6149H31C31.2563 17.6149 31.4743 17.7047 31.6538 17.8842C31.8334 18.0635 31.9231 18.2816 31.9231 18.5381V18.8456C31.9231 19.5251 31.6826 20.1051 31.2019 20.5859C30.7212 21.0666 30.1411 21.307 29.4615 21.307H28.8462C28.6794 21.307 28.5352 21.368 28.4134 21.4897C28.2916 21.6114 28.2307 21.7557 28.2307 21.9224V23.1533C28.2307 23.3197 28.2916 23.4643 28.4134 23.586C28.5353 23.7077 28.6794 23.7688 28.8462 23.7688H29.4615C30.1283 23.7688 30.7645 23.6388 31.3703 23.3793C31.9761 23.1197 32.5001 22.7686 32.9424 22.3263C33.3846 21.8839 33.7356 21.36 33.9952 20.7542C34.2548 20.1485 34.3846 19.5123 34.3846 18.8456V12.0765C34.3846 11.5636 34.2051 11.1278 33.8462 10.7689C33.4873 10.4099 33.0513 10.2305 32.5385 10.2305ZM42.4614 10.7689C42.1025 10.41 41.6666 10.2305 41.1537 10.2305H37.4615C36.9486 10.2305 36.5127 10.41 36.1538 10.7689C35.7949 11.1279 35.6155 11.5637 35.6155 12.0767V15.7689C35.6155 16.2818 35.7949 16.7176 36.1538 17.0765C36.5127 17.4354 36.9486 17.6149 37.4615 17.6149H39.6153C39.8716 17.6149 40.0898 17.7047 40.2693 17.8842C40.4486 18.0636 40.5385 18.2816 40.5385 18.5381V18.8456C40.5385 19.5251 40.2981 20.1051 39.8173 20.5859C39.3365 21.0666 38.7566 21.307 38.0769 21.307H37.4615C37.2948 21.307 37.1505 21.368 37.0288 21.4897C36.907 21.6114 36.846 21.7557 36.846 21.9224V23.1533C36.846 23.3197 36.907 23.4643 37.0288 23.586C37.1505 23.7077 37.2948 23.7688 37.4615 23.7688H38.0769C38.7436 23.7688 39.3797 23.6388 39.9856 23.3793C40.5913 23.1197 41.1152 22.7686 41.5576 22.3263C41.9999 21.8839 42.3511 21.3599 42.6105 20.7542C42.8701 20.1486 43 19.5123 43 18.8456V12.0765C42.9999 11.5636 42.8205 11.1278 42.4614 10.7689Z" fill="white" />
	</g>
	<path fill-rule="evenodd" clip-rule="evenodd" d="M56 -6.11959e-07L56 14C56 6.26801 62.268 -3.37976e-07 70 0L56 -6.11959e-07Z" fill="#00D2D7" />
	<path fill-rule="evenodd" clip-rule="evenodd" d="M14 0L1.22392e-06 -1.22392e-06C7.73199 -5.47967e-07 14 6.26801 14 14L14 0Z" fill="#00D2D7" />
	<defs>
		<clipPath id="clip0_94_12635">
			<rect width="16" height="16" fill="white" transform="translate(27 9)" />
		</clipPath>
	</defs>
</svg>
