<svg width="28" height="28" viewBox="0 0 28 28" fill="none" xmlns="http://www.w3.org/2000/svg">
<g clip-path="url(#clip0)">
<path d="M25.8726 9.14111L19.0428 8.65041C18.9001 8.639 18.7746 8.55341 18.7232 8.41647L16.1214 2.08301C15.7619 1.21002 14.9517 0.667969 14.0045 0.667969C13.0573 0.667969 12.2528 1.21002 11.8877 2.08872L9.2801 8.42788C9.22304 8.55912 9.10322 8.65041 8.96057 8.66182L2.14212 9.15252C1.21777 9.20388 0.430371 9.80869 0.127963 10.6988C-0.180151 11.6003 0.0766103 12.5475 0.806955 13.1694L6.08484 17.5287C6.19325 17.62 6.2446 17.7683 6.21037 17.9053L4.60132 24.4898C4.41303 25.1745 4.54427 25.882 4.96079 26.4355C5.38873 26.9946 6.05631 27.3313 6.75812 27.3313C7.19177 27.3313 7.614 27.2 7.96205 26.9661L13.7306 23.3771C13.8505 23.303 14.0045 23.303 14.1243 23.3771L19.95 26.9547C20.3151 27.2 20.7374 27.3313 21.1653 27.3313C21.8215 27.3313 22.4719 27.0174 22.8942 26.4868C23.3335 25.939 23.4933 25.2258 23.3335 24.5126L21.7188 17.911C21.6845 17.7683 21.7359 17.62 21.8443 17.5287L27.2021 13.158C27.921 12.5418 28.1778 11.5946 27.8754 10.6931C27.5787 9.80299 26.7855 9.19246 25.8726 9.14111ZM26.312 12.0796L20.9656 16.4446C20.4407 16.8725 20.201 17.58 20.3665 18.2419L21.9812 24.8321C22.0668 25.2201 21.9128 25.4883 21.8101 25.6138C21.6503 25.8135 21.4107 25.939 21.171 25.939C21.0227 25.939 20.8743 25.8934 20.7146 25.785L14.8661 22.1903C14.5865 22.0191 14.267 21.9279 13.936 21.9279C13.6051 21.9279 13.2799 22.0191 13.0003 22.196L7.20888 25.7964C6.83801 26.0418 6.3416 25.9333 6.07913 25.591C5.97072 25.4483 5.8566 25.203 5.95931 24.8435L7.57406 18.2362C7.73382 17.58 7.49988 16.8782 6.98065 16.4503L1.71418 12.0967C1.29766 11.7373 1.41177 11.2751 1.45742 11.1439C1.50306 11.0126 1.69136 10.5733 2.23912 10.5447L9.06898 10.054C9.74227 10.0027 10.3243 9.58617 10.581 8.95853L13.1886 2.61936C13.3997 2.10584 13.8733 2.06589 14.0102 2.06589C14.1472 2.06589 14.6207 2.10584 14.8319 2.61936L17.4394 8.95853C17.6962 9.58617 18.2782 10.0027 18.9515 10.054L25.7927 10.5504C26.3291 10.579 26.5174 11.0183 26.563 11.1496C26.5973 11.2694 26.7114 11.7316 26.312 12.0796Z" fill="#949494"/>
</g>
<defs>
<clipPath id="clip0">
<rect width="28" height="28" fill="white"/>
</clipPath>
</defs>
</svg>
