<svg xmlns="http://www.w3.org/2000/svg" viewBox="0 0 28 26.66"><defs><style>.cls-1{fill:#00d2d7;}</style></defs><path class="cls-1" d="M25.87,8.47,19,8a.36.36,0,0,1-.32-.23l-2.6-6.33a2.29,2.29,0,0,0-4.23,0L9.28,7.76A.39.39,0,0,1,9,8l-6.82.49A2.27,2.27,0,0,0,.13,10,2.23,2.23,0,0,0,.81,12.5l5.27,4.36a.39.39,0,0,1,.13.38L4.6,23.82A2.22,2.22,0,0,0,5,25.77a2.28,2.28,0,0,0,1.8.89A2.2,2.2,0,0,0,8,26.3l5.77-3.59a.39.39,0,0,1,.39,0L20,26.29a2.19,2.19,0,0,0,2.94-.47,2.32,2.32,0,0,0,.44-2l-1.61-6.6a.38.38,0,0,1,.12-.38l5.36-4.37a2.29,2.29,0,0,0-1.33-4Z"/></svg>